<svg id="svg" version="1.1" xmlns="http://www.w3.org/2000/svg" xmlns:xlink="http://www.w3.org/1999/xlink" width="400" height="400" viewBox="0, 0, 400,400"><g id="svgg"><path id="path0" d="M276.400 61.582 C 267.355 62.913,259.843 69.285,256.436 78.516 L 255.375 81.389 252.187 81.812 C 247.117 82.484,243.030 85.194,240.978 89.244 C 239.283 92.588,238.775 92.399,249.500 92.404 C 306.453 92.427,328.527 92.369,328.810 92.194 C 329.597 91.708,328.309 86.212,326.673 83.074 C 322.736 75.522,313.631 71.431,305.200 73.428 L 302.600 74.043 301.800 72.977 C 295.341 64.368,285.986 60.171,276.400 61.582 M83.417 91.801 C 73.878 93.786,66.357 101.168,63.756 111.100 C 63.674 111.414,62.899 111.600,61.675 111.600 C 55.803 111.600,49.546 116.123,48.258 121.300 L 47.985 122.400 57.392 122.407 C 62.567 122.412,78.410 122.415,92.600 122.415 C 106.790 122.415,122.651 122.412,127.846 122.407 L 137.292 122.400 137.027 120.100 C 135.687 108.459,123.744 100.365,112.639 103.572 C 110.726 104.124,110.661 104.115,109.933 103.169 C 102.485 93.499,93.587 89.684,83.417 91.801 M324.800 175.581 C 315.396 177.364,304.800 187.125,304.800 194.004 C 304.800 195.101,304.007 195.472,301.039 195.764 C 295.348 196.322,288.800 201.662,288.800 205.744 C 288.800 206.476,377.314 206.786,377.766 206.055 C 377.883 205.865,377.781 204.560,377.538 203.155 C 375.612 192.004,364.822 184.858,353.778 187.420 C 352.308 187.760,351.066 187.985,351.018 187.920 C 350.969 187.854,350.373 186.976,349.694 185.970 C 344.638 178.484,333.659 173.902,324.800 175.581 M56.618 207.443 C 48.309 209.452,38.400 219.330,38.400 225.604 C 38.400 226.716,37.579 227.097,34.800 227.272 C 29.123 227.631,21.286 234.121,22.551 237.417 C 22.809 238.089,110.097 238.306,111.153 237.637 C 112.825 236.578,109.637 228.182,106.121 224.384 C 101.240 219.112,91.542 216.751,85.530 219.371 C 85.048 219.581,84.658 219.345,84.140 218.531 C 78.398 209.502,67.035 204.924,56.618 207.443 " stroke="none" fill="#f1f9fa" fill-rule="evenodd"></path><path id="path1" d="M178.802 0.275 C 176.933 0.363,175.232 0.608,175.022 0.818 C 174.812 1.028,173.416 1.200,171.920 1.200 C 170.373 1.200,169.200 1.373,169.200 1.600 C 169.200 1.822,168.141 2.000,166.824 2.000 C 165.517 2.000,164.336 2.180,164.200 2.400 C 164.064 2.620,163.063 2.800,161.976 2.800 C 160.889 2.800,160.000 2.980,160.000 3.200 C 160.000 3.420,159.201 3.600,158.224 3.600 C 157.247 3.600,156.336 3.780,156.200 4.000 C 156.064 4.220,155.344 4.400,154.600 4.400 C 153.856 4.400,153.136 4.580,153.000 4.800 C 152.864 5.020,152.043 5.200,151.176 5.200 C 150.309 5.200,149.600 5.380,149.600 5.600 C 149.600 5.820,148.970 6.000,148.200 6.000 C 147.430 6.000,146.800 6.180,146.800 6.400 C 146.800 6.620,146.170 6.800,145.400 6.800 C 144.630 6.800,144.000 6.960,144.000 7.155 C 144.000 7.350,143.505 7.609,142.900 7.730 C 141.927 7.925,140.390 8.287,137.800 8.930 C 137.360 9.040,136.550 9.303,136.000 9.517 C 135.450 9.730,134.867 9.931,134.704 9.963 C 133.528 10.197,129.938 11.496,127.616 12.528 C 126.855 12.867,126.090 13.056,125.916 12.948 C 125.742 12.841,125.600 12.943,125.600 13.176 C 125.600 13.409,125.240 13.600,124.800 13.600 C 124.360 13.600,124.000 13.780,124.000 14.000 C 124.000 14.220,123.550 14.400,123.000 14.400 C 122.450 14.400,122.000 14.580,122.000 14.800 C 122.000 15.020,121.550 15.200,121.000 15.200 C 120.450 15.200,120.000 15.380,120.000 15.600 C 120.000 15.820,119.640 16.000,119.200 16.000 C 118.760 16.000,118.400 16.180,118.400 16.400 C 118.400 16.620,118.128 16.800,117.795 16.800 C 117.462 16.800,116.877 16.973,116.495 17.184 C 116.113 17.395,114.540 18.151,113.000 18.864 C 111.460 19.577,110.140 20.304,110.067 20.480 C 109.993 20.656,109.588 20.800,109.167 20.800 C 108.745 20.800,108.400 20.980,108.400 21.200 C 108.400 21.420,108.040 21.600,107.600 21.600 C 107.160 21.600,106.800 21.780,106.800 22.000 C 106.800 22.220,106.440 22.400,106.000 22.400 C 105.560 22.400,105.200 22.580,105.200 22.800 C 105.200 23.020,104.964 23.200,104.675 23.200 C 104.387 23.200,103.764 23.560,103.292 24.000 C 102.820 24.440,102.306 24.800,102.151 24.800 C 101.543 24.800,98.800 26.172,98.800 26.477 C 98.800 26.655,98.440 26.800,98.000 26.800 C 97.560 26.800,97.200 26.980,97.200 27.200 C 97.200 27.420,97.013 27.600,96.784 27.600 C 96.310 27.600,93.869 29.245,93.667 29.700 C 93.593 29.865,93.254 30.000,92.914 30.000 C 92.573 30.000,92.003 30.316,91.647 30.703 C 91.291 31.089,90.505 31.660,89.900 31.970 C 89.295 32.281,88.800 32.685,88.800 32.868 C 88.800 33.050,88.480 33.200,88.088 33.200 C 87.697 33.200,87.117 33.560,86.800 34.000 C 86.483 34.440,85.943 34.800,85.600 34.800 C 85.257 34.800,84.717 35.160,84.400 35.600 C 84.083 36.040,83.620 36.400,83.371 36.400 C 83.122 36.400,82.354 36.940,81.663 37.600 C 80.972 38.260,80.252 38.800,80.063 38.800 C 79.874 38.800,79.154 39.340,78.463 40.000 C 77.772 40.660,77.108 41.200,76.987 41.200 C 76.736 41.200,76.350 41.505,74.458 43.199 C 73.719 43.859,72.958 44.400,72.766 44.400 C 72.574 44.400,71.427 45.390,70.217 46.600 C 69.007 47.810,67.828 48.800,67.596 48.800 C 67.364 48.800,65.194 50.825,62.774 53.300 C 57.454 58.740,58.594 57.599,53.700 62.373 C 51.445 64.573,49.600 66.543,49.600 66.751 C 49.600 66.960,48.520 68.227,47.200 69.568 C 45.880 70.908,44.800 72.149,44.800 72.324 C 44.800 72.500,44.171 73.354,43.402 74.222 C 41.431 76.449,41.200 76.738,41.200 76.987 C 41.200 77.108,40.660 77.772,40.000 78.463 C 39.340 79.154,38.800 79.874,38.800 80.063 C 38.800 80.252,38.260 80.972,37.600 81.663 C 36.940 82.354,36.400 83.122,36.400 83.371 C 36.400 83.620,36.040 84.083,35.600 84.400 C 35.160 84.717,34.800 85.257,34.800 85.600 C 34.800 85.943,34.440 86.483,34.000 86.800 C 33.560 87.117,33.200 87.657,33.200 88.000 C 33.200 88.343,32.840 88.883,32.400 89.200 C 31.960 89.517,31.600 90.057,31.600 90.400 C 31.600 90.743,31.240 91.283,30.800 91.600 C 30.360 91.917,30.000 92.329,30.000 92.516 C 30.000 92.703,29.460 93.641,28.800 94.600 C 28.140 95.559,27.600 96.522,27.600 96.739 C 27.600 96.956,27.465 97.193,27.300 97.267 C 26.779 97.498,25.203 100.670,25.474 100.941 C 25.617 101.083,25.523 101.200,25.267 101.200 C 25.010 101.200,24.800 101.560,24.800 102.000 C 24.800 102.440,24.642 102.800,24.449 102.800 C 24.255 102.800,23.873 103.340,23.600 104.000 C 23.327 104.660,22.945 105.200,22.751 105.200 C 22.558 105.200,22.400 105.560,22.400 106.000 C 22.400 106.440,22.220 106.800,22.000 106.800 C 21.780 106.800,21.600 107.160,21.600 107.600 C 21.600 108.040,21.454 108.400,21.275 108.400 C 21.096 108.400,20.702 109.030,20.400 109.800 C 20.098 110.570,19.704 111.200,19.525 111.200 C 19.346 111.200,19.200 111.560,19.200 112.000 C 19.200 112.440,19.020 112.800,18.800 112.800 C 18.580 112.800,18.400 113.065,18.400 113.388 C 18.400 113.711,18.040 114.617,17.600 115.400 C 17.160 116.183,16.800 117.179,16.800 117.612 C 16.800 118.045,16.620 118.400,16.400 118.400 C 16.180 118.400,16.000 118.760,16.000 119.200 C 16.000 119.640,15.820 120.000,15.600 120.000 C 15.380 120.000,15.200 120.360,15.200 120.800 C 15.200 121.240,15.059 121.600,14.887 121.600 C 14.715 121.600,14.534 122.095,14.484 122.700 C 14.434 123.305,14.215 123.860,13.997 123.933 C 13.778 124.007,13.600 124.412,13.600 124.833 C 13.600 125.255,13.420 125.600,13.200 125.600 C 12.980 125.600,12.800 126.050,12.800 126.600 C 12.800 127.150,12.620 127.600,12.400 127.600 C 12.180 127.600,12.000 128.140,12.000 128.800 C 12.000 129.460,11.820 130.000,11.600 130.000 C 11.380 130.000,11.200 130.349,11.200 130.776 C 11.200 131.203,11.020 131.664,10.800 131.800 C 10.580 131.936,10.400 132.476,10.400 133.000 C 10.400 133.524,10.220 134.064,10.000 134.200 C 9.780 134.336,9.600 134.857,9.600 135.357 C 9.600 135.857,9.475 136.392,9.322 136.545 C 9.027 136.840,8.911 137.301,8.532 139.700 C 8.401 140.525,8.138 141.200,7.947 141.200 C 7.756 141.200,7.600 141.830,7.600 142.600 C 7.600 143.370,7.420 144.000,7.200 144.000 C 6.980 144.000,6.800 144.540,6.800 145.200 C 6.800 145.860,6.620 146.400,6.400 146.400 C 6.180 146.400,6.000 147.120,6.000 148.000 C 6.000 148.880,5.820 149.600,5.600 149.600 C 5.380 149.600,5.200 150.320,5.200 151.200 C 5.200 152.080,5.020 152.800,4.800 152.800 C 4.580 152.800,4.400 153.509,4.400 154.376 C 4.400 155.243,4.220 156.064,4.000 156.200 C 3.780 156.336,3.600 157.146,3.600 158.000 C 3.600 158.854,3.420 159.664,3.200 159.800 C 2.980 159.936,2.800 160.926,2.800 162.000 C 2.800 163.074,2.620 164.064,2.400 164.200 C 2.180 164.336,2.000 165.517,2.000 166.824 C 2.000 168.141,1.822 169.200,1.600 169.200 C 1.372 169.200,1.200 170.389,1.200 171.967 C 1.200 173.824,1.036 174.788,0.700 174.900 C -0.032 175.144,-0.032 224.856,0.700 225.100 C 1.035 225.212,1.200 226.171,1.200 228.010 C 1.200 229.518,1.380 230.864,1.600 231.000 C 1.820 231.136,2.000 232.216,2.000 233.400 C 2.000 234.584,2.180 235.664,2.400 235.800 C 2.620 235.936,2.800 236.937,2.800 238.024 C 2.800 239.111,2.980 240.000,3.200 240.000 C 3.420 240.000,3.600 240.810,3.600 241.800 C 3.600 242.790,3.780 243.600,4.000 243.600 C 4.220 243.600,4.400 244.410,4.400 245.400 C 4.400 246.390,4.580 247.200,4.800 247.200 C 5.020 247.200,5.200 247.920,5.200 248.800 C 5.200 249.680,5.380 250.400,5.600 250.400 C 5.820 250.400,6.000 251.131,6.000 252.024 C 6.000 253.004,6.158 253.549,6.400 253.400 C 6.638 253.253,6.800 253.729,6.800 254.576 C 6.800 255.359,6.980 256.000,7.200 256.000 C 7.420 256.000,7.600 256.630,7.600 257.400 C 7.600 258.170,7.756 258.800,7.947 258.800 C 8.138 258.800,8.401 259.475,8.532 260.300 C 8.911 262.699,9.027 263.160,9.322 263.455 C 9.475 263.608,9.600 264.143,9.600 264.643 C 9.600 265.143,9.780 265.664,10.000 265.800 C 10.220 265.936,10.400 266.476,10.400 267.000 C 10.400 267.524,10.580 268.064,10.800 268.200 C 11.020 268.336,11.200 268.797,11.200 269.224 C 11.200 269.651,11.380 270.000,11.600 270.000 C 11.820 270.000,12.000 270.439,12.000 270.976 C 12.000 271.513,12.180 272.064,12.400 272.200 C 12.620 272.336,12.800 272.887,12.800 273.424 C 12.800 273.961,12.980 274.400,13.200 274.400 C 13.420 274.400,13.600 274.760,13.600 275.200 C 13.600 275.640,13.780 276.000,14.000 276.000 C 14.220 276.000,14.400 276.439,14.400 276.976 C 14.400 277.513,14.580 278.064,14.800 278.200 C 15.020 278.336,15.200 278.797,15.200 279.224 C 15.200 279.651,15.380 280.000,15.600 280.000 C 15.820 280.000,16.000 280.360,16.000 280.800 C 16.000 281.240,16.180 281.600,16.400 281.600 C 16.620 281.600,16.800 281.949,16.800 282.376 C 16.800 282.803,16.980 283.264,17.200 283.400 C 17.420 283.536,17.600 284.087,17.600 284.624 C 17.600 285.161,17.780 285.600,18.000 285.600 C 18.220 285.600,18.400 285.960,18.400 286.400 C 18.400 286.840,18.580 287.200,18.800 287.200 C 19.020 287.200,19.200 287.560,19.200 288.000 C 19.200 288.440,19.346 288.800,19.525 288.800 C 19.704 288.800,20.098 289.430,20.400 290.200 C 20.702 290.970,21.096 291.600,21.275 291.600 C 21.454 291.600,21.600 291.960,21.600 292.400 C 21.600 292.840,21.736 293.200,21.902 293.200 C 22.069 293.200,22.424 293.695,22.692 294.300 L 23.178 295.400 50.989 295.292 L 78.800 295.184 78.778 296.092 C 78.766 296.591,78.256 298.980,77.644 301.400 C 76.218 307.042,76.082 306.800,80.694 306.800 L 84.502 306.800 84.242 308.900 C 83.014 318.826,83.494 319.024,87.919 310.414 C 92.037 302.400,92.050 302.859,87.700 302.716 C 83.802 302.587,83.607 302.351,84.970 299.400 C 85.274 298.740,85.802 297.525,86.141 296.700 L 86.759 295.200 114.780 295.200 C 132.531 295.200,142.800 295.342,142.800 295.586 C 142.800 295.799,142.253 298.235,141.585 301.000 C 140.122 307.050,140.000 306.800,144.400 306.800 C 148.484 306.800,148.593 306.886,148.055 309.706 C 146.320 318.816,147.348 318.950,151.859 310.198 C 155.973 302.216,155.992 302.800,151.624 302.800 C 149.657 302.800,147.943 302.632,147.816 302.426 C 147.620 302.108,149.274 297.912,150.349 296.000 C 150.637 295.489,152.637 295.384,163.809 295.294 C 171.642 295.231,177.122 295.031,177.405 294.796 C 177.729 294.527,177.963 291.476,178.149 285.102 C 178.451 274.727,178.947 259.994,179.620 241.400 C 180.358 221.003,180.632 209.840,180.409 209.128 C 180.112 208.174,160.722 188.660,158.665 187.245 C 154.447 184.343,155.162 184.400,123.134 184.400 L 94.400 184.400 94.400 177.800 L 94.400 171.200 118.333 171.200 C 131.497 171.200,142.373 171.094,142.502 170.964 C 142.632 170.835,140.232 168.270,137.168 165.264 C 134.105 162.259,131.599 159.610,131.599 159.378 C 131.600 159.146,133.658 156.925,136.173 154.444 L 140.746 149.932 160.817 170.002 C 172.457 181.640,181.038 189.922,181.243 189.717 C 181.438 189.522,181.783 183.612,182.011 176.582 C 182.474 162.281,182.999 146.600,183.585 129.600 C 185.018 87.997,185.038 89.766,183.105 85.600 C 182.020 83.263,180.407 81.502,167.149 68.188 C 159.037 60.042,152.400 53.155,152.400 52.885 C 152.400 52.615,154.405 50.401,156.855 47.963 L 161.309 43.532 176.955 59.144 C 194.673 76.826,194.396 76.614,199.800 76.570 C 205.085 76.526,205.593 76.160,219.202 62.578 C 225.694 56.100,231.187 50.800,231.409 50.800 C 231.867 50.800,240.800 59.653,240.800 60.107 C 240.800 60.269,235.889 65.306,229.888 71.301 C 213.696 87.473,214.958 82.584,216.384 123.600 C 216.587 129.430,216.873 138.880,217.021 144.600 C 217.168 150.320,217.422 155.145,217.586 155.322 C 217.750 155.499,225.915 147.624,235.731 137.822 C 245.547 128.020,253.813 120.000,254.099 120.000 C 254.819 120.000,260.400 125.680,260.400 126.413 C 260.400 126.740,256.528 130.875,251.796 135.603 L 243.193 144.200 263.696 144.400 L 284.200 144.600 284.313 149.300 L 284.425 154.000 262.842 154.000 C 232.286 154.000,233.960 153.603,224.254 163.155 L 217.907 169.400 218.174 176.000 C 218.833 192.320,219.306 205.296,220.399 237.000 C 220.627 243.600,220.995 254.220,221.216 260.600 C 221.438 266.980,221.750 277.078,221.910 283.039 C 222.131 291.298,222.331 294.036,222.749 294.539 C 223.243 295.134,224.959 295.200,239.982 295.200 C 249.159 295.200,256.760 295.294,256.875 295.408 C 257.073 295.606,256.013 300.386,255.185 303.028 C 254.973 303.704,254.800 304.829,254.800 305.528 L 254.800 306.800 258.600 306.800 C 263.020 306.800,262.709 306.259,261.825 312.400 C 261.292 316.104,261.486 317.474,262.412 316.548 C 262.904 316.056,269.200 303.612,269.200 303.133 C 269.200 302.950,267.591 302.800,265.624 302.800 C 263.657 302.800,261.943 302.632,261.816 302.426 C 261.620 302.108,263.275 297.910,264.349 296.000 C 264.718 295.345,327.422 294.850,328.048 295.498 C 328.208 295.664,327.818 297.960,327.179 300.600 C 325.544 307.360,325.302 306.800,329.854 306.800 L 333.707 306.800 333.455 309.500 C 333.316 310.985,333.087 313.258,332.947 314.551 C 332.548 318.237,333.398 317.341,337.093 310.181 C 341.193 302.235,341.219 302.800,336.750 302.800 L 333.100 302.800 333.325 301.700 C 333.448 301.095,334.104 299.380,334.783 297.889 L 336.018 295.179 356.358 295.289 C 377.402 295.404,377.600 295.390,377.600 293.817 C 377.600 293.478,377.780 293.200,378.000 293.200 C 378.220 293.200,378.400 292.840,378.400 292.400 C 378.400 291.960,378.546 291.600,378.725 291.600 C 378.904 291.600,379.298 290.970,379.600 290.200 C 379.902 289.430,380.296 288.800,380.475 288.800 C 380.654 288.800,380.800 288.440,380.800 288.000 C 380.800 287.560,380.980 287.200,381.200 287.200 C 381.420 287.200,381.600 286.840,381.600 286.400 C 381.600 285.960,381.780 285.600,382.000 285.600 C 382.220 285.600,382.400 285.161,382.400 284.624 C 382.400 284.087,382.580 283.536,382.800 283.400 C 383.020 283.264,383.200 282.803,383.200 282.376 C 383.200 281.949,383.380 281.600,383.600 281.600 C 383.820 281.600,384.000 281.240,384.000 280.800 C 384.000 280.360,384.180 280.000,384.400 280.000 C 384.620 280.000,384.800 279.640,384.800 279.200 C 384.800 278.760,384.941 278.400,385.113 278.400 C 385.285 278.400,385.466 277.905,385.516 277.300 C 385.566 276.695,385.785 276.140,386.003 276.067 C 386.222 275.993,386.400 275.588,386.400 275.167 C 386.400 274.745,386.580 274.400,386.800 274.400 C 387.020 274.400,387.200 273.950,387.200 273.400 C 387.200 272.850,387.380 272.400,387.600 272.400 C 387.820 272.400,388.000 271.860,388.000 271.200 C 388.000 270.540,388.180 270.000,388.400 270.000 C 388.620 270.000,388.800 269.651,388.800 269.224 C 388.800 268.797,388.980 268.336,389.200 268.200 C 389.420 268.064,389.600 267.601,389.600 267.171 C 389.600 266.741,389.760 266.077,389.957 265.695 C 390.507 264.621,391.600 260.628,391.600 259.688 C 391.600 259.226,391.780 258.736,392.000 258.600 C 392.220 258.464,392.400 257.823,392.400 257.176 C 392.400 256.529,392.580 256.000,392.800 256.000 C 393.020 256.000,393.200 255.460,393.200 254.800 C 393.200 254.140,393.380 253.600,393.600 253.600 C 393.820 253.600,394.000 252.880,394.000 252.000 C 394.000 251.120,394.180 250.400,394.400 250.400 C 394.620 250.400,394.800 249.680,394.800 248.800 C 394.800 247.920,394.980 247.200,395.200 247.200 C 395.420 247.200,395.600 246.390,395.600 245.400 C 395.600 244.410,395.780 243.600,396.000 243.600 C 396.220 243.600,396.400 242.790,396.400 241.800 C 396.400 240.810,396.580 240.000,396.800 240.000 C 397.020 240.000,397.200 239.010,397.200 237.800 C 397.200 236.590,397.380 235.600,397.600 235.600 C 397.822 235.600,398.000 234.533,398.000 233.200 C 398.000 231.867,398.178 230.800,398.400 230.800 C 398.628 230.800,398.800 229.611,398.800 228.033 C 398.800 226.176,398.964 225.212,399.300 225.100 C 399.693 224.969,399.800 219.591,399.800 200.000 C 399.800 180.409,399.693 175.031,399.300 174.900 C 398.964 174.788,398.800 173.824,398.800 171.967 C 398.800 170.389,398.628 169.200,398.400 169.200 C 398.178 169.200,398.000 168.141,398.000 166.824 C 398.000 165.517,397.820 164.336,397.600 164.200 C 397.380 164.064,397.200 163.063,397.200 161.976 C 397.200 160.889,397.020 160.000,396.800 160.000 C 396.580 160.000,396.400 159.201,396.400 158.224 C 396.400 157.247,396.220 156.336,396.000 156.200 C 395.780 156.064,395.600 155.243,395.600 154.376 C 395.600 153.509,395.420 152.800,395.200 152.800 C 394.980 152.800,394.800 152.080,394.800 151.200 C 394.800 150.320,394.620 149.600,394.400 149.600 C 394.180 149.600,394.000 148.880,394.000 148.000 C 394.000 147.120,393.820 146.400,393.600 146.400 C 393.380 146.400,393.200 145.860,393.200 145.200 C 393.200 144.540,393.020 144.000,392.800 144.000 C 392.580 144.000,392.400 143.370,392.400 142.600 C 392.400 141.830,392.220 141.200,392.000 141.200 C 391.780 141.200,391.600 140.811,391.600 140.335 C 391.600 139.376,390.514 135.391,389.957 134.305 C 389.760 133.923,389.600 133.336,389.600 133.000 C 389.600 132.664,389.441 132.077,389.247 131.695 C 389.052 131.313,388.671 130.460,388.400 129.800 C 388.129 129.140,387.748 128.287,387.553 127.905 C 387.359 127.523,387.200 126.848,387.200 126.405 C 387.200 125.962,387.020 125.600,386.800 125.600 C 386.580 125.600,386.400 125.255,386.400 124.833 C 386.400 124.412,386.222 124.007,386.003 123.933 C 385.785 123.860,385.566 123.305,385.516 122.700 C 385.466 122.095,385.285 121.600,385.113 121.600 C 384.941 121.600,384.800 121.240,384.800 120.800 C 384.800 120.360,384.620 120.000,384.400 120.000 C 384.180 120.000,384.000 119.640,384.000 119.200 C 384.000 118.760,383.820 118.400,383.600 118.400 C 383.380 118.400,383.200 118.045,383.200 117.612 C 383.200 117.179,382.840 116.183,382.400 115.400 C 381.960 114.617,381.600 113.711,381.600 113.388 C 381.600 113.065,381.420 112.800,381.200 112.800 C 380.980 112.800,380.800 112.440,380.800 112.000 C 380.800 111.560,380.654 111.200,380.475 111.200 C 380.296 111.200,379.902 110.570,379.600 109.800 C 379.298 109.030,378.904 108.400,378.725 108.400 C 378.546 108.400,378.400 108.040,378.400 107.600 C 378.400 107.160,378.220 106.800,378.000 106.800 C 377.780 106.800,377.600 106.440,377.600 106.000 C 377.600 105.560,377.442 105.200,377.249 105.200 C 377.055 105.200,376.673 104.660,376.400 104.000 C 376.127 103.340,375.745 102.800,375.551 102.800 C 375.358 102.800,375.200 102.440,375.200 102.000 C 375.200 101.560,375.020 101.200,374.800 101.200 C 374.580 101.200,374.436 101.065,374.479 100.900 C 374.623 100.354,373.953 98.800,373.573 98.800 C 373.368 98.800,373.200 98.440,373.200 98.000 C 373.200 97.560,373.020 97.200,372.800 97.200 C 372.580 97.200,372.400 96.952,372.400 96.649 C 372.400 96.346,372.127 95.871,371.793 95.594 C 371.459 95.317,370.883 94.440,370.513 93.645 C 370.143 92.850,369.517 91.909,369.120 91.553 C 368.724 91.197,368.400 90.652,368.400 90.341 C 368.400 90.031,368.040 89.517,367.600 89.200 C 367.160 88.883,366.800 88.343,366.800 88.000 C 366.800 87.657,366.440 87.117,366.000 86.800 C 365.560 86.483,365.200 85.985,365.200 85.694 C 365.200 85.402,364.750 84.714,364.200 84.164 C 363.650 83.614,363.200 83.000,363.200 82.800 C 363.200 82.600,362.750 81.986,362.200 81.436 C 361.650 80.886,361.200 80.286,361.200 80.102 C 361.200 79.918,360.480 78.972,359.600 78.000 C 358.720 77.028,358.000 76.109,358.000 75.958 C 358.000 75.808,357.460 75.107,356.800 74.400 C 356.140 73.693,355.600 72.966,355.600 72.784 C 355.600 72.602,354.700 71.529,353.600 70.400 C 352.500 69.271,351.600 68.190,351.600 67.999 C 351.600 67.808,349.539 65.615,347.020 63.126 C 344.501 60.637,342.232 58.394,341.979 58.141 C 341.725 57.889,339.644 55.774,337.354 53.441 C 335.064 51.109,333.041 49.200,332.858 49.200 C 332.674 49.200,331.502 48.210,330.253 47.000 C 329.004 45.790,327.841 44.800,327.669 44.800 C 327.497 44.800,326.646 44.171,325.778 43.402 C 323.551 41.431,323.262 41.200,323.013 41.200 C 322.892 41.200,322.228 40.660,321.537 40.000 C 320.846 39.340,320.120 38.800,319.922 38.800 C 319.725 38.800,319.114 38.350,318.564 37.800 C 318.014 37.250,317.420 36.800,317.244 36.800 C 317.068 36.800,316.401 36.350,315.762 35.800 C 315.123 35.251,314.415 34.801,314.188 34.800 C 313.962 34.800,313.517 34.440,313.200 34.000 C 312.883 33.560,312.343 33.200,312.000 33.200 C 311.657 33.200,311.117 32.840,310.800 32.400 C 310.483 31.960,309.943 31.600,309.600 31.600 C 309.257 31.600,308.717 31.240,308.400 30.800 C 308.083 30.360,307.686 30.000,307.518 30.000 C 307.158 30.000,303.092 27.563,302.800 27.173 C 302.506 26.779,298.499 24.800,297.997 24.800 C 297.760 24.800,297.180 24.440,296.708 24.000 C 296.236 23.560,295.613 23.200,295.325 23.200 C 295.036 23.200,294.800 23.020,294.800 22.800 C 294.800 22.580,294.440 22.400,294.000 22.400 C 293.560 22.400,293.200 22.220,293.200 22.000 C 293.200 21.780,292.855 21.600,292.433 21.600 C 292.012 21.600,291.607 21.465,291.533 21.300 C 291.338 20.860,288.022 19.200,287.339 19.200 C 287.016 19.200,286.864 19.020,287.000 18.800 C 287.136 18.580,286.958 18.400,286.604 18.400 C 286.251 18.400,285.216 18.040,284.306 17.600 C 283.395 17.160,282.414 16.800,282.125 16.800 C 281.836 16.800,281.600 16.620,281.600 16.400 C 281.600 16.180,281.240 16.000,280.800 16.000 C 280.360 16.000,280.000 15.820,280.000 15.600 C 280.000 15.380,279.640 15.200,279.200 15.200 C 278.760 15.200,278.400 15.020,278.400 14.800 C 278.400 14.580,277.860 14.400,277.200 14.400 C 276.540 14.400,276.000 14.220,276.000 14.000 C 276.000 13.780,275.640 13.600,275.200 13.600 C 274.760 13.600,274.400 13.409,274.400 13.176 C 274.400 12.943,274.258 12.841,274.084 12.948 C 273.910 13.056,273.145 12.867,272.384 12.528 C 270.621 11.745,269.739 11.397,268.000 10.800 C 267.230 10.536,266.240 10.177,265.800 10.003 C 264.000 9.292,260.649 8.400,259.778 8.400 C 259.266 8.400,258.736 8.220,258.600 8.000 C 258.464 7.780,257.823 7.600,257.176 7.600 C 256.529 7.600,256.000 7.420,256.000 7.200 C 256.000 6.980,255.471 6.800,254.824 6.800 C 254.177 6.800,253.536 6.620,253.400 6.400 C 253.264 6.180,252.533 6.000,251.776 6.000 C 251.019 6.000,250.400 5.820,250.400 5.600 C 250.400 5.380,249.680 5.200,248.800 5.200 C 247.920 5.200,247.200 5.020,247.200 4.800 C 247.200 4.580,246.401 4.400,245.424 4.400 C 244.447 4.400,243.536 4.220,243.400 4.000 C 243.264 3.780,242.454 3.600,241.600 3.600 C 240.746 3.600,239.936 3.420,239.800 3.200 C 239.664 2.980,238.764 2.800,237.800 2.800 C 236.836 2.800,235.936 2.620,235.800 2.400 C 235.664 2.180,234.483 2.000,233.176 2.000 C 231.859 2.000,230.800 1.822,230.800 1.600 C 230.800 1.373,229.627 1.200,228.080 1.200 C 226.480 1.200,225.160 1.000,224.874 0.714 C 224.393 0.233,187.204 -0.121,178.802 0.275 M287.697 62.457 C 293.013 64.190,297.996 67.906,301.800 72.977 L 302.600 74.043 305.200 73.428 C 313.631 71.431,322.736 75.522,326.673 83.074 C 328.309 86.212,329.597 91.708,328.810 92.194 C 328.527 92.369,306.453 92.427,249.500 92.404 C 238.775 92.399,239.283 92.588,240.978 89.244 C 243.030 85.194,247.117 82.484,252.187 81.812 L 255.375 81.389 256.436 78.516 C 261.319 65.287,274.929 58.295,287.697 62.457 M96.182 92.581 C 102.072 94.558,105.092 96.884,109.933 103.169 C 110.661 104.115,110.726 104.124,112.639 103.572 C 123.744 100.365,135.687 108.459,137.027 120.100 L 137.292 122.400 127.846 122.407 C 122.651 122.412,106.790 122.415,92.600 122.415 C 78.410 122.415,62.567 122.412,57.392 122.407 L 47.985 122.400 48.258 121.300 C 49.546 116.123,55.803 111.600,61.675 111.600 C 62.899 111.600,63.674 111.414,63.756 111.100 C 67.629 96.314,82.315 87.926,96.182 92.581 M336.000 176.226 C 341.223 177.772,346.872 181.792,349.694 185.970 C 350.373 186.976,350.969 187.854,351.018 187.920 C 351.066 187.985,352.308 187.760,353.778 187.420 C 364.822 184.858,375.612 192.004,377.538 203.155 C 377.781 204.560,377.883 205.865,377.766 206.055 C 377.314 206.786,288.800 206.476,288.800 205.744 C 288.800 201.662,295.348 196.322,301.039 195.764 C 304.007 195.472,304.800 195.101,304.800 194.004 C 304.800 193.621,305.194 192.338,305.675 191.153 C 310.522 179.229,323.901 172.643,336.000 176.226 M68.616 207.415 C 74.991 209.061,80.732 213.171,84.140 218.531 C 84.658 219.345,85.048 219.581,85.530 219.371 C 91.542 216.751,101.240 219.112,106.121 224.384 C 109.637 228.182,112.825 236.578,111.153 237.637 C 110.097 238.306,22.809 238.089,22.551 237.417 C 21.286 234.121,29.123 227.631,34.800 227.272 C 37.579 227.097,38.400 226.716,38.400 225.604 C 38.400 223.043,42.543 216.224,45.998 213.097 C 51.823 207.826,61.140 205.486,68.616 207.415 " stroke="none" fill="#fbbb13" fill-rule="evenodd"></path><path id="path2" d="M156.980 48.420 L 152.624 52.790 167.440 67.695 C 183.183 83.532,183.720 84.192,184.855 89.111 C 185.339 91.207,185.238 96.193,183.982 132.200 C 183.513 145.654,182.908 163.686,182.406 179.200 C 182.202 185.470,182.028 190.645,182.018 190.700 C 181.878 191.472,177.962 187.765,161.000 170.800 C 150.002 159.800,140.865 150.800,140.697 150.800 C 140.528 150.800,138.486 152.704,136.159 155.032 L 131.927 159.264 137.661 165.048 C 142.236 169.662,143.275 170.908,142.798 171.210 C 142.440 171.436,132.680 171.590,118.500 171.594 L 94.800 171.600 94.800 177.800 L 94.800 184.000 123.500 184.004 C 154.163 184.009,153.605 183.976,157.647 186.013 C 159.670 187.032,180.716 207.721,181.032 209.000 C 181.140 209.440,181.032 215.830,180.791 223.200 C 179.624 258.891,178.902 279.992,178.555 288.500 L 178.282 295.200 189.541 295.200 L 200.800 295.200 200.800 314.576 C 200.800 325.233,200.935 334.032,201.100 334.129 C 201.265 334.226,234.340 334.433,274.599 334.589 C 322.565 334.776,347.883 335.011,348.045 335.273 C 348.313 335.706,350.400 333.832,350.400 333.158 C 350.400 332.935,350.580 332.864,350.800 333.000 C 351.020 333.136,351.200 333.057,351.200 332.824 C 351.200 332.030,351.362 331.799,353.262 329.900 C 354.307 328.855,354.968 328.000,354.732 328.000 C 354.495 328.000,355.015 327.325,355.887 326.500 C 356.809 325.628,357.393 324.749,357.282 324.400 C 357.177 324.070,357.227 323.926,357.393 324.081 C 357.757 324.420,358.407 323.774,359.146 322.341 C 359.446 321.758,360.076 321.095,360.546 320.868 C 361.016 320.640,361.175 320.442,360.901 320.427 C 360.626 320.412,361.024 319.741,361.784 318.935 C 362.544 318.129,363.094 317.351,363.005 317.207 C 362.916 317.063,363.193 316.693,363.621 316.385 C 364.050 316.076,364.400 315.583,364.400 315.288 C 364.400 314.985,364.601 314.877,364.862 315.038 C 365.127 315.202,365.216 315.149,365.070 314.914 C 364.931 314.689,365.263 313.986,365.808 313.352 C 366.353 312.718,366.799 312.057,366.800 311.883 C 366.800 311.709,367.160 311.180,367.600 310.708 C 368.040 310.236,368.400 309.613,368.400 309.325 C 368.400 309.036,368.580 308.800,368.800 308.800 C 369.020 308.800,369.200 308.519,369.200 308.176 C 369.200 307.833,369.380 307.664,369.600 307.800 C 369.820 307.936,370.000 307.704,370.000 307.286 C 370.000 306.867,370.360 306.198,370.800 305.800 C 371.240 305.402,371.600 304.879,371.600 304.638 C 371.601 304.397,372.047 303.682,372.592 303.048 C 373.137 302.414,373.486 301.739,373.368 301.548 C 373.250 301.357,373.373 301.200,373.643 301.200 C 373.913 301.200,374.022 301.089,373.886 300.952 C 373.750 300.816,373.901 300.442,374.223 300.120 C 374.544 299.799,374.705 299.370,374.580 299.168 C 374.455 298.965,374.543 298.800,374.776 298.800 C 375.009 298.800,375.200 298.440,375.200 298.000 C 375.200 297.560,375.337 297.200,375.504 297.200 C 375.671 297.200,376.028 296.846,376.298 296.414 C 376.784 295.636,376.568 295.628,356.495 295.618 L 336.200 295.608 334.938 298.804 L 333.676 302.000 336.805 302.000 C 342.108 302.000,342.079 301.795,337.896 309.960 C 334.364 316.856,334.142 317.200,333.214 317.200 C 332.021 317.200,331.967 316.772,332.596 312.344 C 332.920 310.065,333.189 307.975,333.193 307.700 C 333.198 307.334,332.170 307.200,329.361 307.200 L 325.523 307.200 325.723 305.300 C 325.833 304.255,326.130 302.590,326.383 301.600 C 326.637 300.610,326.980 299.073,327.146 298.185 C 327.311 297.297,327.583 296.351,327.749 296.083 C 327.985 295.700,321.253 295.617,296.569 295.698 C 269.072 295.787,265.045 295.876,264.753 296.400 C 264.345 297.134,262.970 300.345,262.662 301.285 C 262.463 301.890,262.839 301.983,265.914 302.085 C 270.427 302.234,270.420 302.147,266.560 309.929 C 263.000 317.109,262.668 317.595,261.533 317.298 C 260.784 317.103,260.734 316.883,260.978 314.842 C 261.125 313.609,261.371 311.385,261.526 309.900 L 261.808 307.200 257.904 307.200 C 253.284 307.200,253.463 307.644,255.240 300.600 C 255.462 299.720,255.785 298.235,255.958 297.300 L 256.273 295.600 239.360 295.600 C 227.607 295.600,222.365 295.467,222.178 295.165 C 222.030 294.926,221.754 289.751,221.564 283.665 C 221.373 277.579,221.039 267.380,220.821 261.000 C 220.603 254.620,220.238 243.730,220.009 236.800 C 219.781 229.870,219.413 219.430,219.192 213.600 C 218.972 207.770,218.621 197.780,218.412 191.400 C 218.204 185.020,217.915 177.494,217.771 174.675 L 217.508 169.551 223.654 163.352 C 228.916 158.045,230.228 156.941,232.778 155.677 L 235.757 154.200 259.978 154.000 L 284.200 153.800 284.318 150.200 C 284.382 148.220,284.334 146.195,284.210 145.700 L 283.985 144.800 263.616 144.800 C 252.413 144.800,243.157 144.653,243.046 144.474 C 242.935 144.295,246.705 140.292,251.422 135.578 C 256.140 130.864,260.000 126.731,260.000 126.393 C 260.000 125.663,254.802 120.400,254.081 120.400 C 253.807 120.400,245.571 128.410,235.780 138.200 C 225.989 147.990,217.826 156.000,217.640 156.000 C 217.159 156.000,216.821 147.879,215.567 106.187 C 214.914 84.489,213.952 86.907,229.409 71.402 C 235.454 65.338,240.400 60.244,240.400 60.082 C 240.400 59.634,231.845 51.200,231.391 51.200 C 231.173 51.200,225.866 56.338,219.597 62.618 C 206.938 75.301,205.092 76.770,201.780 76.794 C 201.329 76.797,200.759 77.001,200.514 77.246 C 200.051 77.709,196.224 77.019,195.420 76.327 C 195.211 76.147,194.716 76.000,194.320 76.000 C 193.924 76.000,193.600 75.820,193.600 75.600 C 193.600 75.380,193.352 75.200,193.048 75.200 C 192.745 75.200,185.486 68.191,176.917 59.625 L 161.337 44.050 156.980 48.420 " stroke="none" fill="#d75739" fill-rule="evenodd"></path><path id="path3" d="M147.702 302.000 C 147.828 302.464,148.668 302.626,151.419 302.717 C 153.616 302.789,155.105 303.018,155.317 303.317 C 155.562 303.660,155.614 303.627,155.498 303.200 C 155.372 302.736,154.532 302.574,151.781 302.483 C 149.584 302.411,148.095 302.182,147.883 301.883 C 147.638 301.540,147.586 301.573,147.702 302.000 M84.261 302.500 C 84.363 302.665,85.953 302.800,87.794 302.800 C 90.439 302.800,91.181 302.928,91.330 303.408 C 91.462 303.834,91.500 303.804,91.455 303.308 C 91.401 302.703,90.859 302.571,87.733 302.400 C 85.720 302.290,84.158 302.335,84.261 302.500 M83.337 315.769 C 83.372 316.429,83.662 317.009,84.000 317.100 C 84.401 317.207,84.448 317.151,84.140 316.930 C 83.888 316.749,83.589 316.150,83.477 315.600 C 83.301 314.739,83.282 314.762,83.337 315.769 M86.700 335.099 C 55.636 335.193,52.000 335.270,52.000 335.826 C 52.000 336.168,52.180 336.336,52.400 336.200 C 52.620 336.064,52.800 336.152,52.800 336.395 C 52.800 336.995,54.654 338.812,54.958 338.509 C 55.091 338.376,55.202 338.522,55.204 338.833 C 55.206 339.145,55.777 339.850,56.474 340.400 C 58.050 341.644,58.356 341.950,59.600 343.526 C 60.150 344.223,60.855 344.794,61.167 344.796 C 61.478 344.798,61.624 344.909,61.491 345.042 C 61.175 345.358,63.017 347.200,63.648 347.200 C 63.915 347.200,64.022 347.311,63.886 347.448 C 63.577 347.757,64.074 348.256,66.600 350.171 C 67.700 351.005,69.140 352.261,69.800 352.961 C 70.460 353.662,71.630 354.672,72.400 355.207 C 73.170 355.741,74.149 356.498,74.575 356.889 C 75.002 357.280,75.499 357.600,75.679 357.600 C 75.860 357.600,76.532 358.095,77.174 358.700 C 79.081 360.499,79.986 361.200,80.401 361.200 C 80.617 361.200,81.018 361.560,81.293 362.000 C 81.568 362.440,82.069 362.800,82.408 362.800 C 82.746 362.800,83.283 363.160,83.600 363.600 C 83.917 364.040,84.362 364.400,84.588 364.400 C 84.815 364.401,85.523 364.851,86.162 365.400 C 86.801 365.950,87.448 366.400,87.600 366.400 C 87.752 366.400,88.399 366.850,89.038 367.400 C 89.677 367.949,90.343 368.399,90.517 368.400 C 90.691 368.400,91.220 368.760,91.692 369.200 C 92.164 369.640,92.867 370.000,93.253 370.000 C 93.639 370.000,94.190 370.332,94.477 370.738 C 94.765 371.143,96.350 372.178,98.000 373.038 C 99.650 373.897,101.060 374.735,101.133 374.900 C 101.207 375.065,101.612 375.200,102.033 375.200 C 102.455 375.200,102.800 375.380,102.800 375.600 C 102.800 375.820,103.078 376.000,103.417 376.000 C 103.756 376.000,104.420 376.360,104.892 376.800 C 105.364 377.240,105.987 377.600,106.275 377.600 C 106.564 377.600,106.800 377.780,106.800 378.000 C 106.800 378.220,107.261 378.400,107.824 378.400 C 108.421 378.400,108.742 378.571,108.594 378.810 C 108.455 379.035,108.489 379.194,108.670 379.163 C 109.578 379.005,110.419 379.245,110.200 379.600 C 110.064 379.820,110.323 380.000,110.776 380.000 C 111.229 380.000,111.600 380.180,111.600 380.400 C 111.600 380.620,111.960 380.800,112.400 380.800 C 112.840 380.800,113.200 380.980,113.200 381.200 C 113.200 381.420,113.650 381.600,114.200 381.600 C 114.750 381.600,115.200 381.780,115.200 382.000 C 115.200 382.220,115.560 382.400,116.000 382.400 C 116.440 382.400,116.800 382.580,116.800 382.800 C 116.800 383.020,117.149 383.200,117.576 383.200 C 118.003 383.200,118.464 383.380,118.600 383.600 C 118.736 383.820,119.207 384.000,119.647 384.000 C 120.087 384.000,120.336 384.180,120.200 384.400 C 120.056 384.633,120.463 384.800,121.176 384.800 C 121.849 384.800,122.400 384.980,122.400 385.200 C 122.400 385.420,122.760 385.600,123.200 385.600 C 123.640 385.600,124.000 385.747,124.000 385.928 C 124.000 386.108,124.900 386.500,126.000 386.800 C 127.100 387.100,128.000 387.492,128.000 387.672 C 128.000 387.853,128.540 388.000,129.200 388.000 C 129.860 388.000,130.400 388.180,130.400 388.400 C 130.400 388.620,130.724 388.800,131.120 388.800 C 131.516 388.800,132.011 388.952,132.220 389.137 C 132.595 389.470,136.613 390.785,137.777 390.956 C 138.107 391.004,138.502 391.169,138.655 391.322 C 138.808 391.475,139.433 391.600,140.043 391.600 C 140.653 391.600,141.264 391.780,141.400 392.000 C 141.536 392.220,142.166 392.400,142.800 392.400 C 143.434 392.400,144.064 392.580,144.200 392.800 C 144.336 393.020,145.077 393.200,145.847 393.200 C 146.679 393.200,147.147 393.362,147.000 393.600 C 146.853 393.838,147.321 394.000,148.153 394.000 C 148.923 394.000,149.664 394.180,149.800 394.400 C 149.936 394.620,150.656 394.800,151.400 394.800 C 152.144 394.800,152.864 394.980,153.000 395.200 C 153.136 395.420,154.047 395.600,155.024 395.600 C 156.001 395.600,156.800 395.780,156.800 396.000 C 156.800 396.220,157.711 396.400,158.824 396.400 C 160.071 396.400,160.752 396.553,160.600 396.800 C 160.448 397.047,161.129 397.200,162.376 397.200 C 163.489 397.200,164.400 397.380,164.400 397.600 C 164.400 397.826,165.541 398.000,167.024 398.000 C 168.671 398.000,169.555 398.149,169.400 398.400 C 169.244 398.652,170.185 398.800,171.943 398.800 C 173.542 398.800,174.793 398.980,174.874 399.221 C 174.966 399.498,179.440 399.726,187.909 399.885 L 200.805 400.127 200.702 367.563 L 200.600 335.000 161.000 334.997 C 139.220 334.995,105.785 335.041,86.700 335.099 " stroke="none" fill="#f4966b" fill-rule="evenodd"></path><path id="path4" d="M156.855 47.963 C 154.405 50.401,152.400 52.615,152.400 52.885 C 152.400 53.155,159.037 60.042,167.149 68.188 C 180.407 81.502,182.020 83.263,183.105 85.600 C 185.038 89.766,185.018 87.997,183.585 129.600 C 182.999 146.600,182.474 162.281,182.011 176.582 C 181.783 183.612,181.438 189.522,181.243 189.717 C 181.038 189.922,172.457 181.640,160.817 170.002 L 140.746 149.932 136.173 154.444 C 133.658 156.925,131.600 159.146,131.599 159.378 C 131.599 159.610,134.105 162.259,137.168 165.264 C 140.232 168.270,142.632 170.835,142.502 170.964 C 142.373 171.094,131.497 171.200,118.333 171.200 L 94.400 171.200 94.400 177.800 L 94.400 184.400 123.134 184.400 C 155.162 184.400,154.447 184.343,158.665 187.245 C 160.719 188.658,180.111 208.172,180.411 209.128 C 180.629 209.823,180.365 220.652,179.622 241.400 C 178.825 263.691,178.339 277.761,178.069 286.400 L 177.800 295.000 164.365 295.105 L 150.930 295.210 150.478 296.105 C 149.633 297.781,148.000 301.698,148.000 302.050 C 148.000 302.242,149.609 302.400,151.576 302.400 C 153.543 302.400,155.252 302.560,155.373 302.757 C 155.593 303.112,149.177 316.183,148.402 316.958 C 147.459 317.901,146.857 316.320,147.238 313.900 C 148.463 306.117,148.831 306.815,143.500 306.805 C 140.632 306.800,140.400 306.738,140.400 305.971 C 140.400 305.211,141.532 300.001,142.365 296.922 C 142.862 295.090,144.634 295.200,114.631 295.200 L 86.995 295.200 86.434 296.500 C 86.125 297.215,85.466 298.697,84.970 299.793 C 83.805 302.368,83.840 302.400,87.836 302.400 C 92.256 302.400,92.244 302.234,88.377 309.823 C 83.725 318.952,82.808 319.523,83.642 312.768 C 84.435 306.347,84.822 307.018,80.250 306.885 L 76.300 306.770 76.547 305.485 C 76.683 304.778,76.967 303.480,77.179 302.600 C 77.777 300.110,78.291 297.921,78.609 296.497 L 78.901 295.194 51.551 295.297 L 24.200 295.400 24.072 296.300 C 24.002 296.795,24.137 297.200,24.372 297.200 C 24.607 297.200,24.800 297.468,24.800 297.795 C 24.800 298.123,25.103 298.745,25.474 299.178 C 25.845 299.611,26.185 300.215,26.229 300.520 C 26.274 300.825,26.781 301.819,27.355 302.729 C 27.930 303.639,28.400 304.578,28.400 304.816 C 28.400 305.053,28.580 305.136,28.800 305.000 C 29.020 304.864,29.200 305.123,29.200 305.576 C 29.200 306.029,29.380 306.400,29.600 306.400 C 29.820 306.400,30.000 306.670,30.000 307.000 C 30.000 307.330,30.180 307.600,30.400 307.600 C 30.620 307.600,30.800 307.870,30.800 308.200 C 30.800 308.530,30.980 308.800,31.200 308.800 C 31.420 308.800,31.600 309.070,31.600 309.400 C 31.600 309.730,31.780 310.000,32.000 310.000 C 32.220 310.000,32.400 310.270,32.400 310.600 C 32.400 310.930,32.580 311.200,32.800 311.200 C 33.020 311.200,33.200 311.443,33.200 311.741 C 33.200 312.038,33.740 312.846,34.400 313.537 C 35.060 314.228,35.600 315.064,35.600 315.396 C 35.600 315.728,35.741 316.000,35.914 316.000 C 36.086 316.000,36.549 316.545,36.943 317.211 C 37.336 317.877,38.057 318.822,38.544 319.311 C 39.031 319.800,40.044 321.100,40.796 322.200 C 41.547 323.300,42.351 324.407,42.581 324.660 C 42.811 324.912,43.540 325.799,44.200 326.631 C 44.860 327.462,45.715 328.471,46.100 328.871 C 46.485 329.272,46.725 329.600,46.633 329.600 C 46.542 329.600,47.037 330.199,47.733 330.932 C 50.035 333.352,51.200 334.788,51.200 335.204 C 51.200 335.430,51.605 335.527,52.100 335.419 C 52.595 335.312,86.210 335.173,126.800 335.112 L 200.600 335.000 200.702 367.564 L 200.805 400.128 212.671 399.876 C 219.921 399.721,224.697 399.463,224.949 399.211 C 225.175 398.985,226.483 398.800,227.856 398.800 C 229.229 398.800,230.464 398.620,230.600 398.400 C 230.736 398.180,231.816 398.000,233.000 398.000 C 234.184 398.000,235.264 397.820,235.400 397.600 C 235.536 397.380,236.526 397.200,237.600 397.200 C 238.674 397.200,239.664 397.020,239.800 396.800 C 239.936 396.580,240.757 396.400,241.624 396.400 C 242.491 396.400,243.200 396.220,243.200 396.000 C 243.200 395.780,244.021 395.600,245.024 395.600 C 246.137 395.600,246.751 395.444,246.600 395.200 C 246.451 394.959,246.988 394.800,247.953 394.800 C 248.833 394.800,249.652 394.640,249.773 394.444 C 249.894 394.249,250.624 393.979,251.396 393.844 C 252.168 393.710,253.430 393.490,254.200 393.356 C 254.970 393.222,255.600 392.952,255.600 392.756 C 255.600 392.560,256.320 392.400,257.200 392.400 C 258.080 392.400,258.800 392.220,258.800 392.000 C 258.800 391.780,259.340 391.600,260.000 391.600 C 260.660 391.600,261.200 391.459,261.200 391.287 C 261.200 391.115,261.685 390.934,262.278 390.885 C 262.870 390.836,263.455 390.645,263.578 390.461 C 263.700 390.277,264.340 390.021,265.000 389.892 C 265.660 389.763,266.740 389.437,267.400 389.167 C 268.060 388.896,268.780 388.653,269.000 388.625 C 269.220 388.598,270.097 388.266,270.949 387.888 C 271.801 387.509,272.658 387.200,272.854 387.200 C 273.050 387.200,273.523 387.041,273.905 386.847 C 274.287 386.652,275.050 386.316,275.600 386.100 C 277.354 385.411,278.979 384.717,279.695 384.353 C 280.077 384.159,280.672 384.000,281.018 384.000 C 281.364 384.000,281.536 383.820,281.400 383.600 C 281.260 383.373,281.596 383.200,282.176 383.200 C 282.739 383.200,283.200 383.020,283.200 382.800 C 283.200 382.580,283.434 382.400,283.720 382.400 C 284.456 382.400,286.393 381.459,286.397 381.100 C 286.399 380.935,286.861 380.800,287.424 380.800 C 288.004 380.800,288.340 380.627,288.200 380.400 C 288.064 380.180,288.198 380.000,288.497 380.000 C 289.251 380.000,291.193 379.065,291.197 378.700 C 291.199 378.535,291.560 378.400,292.000 378.400 C 292.440 378.400,292.800 378.220,292.800 378.000 C 292.800 377.780,293.115 377.596,293.500 377.591 C 293.885 377.586,294.650 377.230,295.200 376.800 C 295.750 376.370,296.425 376.014,296.700 376.009 C 296.975 376.004,297.200 375.820,297.200 375.600 C 297.200 375.380,297.560 375.200,298.000 375.200 C 298.440 375.200,298.800 375.020,298.800 374.800 C 298.800 374.580,299.126 374.400,299.525 374.400 C 299.923 374.400,300.624 374.051,301.082 373.624 C 301.540 373.197,302.024 372.957,302.157 373.091 C 302.291 373.224,302.400 373.123,302.400 372.867 C 302.400 372.610,302.636 372.400,302.925 372.400 C 303.213 372.400,303.836 372.040,304.308 371.600 C 304.780 371.160,305.444 370.800,305.783 370.800 C 306.122 370.800,306.400 370.620,306.400 370.400 C 306.400 370.180,306.670 370.000,307.000 370.000 C 307.330 370.000,307.600 369.820,307.600 369.600 C 307.600 369.380,307.870 369.200,308.200 369.200 C 308.530 369.200,308.800 369.020,308.800 368.800 C 308.800 368.580,309.070 368.400,309.400 368.400 C 309.730 368.400,310.000 368.220,310.000 368.000 C 310.000 367.780,310.270 367.600,310.600 367.600 C 310.930 367.600,311.200 367.420,311.200 367.200 C 311.200 366.980,311.443 366.800,311.741 366.800 C 312.038 366.800,312.846 366.260,313.537 365.600 C 314.228 364.940,314.982 364.400,315.213 364.400 C 315.444 364.400,316.020 364.040,316.492 363.600 C 316.964 363.160,317.598 362.800,317.899 362.800 C 318.201 362.800,318.336 362.620,318.200 362.400 C 318.064 362.180,318.218 362.000,318.543 362.000 C 318.868 362.000,319.193 361.865,319.267 361.700 C 319.340 361.535,320.390 360.641,321.600 359.714 C 322.810 358.787,324.340 357.552,325.000 356.969 C 325.660 356.386,326.650 355.616,327.200 355.258 C 328.502 354.410,328.917 354.078,330.778 352.400 C 331.632 351.630,333.092 350.370,334.023 349.600 C 336.869 347.247,337.984 346.117,337.719 345.853 C 337.580 345.714,337.690 345.600,337.962 345.600 C 338.234 345.600,338.727 345.330,339.057 345.000 C 339.387 344.670,339.563 344.400,339.448 344.400 C 339.332 344.400,340.175 343.494,341.319 342.387 C 347.084 336.811,348.000 335.846,348.000 335.344 C 348.000 335.045,347.685 334.808,347.300 334.818 C 342.993 334.926,201.321 334.258,201.100 334.129 C 200.935 334.032,200.800 325.233,200.800 314.576 L 200.800 295.200 189.541 295.200 L 178.282 295.200 178.555 288.500 C 178.902 279.992,179.624 258.891,180.791 223.200 C 181.032 215.830,181.140 209.440,181.032 209.000 C 180.716 207.721,159.670 187.032,157.647 186.013 C 153.605 183.976,154.163 184.009,123.500 184.004 L 94.800 184.000 94.800 177.800 L 94.800 171.600 118.500 171.594 C 132.680 171.590,142.440 171.436,142.798 171.210 C 143.275 170.908,142.236 169.662,137.661 165.048 L 131.927 159.264 136.159 155.032 C 138.486 152.704,140.528 150.800,140.697 150.800 C 140.865 150.800,150.002 159.800,161.000 170.800 C 177.962 187.765,181.878 191.472,182.018 190.700 C 182.028 190.645,182.202 185.470,182.406 179.200 C 182.908 163.686,183.513 145.654,183.982 132.200 C 185.238 96.193,185.339 91.207,184.855 89.111 C 183.720 84.192,183.183 83.532,167.440 67.695 L 152.624 52.790 156.980 48.420 L 161.337 44.050 176.917 59.625 C 185.486 68.191,192.685 75.200,192.915 75.200 C 193.145 75.200,193.256 75.155,193.161 75.100 C 193.066 75.045,185.861 67.920,177.149 59.266 L 161.309 43.532 156.855 47.963 M219.197 62.700 L 207.400 74.600 219.203 62.900 C 225.694 56.465,231.187 51.200,231.409 51.200 C 231.921 51.200,240.236 59.593,240.523 60.400 C 240.712 60.929,240.741 60.928,240.768 60.393 C 240.802 59.746,232.058 50.800,231.391 50.800 C 231.173 50.800,225.686 56.155,219.197 62.700 M205.606 75.223 C 204.840 75.650,204.480 75.996,204.806 75.991 C 205.133 75.986,205.850 75.630,206.400 75.200 C 207.656 74.217,207.396 74.225,205.606 75.223 M195.400 76.268 C 196.081 76.925,200.027 77.733,200.456 77.304 C 200.706 77.054,200.091 76.837,198.722 76.691 C 197.555 76.567,196.240 76.335,195.800 76.174 C 195.282 75.985,195.141 76.018,195.400 76.268 M218.271 82.900 C 216.974 84.637,216.283 86.017,216.568 86.301 C 216.695 86.429,216.800 86.364,216.800 86.158 C 216.800 85.951,217.420 84.841,218.177 83.691 C 219.712 81.361,219.767 80.895,218.271 82.900 M215.358 95.400 C 215.358 98.480,215.421 99.687,215.497 98.082 C 215.573 96.478,215.573 93.958,215.496 92.482 C 215.419 91.007,215.357 92.320,215.358 95.400 M215.899 117.000 C 216.011 121.180,216.170 124.675,216.252 124.767 C 216.507 125.054,216.310 115.548,215.995 112.400 C 215.820 110.651,215.780 112.570,215.899 117.000 M252.400 121.000 C 251.883 121.550,251.632 122.000,251.842 122.000 C 252.052 122.000,252.483 121.640,252.800 121.200 C 253.117 120.760,253.657 120.400,253.999 120.400 C 254.790 120.400,260.000 125.621,260.000 126.414 C 260.000 126.740,256.140 130.864,251.422 135.578 C 246.705 140.292,242.935 144.295,243.046 144.474 C 243.157 144.653,252.402 144.800,263.590 144.800 C 277.084 144.800,284.002 144.938,284.137 145.210 C 284.249 145.436,284.294 145.391,284.237 145.110 C 284.155 144.708,279.806 144.558,263.663 144.400 L 243.193 144.200 251.796 135.603 C 256.528 130.875,260.400 126.731,260.400 126.393 C 260.400 125.592,254.767 120.000,253.960 120.000 C 253.619 120.000,252.917 120.450,252.400 121.000 M216.705 141.000 C 216.817 145.620,216.974 149.475,217.054 149.567 C 217.315 149.865,217.129 139.495,216.812 136.000 C 216.620 133.896,216.580 135.801,216.705 141.000 M236.593 136.807 C 235.737 137.683,235.170 138.400,235.332 138.400 C 235.740 138.400,238.519 135.586,238.314 135.381 C 238.223 135.289,237.448 135.931,236.593 136.807 M219.809 153.591 C 218.740 154.676,217.716 155.472,217.533 155.358 C 217.350 155.245,217.200 155.343,217.200 155.576 C 217.200 155.809,217.368 156.000,217.573 156.000 C 218.044 156.000,222.154 152.021,221.923 151.789 C 221.829 151.695,220.877 152.506,219.809 153.591 M237.905 154.283 C 238.402 154.379,239.122 154.375,239.505 154.275 C 239.887 154.175,239.480 154.096,238.600 154.101 C 237.720 154.105,237.407 154.187,237.905 154.283 M224.247 162.876 L 217.800 169.352 224.400 162.985 C 228.030 159.484,231.075 156.569,231.167 156.509 C 231.258 156.449,231.190 156.400,231.014 156.400 C 230.838 156.400,227.793 159.314,224.247 162.876 M217.731 172.200 C 217.733 173.740,217.805 174.321,217.892 173.491 C 217.979 172.661,217.977 171.401,217.889 170.691 C 217.800 169.981,217.729 170.660,217.731 172.200 M218.321 188.800 C 218.425 194.190,218.576 198.675,218.655 198.767 C 218.914 199.064,218.729 185.898,218.426 182.400 C 218.261 180.497,218.215 183.315,218.321 188.800 M219.109 209.800 C 219.220 214.860,219.376 219.075,219.455 219.167 C 219.727 219.480,219.514 205.407,219.211 203.000 C 219.044 201.680,218.999 204.740,219.109 209.800 M219.914 233.600 C 220.022 239.430,220.176 244.275,220.255 244.367 C 220.523 244.676,220.309 228.225,220.011 225.600 C 219.849 224.170,219.805 227.770,219.914 233.600 M220.719 257.000 C 220.824 262.940,220.976 267.875,221.056 267.967 C 221.321 268.273,221.111 251.438,220.816 248.800 C 220.657 247.370,220.613 251.060,220.719 257.000 M221.520 280.400 C 221.625 286.450,221.776 291.475,221.855 291.567 C 222.120 291.872,221.911 274.640,221.618 272.000 C 221.459 270.570,221.415 274.350,221.520 280.400 M222.130 294.000 L 222.200 295.400 239.236 295.504 L 256.272 295.608 255.958 297.304 C 255.785 298.237,255.462 299.720,255.240 300.600 C 253.463 307.644,253.284 307.200,257.904 307.200 L 261.808 307.200 261.526 309.900 C 261.371 311.385,261.125 313.609,260.978 314.842 C 260.734 316.883,260.784 317.103,261.533 317.298 C 262.668 317.595,263.000 317.109,266.560 309.929 C 270.420 302.147,270.427 302.234,265.914 302.085 C 262.839 301.983,262.463 301.890,262.662 301.285 C 262.970 300.345,264.345 297.134,264.753 296.400 C 265.045 295.876,269.072 295.787,296.569 295.698 C 321.253 295.617,327.985 295.700,327.749 296.083 C 327.583 296.351,327.311 297.297,327.146 298.185 C 326.980 299.073,326.637 300.610,326.383 301.600 C 326.130 302.590,325.833 304.255,325.723 305.300 L 325.523 307.200 329.361 307.200 C 332.170 307.200,333.198 307.334,333.193 307.700 C 333.189 307.975,332.920 310.065,332.596 312.344 C 331.967 316.772,332.021 317.200,333.214 317.200 C 334.142 317.200,334.364 316.856,337.896 309.960 C 342.079 301.795,342.108 302.000,336.805 302.000 L 333.676 302.000 334.938 298.804 L 336.200 295.608 356.262 295.704 C 367.296 295.757,376.240 295.665,376.138 295.500 C 376.036 295.335,366.965 295.200,355.980 295.200 L 336.008 295.200 334.778 297.900 C 334.102 299.385,333.448 301.095,333.325 301.700 L 333.100 302.800 336.750 302.800 C 341.219 302.800,341.193 302.235,337.093 310.181 C 333.398 317.341,332.548 318.237,332.947 314.551 C 333.087 313.258,333.316 310.985,333.455 309.500 L 333.707 306.800 329.854 306.800 C 325.302 306.800,325.544 307.360,327.179 300.600 C 327.818 297.960,328.208 295.664,328.048 295.498 C 327.422 294.850,264.718 295.345,264.349 296.000 C 263.275 297.910,261.620 302.108,261.816 302.426 C 261.943 302.632,263.657 302.800,265.624 302.800 C 267.591 302.800,269.200 302.950,269.200 303.133 C 269.200 303.612,262.904 316.056,262.412 316.548 C 261.486 317.474,261.292 316.104,261.825 312.400 C 262.709 306.259,263.020 306.800,258.600 306.800 L 254.800 306.800 254.800 305.528 C 254.800 304.829,254.973 303.704,255.185 303.028 C 256.013 300.386,257.073 295.606,256.875 295.408 C 256.760 295.294,249.159 295.200,239.982 295.200 C 222.425 295.200,222.762 295.234,222.273 293.400 C 222.156 292.960,222.091 293.230,222.130 294.000 " stroke="none" fill="#ec7c4c" fill-rule="evenodd"></path></g></svg>