<svg xmlns="http://www.w3.org/2000/svg" width="659" height="659" viewBox="0 0 659 659" version="1.1"><path d="M 199.500 221.647 C 151.650 254.902, 111.909 282.456, 111.187 282.880 C 110.222 283.446, 112.556 287.530, 120.011 298.320 L 130.147 312.990 133.323 310.622 C 139.507 306.012, 287.109 204, 287.595 204 C 287.867 204, 323.145 228.300, 365.991 258 C 408.837 287.700, 444.286 312, 444.766 312 C 445.683 312, 465.433 284.044, 464.841 283.584 C 464.654 283.438, 444.025 269.141, 419 251.812 C 393.975 234.484, 354.234 206.962, 330.686 190.653 C 307.138 174.344, 287.563 161.041, 287.186 161.092 C 286.809 161.143, 247.350 188.393, 199.500 221.647 M 227.750 258.164 L 170 298.163 170 343.649 C 170 388.343, 170.034 389.124, 171.957 388.514 C 175.142 387.503, 189.854 389.950, 196.415 392.581 C 199.762 393.924, 205.425 397.286, 209 400.053 C 223.572 411.334, 222.986 411, 228.216 411 C 233.965 411, 235.771 410.181, 242.500 404.524 C 245.250 402.212, 249.372 399.090, 251.660 397.587 C 254.075 396, 256.092 393.771, 256.468 392.273 C 257.402 388.550, 262.393 381.646, 266.745 378.056 C 278.356 368.479, 297.304 368.720, 308.836 378.592 C 314.216 383.196, 318.073 389.839, 320.106 398 C 321.506 403.615, 322.300 404.942, 325.941 407.750 C 329.493 410.489, 330.999 411, 335.521 411 C 340.440 411, 341.412 410.587, 347.193 406.040 C 362.478 394.017, 368.940 390.852, 381.975 389.003 C 388.493 388.079, 401.583 389.006, 404.116 390.572 C 404.623 390.885, 405 371.291, 405 344.640 L 405 298.163 347.018 258.081 C 315.129 236.037, 288.241 218.037, 287.268 218.082 C 286.296 218.127, 259.512 236.164, 227.750 258.164 M 163.500 395.405 C 155.374 397.413, 150.007 400.296, 141 407.494 C 130.093 416.210, 127.257 417.403, 119.223 416.655 L 112.947 416.070 113.223 430.785 L 113.500 445.500 120.500 445.827 C 133.823 446.448, 144.115 442.617, 157.139 432.189 C 165.649 425.375, 167.178 424.502, 172.180 423.600 C 178.542 422.452, 183.884 424.594, 193.456 432.133 C 198.349 435.986, 204.059 440.010, 206.146 441.074 C 215.215 445.701, 229.042 447.244, 240.201 444.875 C 247.581 443.308, 255.460 439.127, 263.580 432.469 C 272.685 425.004, 275.426 423.690, 282 423.640 C 288.510 423.591, 291.807 425.147, 300.660 432.450 C 312.394 442.128, 322.349 446, 335.500 446 C 348.651 446, 358.606 442.128, 370.340 432.450 C 379.193 425.147, 382.490 423.591, 389 423.640 C 395.574 423.690, 398.315 425.004, 407.420 432.469 C 415.540 439.127, 423.419 443.308, 430.799 444.875 C 441.958 447.244, 455.785 445.701, 464.854 441.074 C 466.941 440.010, 472.651 435.986, 477.544 432.133 C 487.116 424.594, 492.458 422.452, 498.820 423.600 C 503.812 424.500, 505.387 425.403, 513.500 432.018 C 517.350 435.158, 522.525 438.889, 525 440.311 C 530.229 443.315, 539.769 446, 545.210 446 L 549 446 549 431.500 C 549 417.590, 548.917 417, 546.968 417 C 543.249 417, 537.923 414.100, 530.172 407.856 C 520.561 400.113, 512.096 396.093, 502.592 394.760 C 487.541 392.647, 474.711 396.670, 460.828 407.856 C 445.665 420.072, 438.808 420.186, 424.500 408.461 C 409.989 396.570, 396.873 392.436, 381.250 394.828 C 371.524 396.318, 363.815 400.058, 353.500 408.290 C 338.593 420.188, 331.832 420.045, 316.500 407.511 C 307.520 400.169, 299.461 396.353, 289.750 394.845 C 274.322 392.449, 260.952 396.588, 247 408.079 C 238.386 415.175, 234.702 417, 229 417 C 223.226 417, 218.935 414.916, 210.172 407.856 C 205.952 404.456, 199.749 400.384, 196.387 398.807 C 186.486 394.163, 173.829 392.854, 163.500 395.405 M 162 447.814 C 154.169 449.861, 148.870 452.870, 139.206 460.757 C 130.697 467.701, 126.086 469.405, 118.398 468.444 L 112.945 467.763 113.223 482.631 L 113.500 497.500 119.764 497.798 C 133.160 498.436, 144.668 494.287, 156.500 484.554 C 164.708 477.801, 167.413 476.277, 172.687 475.434 C 178.563 474.495, 184.348 476.547, 190.742 481.839 C 204.477 493.208, 212.362 496.862, 225 497.716 C 239.842 498.719, 250.661 494.852, 264.411 483.628 C 277.436 472.995, 285.269 472.358, 296.279 481.034 C 314.057 495.044, 319.874 497.485, 335.500 497.485 C 351.126 497.485, 356.943 495.044, 374.721 481.034 C 385.731 472.358, 393.564 472.995, 406.589 483.628 C 420.339 494.852, 431.158 498.719, 446 497.716 C 458.634 496.862, 466.524 493.207, 480.243 481.851 C 491.784 472.299, 499.415 472.709, 513.152 483.621 C 525.379 493.333, 536.057 498, 546.049 498 L 549 498 549 483.500 C 549 470.374, 548.834 468.996, 547.250 468.956 C 543.203 468.855, 537.859 465.957, 530.160 459.691 C 520.486 451.817, 516.238 449.504, 507.781 447.511 C 490.533 443.444, 476.198 447.190, 460.685 459.817 C 445.569 472.120, 438.856 472.065, 423.500 459.511 C 410.133 448.582, 396.754 444.485, 381.575 446.671 C 371.908 448.064, 363.489 452.113, 353.200 460.316 C 338.748 471.839, 332.290 471.850, 317.848 460.379 C 306.867 451.657, 299.748 448.180, 289.951 446.752 C 274.255 444.464, 261.050 448.433, 247.500 459.511 C 232.144 472.065, 225.431 472.120, 210.315 459.817 C 205.898 456.221, 199.857 452.143, 196.891 450.754 C 186.278 445.784, 173.794 444.732, 162 447.814" stroke="none" fill="#fafbfb" fill-rule="evenodd"/><path d="M 292.500 1.521 C 230.219 8.809, 175.334 31.345, 125.143 70.240 C 111.446 80.854, 80.854 111.446, 70.240 125.143 C 30.922 175.880, 8.529 230.828, 1.425 294 C -0.228 308.707, -0.447 346.309, 1.034 361.144 C 10.367 454.590, 57.370 537.775, 132.703 594.169 C 177.050 627.367, 229.453 648.601, 287 656.690 C 302.711 658.899, 351.821 659.205, 368 657.196 C 405.354 652.557, 440.905 641.972, 474.500 625.487 C 521.818 602.269, 561.278 569.631, 593.064 527.424 C 617.160 495.426, 635.641 458.483, 646.325 420.952 C 652.535 399.138, 657.974 369.014, 658.015 356.199 C 658.026 352.796, 658.298 351.914, 659 353 C 659.638 353.987, 659.941 345.443, 659.885 328 C 659.838 313.184, 659.448 302.602, 659 304 C 658.317 306.134, 658.185 305.885, 658.100 302.301 C 657.934 295.333, 655.086 275.264, 652.410 262.213 C 643.035 216.496, 622.180 170.121, 594.169 132.703 C 537.775 57.370, 454.590 10.367, 361.144 1.034 C 347.175 -0.361, 306.092 -0.070, 292.500 1.521 M 199.500 221.647 C 151.650 254.902, 111.909 282.456, 111.187 282.880 C 110.222 283.446, 112.556 287.530, 120.011 298.320 L 130.147 312.990 133.323 310.622 C 139.507 306.012, 287.109 204, 287.595 204 C 287.867 204, 323.145 228.300, 365.991 258 C 408.837 287.700, 444.286 312, 444.766 312 C 445.683 312, 465.433 284.044, 464.841 283.584 C 464.654 283.438, 444.025 269.141, 419 251.812 C 393.975 234.484, 354.234 206.962, 330.686 190.653 C 307.138 174.344, 287.563 161.041, 287.186 161.092 C 286.809 161.143, 247.350 188.393, 199.500 221.647 M 227.750 258.164 L 170 298.163 170 343.649 C 170 388.343, 170.034 389.124, 171.957 388.514 C 175.142 387.503, 189.854 389.950, 196.415 392.581 C 199.762 393.924, 205.425 397.286, 209 400.053 C 223.572 411.334, 222.986 411, 228.216 411 C 233.965 411, 235.771 410.181, 242.500 404.524 C 245.250 402.212, 249.372 399.090, 251.660 397.587 C 254.075 396, 256.092 393.771, 256.468 392.273 C 257.402 388.550, 262.393 381.646, 266.745 378.056 C 278.356 368.479, 297.304 368.720, 308.836 378.592 C 314.216 383.196, 318.073 389.839, 320.106 398 C 321.506 403.615, 322.300 404.942, 325.941 407.750 C 329.493 410.489, 330.999 411, 335.521 411 C 340.440 411, 341.412 410.587, 347.193 406.040 C 362.478 394.017, 368.940 390.852, 381.975 389.003 C 388.493 388.079, 401.583 389.006, 404.116 390.572 C 404.623 390.885, 405 371.291, 405 344.640 L 405 298.163 347.018 258.081 C 315.129 236.037, 288.241 218.037, 287.268 218.082 C 286.296 218.127, 259.512 236.164, 227.750 258.164 M 0.437 329 C 0.437 343.575, 0.577 349.538, 0.747 342.250 C 0.918 334.962, 0.918 323.038, 0.747 315.750 C 0.577 308.462, 0.437 314.425, 0.437 329 M 163.500 395.405 C 155.374 397.413, 150.007 400.296, 141 407.494 C 130.093 416.210, 127.257 417.403, 119.223 416.655 L 112.947 416.070 113.223 430.785 L 113.500 445.500 120.500 445.827 C 133.823 446.448, 144.115 442.617, 157.139 432.189 C 165.649 425.375, 167.178 424.502, 172.180 423.600 C 178.542 422.452, 183.884 424.594, 193.456 432.133 C 198.349 435.986, 204.059 440.010, 206.146 441.074 C 215.215 445.701, 229.042 447.244, 240.201 444.875 C 247.581 443.308, 255.460 439.127, 263.580 432.469 C 272.685 425.004, 275.426 423.690, 282 423.640 C 288.510 423.591, 291.807 425.147, 300.660 432.450 C 312.394 442.128, 322.349 446, 335.500 446 C 348.651 446, 358.606 442.128, 370.340 432.450 C 379.193 425.147, 382.490 423.591, 389 423.640 C 395.574 423.690, 398.315 425.004, 407.420 432.469 C 415.540 439.127, 423.419 443.308, 430.799 444.875 C 441.958 447.244, 455.785 445.701, 464.854 441.074 C 466.941 440.010, 472.651 435.986, 477.544 432.133 C 487.116 424.594, 492.458 422.452, 498.820 423.600 C 503.812 424.500, 505.387 425.403, 513.500 432.018 C 517.350 435.158, 522.525 438.889, 525 440.311 C 530.229 443.315, 539.769 446, 545.210 446 L 549 446 549 431.500 C 549 417.590, 548.917 417, 546.968 417 C 543.249 417, 537.923 414.100, 530.172 407.856 C 520.561 400.113, 512.096 396.093, 502.592 394.760 C 487.541 392.647, 474.711 396.670, 460.828 407.856 C 445.665 420.072, 438.808 420.186, 424.500 408.461 C 409.989 396.570, 396.873 392.436, 381.250 394.828 C 371.524 396.318, 363.815 400.058, 353.500 408.290 C 338.593 420.188, 331.832 420.045, 316.500 407.511 C 307.520 400.169, 299.461 396.353, 289.750 394.845 C 274.322 392.449, 260.952 396.588, 247 408.079 C 238.386 415.175, 234.702 417, 229 417 C 223.226 417, 218.935 414.916, 210.172 407.856 C 205.952 404.456, 199.749 400.384, 196.387 398.807 C 186.486 394.163, 173.829 392.854, 163.500 395.405 M 162 447.814 C 154.169 449.861, 148.870 452.870, 139.206 460.757 C 130.697 467.701, 126.086 469.405, 118.398 468.444 L 112.945 467.763 113.223 482.631 L 113.500 497.500 119.764 497.798 C 133.160 498.436, 144.668 494.287, 156.500 484.554 C 164.708 477.801, 167.413 476.277, 172.687 475.434 C 178.563 474.495, 184.348 476.547, 190.742 481.839 C 204.477 493.208, 212.362 496.862, 225 497.716 C 239.842 498.719, 250.661 494.852, 264.411 483.628 C 277.436 472.995, 285.269 472.358, 296.279 481.034 C 314.057 495.044, 319.874 497.485, 335.500 497.485 C 351.126 497.485, 356.943 495.044, 374.721 481.034 C 385.731 472.358, 393.564 472.995, 406.589 483.628 C 420.339 494.852, 431.158 498.719, 446 497.716 C 458.634 496.862, 466.524 493.207, 480.243 481.851 C 491.784 472.299, 499.415 472.709, 513.152 483.621 C 525.379 493.333, 536.057 498, 546.049 498 L 549 498 549 483.500 C 549 470.374, 548.834 468.996, 547.250 468.956 C 543.203 468.855, 537.859 465.957, 530.160 459.691 C 520.486 451.817, 516.238 449.504, 507.781 447.511 C 490.533 443.444, 476.198 447.190, 460.685 459.817 C 445.569 472.120, 438.856 472.065, 423.500 459.511 C 410.133 448.582, 396.754 444.485, 381.575 446.671 C 371.908 448.064, 363.489 452.113, 353.200 460.316 C 338.748 471.839, 332.290 471.850, 317.848 460.379 C 306.867 451.657, 299.748 448.180, 289.951 446.752 C 274.255 444.464, 261.050 448.433, 247.500 459.511 C 232.144 472.065, 225.431 472.120, 210.315 459.817 C 205.898 456.221, 199.857 452.143, 196.891 450.754 C 186.278 445.784, 173.794 444.732, 162 447.814" stroke="none" fill="#1480be" fill-rule="evenodd"/></svg>