<svg id="svg" version="1.1" xmlns="http://www.w3.org/2000/svg" xmlns:xlink="http://www.w3.org/1999/xlink" width="400" height="400" viewBox="0, 0, 400,400"><g id="svgg"><path id="path0" d="M182.400 17.200 C 182.400 17.437,180.941 17.600,178.824 17.600 C 176.857 17.600,175.136 17.780,175.000 18.000 C 174.864 18.220,173.604 18.400,172.200 18.400 C 170.796 18.400,169.536 18.580,169.400 18.800 C 169.264 19.020,168.274 19.200,167.200 19.200 C 166.126 19.200,165.136 19.380,165.000 19.600 C 164.864 19.820,163.863 20.000,162.776 20.000 C 161.689 20.000,160.800 20.180,160.800 20.400 C 160.800 20.620,160.080 20.800,159.200 20.800 C 158.320 20.800,157.600 20.980,157.600 21.200 C 157.600 21.420,156.801 21.600,155.824 21.600 C 154.847 21.600,153.936 21.780,153.800 22.000 C 153.664 22.220,152.944 22.400,152.200 22.400 C 151.456 22.400,150.736 22.580,150.600 22.800 C 150.464 23.020,149.823 23.200,149.176 23.200 C 148.529 23.200,148.000 23.380,148.000 23.600 C 148.000 23.820,147.370 24.000,146.600 24.000 C 145.830 24.000,145.200 24.141,145.200 24.314 C 145.200 24.599,142.646 25.268,139.300 25.858 C 138.585 25.984,138.000 26.248,138.000 26.444 C 138.000 26.640,137.561 26.800,137.024 26.800 C 136.487 26.800,135.936 26.980,135.800 27.200 C 135.664 27.420,135.124 27.600,134.600 27.600 C 134.076 27.600,133.536 27.780,133.400 28.000 C 133.264 28.220,132.803 28.400,132.376 28.400 C 131.949 28.400,131.600 28.580,131.600 28.800 C 131.600 29.020,131.238 29.200,130.795 29.200 C 130.352 29.200,129.587 29.408,129.095 29.662 C 127.218 30.633,126.793 30.800,126.205 30.800 C 125.872 30.800,125.600 30.980,125.600 31.200 C 125.600 31.420,125.240 31.600,124.800 31.600 C 124.360 31.600,124.000 31.747,124.000 31.928 C 124.000 32.108,123.100 32.500,122.000 32.800 C 120.900 33.100,120.000 33.492,120.000 33.672 C 120.000 33.853,119.640 34.000,119.200 34.000 C 118.760 34.000,118.400 34.180,118.400 34.400 C 118.400 34.620,118.040 34.800,117.600 34.800 C 117.160 34.800,116.800 34.980,116.800 35.200 C 116.800 35.420,116.440 35.600,116.000 35.600 C 115.560 35.600,115.200 35.780,115.200 36.000 C 115.200 36.220,114.840 36.400,114.400 36.400 C 113.960 36.400,113.600 36.580,113.600 36.800 C 113.600 37.020,113.240 37.200,112.800 37.200 C 112.360 37.200,112.000 37.380,112.000 37.600 C 112.000 37.820,111.640 38.000,111.200 38.000 C 110.760 38.000,110.400 38.180,110.400 38.400 C 110.400 38.620,110.130 38.800,109.800 38.800 C 109.470 38.800,109.200 38.980,109.200 39.200 C 109.200 39.420,108.840 39.600,108.400 39.600 C 107.960 39.600,107.600 39.780,107.600 40.000 C 107.600 40.220,107.240 40.400,106.800 40.400 C 106.360 40.400,106.000 40.554,106.000 40.742 C 106.000 40.931,104.605 41.778,102.900 42.626 C 101.195 43.475,99.740 44.311,99.667 44.484 C 99.593 44.658,99.306 44.800,99.029 44.800 C 98.751 44.800,98.198 45.160,97.800 45.600 C 97.402 46.040,96.868 46.400,96.613 46.400 C 96.359 46.400,95.802 46.715,95.375 47.100 C 94.949 47.485,94.093 48.062,93.474 48.381 C 92.855 48.701,91.821 49.466,91.178 50.081 C 90.534 50.697,89.775 51.200,89.492 51.200 C 89.209 51.200,88.717 51.560,88.400 52.000 C 88.083 52.440,87.620 52.800,87.371 52.800 C 87.122 52.800,86.354 53.340,85.663 54.000 C 84.972 54.660,84.226 55.200,84.004 55.200 C 83.782 55.200,82.859 55.920,81.952 56.800 C 81.045 57.680,80.070 58.400,79.785 58.400 C 79.500 58.400,79.207 58.535,79.133 58.700 C 79.060 58.865,78.280 59.592,77.400 60.316 C 75.272 62.067,71.066 65.838,69.164 67.700 C 68.321 68.525,67.532 69.200,67.410 69.200 C 67.287 69.200,65.837 70.550,64.187 72.200 C 62.537 73.850,61.260 75.200,61.349 75.200 C 61.507 75.200,60.624 76.170,55.985 81.089 C 54.766 82.381,53.333 84.060,52.800 84.819 C 52.267 85.579,51.329 86.677,50.715 87.260 C 50.102 87.844,49.600 88.497,49.600 88.712 C 49.600 88.927,48.880 89.845,48.000 90.752 C 47.120 91.659,46.400 92.581,46.400 92.800 C 46.400 93.020,46.220 93.200,46.000 93.200 C 45.780 93.200,45.600 93.470,45.600 93.800 C 45.600 94.130,45.420 94.400,45.200 94.400 C 44.980 94.400,44.800 94.642,44.800 94.938 C 44.800 95.234,44.422 95.818,43.959 96.237 C 43.497 96.656,42.847 97.522,42.517 98.161 C 42.186 98.801,41.574 99.691,41.157 100.138 C 40.741 100.585,40.400 101.187,40.400 101.475 C 40.400 101.764,40.220 102.000,40.000 102.000 C 39.780 102.000,39.600 102.236,39.600 102.525 C 39.600 102.813,39.240 103.436,38.800 103.908 C 38.360 104.380,38.000 105.004,38.000 105.295 C 38.000 105.586,37.640 106.083,37.200 106.400 C 36.760 106.717,36.400 107.214,36.400 107.505 C 36.400 107.796,36.040 108.420,35.600 108.892 C 35.160 109.364,34.576 110.256,34.303 110.875 C 34.029 111.494,33.669 112.000,33.502 112.000 C 33.336 112.000,33.200 112.278,33.200 112.617 C 33.200 112.956,32.840 113.620,32.400 114.092 C 31.960 114.564,31.600 115.187,31.600 115.475 C 31.600 115.764,31.420 116.000,31.200 116.000 C 30.980 116.000,30.800 116.360,30.800 116.800 C 30.800 117.240,30.620 117.600,30.400 117.600 C 30.180 117.600,30.000 117.845,30.000 118.144 C 30.000 118.801,27.524 123.745,27.100 123.933 C 26.935 124.007,26.800 124.412,26.800 124.833 C 26.800 125.255,26.634 125.600,26.432 125.600 C 26.229 125.600,25.945 126.138,25.801 126.795 C 25.657 127.453,25.372 128.094,25.169 128.219 C 24.966 128.345,24.800 128.887,24.800 129.424 C 24.800 129.961,24.620 130.400,24.400 130.400 C 24.180 130.400,24.000 130.850,24.000 131.400 C 24.000 131.950,23.820 132.400,23.600 132.400 C 23.380 132.400,23.200 132.760,23.200 133.200 C 23.200 133.640,23.020 134.000,22.800 134.000 C 22.580 134.000,22.400 134.349,22.400 134.776 C 22.400 135.203,22.220 135.664,22.000 135.800 C 21.780 135.936,21.600 136.487,21.600 137.024 C 21.600 137.561,21.420 138.000,21.200 138.000 C 20.980 138.000,20.800 138.439,20.800 138.976 C 20.800 139.513,20.620 140.064,20.400 140.200 C 20.180 140.336,20.000 140.797,20.000 141.224 C 20.000 141.651,19.820 142.000,19.600 142.000 C 19.380 142.000,19.200 142.450,19.200 143.000 C 19.200 143.550,19.020 144.000,18.800 144.000 C 18.580 144.000,18.400 144.540,18.400 145.200 C 18.400 145.860,18.220 146.400,18.000 146.400 C 17.780 146.400,17.600 146.940,17.600 147.600 C 17.600 148.260,17.420 148.800,17.200 148.800 C 16.980 148.800,16.800 149.340,16.800 150.000 C 16.800 150.660,16.620 151.200,16.400 151.200 C 16.180 151.200,16.000 151.729,16.000 152.376 C 16.000 153.023,15.820 153.664,15.600 153.800 C 15.380 153.936,15.200 154.667,15.200 155.424 C 15.200 156.181,15.020 156.800,14.800 156.800 C 14.580 156.800,14.400 157.329,14.400 157.976 C 14.400 158.623,14.239 159.252,14.042 159.374 C 13.705 159.582,13.583 160.142,12.968 164.300 C 12.829 165.235,12.573 166.000,12.398 166.000 C 12.224 166.000,11.983 166.765,11.864 167.700 C 11.745 168.635,11.448 170.390,11.205 171.600 C 10.631 174.458,10.076 177.865,9.576 181.600 C 9.355 183.250,9.050 185.410,8.897 186.400 C 8.516 188.865,8.535 228.113,8.918 230.600 C 9.087 231.700,9.328 233.860,9.453 235.400 C 9.579 236.940,9.843 238.371,10.041 238.580 C 10.238 238.789,10.400 239.914,10.400 241.080 C 10.400 242.246,10.580 243.200,10.800 243.200 C 11.020 243.200,11.200 243.650,11.200 244.200 L 11.200 245.200 15.214 245.200 L 19.228 245.200 18.976 243.100 C 18.838 241.945,18.563 240.370,18.365 239.600 C 17.855 237.619,17.912 224.327,18.443 221.424 C 20.101 212.362,23.740 202.459,27.196 197.606 C 27.638 196.985,28.000 196.366,28.000 196.231 C 28.000 196.096,28.720 194.800,29.600 193.352 C 30.480 191.903,31.200 190.629,31.200 190.521 C 31.200 190.412,31.533 189.846,31.939 189.262 C 32.345 188.678,33.220 187.210,33.882 186.000 C 34.544 184.790,35.752 182.671,36.567 181.292 L 38.048 178.783 36.624 177.120 C 34.091 174.160,34.434 172.680,38.652 168.369 C 42.269 164.673,44.264 163.379,45.765 163.755 C 46.493 163.938,46.814 163.700,47.469 162.490 C 47.913 161.671,48.640 160.370,49.085 159.600 C 49.529 158.830,51.870 154.780,54.287 150.600 C 61.622 137.910,60.800 140.234,60.800 132.199 L 60.800 125.227 62.213 123.813 C 63.615 122.411,63.655 122.400,67.121 122.400 L 70.615 122.400 71.908 120.100 C 75.108 114.407,75.734 113.335,76.444 112.338 C 76.860 111.754,77.200 111.172,77.200 111.044 C 77.200 110.279,80.696 105.160,81.362 104.949 C 82.260 104.664,83.628 106.048,85.058 108.689 C 86.428 111.217,87.669 113.378,87.993 113.800 C 88.162 114.020,89.248 116.000,90.406 118.200 C 91.564 120.400,93.023 122.788,93.650 123.507 C 94.276 124.226,94.909 125.296,95.057 125.884 C 95.205 126.473,96.224 128.494,97.323 130.377 C 98.422 132.260,99.576 134.291,99.886 134.892 C 100.197 135.493,100.595 136.073,100.771 136.182 C 101.253 136.480,105.622 130.993,108.200 126.855 C 108.420 126.502,109.100 125.451,109.711 124.519 C 112.612 120.093,116.575 112.111,118.904 106.000 C 119.832 103.568,121.915 96.894,122.806 93.500 C 123.023 92.675,123.401 91.235,123.646 90.300 C 123.892 89.365,124.231 88.150,124.400 87.600 C 124.569 87.050,124.893 85.880,125.121 85.000 C 126.169 80.942,126.508 79.736,126.842 78.881 C 127.039 78.376,127.200 77.531,127.200 77.005 C 127.200 76.478,127.380 75.936,127.600 75.800 C 127.820 75.664,128.000 75.034,128.000 74.400 C 128.000 73.766,128.180 73.136,128.400 73.000 C 128.620 72.864,128.800 72.318,128.800 71.786 C 128.800 70.695,130.352 69.453,131.273 69.806 C 131.871 70.036,135.200 75.291,135.200 76.005 C 135.200 76.222,135.359 76.400,135.553 76.400 C 135.748 76.400,136.010 76.715,136.136 77.100 C 136.262 77.485,136.848 78.610,137.439 79.600 C 138.975 82.174,139.970 83.916,141.208 86.200 C 141.804 87.300,142.764 89.010,143.341 90.000 L 144.390 91.800 144.395 87.155 C 144.400 82.672,144.437 82.472,145.455 81.455 L 146.509 80.400 157.793 80.400 C 168.041 80.400,169.132 80.336,169.683 79.700 C 171.404 77.715,180.373 60.839,182.438 55.700 C 182.637 55.205,183.004 54.305,183.254 53.700 C 184.404 50.909,184.959 49.467,185.600 47.600 C 185.864 46.830,186.231 45.840,186.414 45.400 C 186.986 44.028,188.247 39.966,189.396 35.800 C 191.266 29.016,192.496 24.448,193.275 21.400 C 193.499 20.520,193.845 19.387,194.042 18.881 C 194.853 16.802,194.847 16.800,188.400 16.800 C 184.667 16.800,182.400 16.951,182.400 17.200 M210.625 17.700 C 210.779 18.195,212.566 21.840,214.597 25.800 C 220.037 36.407,228.212 52.447,235.800 67.400 C 239.484 74.660,245.481 86.450,249.128 93.600 C 252.774 100.750,256.127 107.361,256.579 108.290 C 257.714 110.627,258.122 110.442,259.204 107.100 C 259.721 105.505,260.292 104.029,260.472 103.820 C 260.652 103.611,260.800 102.947,260.800 102.344 C 260.800 101.741,260.980 101.136,261.200 101.000 C 261.420 100.864,261.600 100.371,261.600 99.905 C 261.600 99.438,261.768 98.504,261.973 97.828 C 262.178 97.153,262.538 95.835,262.773 94.900 C 263.552 91.800,263.996 90.017,264.367 88.500 C 264.569 87.675,264.929 86.235,265.167 85.300 C 265.405 84.365,265.795 82.835,266.033 81.900 C 266.271 80.965,266.622 79.570,266.812 78.800 C 268.999 69.942,268.967 70.020,270.484 70.006 C 271.274 69.999,272.425 71.131,273.232 72.707 C 273.540 73.308,274.314 74.700,274.952 75.800 C 275.590 76.900,276.424 78.350,276.806 79.023 C 279.595 83.938,281.438 87.186,283.602 91.000 C 284.974 93.420,286.436 95.985,286.849 96.700 C 287.262 97.415,287.935 98.585,288.343 99.300 C 288.752 100.015,289.517 101.345,290.043 102.256 C 290.570 103.167,293.965 109.061,297.588 115.353 C 302.773 124.356,304.280 126.688,304.659 126.297 C 305.138 125.803,308.207 120.614,310.512 116.400 C 311.174 115.190,311.850 114.020,312.015 113.800 C 312.336 113.371,313.614 111.140,314.942 108.689 C 317.042 104.812,318.645 103.985,319.970 106.096 C 321.337 108.272,329.272 122.124,329.500 122.730 C 329.638 123.098,330.283 124.300,330.932 125.400 C 331.581 126.500,332.447 127.985,332.856 128.700 C 334.150 130.961,334.943 132.335,341.804 144.200 C 345.493 150.580,348.880 156.475,349.330 157.300 C 350.297 159.073,350.513 159.112,352.073 157.800 C 354.598 155.675,356.102 156.209,360.744 160.881 C 366.090 166.260,366.165 166.881,362.013 171.358 L 359.226 174.364 362.862 180.682 C 364.861 184.157,366.836 187.585,367.249 188.300 C 367.662 189.015,368.337 190.185,368.749 190.900 C 369.160 191.615,370.440 193.820,371.592 195.800 C 380.507 211.125,383.614 224.963,381.389 239.430 C 381.053 241.613,380.738 243.760,380.689 244.200 C 380.606 244.947,380.870 245.008,384.700 245.114 L 388.800 245.228 388.800 244.214 C 388.800 243.656,388.980 243.200,389.200 243.200 C 389.420 243.200,389.600 242.246,389.600 241.080 C 389.600 239.914,389.762 238.789,389.959 238.580 C 390.157 238.371,390.421 236.940,390.547 235.400 C 390.672 233.860,390.913 231.700,391.082 230.600 C 391.465 228.113,391.484 188.865,391.103 186.400 C 390.950 185.410,390.645 183.250,390.424 181.600 C 389.924 177.865,389.369 174.458,388.795 171.600 C 388.552 170.390,388.255 168.635,388.136 167.700 C 388.017 166.765,387.758 166.000,387.560 166.000 C 387.362 166.000,387.200 165.291,387.200 164.424 C 387.200 163.557,387.020 162.736,386.800 162.600 C 386.580 162.464,386.400 161.744,386.400 161.000 C 386.400 160.256,386.220 159.536,386.000 159.400 C 385.780 159.264,385.600 158.623,385.600 157.976 C 385.600 157.329,385.420 156.800,385.200 156.800 C 384.980 156.800,384.800 156.181,384.800 155.424 C 384.800 154.667,384.620 153.936,384.400 153.800 C 384.180 153.664,384.000 153.124,384.000 152.600 C 384.000 152.076,383.820 151.536,383.600 151.400 C 383.380 151.264,383.200 150.623,383.200 149.976 C 383.200 149.329,383.020 148.800,382.800 148.800 C 382.580 148.800,382.400 148.260,382.400 147.600 C 382.400 146.940,382.220 146.400,382.000 146.400 C 381.780 146.400,381.600 145.961,381.600 145.424 C 381.600 144.887,381.420 144.336,381.200 144.200 C 380.980 144.064,380.800 143.513,380.800 142.976 C 380.800 142.439,380.620 142.000,380.400 142.000 C 380.180 142.000,380.000 141.651,380.000 141.224 C 380.000 140.797,379.820 140.336,379.600 140.200 C 379.380 140.064,379.200 139.513,379.200 138.976 C 379.200 138.439,379.020 138.000,378.800 138.000 C 378.580 138.000,378.400 137.561,378.400 137.024 C 378.400 136.487,378.220 135.936,378.000 135.800 C 377.780 135.664,377.600 135.203,377.600 134.776 C 377.600 134.349,377.420 134.000,377.200 134.000 C 376.980 134.000,376.800 133.640,376.800 133.200 C 376.800 132.760,376.620 132.400,376.400 132.400 C 376.180 132.400,376.000 131.950,376.000 131.400 C 376.000 130.850,375.820 130.400,375.600 130.400 C 375.380 130.400,375.200 130.045,375.200 129.612 C 375.200 129.179,374.853 128.206,374.428 127.450 C 374.004 126.695,373.764 125.969,373.895 125.838 C 374.026 125.707,373.923 125.600,373.667 125.600 C 373.410 125.600,373.200 125.255,373.200 124.833 C 373.200 124.412,373.065 124.007,372.900 123.933 C 372.468 123.741,370.800 120.428,370.800 119.762 C 370.800 119.453,370.620 119.200,370.400 119.200 C 370.180 119.200,370.000 118.840,370.000 118.400 C 370.000 117.960,369.820 117.600,369.600 117.600 C 369.380 117.600,369.200 117.240,369.200 116.800 C 369.200 116.360,369.020 116.000,368.800 116.000 C 368.580 116.000,368.400 115.764,368.400 115.475 C 368.400 115.187,368.040 114.564,367.600 114.092 C 367.160 113.620,366.800 112.956,366.800 112.617 C 366.800 112.278,366.664 112.000,366.498 112.000 C 366.331 112.000,365.971 111.494,365.697 110.875 C 365.424 110.256,364.840 109.364,364.400 108.892 C 363.960 108.420,363.600 107.796,363.600 107.505 C 363.600 107.214,363.240 106.717,362.800 106.400 C 362.360 106.083,362.000 105.503,362.000 105.112 C 362.000 104.720,361.850 104.400,361.668 104.400 C 361.485 104.400,361.080 103.905,360.768 103.300 C 360.456 102.695,360.080 102.108,359.933 101.996 C 359.785 101.884,359.605 101.524,359.532 101.196 C 359.459 100.868,359.128 100.330,358.795 100.000 C 358.462 99.670,357.301 98.050,356.214 96.400 C 355.128 94.750,354.095 93.340,353.919 93.267 C 353.744 93.193,353.600 92.969,353.600 92.767 C 353.600 92.566,352.880 91.659,352.000 90.752 C 351.120 89.845,350.400 88.941,350.400 88.741 C 350.400 88.542,349.590 87.569,348.600 86.579 C 347.610 85.589,346.800 84.608,346.800 84.398 C 346.800 84.189,345.810 83.027,344.600 81.817 C 343.390 80.607,342.400 79.522,342.400 79.405 C 342.400 78.837,332.222 68.506,330.104 66.923 C 329.277 66.305,327.757 64.945,326.726 63.900 C 325.695 62.855,324.745 62.000,324.615 62.000 C 324.407 62.000,322.456 60.339,320.972 58.900 C 320.689 58.625,320.264 58.400,320.029 58.400 C 319.793 58.400,319.600 58.220,319.600 58.000 C 319.600 57.780,319.402 57.600,319.160 57.600 C 318.919 57.600,318.217 57.060,317.600 56.400 C 316.983 55.740,316.231 55.200,315.928 55.200 C 315.625 55.200,315.117 54.840,314.800 54.400 C 314.483 53.960,313.983 53.600,313.688 53.600 C 313.385 53.600,313.277 53.399,313.438 53.138 C 313.609 52.862,313.549 52.785,313.288 52.946 C 313.048 53.094,312.398 52.762,311.844 52.208 C 311.290 51.653,310.624 51.200,310.365 51.200 C 310.106 51.200,309.603 50.885,309.247 50.499 C 308.345 49.523,303.767 46.400,303.236 46.400 C 302.996 46.400,302.800 46.250,302.800 46.068 C 302.800 45.885,302.305 45.480,301.700 45.168 C 301.095 44.856,300.510 44.498,300.400 44.371 C 300.290 44.245,298.805 43.448,297.100 42.600 C 295.395 41.752,294.000 40.910,294.000 40.729 C 294.000 40.548,293.640 40.400,293.200 40.400 C 292.760 40.400,292.400 40.254,292.400 40.075 C 292.400 39.896,291.770 39.502,291.000 39.200 C 290.230 38.898,289.600 38.504,289.600 38.325 C 289.600 38.146,289.240 38.000,288.800 38.000 C 288.360 38.000,288.000 37.820,288.000 37.600 C 288.000 37.380,287.640 37.200,287.200 37.200 C 286.760 37.200,286.400 37.020,286.400 36.800 C 286.400 36.580,286.040 36.400,285.600 36.400 C 285.160 36.400,284.800 36.220,284.800 36.000 C 284.800 35.780,284.440 35.600,284.000 35.600 C 283.560 35.600,283.200 35.420,283.200 35.200 C 283.200 34.980,282.840 34.800,282.400 34.800 C 281.960 34.800,281.600 34.620,281.600 34.400 C 281.600 34.180,281.240 34.000,280.800 34.000 C 280.360 34.000,280.000 33.820,280.000 33.600 C 280.000 33.380,279.651 33.200,279.224 33.200 C 278.797 33.200,278.336 33.020,278.200 32.800 C 278.064 32.580,277.513 32.400,276.976 32.400 C 276.439 32.400,276.000 32.220,276.000 32.000 C 276.000 31.780,275.640 31.600,275.200 31.600 C 274.760 31.600,274.400 31.420,274.400 31.200 C 274.400 30.980,274.121 30.800,273.781 30.800 C 273.440 30.800,272.416 30.440,271.506 30.000 C 270.595 29.560,269.619 29.200,269.337 29.200 C 269.055 29.200,268.183 28.840,267.400 28.400 C 266.617 27.960,265.621 27.600,265.188 27.600 C 264.755 27.600,264.400 27.420,264.400 27.200 C 264.400 26.980,263.871 26.800,263.224 26.800 C 262.577 26.800,261.949 26.641,261.829 26.446 C 261.708 26.251,261.113 26.000,260.505 25.887 C 259.897 25.773,258.950 25.553,258.400 25.396 C 257.850 25.239,256.815 25.021,256.100 24.912 C 255.385 24.802,254.800 24.552,254.800 24.356 C 254.800 24.160,254.170 24.000,253.400 24.000 C 252.630 24.000,252.000 23.820,252.000 23.600 C 252.000 23.380,251.471 23.200,250.824 23.200 C 250.177 23.200,249.536 23.020,249.400 22.800 C 249.264 22.580,248.544 22.400,247.800 22.400 C 247.056 22.400,246.336 22.220,246.200 22.000 C 246.064 21.780,245.254 21.600,244.400 21.600 C 243.546 21.600,242.736 21.420,242.600 21.200 C 242.464 20.980,241.643 20.800,240.776 20.800 C 239.909 20.800,239.200 20.620,239.200 20.400 C 239.200 20.180,238.311 20.000,237.224 20.000 C 236.137 20.000,235.136 19.820,235.000 19.600 C 234.864 19.380,233.874 19.200,232.800 19.200 C 231.726 19.200,230.736 19.020,230.600 18.800 C 230.464 18.580,229.204 18.400,227.800 18.400 C 226.396 18.400,225.136 18.220,225.000 18.000 C 224.864 17.780,223.143 17.600,221.176 17.600 C 219.059 17.600,217.600 17.437,217.600 17.200 C 217.600 16.963,216.124 16.800,213.973 16.800 C 210.396 16.800,210.350 16.812,210.625 17.700 M254.027 40.100 C 257.248 44.471,262.336 51.968,262.559 52.672 C 263.078 54.307,252.855 68.414,251.522 67.902 C 250.668 67.575,241.600 54.097,241.600 53.156 C 241.600 52.491,246.793 44.444,250.284 39.700 C 251.571 37.951,252.519 38.053,254.027 40.100 M149.425 48.454 C 153.087 50.175,154.908 54.530,153.436 58.051 C 150.026 66.213,138.400 64.160,138.400 55.397 C 138.400 49.713,144.257 46.025,149.425 48.454 M99.435 67.906 C 100.415 68.567,109.200 81.621,109.200 82.415 C 109.200 82.962,104.689 89.888,100.808 95.300 C 99.492 97.136,98.438 97.625,97.371 96.894 C 96.326 96.177,87.575 82.643,87.792 82.078 C 88.083 81.319,94.918 71.132,96.500 69.100 C 97.626 67.653,98.521 67.289,99.435 67.906 M305.032 82.500 C 312.567 87.594,307.689 98.332,298.614 96.629 C 295.740 96.090,292.800 92.366,292.800 89.265 C 292.800 82.868,299.828 78.981,305.032 82.500 M221.154 93.334 C 215.283 95.505,213.735 102.110,218.110 106.321 C 223.267 111.287,231.705 107.289,231.113 100.162 C 230.701 95.194,225.593 91.692,221.154 93.334 " stroke="none" fill="#fbe3db" fill-rule="evenodd"></path><path id="path1" d="M158.364 80.689 L 146.528 80.812 145.595 81.805 L 144.662 82.799 144.477 105.999 C 144.310 126.938,144.230 129.200,143.651 129.200 C 143.298 129.200,140.445 126.639,137.309 123.509 C 129.909 116.123,130.003 116.138,124.775 121.451 C 119.312 127.003,118.861 125.877,131.644 138.603 C 137.388 144.321,142.608 149.800,143.244 150.778 L 144.400 152.557 144.400 184.154 L 144.400 215.752 138.900 226.776 C 135.875 232.839,133.265 237.860,133.100 237.933 C 132.935 238.007,132.800 238.412,132.800 238.833 C 132.800 239.255,132.620 239.600,132.400 239.600 C 132.180 239.600,132.000 239.960,132.000 240.400 C 132.000 240.840,131.820 241.200,131.600 241.200 C 131.380 241.200,131.200 241.560,131.200 242.000 C 131.200 242.440,131.020 242.800,130.800 242.800 C 130.580 242.800,130.400 243.229,130.400 243.753 L 130.400 244.707 144.500 244.981 C 152.255 245.132,162.290 245.198,166.800 245.128 L 175.000 245.000 175.200 222.000 L 175.400 199.000 177.945 194.200 C 179.345 191.560,181.948 186.520,183.730 183.000 C 186.899 176.741,187.074 176.493,191.685 171.738 C 196.915 166.345,197.185 165.726,195.551 162.879 L 194.701 161.400 198.905 153.200 C 212.804 126.084,211.531 129.921,208.547 124.154 C 207.307 121.759,205.148 117.570,203.749 114.844 C 200.996 109.481,200.553 108.800,199.822 108.800 C 199.329 108.800,198.841 109.719,186.890 133.200 C 183.026 140.790,179.430 147.855,178.897 148.900 C 178.364 149.945,177.798 150.800,177.639 150.800 C 177.480 150.800,177.102 151.430,176.800 152.200 C 176.498 152.970,176.104 153.600,175.925 153.600 C 175.746 153.600,175.568 153.915,175.530 154.300 C 175.195 157.644,174.899 139.982,174.854 113.970 L 174.800 82.539 173.900 81.702 C 172.701 80.586,172.081 80.546,158.364 80.689 M80.253 107.191 C 79.674 108.067,79.200 108.952,79.200 109.158 C 79.200 109.364,79.065 109.593,78.900 109.667 C 78.524 109.834,77.225 111.964,76.929 112.900 C 76.807 113.285,76.548 113.600,76.353 113.600 C 76.159 113.600,76.000 113.960,76.000 114.400 C 76.000 114.840,75.865 115.201,75.700 115.203 C 75.535 115.205,75.204 115.610,74.964 116.103 C 74.200 117.673,71.900 121.781,71.493 122.300 C 71.232 122.634,69.887 122.803,67.451 122.809 C 61.539 122.823,61.200 123.364,61.200 132.793 C 61.200 138.588,61.089 139.866,60.476 141.119 C 59.643 142.822,58.691 144.509,58.399 144.800 C 58.289 144.910,57.929 145.540,57.599 146.200 C 57.270 146.860,55.515 149.975,53.700 153.123 C 51.885 156.271,50.400 159.016,50.400 159.223 C 50.400 159.430,50.241 159.600,50.047 159.600 C 49.852 159.600,49.593 159.915,49.471 160.300 C 48.674 162.816,47.008 164.419,45.505 164.120 C 44.095 163.839,43.120 164.493,39.406 168.207 C 34.722 172.891,34.375 174.294,37.229 177.028 C 38.740 178.475,38.703 179.294,36.999 182.120 C 36.230 183.396,35.600 184.503,35.600 184.579 C 35.600 184.656,34.880 185.903,34.000 187.352 C 33.120 188.800,32.400 190.169,32.400 190.393 C 32.400 190.617,32.241 190.800,32.047 190.800 C 31.852 190.800,31.593 191.115,31.471 191.500 C 31.254 192.187,29.995 194.406,29.599 194.800 C 29.489 194.910,29.129 195.540,28.800 196.200 C 28.471 196.860,28.111 197.490,28.000 197.600 C 27.889 197.710,27.529 198.340,27.200 199.000 C 26.871 199.660,26.507 200.290,26.393 200.400 C 26.278 200.510,25.580 201.860,24.843 203.400 C 18.822 215.972,17.073 229.286,19.707 242.500 L 20.165 244.800 25.653 244.800 L 31.141 244.800 31.331 236.700 C 31.435 232.245,31.707 227.700,31.934 226.600 C 32.916 221.845,33.246 220.582,34.398 217.143 C 35.509 213.826,38.166 208.081,40.338 204.300 C 41.832 201.699,42.773 200.048,43.643 198.500 C 44.106 197.675,44.627 196.820,44.800 196.600 C 44.973 196.380,45.512 195.480,45.997 194.600 C 49.157 188.872,48.225 188.796,54.635 195.300 C 57.508 198.215,60.071 201.103,60.330 201.719 C 60.679 202.550,60.800 212.641,60.800 240.953 C 60.800 289.070,61.097 306.675,61.912 306.988 C 62.233 307.111,69.854 307.090,78.848 306.941 L 95.200 306.670 95.200 289.168 C 95.200 279.542,95.309 271.381,95.443 271.033 C 95.644 270.510,96.437 270.400,100.024 270.400 C 107.138 270.400,107.600 269.876,107.600 261.808 L 107.600 256.338 106.431 255.169 C 105.282 254.020,105.187 254.000,100.907 254.000 C 94.219 254.000,95.000 258.873,95.000 217.132 C 95.000 182.857,95.031 181.343,95.756 180.012 C 96.171 179.249,101.251 173.895,107.044 168.115 C 120.922 154.267,120.531 155.257,114.539 149.158 C 108.840 143.357,108.627 143.381,101.426 150.582 C 98.666 153.342,96.139 155.600,95.810 155.600 C 95.293 155.600,95.213 153.829,95.212 142.300 C 95.211 124.877,94.735 122.842,90.645 122.772 C 87.729 122.722,87.436 122.427,88.599 120.716 C 89.851 118.873,89.788 117.388,88.400 116.000 C 88.004 115.604,86.746 113.385,86.529 112.700 C 86.407 112.315,86.148 112.000,85.953 112.000 C 85.759 112.000,85.600 111.640,85.600 111.200 C 85.600 110.760,85.465 110.400,85.299 110.400 C 85.134 110.400,84.552 109.545,84.005 108.500 C 82.216 105.079,81.757 104.918,80.253 107.191 M317.400 106.136 C 316.985 106.660,316.789 106.999,315.171 110.000 C 314.637 110.990,314.110 111.890,314.000 112.000 C 313.604 112.396,312.346 114.615,312.129 115.300 C 312.007 115.685,311.781 116.000,311.628 116.000 C 311.475 116.000,311.102 116.630,310.800 117.400 C 310.498 118.170,310.125 118.800,309.972 118.800 C 309.819 118.800,309.590 119.115,309.464 119.500 C 309.338 119.885,308.686 121.100,308.014 122.200 C 307.343 123.300,306.354 125.030,305.818 126.045 L 304.842 127.890 305.659 129.445 C 306.108 130.300,306.745 131.423,307.074 131.940 C 307.402 132.458,308.225 133.898,308.902 135.140 C 309.578 136.383,310.237 137.490,310.366 137.600 C 310.495 137.710,311.094 138.742,311.698 139.893 L 312.796 141.986 311.798 142.193 C 306.807 143.229,307.203 140.758,307.201 170.876 C 307.200 188.679,307.070 196.433,306.768 196.620 C 306.527 196.769,303.378 193.961,299.620 190.243 C 290.990 181.707,291.460 181.796,285.634 187.586 C 279.351 193.829,278.806 192.493,293.796 207.600 C 300.454 214.310,306.149 220.250,306.451 220.800 C 306.904 221.626,307.000 227.695,307.000 255.600 L 307.000 289.400 311.895 297.780 C 314.587 302.390,317.017 306.354,317.295 306.590 C 317.638 306.882,321.552 306.974,329.500 306.878 L 341.200 306.736 341.202 250.668 C 341.204 211.271,341.335 194.124,341.643 193.000 C 341.996 191.709,343.675 189.767,350.341 182.937 C 367.102 165.761,366.504 167.196,359.692 160.505 C 355.723 156.607,354.301 156.207,352.200 158.400 C 351.568 159.060,350.862 159.600,350.632 159.600 C 350.402 159.600,348.368 161.439,346.113 163.686 C 343.463 166.327,341.876 167.636,341.625 167.385 C 341.398 167.158,341.187 162.301,341.118 155.709 C 340.965 141.102,342.453 142.686,328.544 142.322 C 322.695 142.169,317.852 141.985,317.780 141.914 C 317.709 141.842,318.742 139.897,320.076 137.592 C 321.409 135.286,322.950 132.590,323.500 131.600 C 324.049 130.610,324.881 129.170,325.349 128.400 C 328.847 122.637,328.737 123.101,327.275 120.273 C 325.530 116.896,324.656 115.425,324.300 115.267 C 324.135 115.193,324.000 114.803,324.000 114.400 C 324.000 113.997,323.865 113.607,323.700 113.533 C 323.324 113.366,322.025 111.236,321.729 110.300 C 321.607 109.915,321.348 109.600,321.153 109.600 C 320.959 109.600,320.800 109.240,320.800 108.800 C 320.800 108.360,320.659 108.000,320.486 108.000 C 320.314 108.000,319.854 107.460,319.464 106.800 C 318.710 105.524,318.052 105.312,317.400 106.136 M227.170 136.513 C 225.121 138.098,225.190 137.237,224.921 164.552 C 224.783 178.548,224.571 190.000,224.451 190.000 C 224.330 190.000,221.434 187.223,218.016 183.828 C 209.316 175.190,209.200 175.170,203.139 181.321 C 199.340 185.176,199.200 185.382,199.200 187.102 L 199.200 188.886 211.441 201.142 C 218.173 207.883,223.912 213.848,224.193 214.399 C 224.599 215.193,224.740 226.875,224.876 270.853 C 225.063 331.945,224.863 327.375,227.424 329.053 C 228.844 329.983,256.679 329.382,257.657 328.400 C 259.054 326.996,259.200 325.302,259.200 310.467 C 259.200 295.345,259.390 293.562,261.173 292.000 C 261.299 291.890,261.665 291.260,261.988 290.600 C 262.311 289.940,263.076 288.648,263.688 287.728 C 264.299 286.808,264.800 285.976,264.800 285.879 C 264.800 285.781,266.352 283.024,268.249 279.751 C 270.146 276.478,272.007 273.260,272.384 272.600 C 272.835 271.812,272.973 271.057,272.787 270.400 C 272.631 269.850,272.309 268.500,272.071 267.400 C 271.833 266.300,271.240 263.555,270.753 261.300 C 270.266 259.045,269.671 257.200,269.430 257.200 C 268.912 257.200,268.738 257.467,264.887 264.200 C 263.250 267.060,261.514 270.093,261.028 270.941 C 260.542 271.788,259.977 272.508,259.772 272.541 C 259.191 272.633,259.051 188.215,259.630 186.200 C 260.006 184.888,262.131 182.542,271.444 173.158 C 285.361 159.137,284.762 160.689,278.637 154.497 L 274.473 150.288 272.585 150.500 C 270.790 150.703,270.439 150.971,265.393 156.007 C 262.323 159.071,259.901 161.186,259.644 161.027 C 259.337 160.837,259.200 157.508,259.200 150.236 C 259.200 139.100,259.012 137.693,257.384 136.626 C 256.126 135.802,228.224 135.697,227.170 136.513 M60.800 173.214 C 60.800 176.541,60.744 176.798,60.096 176.451 C 57.881 175.266,57.636 173.835,59.252 171.538 C 59.664 170.954,60.000 170.279,60.000 170.038 C 60.000 169.797,60.180 169.600,60.400 169.600 C 60.637 169.600,60.800 171.071,60.800 173.214 M129.657 260.700 C 126.824 280.128,124.595 284.877,113.325 295.495 C 110.345 298.303,106.443 301.991,104.653 303.691 L 101.400 306.781 109.439 306.791 L 117.478 306.800 123.843 300.500 C 132.509 291.923,135.417 286.740,137.178 276.731 C 138.193 270.964,138.204 269.579,137.245 267.912 C 136.830 267.190,135.512 264.890,134.316 262.800 C 130.337 255.846,130.363 255.858,129.657 260.700 " stroke="none" fill="#bc5347" fill-rule="evenodd"></path><path id="path2" d="M250.284 39.700 C 246.793 44.444,241.600 52.491,241.600 53.156 C 241.600 54.097,250.668 67.575,251.522 67.902 C 252.548 68.296,253.249 67.494,258.080 60.400 C 263.583 52.318,263.514 53.616,258.795 46.844 C 252.140 37.294,252.087 37.250,250.284 39.700 M143.203 48.237 C 136.865 50.986,136.782 59.976,143.071 62.604 C 147.190 64.325,151.629 62.376,153.436 58.051 C 155.930 52.083,149.206 45.634,143.203 48.237 M96.500 69.100 C 94.918 71.132,88.083 81.319,87.792 82.078 C 87.575 82.643,96.326 96.177,97.371 96.894 C 98.974 97.992,99.257 97.697,105.685 88.218 C 109.912 81.985,109.873 82.787,106.218 77.397 C 98.627 66.202,98.704 66.268,96.500 69.100 M101.050 70.700 C 102.090 72.185,104.199 75.173,105.737 77.340 C 109.607 82.793,109.865 81.882,100.895 94.418 C 98.328 98.006,98.202 97.908,90.459 86.318 C 87.583 82.014,87.074 83.426,96.357 69.968 C 98.168 67.342,98.764 67.435,101.050 70.700 M129.689 70.223 C 129.193 70.570,128.800 71.267,128.800 71.799 C 128.800 72.324,128.620 72.864,128.400 73.000 C 128.180 73.136,128.000 73.766,128.000 74.400 C 128.000 75.034,127.820 75.664,127.600 75.800 C 127.380 75.936,127.200 76.478,127.200 77.005 C 127.200 77.531,127.039 78.376,126.842 78.881 C 126.645 79.387,126.285 80.565,126.042 81.500 C 125.034 85.377,124.692 86.651,124.400 87.600 C 124.070 88.674,123.353 91.332,122.781 93.600 C 122.587 94.370,122.312 95.428,122.171 95.950 C 122.012 96.538,122.066 96.806,122.313 96.654 C 122.532 96.518,122.805 95.821,122.919 95.104 C 123.032 94.387,123.339 93.080,123.600 92.200 C 123.861 91.320,124.168 90.013,124.281 89.296 C 124.395 88.579,124.649 87.894,124.844 87.773 C 125.040 87.652,125.200 87.122,125.200 86.595 C 125.200 86.069,125.357 85.224,125.549 84.719 C 125.910 83.768,126.365 82.224,127.146 79.300 C 127.396 78.365,127.806 76.835,128.058 75.900 C 129.866 69.188,130.812 68.746,133.412 73.395 C 134.226 74.851,134.969 75.965,135.063 75.871 C 135.280 75.653,132.593 71.050,131.766 70.223 C 130.991 69.448,130.795 69.448,129.689 70.223 M269.300 70.265 C 269.025 70.376,268.800 70.668,268.800 70.913 C 268.800 71.224,268.946 71.214,269.280 70.880 C 270.509 69.651,271.434 70.460,274.021 75.026 C 274.450 75.782,275.160 77.030,275.600 77.800 C 276.040 78.570,276.779 79.875,277.243 80.700 C 277.706 81.525,278.224 82.380,278.394 82.600 C 278.563 82.820,279.419 84.350,280.295 86.000 C 281.172 87.650,282.832 90.620,283.986 92.600 C 285.139 94.580,286.491 96.920,286.990 97.800 C 287.488 98.680,288.843 101.020,290.000 103.000 C 292.096 106.589,292.935 108.037,294.343 110.500 C 294.752 111.215,295.517 112.545,296.043 113.455 C 296.570 114.365,298.619 117.920,300.599 121.355 C 304.572 128.249,304.667 128.330,305.911 125.900 C 306.390 124.965,307.334 123.300,308.009 122.200 C 308.683 121.100,309.338 119.885,309.464 119.500 C 309.590 119.115,309.819 118.800,309.972 118.800 C 310.125 118.800,310.498 118.170,310.800 117.400 C 311.102 116.630,311.475 116.000,311.628 116.000 C 311.781 116.000,312.007 115.685,312.129 115.300 C 312.346 114.615,313.604 112.396,314.000 112.000 C 314.110 111.890,314.637 110.990,315.171 110.000 C 316.889 106.815,316.993 106.639,317.471 106.115 C 318.197 105.322,318.691 105.492,319.464 106.800 C 319.854 107.460,320.314 108.000,320.486 108.000 C 320.659 108.000,320.800 108.345,320.800 108.767 C 320.800 109.188,320.935 109.593,321.100 109.667 C 321.476 109.834,322.775 111.964,323.071 112.900 C 323.193 113.285,323.452 113.600,323.647 113.600 C 323.841 113.600,324.000 113.945,324.000 114.367 C 324.000 114.788,324.135 115.193,324.300 115.267 C 324.656 115.425,325.530 116.896,327.275 120.273 C 328.737 123.101,328.847 122.637,325.349 128.400 C 324.881 129.170,324.049 130.610,323.500 131.600 C 322.950 132.590,321.409 135.286,320.076 137.592 C 318.742 139.897,317.709 141.842,317.780 141.914 C 317.852 141.985,322.695 142.169,328.544 142.322 C 342.453 142.686,340.965 141.102,341.118 155.709 C 341.187 162.301,341.398 167.158,341.625 167.385 C 341.876 167.636,343.463 166.327,346.113 163.686 C 348.368 161.439,350.402 159.600,350.632 159.600 C 350.862 159.600,351.568 159.060,352.200 158.400 C 354.301 156.207,355.723 156.607,359.692 160.505 C 366.504 167.196,367.102 165.761,350.341 182.937 C 343.675 189.767,341.996 191.709,341.643 193.000 C 341.335 194.124,341.204 211.280,341.202 250.700 L 341.200 306.800 338.500 306.802 C 337.015 306.803,324.170 306.922,309.955 307.066 C 295.740 307.210,283.802 307.210,283.426 307.065 C 282.702 306.788,283.386 305.470,285.329 303.400 C 287.681 300.893,292.871 291.203,295.183 285.000 C 296.275 282.073,296.784 280.815,297.247 279.905 C 297.441 279.523,297.604 278.983,297.609 278.705 C 297.645 276.671,300.800 276.006,300.800 278.033 C 300.800 278.202,301.662 279.749,302.715 281.471 C 303.768 283.192,304.854 285.140,305.129 285.800 C 307.017 290.341,307.008 290.435,306.893 266.998 L 306.787 245.200 302.609 245.200 C 297.652 245.200,298.396 244.637,293.400 252.171 C 288.597 259.415,288.123 259.544,284.769 254.523 C 278.360 244.929,278.684 245.214,274.167 245.206 L 270.533 245.200 265.170 234.600 C 262.220 228.770,259.669 224.000,259.500 224.000 C 259.050 224.000,259.322 272.392,259.772 272.441 C 259.977 272.463,260.542 271.788,261.028 270.941 C 261.514 270.093,263.250 267.060,264.887 264.200 C 268.738 257.467,268.912 257.200,269.430 257.200 C 269.671 257.200,270.266 259.045,270.753 261.300 C 271.240 263.555,271.833 266.300,272.071 267.400 C 272.309 268.500,272.631 269.850,272.787 270.400 C 272.973 271.057,272.835 271.812,272.384 272.600 C 272.007 273.260,270.146 276.478,268.249 279.751 C 266.352 283.024,264.800 285.781,264.800 285.879 C 264.800 285.976,264.299 286.808,263.688 287.728 C 263.076 288.648,262.311 289.940,261.988 290.600 C 261.665 291.260,261.299 291.890,261.173 292.000 C 259.390 293.562,259.200 295.345,259.200 310.467 C 259.200 325.302,259.054 326.996,257.657 328.400 C 256.679 329.382,228.844 329.983,227.424 329.053 C 224.863 327.375,225.063 331.945,224.876 270.853 C 224.740 226.875,224.599 215.193,224.193 214.399 C 223.912 213.848,218.173 207.883,211.441 201.142 L 199.200 188.886 199.200 187.102 C 199.200 185.382,199.340 185.176,203.139 181.321 C 209.200 175.170,209.316 175.190,218.016 183.828 C 221.434 187.223,224.359 190.000,224.516 190.000 C 224.672 190.000,224.800 182.168,224.800 172.595 L 224.800 155.190 221.655 149.095 C 219.926 145.743,216.821 139.672,214.755 135.604 C 212.159 130.490,210.961 128.484,210.872 129.104 C 210.751 129.955,208.591 134.304,198.905 153.200 L 194.701 161.400 195.551 162.879 C 197.185 165.726,196.915 166.345,191.685 171.738 C 187.074 176.493,186.899 176.741,183.730 183.000 C 181.948 186.520,179.345 191.560,177.945 194.200 L 175.400 199.000 175.200 222.000 L 175.000 245.000 166.800 245.128 C 150.441 245.383,130.404 244.792,130.373 244.053 C 130.353 243.583,130.225 243.651,129.912 244.300 L 129.478 245.200 112.339 245.200 L 95.200 245.200 95.200 249.186 C 95.200 254.064,95.123 254.000,101.004 254.000 C 105.176 254.000,105.285 254.023,106.431 255.169 L 107.600 256.338 107.600 261.808 C 107.600 269.876,107.138 270.400,100.024 270.400 C 96.437 270.400,95.644 270.510,95.443 271.033 C 95.309 271.381,95.200 279.542,95.200 289.168 L 95.200 306.670 78.900 306.915 C 56.200 307.255,40.288 307.285,39.520 306.991 C 39.019 306.798,39.613 306.038,42.114 303.671 C 47.899 298.194,49.577 296.218,51.158 293.022 C 52.740 289.824,53.529 287.324,53.996 284.027 C 54.695 279.103,55.494 278.726,57.538 282.355 C 57.833 282.880,58.440 283.960,58.886 284.755 C 60.926 288.391,60.800 290.993,60.800 245.308 C 60.800 213.658,60.680 202.553,60.330 201.719 C 59.807 200.475,49.661 190.000,48.979 190.000 C 48.742 190.000,48.172 190.675,47.714 191.500 C 47.255 192.325,46.483 193.720,45.997 194.600 C 45.512 195.480,44.973 196.380,44.800 196.600 C 44.627 196.820,44.106 197.675,43.643 198.500 C 42.773 200.048,41.832 201.699,40.338 204.300 C 38.166 208.081,35.509 213.826,34.398 217.143 C 33.246 220.582,32.916 221.845,31.934 226.600 C 31.707 227.700,31.435 232.245,31.331 236.700 L 31.141 244.800 25.653 244.800 L 20.165 244.800 19.707 242.500 C 17.381 230.828,18.645 217.867,23.169 207.000 C 23.806 205.470,26.185 200.599,26.393 200.400 C 26.507 200.290,26.871 199.660,27.200 199.000 C 27.529 198.340,27.889 197.710,28.000 197.600 C 28.111 197.490,28.471 196.860,28.800 196.200 C 29.129 195.540,29.489 194.910,29.599 194.800 C 29.995 194.406,31.254 192.187,31.471 191.500 C 31.593 191.115,31.852 190.800,32.047 190.800 C 32.241 190.800,32.400 190.617,32.400 190.393 C 32.400 190.169,33.120 188.800,34.000 187.352 C 34.880 185.903,35.600 184.656,35.600 184.579 C 35.600 184.503,36.230 183.396,36.999 182.120 C 38.618 179.434,38.734 178.421,37.543 177.362 C 37.071 176.943,36.352 176.060,35.944 175.400 C 35.512 174.700,35.202 174.462,35.201 174.828 C 35.201 175.173,35.841 176.205,36.624 177.120 L 38.048 178.783 36.567 181.292 C 35.752 182.671,34.544 184.790,33.882 186.000 C 33.220 187.210,32.345 188.678,31.939 189.262 C 31.533 189.846,31.200 190.412,31.200 190.521 C 31.200 190.629,30.480 191.903,29.600 193.352 C 28.720 194.800,28.000 196.096,28.000 196.231 C 28.000 196.366,27.638 196.985,27.196 197.606 C 23.740 202.459,20.101 212.362,18.443 221.424 C 17.912 224.327,17.855 237.619,18.365 239.600 C 18.563 240.370,18.838 241.945,18.976 243.100 L 19.228 245.200 15.214 245.200 C 11.257 245.200,9.834 245.909,11.600 247.000 C 11.820 247.136,12.000 248.047,12.000 249.024 C 12.000 250.001,12.180 250.800,12.400 250.800 C 12.620 250.800,12.800 251.509,12.800 252.376 C 12.800 253.243,12.980 254.064,13.200 254.200 C 13.420 254.336,13.600 255.052,13.600 255.790 C 13.600 256.529,13.772 257.193,13.982 257.267 C 14.193 257.340,14.410 258.075,14.464 258.900 C 14.519 259.725,14.707 260.400,14.882 260.400 C 15.057 260.400,15.200 260.929,15.200 261.576 C 15.200 262.223,15.380 262.864,15.600 263.000 C 15.820 263.136,16.000 263.766,16.000 264.400 C 16.000 265.034,16.180 265.664,16.400 265.800 C 16.620 265.936,16.800 266.476,16.800 267.000 C 16.800 267.524,16.980 268.064,17.200 268.200 C 17.420 268.336,17.600 268.876,17.600 269.400 C 17.600 269.924,17.780 270.464,18.000 270.600 C 18.220 270.736,18.400 271.287,18.400 271.824 C 18.400 272.361,18.580 272.800,18.800 272.800 C 19.020 272.800,19.200 273.162,19.200 273.605 C 19.200 274.048,19.380 274.768,19.600 275.205 C 19.820 275.642,20.180 276.358,20.400 276.795 C 20.620 277.232,20.800 277.952,20.800 278.395 C 20.800 278.838,20.980 279.200,21.200 279.200 C 21.420 279.200,21.600 279.560,21.600 280.000 C 21.600 280.440,21.780 280.800,22.000 280.800 C 22.220 280.800,22.400 281.351,22.400 282.024 C 22.400 282.737,22.567 283.144,22.800 283.000 C 23.027 282.860,23.200 283.196,23.200 283.776 C 23.200 284.339,23.380 284.800,23.600 284.800 C 23.820 284.800,24.000 285.250,24.000 285.800 C 24.000 286.350,24.180 286.800,24.400 286.800 C 24.620 286.800,24.800 287.072,24.800 287.405 C 24.800 287.738,24.973 288.323,25.184 288.705 C 26.438 290.975,27.895 294.372,27.698 294.569 C 27.571 294.696,27.677 294.800,27.933 294.800 C 28.190 294.800,28.404 295.025,28.409 295.300 C 28.414 295.575,28.770 296.250,29.200 296.800 C 29.630 297.350,29.986 298.115,29.991 298.500 C 29.996 298.885,30.180 299.200,30.400 299.200 C 30.620 299.200,30.800 299.526,30.800 299.925 C 30.800 300.323,31.115 300.998,31.500 301.425 C 31.885 301.852,32.605 302.966,33.100 303.900 C 35.205 307.875,35.766 308.800,36.074 308.800 C 36.253 308.800,36.400 309.120,36.400 309.512 C 36.400 309.903,36.760 310.483,37.200 310.800 C 37.640 311.117,38.000 311.697,38.000 312.088 C 38.000 312.480,38.150 312.800,38.332 312.800 C 38.515 312.800,38.919 313.295,39.230 313.900 C 39.540 314.505,40.111 315.291,40.497 315.647 C 40.884 316.003,41.200 316.548,41.200 316.859 C 41.200 317.169,41.560 317.683,42.000 318.000 C 42.440 318.317,42.800 318.819,42.800 319.115 C 42.800 319.562,44.451 322.088,45.208 322.800 C 45.325 322.910,46.041 323.810,46.799 324.800 C 47.557 325.790,48.497 326.891,48.889 327.247 C 49.280 327.603,49.600 328.076,49.600 328.299 C 49.600 328.521,50.320 329.445,51.200 330.352 C 52.080 331.259,52.800 332.181,52.800 332.400 C 52.800 332.620,52.980 332.800,53.200 332.800 C 53.420 332.800,53.600 332.983,53.600 333.207 C 53.600 333.431,54.725 334.766,56.100 336.174 C 58.266 338.391,62.372 342.812,64.680 345.411 C 65.076 345.858,66.565 347.208,67.988 348.411 C 69.412 349.615,71.392 351.412,72.388 352.403 C 73.385 353.395,75.010 354.828,76.000 355.586 C 76.990 356.345,78.230 357.378,78.755 357.883 C 79.280 358.387,79.864 358.800,80.054 358.800 C 80.243 358.800,81.066 359.430,81.882 360.200 C 82.699 360.970,83.496 361.600,83.655 361.600 C 83.813 361.600,84.181 361.831,84.471 362.113 C 84.762 362.395,85.630 363.062,86.400 363.594 C 87.170 364.127,88.091 364.886,88.447 365.281 C 88.803 365.676,89.388 366.000,89.747 366.000 C 90.106 366.000,90.400 366.138,90.400 366.306 C 90.400 366.474,91.120 367.056,92.000 367.600 C 92.880 368.144,93.600 368.726,93.600 368.894 C 93.600 369.062,93.788 369.200,94.017 369.200 C 94.246 369.200,94.820 369.560,95.292 370.000 C 95.764 370.440,96.387 370.800,96.675 370.800 C 96.964 370.800,97.200 370.942,97.200 371.116 C 97.200 371.290,98.187 371.933,99.393 372.543 C 100.599 373.154,101.690 373.822,101.817 374.027 C 101.943 374.232,102.397 374.400,102.824 374.400 C 103.251 374.400,103.600 374.580,103.600 374.800 C 103.600 375.020,103.878 375.200,104.217 375.200 C 104.556 375.200,105.220 375.560,105.692 376.000 C 106.164 376.440,106.787 376.800,107.075 376.800 C 107.364 376.800,107.600 376.980,107.600 377.200 C 107.600 377.420,107.960 377.600,108.400 377.600 C 108.840 377.600,109.200 377.746,109.200 377.925 C 109.200 378.104,109.830 378.498,110.600 378.800 C 111.370 379.102,112.000 379.496,112.000 379.675 C 112.000 379.854,112.360 380.000,112.800 380.000 C 113.240 380.000,113.600 380.180,113.600 380.400 C 113.600 380.620,113.960 380.800,114.400 380.800 C 114.840 380.800,115.200 380.980,115.200 381.200 C 115.200 381.420,115.434 381.600,115.720 381.600 C 116.456 381.600,118.393 382.541,118.397 382.900 C 118.399 383.065,118.672 383.200,119.005 383.200 C 119.338 383.200,119.968 383.380,120.405 383.600 C 120.842 383.820,121.558 384.180,121.995 384.400 C 122.432 384.620,123.062 384.800,123.395 384.800 C 123.728 384.800,124.000 384.980,124.000 385.200 C 124.000 385.420,124.360 385.600,124.800 385.600 C 125.240 385.600,125.600 385.780,125.600 386.000 C 125.600 386.220,125.955 386.400,126.388 386.400 C 126.821 386.400,127.817 386.760,128.600 387.200 C 129.383 387.640,130.291 388.000,130.618 388.000 C 130.944 388.000,131.523 388.159,131.905 388.353 C 134.297 389.570,140.539 391.600,141.889 391.600 C 142.390 391.600,142.800 391.780,142.800 392.000 C 142.800 392.220,143.329 392.400,143.976 392.400 C 144.623 392.400,145.264 392.580,145.400 392.800 C 145.536 393.020,146.177 393.200,146.824 393.200 C 147.471 393.200,148.000 393.380,148.000 393.600 C 148.000 393.820,148.720 394.000,149.600 394.000 C 150.480 394.000,151.200 394.180,151.200 394.400 C 151.200 394.620,151.819 394.800,152.576 394.800 C 153.333 394.800,154.064 394.980,154.200 395.200 C 154.336 395.420,155.157 395.600,156.024 395.600 C 156.891 395.600,157.600 395.780,157.600 396.000 C 157.600 396.220,158.309 396.400,159.176 396.400 C 160.043 396.400,160.864 396.580,161.000 396.800 C 161.136 397.020,162.137 397.200,163.224 397.200 C 164.311 397.200,165.200 397.380,165.200 397.600 C 165.200 397.822,166.267 398.000,167.600 398.000 C 168.933 398.000,170.000 398.178,170.000 398.400 C 170.000 398.627,171.173 398.800,172.720 398.800 C 174.363 398.800,175.638 398.998,175.940 399.300 C 176.329 399.689,181.685 399.800,200.000 399.800 C 218.315 399.800,223.671 399.689,224.060 399.300 C 224.362 398.998,225.637 398.800,227.280 398.800 C 228.827 398.800,230.000 398.627,230.000 398.400 C 230.000 398.178,231.067 398.000,232.400 398.000 C 233.733 398.000,234.800 397.822,234.800 397.600 C 234.800 397.380,235.689 397.200,236.776 397.200 C 237.863 397.200,238.864 397.020,239.000 396.800 C 239.136 396.580,239.957 396.400,240.824 396.400 C 241.691 396.400,242.400 396.220,242.400 396.000 C 242.400 395.780,243.109 395.600,243.976 395.600 C 244.843 395.600,245.664 395.420,245.800 395.200 C 245.936 394.980,246.667 394.800,247.424 394.800 C 248.181 394.800,248.800 394.620,248.800 394.400 C 248.800 394.180,249.520 394.000,250.400 394.000 C 251.280 394.000,252.000 393.820,252.000 393.600 C 252.000 393.380,252.630 393.200,253.400 393.200 C 254.170 393.200,254.800 393.020,254.800 392.800 C 254.800 392.580,255.340 392.400,256.000 392.400 C 256.660 392.400,257.200 392.220,257.200 392.000 C 257.200 391.780,257.615 391.600,258.121 391.600 C 259.225 391.600,267.638 388.899,268.180 388.371 C 268.389 388.167,268.963 388.000,269.456 388.000 C 269.949 388.000,270.464 387.820,270.600 387.600 C 270.736 387.380,271.197 387.200,271.624 387.200 C 272.051 387.200,272.400 387.020,272.400 386.800 C 272.400 386.580,272.850 386.400,273.400 386.400 C 273.950 386.400,274.400 386.220,274.400 386.000 C 274.400 385.780,274.760 385.600,275.200 385.600 C 275.640 385.600,276.000 385.420,276.000 385.200 C 276.000 384.980,276.349 384.800,276.776 384.800 C 277.203 384.800,277.664 384.620,277.800 384.400 C 277.936 384.180,278.487 384.000,279.024 384.000 C 279.561 384.000,280.000 383.820,280.000 383.600 C 280.000 383.380,280.360 383.200,280.800 383.200 C 281.240 383.200,281.600 383.020,281.600 382.800 C 281.600 382.580,281.960 382.400,282.400 382.400 C 282.840 382.400,283.201 382.265,283.203 382.100 C 283.207 381.741,285.144 380.800,285.880 380.800 C 286.166 380.800,286.400 380.620,286.400 380.400 C 286.400 380.180,286.760 380.000,287.200 380.000 C 287.640 380.000,288.000 379.854,288.000 379.675 C 288.000 379.496,288.630 379.102,289.400 378.800 C 290.170 378.498,290.800 378.104,290.800 377.925 C 290.800 377.746,291.160 377.600,291.600 377.600 C 292.040 377.600,292.400 377.420,292.400 377.200 C 292.400 376.980,292.636 376.800,292.925 376.800 C 293.213 376.800,293.836 376.440,294.308 376.000 C 294.780 375.560,295.399 375.187,295.683 375.171 C 295.967 375.155,296.740 374.805,297.400 374.394 C 298.060 373.982,299.545 373.148,300.700 372.539 C 301.855 371.931,302.800 371.290,302.800 371.116 C 302.800 370.942,303.036 370.800,303.325 370.800 C 303.613 370.800,304.236 370.440,304.708 370.000 C 305.180 369.560,305.754 369.200,305.983 369.200 C 306.212 369.200,306.400 369.050,306.400 368.868 C 306.400 368.685,306.895 368.281,307.500 367.970 C 308.105 367.660,308.891 367.089,309.247 366.703 C 309.603 366.316,310.148 366.000,310.459 366.000 C 310.769 366.000,311.283 365.640,311.600 365.200 C 311.917 364.760,312.372 364.400,312.610 364.400 C 312.849 364.400,313.731 363.770,314.572 363.000 C 315.413 362.230,316.220 361.600,316.367 361.600 C 316.513 361.600,317.301 360.970,318.118 360.200 C 318.934 359.430,319.755 358.800,319.942 358.800 C 320.128 358.800,320.807 358.305,321.450 357.700 C 322.092 357.095,323.334 356.066,324.209 355.412 C 325.084 354.759,326.610 353.409,327.600 352.412 C 328.590 351.416,330.043 350.120,330.830 349.533 C 332.561 348.241,336.672 344.154,339.400 341.013 C 340.500 339.747,342.345 337.744,343.500 336.564 C 344.655 335.383,345.600 334.277,345.600 334.105 C 345.600 333.933,345.960 333.568,346.400 333.293 C 346.840 333.018,347.200 332.609,347.200 332.383 C 347.200 332.158,347.830 331.343,348.600 330.573 C 349.370 329.803,350.000 329.037,350.000 328.870 C 350.000 328.703,350.585 327.933,351.300 327.158 C 352.015 326.383,353.042 325.130,353.582 324.374 C 354.666 322.858,354.748 322.750,356.194 320.942 C 356.747 320.250,357.200 319.435,357.200 319.131 C 357.200 318.826,357.560 318.317,358.000 318.000 C 358.440 317.683,358.800 317.143,358.800 316.800 C 358.800 316.457,359.160 315.917,359.600 315.600 C 360.040 315.283,360.400 314.743,360.400 314.400 C 360.400 314.057,360.760 313.517,361.200 313.200 C 361.640 312.883,362.000 312.343,362.000 312.000 C 362.000 311.657,362.360 311.117,362.800 310.800 C 363.240 310.483,363.600 309.986,363.600 309.695 C 363.600 309.404,363.960 308.780,364.400 308.308 C 364.840 307.836,365.200 307.213,365.200 306.925 C 365.200 306.636,365.360 306.400,365.557 306.400 C 365.753 306.400,366.023 305.963,366.157 305.428 C 366.291 304.893,366.626 304.213,366.901 303.916 C 367.555 303.208,368.542 301.515,369.884 298.800 C 370.481 297.590,371.112 296.540,371.285 296.467 C 371.458 296.393,371.600 295.988,371.600 295.567 C 371.600 295.145,371.780 294.800,372.000 294.800 C 372.220 294.800,372.400 294.564,372.400 294.275 C 372.400 293.986,372.736 293.041,373.147 292.175 C 373.558 291.309,374.204 289.880,374.581 289.000 C 374.958 288.120,375.432 287.087,375.634 286.705 C 375.835 286.323,376.000 285.738,376.000 285.405 C 376.000 285.072,376.180 284.800,376.400 284.800 C 376.620 284.800,376.800 284.440,376.800 284.000 C 376.800 283.560,376.980 283.200,377.200 283.200 C 377.420 283.200,377.600 282.660,377.600 282.000 C 377.600 281.340,377.780 280.800,378.000 280.800 C 378.220 280.800,378.400 280.440,378.400 280.000 C 378.400 279.560,378.580 279.200,378.800 279.200 C 379.020 279.200,379.200 278.838,379.200 278.395 C 379.200 277.952,379.380 277.232,379.600 276.795 C 379.820 276.358,380.180 275.642,380.400 275.205 C 380.620 274.768,380.800 274.048,380.800 273.605 C 380.800 273.162,380.980 272.800,381.200 272.800 C 381.420 272.800,381.600 272.361,381.600 271.824 C 381.600 271.287,381.780 270.736,382.000 270.600 C 382.220 270.464,382.400 269.924,382.400 269.400 C 382.400 268.876,382.580 268.336,382.800 268.200 C 383.020 268.064,383.200 267.524,383.200 267.000 C 383.200 266.476,383.380 265.936,383.600 265.800 C 383.820 265.664,384.000 265.034,384.000 264.400 C 384.000 263.766,384.180 263.136,384.400 263.000 C 384.620 262.864,384.800 262.223,384.800 261.576 C 384.800 260.929,384.980 260.400,385.200 260.400 C 385.420 260.400,385.600 259.680,385.600 258.800 C 385.600 257.920,385.780 257.200,386.000 257.200 C 386.220 257.200,386.400 256.581,386.400 255.824 C 386.400 255.067,386.580 254.336,386.800 254.200 C 387.020 254.064,387.200 253.243,387.200 252.376 C 387.200 251.509,387.380 250.800,387.600 250.800 C 387.820 250.800,388.000 250.001,388.000 249.024 C 388.000 248.047,388.180 247.136,388.400 247.000 C 390.128 245.932,388.743 245.226,384.700 245.114 C 380.870 245.008,380.606 244.947,380.689 244.200 C 380.738 243.760,381.053 241.613,381.389 239.430 C 383.614 224.963,380.507 211.125,371.592 195.800 C 370.440 193.820,369.160 191.615,368.749 190.900 C 368.337 190.185,367.662 189.015,367.249 188.300 C 366.836 187.585,364.861 184.157,362.862 180.682 L 359.226 174.364 362.013 171.358 C 366.165 166.881,366.090 166.260,360.744 160.881 C 356.102 156.209,354.598 155.675,352.073 157.800 C 350.513 159.112,350.297 159.073,349.330 157.300 C 348.880 156.475,345.493 150.580,341.804 144.200 C 334.943 132.335,334.150 130.961,332.856 128.700 C 332.447 127.985,331.581 126.500,330.932 125.400 C 330.283 124.300,329.638 123.098,329.500 122.730 C 329.272 122.124,321.337 108.272,319.970 106.096 C 318.645 103.985,317.042 104.812,314.942 108.689 C 313.614 111.140,312.336 113.371,312.015 113.800 C 311.850 114.020,311.174 115.190,310.512 116.400 C 308.207 120.614,305.138 125.803,304.659 126.297 C 304.280 126.688,302.773 124.356,297.588 115.353 C 293.965 109.061,290.570 103.167,290.043 102.256 C 289.517 101.345,288.752 100.015,288.343 99.300 C 287.935 98.585,287.262 97.415,286.849 96.700 C 286.436 95.985,284.974 93.420,283.602 91.000 C 281.438 87.186,279.595 83.938,276.806 79.023 C 276.424 78.350,275.590 76.900,274.952 75.800 C 274.314 74.700,273.540 73.308,273.232 72.707 C 272.053 70.405,270.832 69.647,269.300 70.265 M268.200 72.800 C 268.048 73.491,268.014 74.147,268.124 74.257 C 268.234 74.367,268.448 73.891,268.600 73.200 C 268.752 72.509,268.786 71.853,268.676 71.743 C 268.566 71.633,268.352 72.109,268.200 72.800 M267.400 76.000 C 267.248 76.691,267.214 77.347,267.324 77.457 C 267.434 77.567,267.648 77.091,267.800 76.400 C 267.952 75.709,267.986 75.053,267.876 74.943 C 267.766 74.833,267.552 75.309,267.400 76.000 M136.116 78.100 C 138.088 81.477,138.967 83.035,140.017 85.015 C 141.448 87.710,142.159 88.959,142.400 89.200 C 142.510 89.310,142.904 89.940,143.275 90.600 C 144.375 92.556,144.594 92.040,144.714 87.211 C 144.885 80.307,143.837 80.800,158.336 80.800 C 164.825 80.800,170.015 80.682,169.870 80.537 C 169.725 80.392,169.827 79.987,170.097 79.637 C 170.464 79.158,170.381 79.174,169.762 79.700 C 169.019 80.330,167.822 80.400,157.723 80.400 L 146.509 80.400 145.455 81.455 C 144.437 82.472,144.400 82.672,144.395 87.155 L 144.390 91.800 143.341 90.000 C 142.764 89.010,141.804 87.300,141.208 86.200 C 139.970 83.916,138.975 82.174,137.439 79.600 C 136.848 78.610,136.262 77.485,136.136 77.100 C 136.010 76.715,135.731 76.400,135.515 76.400 C 135.300 76.400,135.571 77.165,136.116 78.100 M266.649 79.015 C 266.512 79.373,266.416 80.056,266.436 80.533 C 266.462 81.147,266.585 81.008,266.859 80.056 C 267.257 78.672,267.094 77.858,266.649 79.015 M297.136 82.009 C 293.549 83.904,291.766 88.787,293.445 92.120 C 294.741 94.694,298.562 97.571,299.474 96.659 C 299.595 96.538,299.178 96.317,298.547 96.167 C 290.401 94.236,292.412 81.600,300.866 81.600 C 309.199 81.600,311.038 94.175,303.000 96.197 C 302.340 96.363,301.998 96.572,302.239 96.662 C 303.631 97.181,306.765 94.737,307.955 92.207 C 311.056 85.610,303.609 78.589,297.136 82.009 M265.800 82.653 C 265.668 83.284,265.375 84.520,265.147 85.400 C 264.678 87.218,264.104 89.506,263.567 91.700 C 262.761 94.996,262.329 96.656,261.973 97.828 C 261.768 98.504,261.600 99.438,261.600 99.905 C 261.600 100.371,261.420 100.864,261.200 101.000 C 260.980 101.136,260.800 101.689,260.800 102.229 C 260.800 102.769,260.629 103.523,260.419 103.905 C 260.209 104.287,259.644 105.770,259.163 107.200 C 258.682 108.630,258.088 109.932,257.844 110.094 C 257.526 110.304,257.534 110.389,257.871 110.394 C 258.407 110.401,259.600 108.210,259.600 107.219 C 259.600 106.856,259.749 106.389,259.930 106.180 C 260.112 105.971,260.493 104.990,260.777 104.000 C 261.061 103.010,261.431 101.750,261.600 101.200 C 262.914 96.924,266.488 81.954,266.251 81.718 C 266.134 81.601,265.931 82.022,265.800 82.653 M120.877 100.111 C 120.392 101.780,119.880 103.473,119.739 103.873 C 119.571 104.348,119.617 104.462,119.872 104.200 C 120.086 103.980,120.493 102.990,120.777 102.000 C 121.061 101.010,121.470 99.714,121.686 99.120 C 121.903 98.527,122.008 97.824,121.920 97.559 C 121.831 97.294,121.362 98.443,120.877 100.111 M80.634 105.423 C 80.007 106.051,77.200 110.657,77.200 111.060 C 77.200 111.179,76.860 111.754,76.444 112.338 C 75.734 113.335,75.108 114.407,71.908 120.100 L 70.615 122.400 67.121 122.400 C 63.655 122.400,63.615 122.411,62.213 123.813 L 60.800 125.227 60.800 132.199 C 60.800 140.234,61.622 137.910,54.287 150.600 C 51.870 154.780,49.529 158.830,49.085 159.600 C 48.640 160.370,47.917 161.665,47.476 162.478 C 46.770 163.780,46.529 163.934,45.438 163.777 L 44.200 163.599 45.343 163.976 C 46.598 164.391,47.801 163.896,48.150 162.820 C 48.435 161.940,49.743 159.825,50.100 159.667 C 50.265 159.593,50.400 159.379,50.400 159.190 C 50.400 159.001,51.885 156.271,53.700 153.123 C 55.515 149.975,57.270 146.860,57.599 146.200 C 57.929 145.540,58.289 144.910,58.399 144.800 C 58.691 144.509,59.643 142.822,60.476 141.119 C 61.089 139.866,61.200 138.588,61.200 132.793 C 61.200 123.364,61.539 122.823,67.451 122.809 C 69.887 122.803,71.232 122.634,71.493 122.300 C 71.900 121.781,74.200 117.673,74.964 116.103 C 75.204 115.610,75.535 115.205,75.700 115.203 C 75.865 115.201,76.000 114.855,76.000 114.433 C 76.000 114.012,76.135 113.607,76.300 113.533 C 76.676 113.366,77.975 111.236,78.271 110.300 C 78.393 109.915,78.652 109.600,78.847 109.600 C 79.041 109.600,79.200 109.416,79.200 109.191 C 79.200 108.572,81.253 105.600,81.682 105.600 C 82.260 105.600,82.919 106.423,84.005 108.500 C 84.552 109.545,85.134 110.400,85.299 110.400 C 85.465 110.400,85.600 110.760,85.600 111.200 C 85.600 111.640,85.759 112.000,85.953 112.000 C 86.148 112.000,86.407 112.315,86.529 112.700 C 86.746 113.385,88.004 115.604,88.400 116.000 C 89.788 117.388,89.851 118.873,88.599 120.716 C 87.436 122.427,87.729 122.722,90.645 122.772 C 94.281 122.834,95.200 125.468,95.200 135.831 C 95.200 139.664,95.280 142.800,95.377 142.800 C 95.475 142.800,96.510 141.780,97.677 140.534 C 98.845 139.287,100.340 137.712,101.000 137.032 C 102.853 135.125,110.400 124.877,110.400 124.269 C 110.400 124.166,111.109 122.914,111.976 121.487 C 114.000 118.156,118.123 109.590,117.840 109.306 C 117.720 109.187,117.458 109.519,117.257 110.045 C 116.087 113.105,111.790 121.347,109.711 124.519 C 109.100 125.451,108.420 126.502,108.200 126.855 C 105.622 130.993,101.253 136.480,100.771 136.182 C 100.595 136.073,100.197 135.493,99.886 134.892 C 99.576 134.291,98.422 132.260,97.323 130.377 C 96.224 128.494,95.205 126.473,95.057 125.884 C 94.909 125.296,94.276 124.226,93.650 123.507 C 93.023 122.788,91.564 120.400,90.406 118.200 C 89.248 116.000,88.162 114.020,87.993 113.800 C 87.706 113.427,87.358 112.825,85.160 108.900 C 83.015 105.069,81.869 104.188,80.634 105.423 M118.615 106.615 C 118.230 107.624,117.998 108.532,118.100 108.633 C 118.201 108.735,118.600 107.993,118.985 106.985 C 119.370 105.976,119.602 105.068,119.500 104.967 C 119.399 104.865,119.000 105.607,118.615 106.615 M195.584 115.257 C 193.789 118.856,192.503 121.620,192.727 121.400 C 193.358 120.781,199.246 109.113,199.035 108.902 C 198.932 108.799,197.379 111.659,195.584 115.257 M200.746 109.335 C 200.990 109.629,202.466 112.374,204.025 115.435 C 205.585 118.496,207.050 121.180,207.281 121.400 C 207.872 121.964,207.792 121.791,204.293 114.900 C 202.589 111.545,200.994 108.800,200.749 108.800 C 200.421 108.800,200.420 108.943,200.746 109.335 M187.374 131.259 C 186.561 132.877,184.017 137.863,181.720 142.339 C 179.424 146.815,177.622 150.556,177.718 150.651 C 177.813 150.746,178.843 148.974,180.008 146.712 C 186.372 134.354,189.193 128.659,189.032 128.498 C 188.932 128.399,188.186 129.641,187.374 131.259 M39.155 167.908 C 36.792 170.244,35.201 172.136,35.201 172.608 C 35.203 173.226,35.378 173.114,35.998 172.096 C 36.830 170.731,40.974 166.444,42.954 164.900 C 43.589 164.405,43.883 164.000,43.609 164.000 C 43.335 164.000,41.331 165.759,39.155 167.908 M60.000 170.038 C 60.000 170.279,59.664 170.954,59.252 171.538 C 57.636 173.835,57.881 175.266,60.096 176.451 C 60.744 176.798,60.800 176.541,60.800 173.214 C 60.800 171.071,60.637 169.600,60.400 169.600 C 60.180 169.600,60.000 169.797,60.000 170.038 M365.825 216.454 C 371.705 219.218,371.740 227.524,365.885 230.359 C 362.811 231.847,359.834 231.386,357.269 229.025 C 350.829 223.099,357.890 212.724,365.825 216.454 M131.575 258.100 C 131.886 258.595,133.120 260.710,134.316 262.800 C 135.512 264.890,136.830 267.190,137.245 267.912 C 138.204 269.579,138.193 270.964,137.178 276.731 C 135.417 286.740,132.509 291.923,123.843 300.500 L 117.478 306.800 109.439 306.791 L 101.400 306.781 104.653 303.691 C 106.443 301.991,110.345 298.303,113.325 295.495 C 124.595 284.877,126.824 280.128,129.657 260.700 C 130.183 257.097,130.592 256.541,131.575 258.100 M172.200 271.106 C 172.665 271.448,172.541 271.237,177.811 280.600 C 180.041 284.560,182.435 288.753,183.132 289.918 C 183.830 291.082,184.400 292.099,184.400 292.177 C 184.400 292.255,185.137 293.531,186.037 295.012 C 186.937 296.494,188.017 298.313,188.437 299.053 C 188.857 299.794,189.585 301.075,190.057 301.900 C 192.857 306.805,192.817 306.708,192.158 306.961 C 191.342 307.274,153.056 307.273,152.240 306.960 C 151.752 306.773,152.164 306.082,154.107 303.827 C 155.478 302.236,156.960 300.496,157.400 299.961 C 157.840 299.426,158.935 298.090,159.834 296.994 C 164.241 291.616,166.994 286.211,168.387 280.200 C 168.642 279.100,169.008 277.570,169.200 276.800 C 169.392 276.030,169.769 274.500,170.036 273.400 C 170.707 270.644,171.061 270.269,172.200 271.106 " stroke="none" fill="#f98468" fill-rule="evenodd"></path><path id="path3" d="M198.267 0.267 C 198.120 0.413,198.000 1.043,198.000 1.667 C 198.000 2.290,197.820 2.800,197.600 2.800 C 197.380 2.800,197.200 3.329,197.200 3.976 C 197.200 4.623,197.020 5.264,196.800 5.400 C 196.580 5.536,196.400 6.267,196.400 7.024 C 196.400 7.781,196.220 8.400,196.000 8.400 C 195.780 8.400,195.600 9.109,195.600 9.976 C 195.600 10.843,195.420 11.664,195.200 11.800 C 194.980 11.936,194.800 12.577,194.800 13.224 C 194.800 13.871,194.634 14.400,194.432 14.400 C 194.229 14.400,194.093 15.615,194.130 17.100 C 194.166 18.585,193.993 20.340,193.744 21.000 C 193.496 21.660,193.107 22.920,192.879 23.800 C 192.652 24.680,192.247 26.210,191.979 27.200 C 191.322 29.627,190.942 31.061,190.388 33.200 C 190.132 34.190,189.760 35.313,189.561 35.695 C 189.362 36.077,189.200 36.754,189.200 37.200 C 189.200 37.646,189.038 38.323,188.841 38.705 C 188.644 39.087,188.071 40.750,187.569 42.400 C 187.067 44.050,186.508 45.571,186.328 45.780 C 186.148 45.989,186.000 46.486,186.000 46.885 C 186.000 47.284,185.841 47.923,185.647 48.305 C 185.452 48.687,185.116 49.450,184.900 50.000 C 184.684 50.550,184.303 51.495,184.054 52.100 C 183.804 52.705,183.436 53.605,183.235 54.100 C 181.167 59.195,176.488 68.788,174.338 72.341 C 173.492 73.738,172.800 74.971,172.800 75.079 C 172.800 75.188,172.461 75.754,172.047 76.338 C 171.633 76.922,170.916 78.075,170.454 78.900 L 169.614 80.400 171.535 80.400 C 173.087 80.400,173.623 80.593,174.328 81.403 L 175.200 82.406 175.200 113.819 C 175.200 145.033,175.205 145.243,176.048 146.916 C 177.541 149.878,177.580 149.876,179.139 146.707 C 179.926 145.108,180.666 143.710,180.785 143.600 C 180.903 143.490,183.751 137.910,187.113 131.200 C 198.271 108.929,198.459 108.600,199.997 108.600 C 201.575 108.600,200.925 107.438,214.763 135.000 C 219.733 144.900,223.980 153.000,224.200 153.000 C 224.448 153.000,224.641 150.229,224.709 145.704 L 224.818 138.409 226.222 137.004 L 227.627 135.600 234.355 135.600 L 241.084 135.600 243.042 133.485 C 246.437 129.819,249.013 126.682,250.200 124.768 C 250.420 124.413,251.189 123.240,251.908 122.161 C 254.846 117.758,258.067 110.740,257.469 110.045 C 257.163 109.690,252.813 101.300,247.801 91.400 C 236.488 69.052,229.122 54.555,221.990 40.600 C 210.770 18.646,210.400 17.877,210.400 16.524 C 210.400 15.796,210.220 15.200,210.000 15.200 C 209.780 15.200,209.600 14.840,209.600 14.400 C 209.600 13.960,209.420 13.600,209.200 13.600 C 208.980 13.600,208.800 13.358,208.800 13.061 C 208.800 12.765,208.552 12.000,208.250 11.361 C 207.947 10.723,207.453 9.615,207.152 8.900 C 206.851 8.185,206.469 7.600,206.302 7.600 C 206.136 7.600,206.000 7.255,206.000 6.833 C 206.000 6.412,205.865 6.007,205.700 5.933 C 205.268 5.741,203.600 2.428,203.600 1.762 C 203.600 1.453,203.420 1.200,203.200 1.200 C 202.980 1.200,202.800 0.930,202.800 0.600 C 202.800 -0.023,198.847 -0.314,198.267 0.267 M226.051 93.364 C 233.364 96.419,232.854 106.192,225.265 108.435 C 220.511 109.840,215.600 105.800,215.600 100.483 C 215.600 95.368,221.398 91.419,226.051 93.364 M122.303 174.077 C 120.604 176.386,116.590 182.108,114.815 184.751 C 112.749 187.825,112.471 187.020,118.705 195.995 C 124.161 203.850,123.859 203.775,127.589 198.200 C 128.766 196.440,130.780 193.544,132.065 191.764 C 135.135 187.510,135.185 187.759,129.653 179.800 C 124.442 172.302,123.912 171.890,122.303 174.077 M360.397 216.221 C 359.296 216.555,358.037 217.358,357.165 218.284 C 350.711 225.131,359.592 235.008,367.104 229.338 C 373.602 224.432,368.196 213.859,360.397 216.221 M111.109 217.749 C 106.250 219.904,104.790 226.397,108.325 230.137 C 115.155 237.361,126.195 228.095,120.170 220.196 C 118.241 217.668,113.922 216.501,111.109 217.749 M285.473 231.300 C 279.045 240.392,277.409 243.227,278.016 244.220 C 279.471 246.601,286.994 257.431,287.375 257.694 C 288.633 258.563,288.545 258.658,294.407 250.210 C 299.867 242.343,300.318 244.774,290.906 231.300 C 289.588 229.413,288.924 228.800,288.200 228.800 C 287.478 228.800,286.803 229.419,285.473 231.300 M170.667 271.467 C 170.520 271.613,170.400 272.186,170.400 272.738 C 170.400 273.291,170.232 274.296,170.027 274.972 C 169.822 275.647,169.447 277.010,169.194 278.000 C 167.521 284.545,167.057 285.909,165.350 289.302 C 164.044 291.897,160.907 296.442,158.932 298.600 C 158.529 299.040,157.390 300.386,156.400 301.591 C 155.410 302.796,154.007 304.416,153.282 305.191 L 151.965 306.600 159.082 306.850 C 169.865 307.229,191.926 307.244,192.155 306.872 C 192.267 306.692,191.181 304.487,189.743 301.972 C 188.304 299.457,186.716 296.680,186.214 295.800 C 185.711 294.920,183.995 291.950,182.400 289.200 C 176.892 279.702,176.428 278.889,175.438 277.000 C 174.977 276.120,174.510 275.310,174.400 275.200 C 174.004 274.804,172.746 272.585,172.529 271.900 C 172.310 271.209,171.186 270.948,170.667 271.467 M298.524 277.690 C 298.296 278.190,297.155 281.030,295.988 284.000 C 294.821 286.970,293.536 289.990,293.133 290.712 C 292.730 291.434,292.400 292.274,292.400 292.579 C 292.400 292.884,292.265 293.193,292.100 293.267 C 291.935 293.340,291.356 294.300,290.814 295.400 C 289.351 298.367,285.608 303.883,283.626 305.990 C 282.936 306.725,289.340 307.057,305.913 307.146 C 317.019 307.205,317.257 307.151,315.698 304.914 C 315.271 304.301,314.381 302.810,313.720 301.600 C 313.058 300.390,311.926 298.410,311.203 297.200 C 309.253 293.937,308.440 292.501,306.768 289.367 C 304.035 284.245,299.738 277.046,299.334 276.911 C 299.116 276.839,298.752 277.189,298.524 277.690 M54.654 281.881 C 54.513 282.717,54.300 284.030,54.182 284.800 C 53.134 291.630,49.883 297.133,43.551 302.798 C 41.708 304.447,39.991 305.994,39.735 306.235 C 39.241 306.700,59.694 307.437,60.432 306.980 C 60.638 306.853,60.800 302.820,60.800 297.789 C 60.800 288.035,61.009 289.168,58.343 284.500 C 57.872 283.675,57.182 282.460,56.809 281.800 C 55.805 280.021,54.963 280.053,54.654 281.881 " stroke="none" fill="#fae705" fill-rule="evenodd"></path><path id="path4" d="M96.357 69.968 C 87.074 83.426,87.583 82.014,90.459 86.318 C 98.202 97.908,98.328 98.006,100.895 94.418 C 109.865 81.882,109.607 82.793,105.737 77.340 C 104.199 75.173,102.090 72.185,101.050 70.700 C 98.764 67.435,98.168 67.342,96.357 69.968 M129.737 70.881 C 129.376 71.357,128.789 73.128,127.973 76.200 C 126.403 82.111,125.994 83.545,125.549 84.719 C 125.357 85.224,125.200 86.069,125.200 86.595 C 125.200 87.122,125.040 87.652,124.844 87.773 C 124.649 87.894,124.395 88.579,124.281 89.296 C 124.168 90.013,123.865 91.320,123.609 92.200 C 123.354 93.080,123.053 94.250,122.942 94.800 C 122.831 95.350,122.594 96.160,122.415 96.600 C 122.237 97.040,121.870 98.210,121.599 99.200 C 121.043 101.233,120.471 103.021,119.999 104.200 C 119.822 104.640,119.272 106.080,118.776 107.400 C 117.459 110.903,113.796 118.493,111.976 121.487 C 111.109 122.914,110.400 124.166,110.400 124.269 C 110.400 124.856,102.807 135.205,101.205 136.802 C 100.652 137.353,99.075 139.025,97.700 140.517 L 95.200 143.229 95.200 149.415 C 95.200 157.109,94.947 157.061,101.426 150.582 C 108.627 143.381,108.840 143.357,114.539 149.158 C 120.531 155.257,120.922 154.267,107.044 168.115 C 101.251 173.895,96.171 179.249,95.756 180.012 C 95.006 181.388,94.291 241.501,94.990 244.300 L 95.215 245.200 112.308 245.199 L 129.400 245.198 131.037 241.899 C 131.937 240.085,135.312 233.420,138.537 227.089 L 144.400 215.577 144.400 184.067 L 144.400 152.557 143.244 150.778 C 142.608 149.800,137.388 144.321,131.644 138.603 C 118.861 125.877,119.312 127.003,124.775 121.451 C 130.003 116.138,129.909 116.123,137.309 123.509 C 140.445 126.639,143.323 129.200,143.705 129.200 C 144.850 129.200,144.749 92.670,143.600 91.200 C 143.170 90.650,142.814 89.975,142.809 89.700 C 142.804 89.425,142.641 89.200,142.447 89.200 C 142.252 89.200,141.987 88.885,141.857 88.500 C 141.543 87.570,139.581 84.048,134.317 74.965 C 131.784 70.595,130.691 69.620,129.737 70.881 M269.325 70.900 C 269.120 71.175,268.564 73.020,268.089 75.000 C 263.717 93.242,262.354 98.747,261.600 101.200 C 261.431 101.750,261.061 103.010,260.777 104.000 C 260.493 104.990,260.112 105.971,259.930 106.180 C 259.749 106.389,259.600 106.856,259.600 107.219 C 259.600 107.581,259.323 108.400,258.985 109.039 C 258.647 109.677,257.157 112.540,255.674 115.400 C 254.191 118.260,252.443 121.391,251.789 122.357 C 251.135 123.324,250.420 124.406,250.200 124.763 C 249.033 126.657,246.447 129.808,243.042 133.485 L 241.084 135.600 234.355 135.600 L 227.627 135.600 226.222 137.004 L 224.818 138.409 224.709 145.704 C 224.627 151.200,224.479 152.976,224.110 152.903 C 223.734 152.829,223.724 153.034,224.069 153.791 C 224.958 155.744,225.200 154.222,225.200 146.665 C 225.200 138.609,225.323 137.977,227.182 136.513 C 228.217 135.697,256.126 135.802,257.384 136.626 C 259.012 137.693,259.200 139.100,259.200 150.236 C 259.200 157.508,259.337 160.837,259.644 161.027 C 259.901 161.186,262.323 159.071,265.393 156.007 C 270.439 150.971,270.790 150.703,272.585 150.500 L 274.473 150.288 278.637 154.497 C 284.763 160.690,285.339 159.174,271.616 172.977 C 264.356 180.279,260.216 184.743,259.816 185.700 C 259.293 186.953,259.200 189.854,259.200 204.997 L 259.200 222.819 264.869 234.010 L 270.537 245.200 274.169 245.206 C 278.332 245.213,278.138 245.126,280.147 247.900 C 280.984 249.055,281.753 250.000,281.858 250.000 C 281.962 250.000,281.219 248.875,280.207 247.500 C 277.000 243.144,276.827 244.117,282.230 236.088 C 288.479 226.802,287.842 226.852,293.673 235.200 C 298.858 242.624,299.073 243.051,298.314 244.400 L 297.751 245.400 301.975 245.281 C 304.299 245.216,306.425 245.086,306.700 244.994 C 307.515 244.719,307.406 223.267,306.579 221.287 C 306.168 220.305,301.836 215.661,293.807 207.600 C 278.782 192.513,279.327 193.853,285.663 187.557 C 291.455 181.801,290.995 181.712,299.620 190.243 C 303.378 193.961,306.527 196.769,306.768 196.620 C 307.070 196.433,307.200 188.679,307.201 170.876 C 307.203 142.671,307.159 143.158,309.788 142.611 C 310.344 142.495,311.261 142.304,311.824 142.186 L 312.848 141.973 312.075 140.686 C 311.649 139.979,309.801 136.790,307.968 133.600 C 306.135 130.410,304.515 127.710,304.369 127.600 C 304.126 127.418,299.578 119.662,294.400 110.600 C 292.967 108.092,292.136 106.657,290.000 103.000 C 288.843 101.020,287.488 98.680,286.990 97.800 C 286.491 96.920,285.139 94.580,283.986 92.600 C 282.832 90.620,281.172 87.650,280.295 86.000 C 279.419 84.350,278.563 82.820,278.394 82.600 C 278.224 82.380,277.706 81.525,277.243 80.700 C 276.779 79.875,276.040 78.570,275.600 77.800 C 275.160 77.030,274.450 75.782,274.021 75.026 C 271.454 70.495,270.350 69.526,269.325 70.900 M172.200 80.686 C 172.640 80.793,173.405 81.253,173.900 81.710 L 174.800 82.539 174.801 112.370 C 174.802 128.776,174.920 145.030,175.064 148.489 L 175.324 154.779 176.630 152.289 C 177.723 150.206,177.851 149.702,177.414 149.200 C 175.099 146.535,175.200 148.142,175.200 113.819 L 175.200 82.406 174.328 81.403 C 173.785 80.779,173.068 80.418,172.428 80.446 C 171.601 80.484,171.556 80.531,172.200 80.686 M298.000 82.047 C 294.059 83.611,292.226 88.337,294.054 92.225 C 296.786 98.037,304.814 98.037,307.546 92.225 C 310.375 86.208,304.175 79.598,298.000 82.047 M198.662 108.700 C 198.560 108.865,199.162 109.000,200.000 109.000 C 200.838 109.000,201.440 108.865,201.338 108.700 C 201.236 108.535,200.634 108.400,200.000 108.400 C 199.366 108.400,198.764 108.535,198.662 108.700 M195.465 114.700 C 194.594 116.138,183.594 138.105,183.898 137.800 C 184.417 137.279,196.094 114.400,195.840 114.400 C 195.734 114.400,195.565 114.535,195.465 114.700 M207.952 122.159 C 211.722 129.599,212.864 131.678,212.141 129.788 C 211.569 128.291,204.727 114.999,204.324 114.600 C 204.101 114.380,205.734 117.782,207.952 122.159 M129.653 179.800 C 135.185 187.759,135.135 187.510,132.065 191.764 C 130.780 193.544,128.766 196.440,127.589 198.200 C 123.859 203.775,124.161 203.850,118.705 195.995 C 112.052 186.417,112.024 188.580,118.929 178.800 C 124.387 171.070,123.529 170.990,129.653 179.800 M356.975 218.100 L 355.800 219.400 357.100 218.225 C 358.312 217.130,358.584 216.800,358.275 216.800 C 358.206 216.800,357.621 217.385,356.975 218.100 M117.383 218.034 C 123.321 220.825,123.321 229.175,117.383 231.966 C 112.152 234.425,106.400 230.756,106.400 224.961 C 106.400 219.216,112.164 215.581,117.383 218.034 M370.101 223.400 C 370.105 224.280,370.187 224.593,370.283 224.095 C 370.379 223.598,370.375 222.878,370.275 222.495 C 370.175 222.113,370.096 222.520,370.101 223.400 M291.578 254.233 C 290.453 255.900,289.592 257.325,289.666 257.397 C 289.740 257.470,290.746 256.105,291.902 254.365 C 293.058 252.624,293.919 251.200,293.814 251.200 C 293.710 251.200,292.704 252.565,291.578 254.233 M172.411 271.600 C 172.415 271.930,172.770 272.650,173.200 273.200 C 173.630 273.750,173.986 274.425,173.991 274.700 C 173.996 274.975,174.201 275.200,174.446 275.200 C 174.707 275.200,174.593 274.744,174.171 274.100 C 173.774 273.495,173.215 272.550,172.927 272.000 C 172.640 271.450,172.408 271.270,172.411 271.600 M169.829 273.829 C 169.681 274.415,169.651 274.984,169.761 275.094 C 169.871 275.204,170.081 274.815,170.229 274.229 C 170.376 273.642,170.406 273.073,170.296 272.963 C 170.186 272.853,169.976 273.242,169.829 273.829 M174.806 275.688 C 174.798 276.079,176.377 278.903,176.882 279.400 C 177.105 279.620,176.915 279.080,176.459 278.200 C 175.469 276.288,174.815 275.293,174.806 275.688 M169.000 277.200 C 168.850 277.673,168.817 278.150,168.927 278.260 C 169.037 278.370,169.250 278.073,169.400 277.600 C 169.550 277.127,169.583 276.650,169.473 276.540 C 169.363 276.430,169.150 276.727,169.000 277.200 M298.221 277.424 C 297.852 277.988,297.616 278.649,297.698 278.893 C 297.779 279.138,298.082 278.767,298.371 278.069 C 298.985 276.589,299.400 276.479,300.018 277.634 C 300.264 278.093,300.569 278.364,300.697 278.237 C 300.952 277.981,299.650 276.400,299.184 276.400 C 299.023 276.400,298.590 276.861,298.221 277.424 M301.288 279.700 C 301.607 280.195,302.543 281.815,303.368 283.300 C 304.800 285.876,305.503 286.802,304.887 285.300 C 304.391 284.090,301.176 278.800,300.936 278.800 C 300.811 278.800,300.969 279.205,301.288 279.700 M296.973 280.243 C 296.838 280.659,296.581 281.360,296.402 281.800 C 296.223 282.240,295.485 284.130,294.763 286.000 C 294.041 287.870,293.157 289.940,292.798 290.600 C 291.825 292.390,291.580 293.200,292.013 293.200 C 292.226 293.200,292.400 292.935,292.400 292.612 C 292.400 292.289,292.727 291.434,293.127 290.712 C 294.240 288.703,297.664 279.931,297.428 279.695 C 297.313 279.580,297.108 279.826,296.973 280.243 M55.456 280.396 C 55.927 280.586,56.573 281.250,56.891 281.871 C 57.209 282.492,57.859 283.675,58.335 284.500 C 61.051 289.208,60.839 288.008,60.714 298.000 C 60.651 303.018,60.735 307.041,60.900 306.939 C 61.724 306.428,61.219 288.636,60.339 287.200 C 59.557 285.923,59.158 285.233,57.538 282.355 C 56.622 280.728,55.902 279.999,55.238 280.025 C 54.801 280.043,54.870 280.160,55.456 280.396 M177.215 280.200 C 177.217 280.420,177.586 281.050,178.036 281.600 C 178.579 282.264,178.715 282.331,178.440 281.800 C 177.766 280.495,177.212 279.772,177.215 280.200 M54.222 282.222 C 54.072 283.025,54.038 283.772,54.148 283.882 C 54.258 283.992,54.472 283.425,54.622 282.622 C 54.773 281.819,54.806 281.073,54.696 280.963 C 54.586 280.853,54.373 281.419,54.222 282.222 M178.815 283.000 C 178.817 283.220,179.186 283.850,179.636 284.400 C 180.179 285.064,180.315 285.131,180.040 284.600 C 179.366 283.295,178.812 282.572,178.815 283.000 M53.646 286.067 C 53.621 286.434,53.496 287.064,53.370 287.467 C 53.152 288.162,53.163 288.163,53.597 287.487 C 53.848 287.096,53.973 286.466,53.873 286.087 C 53.711 285.468,53.688 285.466,53.646 286.067 M306.923 289.600 C 307.669 291.030,308.642 292.830,309.085 293.600 C 311.520 297.831,312.861 300.000,313.043 300.000 C 313.155 300.000,313.169 299.865,313.074 299.700 C 312.980 299.535,311.619 297.186,310.051 294.481 C 308.483 291.775,307.196 289.435,307.191 289.281 C 307.186 289.126,306.818 288.550,306.374 288.000 C 305.918 287.436,306.157 288.134,306.923 289.600 M182.600 289.600 C 182.941 290.260,183.311 290.800,183.421 290.800 C 183.531 290.800,183.341 290.260,183.000 289.600 C 182.659 288.940,182.289 288.400,182.179 288.400 C 182.069 288.400,182.259 288.940,182.600 289.600 M162.997 292.700 C 162.163 293.965,160.788 295.835,159.941 296.856 C 159.093 297.876,158.400 298.838,158.400 298.992 C 158.400 299.514,163.477 292.952,164.352 291.300 C 165.221 289.658,164.535 290.367,162.997 292.700 M290.386 295.498 C 289.868 296.544,289.379 297.535,289.298 297.700 C 289.218 297.865,289.237 298.000,289.341 298.000 C 289.592 298.000,291.628 293.895,291.460 293.727 C 291.388 293.654,290.904 294.451,290.386 295.498 M48.400 297.147 C 48.400 297.339,46.555 299.348,44.300 301.612 L 40.200 305.730 43.668 302.645 C 47.194 299.508,49.581 296.800,48.820 296.800 C 48.589 296.800,48.400 296.956,48.400 297.147 M187.160 297.400 C 187.834 298.705,188.388 299.428,188.385 299.000 C 188.383 298.780,188.014 298.150,187.564 297.600 C 187.021 296.936,186.885 296.869,187.160 297.400 M188.760 300.200 C 189.434 301.505,189.988 302.228,189.985 301.800 C 189.983 301.580,189.614 300.950,189.164 300.400 C 188.621 299.736,188.485 299.669,188.760 300.200 M313.200 300.499 C 313.200 300.897,316.010 305.600,316.249 305.600 C 316.364 305.600,315.878 304.565,315.169 303.300 C 313.864 300.972,313.200 300.027,313.200 300.499 M155.000 302.800 C 154.368 303.460,154.019 303.990,154.225 303.978 C 154.578 303.957,156.639 301.600,156.305 301.600 C 156.220 301.600,155.632 302.140,155.000 302.800 M190.360 303.000 C 191.034 304.305,191.588 305.028,191.585 304.600 C 191.583 304.380,191.214 303.750,190.764 303.200 C 190.221 302.536,190.085 302.469,190.360 303.000 M284.093 304.800 C 283.818 305.240,283.731 305.600,283.900 305.600 C 284.069 305.600,284.432 305.240,284.707 304.800 C 284.982 304.360,285.069 304.000,284.900 304.000 C 284.731 304.000,284.368 304.360,284.093 304.800 M282.998 306.403 C 282.566 307.102,283.692 307.228,289.220 307.100 L 294.600 306.975 288.876 306.887 C 285.184 306.831,283.241 306.658,283.400 306.400 C 283.536 306.180,283.557 306.000,283.447 306.000 C 283.337 306.000,283.135 306.181,282.998 306.403 M42.920 307.098 C 44.855 307.172,47.915 307.171,49.720 307.097 C 51.524 307.023,49.940 306.963,46.200 306.964 C 42.460 306.964,40.984 307.025,42.920 307.098 M155.300 307.097 C 157.005 307.172,159.795 307.172,161.500 307.097 C 163.205 307.022,161.810 306.961,158.400 306.961 C 154.990 306.961,153.595 307.022,155.300 307.097 " stroke="none" fill="#fb9904" fill-rule="evenodd"></path></g></svg>