<?xml version="1.0" standalone="no"?>
<!DOCTYPE svg PUBLIC "-//W3C//DTD SVG 20010904//EN"
 "http://www.w3.org/TR/2001/REC-SVG-20010904/DTD/svg10.dtd">
<svg version="1.0" xmlns="http://www.w3.org/2000/svg"
 width="1054.000000pt" height="1236.000000pt" viewBox="0 0 1054.000000 1236.000000"
 preserveAspectRatio="xMidYMid meet">

<g transform="translate(0.000000,1236.000000) scale(0.100000,-0.100000)"
fill="#000000" stroke="none">
<path d="M3587 12349 c-13 -8 -16 -17 -11 -32 6 -18 4 -20 -7 -10 -11 9 -18 6
-32 -13 -11 -14 -13 -24 -6 -24 6 0 8 -7 4 -17 -15 -40 -15 -110 -1 -122 11
-10 13 -19 5 -38 -5 -14 -6 -35 -2 -47 8 -26 10 -71 12 -366 1 -61 15 -150 25
-147 7 2 9 48 7 135 -2 117 -1 131 13 126 11 -4 16 -19 16 -48 0 -23 5 -47 12
-54 9 -9 9 -15 0 -24 -8 -8 -8 -17 -1 -31 7 -11 8 -38 4 -64 -4 -31 -3 -43 4
-38 7 4 11 -4 11 -20 0 -15 -4 -24 -10 -20 -6 4 -10 -14 -11 -47 0 -29 -4 -62
-9 -73 -7 -19 -8 -18 -14 5 -3 14 -7 50 -8 80 -2 41 -7 55 -18 55 -12 0 -14
-12 -12 -55 2 -30 5 -104 7 -165 7 -168 24 -335 38 -359 11 -20 12 -20 15 9 2
16 12 35 23 43 11 7 19 23 18 35 -5 52 4 58 16 12 9 -37 13 -43 14 -22 1 22 6
27 25 27 13 0 27 -7 30 -15 8 -21 -15 -55 -37 -55 -17 0 -47 -22 -47 -34 0
-12 48 -6 54 7 3 8 9 7 20 -7 10 -12 29 -19 56 -20 41 -1 41 -1 39 -36 -2 -37
3 -56 27 -105 8 -16 15 -45 17 -62 1 -18 8 -35 15 -38 6 -2 12 -13 12 -22 0
-10 7 -29 16 -41 8 -12 12 -22 8 -22 -4 0 1 -6 11 -14 17 -12 17 -13 -8 -18
-18 -3 -32 1 -43 13 -9 10 -46 40 -80 65 -35 26 -64 51 -64 56 0 5 -11 13 -25
18 -14 5 -35 25 -46 44 -11 19 -29 38 -40 41 -10 4 -19 11 -19 16 0 9 -84 110
-147 176 -13 14 -34 23 -51 23 -23 0 -45 18 -121 100 -51 55 -97 100 -103 100
-6 0 -3 -9 6 -19 10 -10 14 -21 9 -24 -10 -6 -65 28 -57 36 3 3 -8 13 -25 21
-37 20 -42 20 -35 1 4 -8 13 -15 22 -15 12 0 13 -3 4 -12 -9 -9 -17 -6 -37 12
-14 13 -25 18 -25 12 0 -6 5 -14 11 -18 8 -5 8 -8 0 -14 -8 -4 -3 -15 14 -34
28 -30 33 -48 10 -40 -11 5 -15 -1 -15 -22 -1 -28 -1 -28 -16 -9 -13 17 -16
18 -24 5 -7 -11 -14 -2 -31 38 -15 35 -27 52 -39 52 -15 0 -17 -7 -13 -42 3
-24 12 -65 20 -92 8 -26 13 -63 10 -82 -4 -21 -2 -34 5 -34 6 0 8 -12 5 -29
-4 -17 0 -47 8 -68 l15 -38 -5 38 c-4 22 -2 37 4 37 14 0 24 -64 17 -105 -4
-22 -3 -35 4 -35 5 0 10 -5 10 -11 0 -5 -4 -7 -10 -4 -6 3 -10 -4 -9 -17 0
-13 3 -17 6 -9 8 20 33 -53 43 -129 12 -88 38 -238 45 -261 5 -14 1 -19 -12
-20 -15 0 -15 -2 4 -11 24 -12 30 -31 38 -133 3 -38 10 -83 15 -100 27 -91 34
-129 43 -222 1 -12 5 -25 9 -29 4 -4 5 -17 2 -29 -4 -15 0 -24 11 -29 10 -3
15 -12 11 -21 -3 -8 -1 -17 3 -19 13 -9 102 25 108 40 3 8 11 14 18 14 7 0 15
7 19 15 3 8 12 12 20 9 21 -8 100 37 84 47 -9 6 -8 10 5 15 17 6 17 7 0 20
-17 13 -16 14 7 13 54 -4 72 1 66 16 -7 19 3 19 28 0 18 -13 18 -15 2 -15 -14
0 -12 -8 15 -47 18 -27 46 -63 62 -80 17 -18 28 -35 25 -38 -3 -3 6 -19 21
-34 44 -48 52 -61 46 -71 -3 -6 0 -10 8 -10 16 0 27 -21 27 -51 0 -10 5 -16
13 -14 6 3 22 -12 34 -32 12 -21 53 -76 92 -123 88 -106 171 -225 171 -243 0
-8 7 -14 16 -13 9 0 24 -14 35 -33 10 -19 32 -51 49 -73 17 -21 29 -42 25 -47
-3 -5 -1 -12 5 -16 5 -3 10 -1 10 5 0 6 5 8 10 5 6 -4 8 -15 5 -25 -4 -13 2
-20 25 -28 21 -8 28 -15 24 -26 -4 -11 -1 -16 10 -16 9 0 16 -3 16 -7 0 -5 25
-35 56 -68 31 -33 87 -96 126 -140 39 -44 79 -88 90 -98 10 -10 18 -22 18 -27
0 -15 211 -229 232 -236 10 -3 18 -10 18 -15 0 -6 -7 -6 -19 1 -32 16 -31 12
1 -20 29 -30 45 -39 33 -20 -3 6 -1 10 4 10 18 0 12 -35 -9 -58 -25 -26 -26
-50 -2 -68 15 -13 14 -13 -9 -5 -21 8 -31 6 -48 -10 -11 -11 -21 -26 -21 -33
0 -7 -22 -37 -50 -66 -27 -29 -50 -57 -50 -61 0 -3 -9 -9 -19 -12 -11 -2 -31
-23 -44 -45 -14 -22 -40 -51 -57 -64 -17 -13 -32 -31 -33 -39 -2 -8 -15 -27
-30 -44 -59 -64 -59 -65 -36 -65 11 0 18 -4 14 -10 -3 -5 -13 -6 -22 -3 -11 4
-14 2 -9 -5 4 -7 -8 -17 -31 -27 -56 -23 -141 -112 -88 -91 8 3 15 1 15 -4 0
-6 -11 -10 -25 -10 -17 0 -25 -6 -25 -17 0 -18 -70 -83 -89 -83 -6 0 -11 -6
-11 -13 0 -8 -11 -19 -25 -25 -14 -7 -25 -18 -24 -24 4 -29 -3 -39 -36 -55
-19 -9 -32 -20 -29 -24 2 -4 -14 -20 -37 -36 -47 -32 -169 -149 -169 -161 0
-5 -20 -23 -44 -40 -25 -18 -47 -40 -50 -50 -3 -9 -24 -27 -47 -40 -25 -14
-39 -29 -35 -37 3 -9 -9 -19 -35 -29 -21 -9 -39 -20 -39 -26 0 -18 -45 -21
-75 -6 -17 9 -41 16 -53 16 -15 0 -26 7 -29 19 -3 11 -21 23 -46 31 -23 7 -51
16 -62 21 -11 4 -38 10 -60 13 -22 2 -93 23 -158 46 -71 25 -158 47 -220 55
-56 8 -125 21 -153 29 -95 26 -446 61 -473 46 -11 -5 -85 -10 -171 -10 -83 0
-159 -4 -169 -9 -9 -5 -55 -15 -101 -21 -47 -6 -95 -18 -108 -26 -12 -8 -27
-12 -32 -9 -5 3 -37 -3 -72 -14 -35 -11 -93 -25 -130 -31 -50 -9 -65 -15 -61
-26 3 -8 -1 -14 -9 -14 -41 0 -115 -31 -127 -54 -7 -13 -24 -29 -38 -35 -16
-7 -23 -17 -19 -26 4 -10 -1 -15 -14 -15 -21 0 -27 -24 -12 -48 12 -17 54 -11
70 11 10 13 22 16 42 12 16 -3 31 -2 35 4 3 6 19 11 35 11 16 0 32 5 36 11 3
6 19 9 35 5 15 -3 31 -1 34 4 3 5 13 6 22 3 12 -5 14 -3 8 7 -6 10 -3 12 13 8
12 -4 25 -2 28 3 3 5 32 9 65 9 33 0 69 5 80 11 25 13 507 19 512 6 1 -5 45
-10 98 -11 64 -2 116 -10 159 -24 36 -11 101 -29 145 -38 50 -11 94 -28 119
-45 29 -21 46 -27 67 -22 20 4 30 1 34 -9 3 -8 16 -14 28 -13 12 1 28 0 35 -3
11 -4 11 -6 0 -13 -9 -6 -5 -9 12 -9 14 0 37 -8 50 -17 14 -10 67 -41 118 -68
93 -49 110 -66 76 -74 -9 -1 -35 -20 -57 -41 -22 -21 -54 -44 -71 -51 -17 -7
-35 -19 -39 -26 -4 -7 -15 -13 -24 -13 -22 0 -157 -66 -173 -85 -7 -8 -25 -15
-41 -15 -15 0 -31 -4 -34 -10 -3 -5 3 -10 15 -10 12 0 18 -4 15 -10 -3 -5 -15
-10 -26 -10 -33 0 -176 -50 -202 -71 -14 -10 -35 -19 -46 -19 -12 0 -21 -6
-21 -15 0 -14 -34 -24 -97 -29 -53 -5 -148 -29 -164 -43 -8 -7 -32 -13 -52
-13 -20 0 -37 -4 -37 -9 0 -4 12 -6 28 -4 25 4 26 3 7 -9 -11 -7 -56 -14 -100
-15 -44 -2 -129 -8 -190 -14 -67 -6 -213 -9 -370 -5 -238 4 -268 7 -350 30
-113 32 -200 67 -261 106 -27 16 -53 30 -58 30 -6 0 -42 27 -81 60 -38 34 -81
63 -95 67 -14 3 -31 11 -39 17 -12 9 -13 7 -7 -9 5 -11 9 -26 9 -32 0 -7 6
-13 13 -13 20 0 83 -44 84 -57 0 -7 -5 -13 -11 -13 -18 0 -88 54 -94 72 -3 9
-33 40 -65 68 -60 52 -72 70 -46 70 8 0 16 7 20 15 3 8 12 15 20 15 9 0 13 6
10 15 -4 9 3 19 20 26 27 13 35 29 14 29 -7 0 3 16 22 35 19 19 39 35 45 35
10 0 55 44 55 54 0 2 16 20 35 40 19 21 35 42 35 47 0 5 6 9 14 9 8 0 34 20
58 44 25 24 59 51 75 60 17 8 33 22 36 31 4 8 12 15 18 15 10 0 45 24 247 172
69 51 254 148 401 211 124 52 174 70 316 113 93 28 136 49 69 34 -22 -5 -77
-21 -123 -35 -93 -27 -110 -30 -95 -15 16 16 207 71 254 73 25 1 47 5 50 9 3
4 42 15 85 24 44 9 89 23 101 30 15 10 34 13 63 8 25 -4 46 -2 55 5 19 16 146
26 298 25 70 -1 125 3 122 7 -3 5 -16 6 -29 3 -13 -3 -32 -1 -42 5 -14 8 -15
11 -3 12 8 1 19 1 24 0 5 -1 12 3 16 10 6 8 17 8 44 -2 33 -12 40 -11 80 10
33 18 53 23 87 19 24 -3 36 -3 25 -1 -10 3 -20 13 -23 23 -5 20 -36 32 -59 23
-19 -7 -18 -21 4 -26 9 -3 3 -5 -15 -6 -42 -1 -52 17 -22 42 l24 20 -25 -7
c-37 -11 -55 -12 -57 -2 -1 5 -7 13 -15 18 -8 6 0 7 25 3 20 -3 37 -2 37 3 0
16 -52 20 -135 11 -104 -12 -193 -26 -177 -28 20 -2 14 -18 -10 -25 -15 -4
-27 0 -35 10 -6 9 -16 13 -22 10 -5 -4 -12 -2 -16 4 -4 7 -13 6 -28 -2 -12 -6
-68 -11 -130 -12 -60 0 -101 -3 -91 -6 15 -6 13 -8 -10 -14 -16 -4 -33 -2 -41
4 -10 8 -24 8 -52 1 -21 -6 -51 -11 -68 -11 -83 0 -499 -130 -660 -205 -121
-57 -217 -96 -223 -91 -8 8 74 57 113 67 22 6 60 23 85 38 25 15 70 36 100 46
54 18 131 55 155 75 7 6 20 8 29 4 9 -4 18 0 22 9 4 11 12 13 26 8 30 -11 70
-1 64 15 -6 16 35 30 59 21 8 -4 17 -2 20 3 8 14 162 62 187 58 15 -2 3 -8
-34 -17 -32 -8 -58 -17 -58 -21 0 -8 71 3 89 14 6 4 62 12 124 16 62 5 144 14
182 21 39 6 104 12 145 13 87 2 170 15 187 28 7 5 14 5 17 -1 4 -5 36 -8 74
-6 136 8 268 6 307 -4 22 -6 63 -11 90 -11 28 0 75 -9 105 -20 30 -11 76 -19
102 -20 26 0 77 -11 113 -25 36 -13 65 -22 65 -20 0 7 -207 105 -222 105 -8 0
-23 7 -34 15 -10 8 -27 15 -37 15 -29 0 -78 30 -71 42 5 8 1 9 -11 4 -11 -4
-25 0 -37 11 -12 11 -34 17 -59 17 -21 -1 -39 2 -39 7 0 4 -16 5 -35 2 -23 -4
-35 -2 -35 6 0 6 -6 11 -14 11 -9 0 -12 7 -9 20 4 17 0 20 -23 20 -22 0 -25
-3 -16 -12 20 -20 13 -31 -15 -22 -48 13 -308 20 -343 9 -14 -4 -20 -2 -20 9
0 9 -8 16 -19 16 -27 0 -35 -17 -15 -28 15 -8 15 -10 -1 -16 -12 -4 -26 1 -40
14 -15 14 -33 20 -61 19 l-39 -2 40 -6 40 -7 -53 -5 c-40 -3 -51 -1 -47 9 3 8
0 10 -7 6 -7 -5 -25 -7 -40 -6 -15 1 -28 -3 -28 -9 0 -6 7 -8 16 -5 8 3 12 2
9 -4 -9 -14 -52 -12 -67 3 -12 14 -58 11 -58 -3 0 -5 10 -6 23 -3 21 5 21 4 6
-12 -16 -16 -18 -16 -43 0 -15 10 -30 14 -34 10 -4 -4 -1 -10 6 -12 32 -12 5
-18 -68 -15 -52 2 -80 0 -80 -7 0 -6 -13 -11 -30 -11 -16 0 -30 -3 -30 -7 0
-5 -15 -8 -32 -9 -49 0 -348 -78 -357 -92 -4 -5 -40 -21 -81 -37 -41 -15 -79
-32 -84 -36 -6 -5 -16 -9 -24 -9 -7 0 -34 -10 -60 -22 -26 -12 -53 -22 -60
-22 -7 -1 -16 -6 -20 -12 -4 -6 -27 -22 -52 -35 -25 -13 -54 -32 -65 -41 -11
-9 -63 -47 -115 -85 -52 -37 -110 -82 -129 -100 -19 -18 -54 -46 -78 -61 -23
-15 -43 -30 -43 -34 0 -9 -68 -73 -124 -117 -36 -29 -150 -161 -236 -275 -24
-32 -59 -73 -78 -90 -53 -50 -105 -124 -98 -142 4 -9 1 -23 -5 -31 -18 -21 -1
-28 21 -8 23 21 26 9 5 -19 -25 -33 -16 -43 10 -11 26 32 33 28 14 -7 -11 -20
-10 -21 38 -15 47 5 52 4 72 -23 39 -53 24 -68 -20 -19 -15 17 -30 26 -33 21
-3 -5 6 -20 19 -32 14 -13 25 -34 25 -47 0 -13 4 -23 9 -23 15 0 212 -152 218
-168 3 -7 17 -18 31 -23 23 -9 24 -11 8 -22 -29 -21 171 -114 409 -191 388
-125 524 -149 815 -142 385 9 615 51 937 169 126 46 337 140 363 162 8 7 50
30 93 51 136 68 162 82 173 92 6 6 35 22 63 37 l52 26 33 -29 c19 -16 75 -53
125 -82 80 -46 90 -55 79 -69 -11 -14 -11 -14 4 -3 22 17 55 1 68 -34 6 -14
18 -24 29 -24 10 0 24 -6 31 -14 6 -8 24 -16 38 -18 19 -2 27 -9 26 -21 -1
-11 9 -20 30 -26 17 -4 30 -13 28 -20 -1 -6 6 -15 15 -18 10 -4 24 -15 31 -25
7 -10 18 -18 23 -18 6 0 22 -13 35 -30 15 -17 39 -32 60 -36 23 -4 34 -12 34
-24 0 -10 8 -24 17 -31 11 -10 14 -10 9 -1 -4 7 -1 12 8 12 10 0 16 -9 16 -23
0 -18 5 -23 22 -23 15 1 24 -6 26 -19 5 -25 60 -84 89 -96 13 -5 20 -14 17
-22 -2 -7 5 -22 16 -32 20 -19 21 -18 14 1 -6 16 -3 15 20 -6 15 -14 29 -24
32 -22 2 1 4 -1 5 -5 0 -4 -7 -10 -16 -13 -12 -4 -6 -9 19 -18 23 -9 38 -22
44 -41 6 -16 19 -32 30 -36 11 -3 30 -20 41 -38 11 -18 43 -63 70 -102 27 -38
69 -101 92 -140 24 -38 56 -89 71 -112 29 -43 36 -77 18 -88 -6 -4 -7 -11 -4
-17 4 -6 2 -13 -5 -17 -7 -5 -8 -17 -2 -39 8 -25 7 -32 -5 -32 -8 0 -14 5 -14
11 0 8 -5 7 -15 -1 -9 -7 -13 -20 -10 -30 3 -9 -3 -24 -15 -35 -11 -10 -20
-25 -20 -33 0 -8 -9 -30 -21 -49 -16 -26 -18 -37 -9 -47 9 -11 7 -16 -10 -21
-15 -5 -19 -12 -15 -26 4 -11 2 -19 -4 -19 -6 0 -11 -8 -11 -18 0 -11 -9 -27
-20 -37 -11 -10 -20 -31 -20 -48 0 -16 -11 -42 -25 -59 -16 -19 -25 -42 -25
-64 0 -19 -4 -34 -10 -34 -5 0 -7 -7 -4 -15 4 -8 1 -15 -6 -15 -8 0 -11 -9 -7
-26 3 -17 -1 -33 -12 -43 -28 -29 -44 -68 -37 -94 5 -23 -3 -62 -24 -112 -5
-11 -11 -40 -15 -65 -3 -25 -17 -62 -31 -82 -14 -20 -23 -41 -19 -47 3 -6 1
-19 -4 -30 -10 -18 -13 -32 -26 -128 -3 -21 -12 -53 -21 -71 -8 -17 -17 -56
-20 -85 -3 -28 -10 -67 -16 -85 -7 -24 -6 -37 2 -47 10 -12 9 -16 -4 -21 -13
-5 -16 -17 -15 -48 2 -23 -1 -47 -4 -53 -4 -7 -10 -38 -12 -70 -3 -32 -10
-103 -15 -158 -33 -360 -42 -644 -27 -895 6 -100 9 -131 23 -260 3 -30 8 -73
10 -95 2 -22 8 -58 13 -80 5 -22 8 -53 6 -70 -2 -16 1 -36 7 -43 7 -7 13 -36
15 -64 1 -28 8 -57 14 -64 6 -7 13 -31 14 -51 6 -64 28 -148 40 -155 6 -4 11
-24 10 -45 -1 -21 2 -42 6 -48 16 -22 47 -118 42 -131 -3 -8 0 -14 7 -14 7 0
10 -7 6 -16 -4 -9 5 -41 19 -70 14 -29 27 -67 29 -84 2 -17 11 -39 20 -49 9
-9 16 -27 16 -39 0 -12 4 -22 9 -22 5 0 13 -19 19 -42 6 -24 25 -65 42 -91 16
-26 30 -53 30 -59 0 -18 89 -146 121 -172 17 -15 41 -29 54 -32 22 -6 23 -7 7
-34 -9 -16 -13 -32 -8 -37 5 -4 11 -2 13 5 3 6 11 12 19 12 9 0 12 -5 8 -12
-4 -7 2 -5 14 6 13 11 28 16 38 12 12 -5 29 5 56 31 35 34 55 36 26 3 -7 -8 2
-1 21 15 35 30 35 29 13 -24 -13 -34 23 6 65 71 25 38 47 67 50 65 2 -3 0 -14
-6 -25 -6 -11 -8 -22 -5 -25 8 -7 64 23 64 34 0 6 -4 7 -10 4 -15 -10 -12 4 9
33 10 15 22 37 25 50 4 12 12 22 17 22 6 0 9 8 7 18 -2 9 3 22 12 29 13 11 13
12 -2 13 -24 0 -23 5 10 59 34 55 100 222 137 346 15 50 34 106 42 125 28 65
41 119 31 122 -19 7 2 48 31 63 26 13 29 20 41 119 7 59 17 106 21 106 12 0
11 -20 -10 -144 -11 -59 -25 -113 -32 -120 -9 -8 -10 -8 -4 3 5 9 4 12 -3 7
-7 -4 -12 -15 -12 -24 0 -10 -27 -96 -60 -192 -33 -96 -59 -183 -56 -193 2
-10 0 -32 -6 -48 -8 -22 -13 -27 -23 -19 -10 8 -14 3 -17 -22 -3 -18 -8 -41
-13 -50 -4 -11 -3 -18 3 -18 12 0 58 77 67 112 4 14 15 28 26 31 25 7 24 33
-2 40 l-20 6 20 20 c12 12 21 28 21 36 0 8 6 12 14 9 18 -7 32 34 17 49 -16
16 -13 28 6 25 14 -2 22 14 40 82 13 47 27 105 32 130 5 25 16 79 25 122 8 42
18 102 21 135 13 140 23 169 48 144 9 -9 8 -23 -4 -56 -9 -25 -13 -45 -9 -45
13 0 -2 -105 -16 -116 -8 -6 -14 -27 -14 -46 0 -45 -48 -233 -95 -368 -20 -58
-38 -116 -42 -130 -3 -14 -16 -36 -29 -50 -27 -30 -47 -77 -34 -82 15 -5 -8
-78 -43 -133 -17 -27 -55 -81 -83 -120 -28 -38 -60 -86 -69 -105 l-17 -35 31
29 c17 17 31 36 31 43 0 7 4 13 8 13 5 0 26 24 46 54 21 30 48 67 62 83 13 15
24 35 24 44 0 9 7 22 15 29 8 7 13 16 10 20 -3 5 -1 11 5 15 6 4 7 11 4 17 -4
6 4 21 17 32 15 12 35 50 48 91 13 39 39 111 57 162 39 105 40 110 19 93 -9
-7 -17 -11 -19 -9 -5 6 49 187 58 196 9 8 3 -39 -10 -87 -12 -43 10 -11 26 37
19 59 35 65 37 14 1 -27 -4 -44 -18 -57 -25 -22 -24 -34 1 -27 30 8 24 -13
-10 -38 -16 -13 -32 -35 -36 -53 -3 -17 -12 -41 -20 -54 -8 -12 -14 -28 -12
-35 1 -6 -6 -27 -16 -45 -9 -19 -15 -36 -12 -39 8 -9 47 8 40 18 -3 5 3 24 14
42 11 17 17 38 15 45 -3 6 2 12 11 12 22 0 20 18 -1 22 -15 3 -12 9 16 35 25
23 35 41 36 67 1 20 8 42 14 50 6 8 11 29 10 47 -1 19 7 49 18 69 25 42 40
120 24 120 -13 0 -4 47 12 68 9 11 19 124 18 199 -1 18 4 35 9 38 6 3 10 28
10 55 0 27 5 61 10 76 7 17 7 31 1 37 -5 5 -5 22 1 44 5 19 7 46 4 59 -3 12
-2 26 4 29 5 3 10 43 10 88 1 45 3 124 5 176 2 55 -1 103 -7 114 -7 14 -7 22
2 27 9 6 9 12 0 30 -9 16 -9 25 -1 33 18 18 14 172 -5 188 -14 11 -14 13 0 21
12 7 14 23 11 76 -3 37 -9 83 -15 101 -7 25 -6 37 1 42 7 4 8 12 3 20 -9 14
-14 68 -13 142 0 22 -5 45 -12 53 -9 11 -9 14 1 14 16 0 6 132 -25 345 -3 17
-8 68 -11 115 -4 47 -10 90 -14 95 -4 6 -10 36 -14 69 -3 32 -12 68 -18 79 -6
12 -13 38 -15 57 -2 19 -10 42 -18 51 -9 9 -15 36 -15 65 0 52 -19 92 -38 80
-7 -4 -7 -16 0 -39 20 -64 21 -72 10 -62 -5 6 -17 35 -26 67 -18 65 -21 92 -5
65 6 -9 15 -15 20 -12 5 4 6 12 2 18 -4 7 -10 32 -14 57 -9 58 -34 123 -48
128 -9 3 -9 7 -1 18 14 15 4 37 -12 28 -7 -5 -9 2 -4 19 5 22 1 29 -21 41 -27
15 -27 15 -4 16 18 0 22 4 16 18 -4 9 -13 32 -20 50 -6 18 -17 38 -23 44 -7 7
-12 24 -12 38 0 31 -29 77 -30 48 0 -10 -5 -18 -11 -18 -7 0 -9 10 -7 25 4 17
0 26 -12 30 -18 6 -56 83 -46 92 11 11 36 -7 36 -26 0 -10 7 -21 15 -25 19 -7
19 -4 1 39 -8 19 -20 35 -25 35 -6 0 -11 18 -11 40 0 37 -2 40 -24 34 -26 -6
-56 17 -56 43 0 14 2 14 19 -1 22 -20 40 -4 21 19 -6 8 -8 20 -4 26 5 9 2 10
-12 5 -15 -6 -17 -5 -6 5 6 7 12 19 12 26 0 8 18 42 40 77 22 35 40 68 40 74
0 6 15 30 34 55 19 24 40 55 46 68 7 13 44 70 82 127 38 57 67 106 64 109 -8
8 0 18 -91 -122 -104 -161 -137 -212 -167 -265 -39 -67 -83 -116 -92 -102 -4
7 -1 12 9 12 9 0 14 4 11 8 -3 5 4 26 15 46 11 20 18 43 17 51 -2 8 4 20 13
27 23 19 72 108 59 108 -7 0 -7 6 1 21 9 18 13 19 21 8 8 -11 9 -10 4 4 -8 26
47 112 71 110 11 -1 25 8 33 22 17 26 109 141 153 189 22 24 26 26 17 8 -6
-12 -22 -39 -36 -59 -13 -20 -24 -40 -24 -46 0 -6 33 34 74 89 41 54 74 101
73 104 -1 3 12 18 28 35 27 26 28 30 11 33 -22 5 -61 -37 -213 -225 -58 -73
-108 -131 -111 -129 -11 11 137 214 222 302 52 55 111 129 132 164 37 64 201
240 223 240 6 0 25 20 42 43 35 50 173 161 192 154 6 -2 20 0 30 5 11 6 17 5
17 -2 0 -6 -14 -19 -32 -28 -17 -9 -41 -27 -53 -39 -12 -13 -25 -23 -28 -23
-15 0 -82 -53 -143 -114 -37 -36 -73 -66 -80 -66 -6 0 -24 -17 -39 -38 -16
-20 -46 -56 -69 -79 -22 -24 -36 -43 -30 -43 14 0 184 166 184 180 0 18 18 10
23 -11 5 -18 9 -19 27 -9 12 6 26 24 31 39 10 28 152 158 240 220 42 30 46 36
32 46 -14 10 -7 17 46 50 68 41 75 40 133 -7 40 -32 42 -18 5 28 -17 21 -24
33 -15 26 10 -8 22 -11 28 -7 7 4 26 -11 46 -34 19 -22 41 -38 48 -35 7 3 19
-2 26 -11 7 -8 19 -15 28 -15 8 0 -11 24 -44 56 l-59 55 61 -40 c34 -22 64
-38 67 -35 3 4 11 3 17 -1 8 -5 6 -13 -7 -27 -17 -19 -17 -19 10 -13 20 5 28
3 33 -9 3 -9 12 -16 19 -16 22 0 115 -42 110 -50 -3 -4 9 -10 25 -13 52 -11
106 -37 92 -46 -12 -7 126 -61 156 -61 7 0 32 -9 56 -19 59 -27 190 -61 214
-55 10 3 26 -2 35 -10 9 -10 33 -16 60 -16 46 0 112 -21 101 -33 -4 -3 20 -6
52 -5 33 1 102 -6 154 -14 52 -9 96 -15 98 -13 8 8 -37 23 -88 29 -76 9 -331
64 -377 81 -62 22 -5 18 115 -9 59 -13 127 -27 152 -31 104 -15 205 -38 212
-49 4 -6 6 -17 3 -23 -4 -12 4 -15 69 -28 10 -2 26 1 35 7 13 8 25 7 47 -3 54
-26 568 -11 864 26 69 8 132 15 140 16 8 1 4 4 -10 8 -21 6 -14 9 40 21 36 7
71 17 77 23 7 5 20 6 29 3 20 -8 41 4 25 14 -7 3 41 26 106 50 65 24 122 50
126 58 6 8 18 12 32 8 27 -7 71 10 97 37 10 9 23 17 30 17 10 0 28 15 138 121
50 48 130 95 130 77 0 -6 -21 -31 -46 -55 -26 -24 -44 -43 -40 -43 12 0 86 53
86 62 0 4 12 26 26 48 27 40 70 65 123 69 10 1 8 8 -9 26 -13 14 -19 25 -13
25 6 0 16 -7 23 -15 17 -21 44 -19 65 5 18 20 18 21 -1 15 -12 -5 -6 5 16 25
26 23 30 30 14 25 -23 -6 -29 20 -10 44 8 11 8 15 -2 18 -6 3 -10 9 -6 14 10
16 -11 9 -49 -17 -31 -21 -41 -23 -53 -13 -8 6 -18 9 -21 5 -4 -4 -1 -11 7
-16 8 -5 12 -11 9 -14 -3 -3 -21 10 -39 29 l-34 35 28 0 c17 0 25 4 20 11 -4
7 -21 9 -41 6 -28 -5 -34 -3 -29 8 3 9 -1 15 -9 15 -8 0 -15 8 -15 19 0 19
-53 81 -71 81 -5 0 -7 5 -3 11 4 8 9 8 17 0 18 -18 28 -12 17 10 -9 15 -18 19
-34 15 -17 -4 -30 3 -52 26 -28 30 -17 30 19 0 21 -19 35 -8 17 13 -20 24 23
20 45 -5 11 -13 14 -20 6 -20 -8 0 -4 -11 9 -30 12 -16 16 -30 10 -30 -6 0 -8
-5 -5 -10 4 -6 13 -9 20 -8 8 2 21 -6 29 -17 8 -11 17 -17 20 -14 4 3 -11 28
-34 55 -22 26 -36 51 -31 54 14 8 -57 80 -78 80 -25 0 -51 10 -51 19 0 4 14 6
30 3 18 -3 30 0 30 7 0 6 -5 11 -10 11 -6 0 -20 11 -32 25 -12 14 -31 25 -42
25 -20 -1 -20 -2 -3 -14 18 -14 24 -32 7 -21 -5 3 -10 2 -10 -4 0 -5 -34 16
-75 46 -42 31 -71 59 -65 63 19 12 -51 60 -88 60 -10 0 -56 20 -103 45 -46 25
-104 51 -129 57 -25 6 -49 17 -55 24 -5 6 -35 20 -65 29 -30 10 -77 28 -105
41 -27 12 -75 29 -105 38 -30 8 -102 31 -160 50 -58 20 -117 36 -132 36 -14 0
-28 4 -30 10 -1 5 -52 19 -113 31 -60 11 -123 25 -140 30 -16 5 -91 17 -165
25 -220 27 -1016 6 -1055 -26 -7 -6 -19 -8 -27 -5 -32 12 -430 -90 -507 -130
-17 -8 -31 -22 -31 -30 0 -8 -8 -15 -18 -15 -10 0 -22 -4 -28 -9 -5 -4 -31
-16 -57 -26 -32 -12 -46 -23 -43 -32 3 -7 -1 -13 -8 -13 -8 0 -17 -7 -20 -16
-11 -28 -7 -34 17 -25 18 7 28 4 45 -14 12 -13 22 -29 22 -37 0 -10 9 -13 30
-10 16 2 37 1 46 -2 13 -5 14 -9 4 -22 -9 -10 -10 -18 -3 -25 13 -13 68 9 115
45 40 29 99 54 116 49 17 -6 5 -23 -17 -23 -22 0 -77 -49 -73 -65 1 -6 -20
-22 -48 -35 -27 -13 -50 -26 -50 -30 0 -16 50 -2 95 26 69 43 220 101 319 123
126 29 301 41 685 48 279 5 353 4 347 -6 -6 -10 17 -12 100 -11 143 1 214 -8
214 -27 0 -10 -6 -12 -22 -7 -18 5 -271 15 -396 15 -28 0 -31 3 -21 15 9 11 7
14 -12 14 -13 -1 -35 -7 -49 -15 -14 -8 -53 -14 -89 -15 -69 0 -75 9 -14 20
l38 8 -45 0 c-57 0 -158 -15 -115 -17 22 -1 26 -4 15 -10 -20 -11 -102 -2 -94
11 4 6 -18 8 -62 5 -38 -3 -90 -6 -115 -6 -25 0 -77 -5 -115 -12 -38 -6 -78
-11 -89 -11 -68 4 -286 -71 -365 -124 -19 -13 -43 -24 -52 -24 -11 0 -18 -8
-18 -19 0 -18 3 -18 68 6 37 14 86 34 109 44 24 10 49 19 57 19 8 0 17 4 20 9
3 5 34 12 68 16 35 4 68 11 73 15 18 14 526 39 790 39 218 1 264 -2 469 -30
82 -11 155 -18 163 -15 8 4 27 0 41 -8 15 -8 70 -24 122 -36 52 -12 129 -33
171 -47 42 -14 85 -23 95 -21 11 2 -28 19 -86 37 -58 19 -125 44 -151 57 -25
12 -61 25 -80 28 -18 3 -88 13 -154 22 -66 10 -114 19 -107 22 6 2 10 7 7 12
-9 15 289 -33 310 -50 6 -5 78 -25 160 -45 83 -20 170 -46 195 -57 25 -11 90
-35 145 -54 116 -40 215 -84 215 -96 0 -4 7 -8 16 -8 9 0 45 -20 80 -45 34
-25 68 -45 74 -45 6 0 9 -4 6 -9 -3 -5 6 -12 19 -15 14 -4 23 -11 20 -16 -3
-6 0 -10 8 -10 8 0 38 -23 65 -52 44 -46 52 -50 67 -38 14 11 19 10 38 -9 l22
-23 -35 7 -35 6 33 -28 c18 -15 32 -34 32 -40 0 -7 3 -13 8 -13 4 0 15 -14 24
-31 l18 -30 -50 -31 c-28 -17 -50 -37 -50 -44 0 -7 -6 -11 -14 -8 -17 6 -67
-18 -116 -56 -37 -29 -152 -90 -170 -90 -5 0 -54 -20 -107 -44 -54 -23 -114
-49 -133 -55 -112 -40 -179 -64 -205 -77 -90 -42 -111 -44 -369 -44 -138 0
-280 5 -316 10 -36 6 -119 17 -185 26 -111 14 -402 75 -520 108 -79 23 -292
101 -380 139 -89 39 -230 116 -257 141 -10 9 -24 16 -30 16 -9 0 -8 4 2 11 11
7 4 8 -25 4 -32 -4 -35 -3 -17 4 30 14 28 25 -4 17 -21 -6 -25 -4 -21 7 3 9
-7 21 -28 33 -27 14 -31 20 -20 31 8 7 21 13 30 13 9 0 26 5 37 11 16 9 18 13
7 20 -18 11 -9 18 32 25 25 4 30 3 19 -5 -8 -5 -12 -13 -9 -16 8 -7 59 15 59
26 0 4 15 7 33 7 17 1 55 8 82 16 29 9 87 16 138 16 51 0 87 4 87 10 0 20
-148 9 -311 -23 l-166 -33 0 22 c0 26 29 37 74 28 17 -3 77 3 134 14 135 27
232 40 294 40 100 0 105 1 99 17 -8 19 10 20 25 2 14 -18 4 -27 -31 -27 -15 0
-28 -5 -28 -11 0 -11 -58 -7 -115 7 -20 5 -20 5 -1 -7 11 -7 51 -12 90 -13 57
-1 78 3 107 22 43 26 57 28 38 5 -13 -15 -10 -16 31 -10 26 3 73 0 110 -8 36
-8 131 -21 212 -29 80 -9 159 -21 174 -26 26 -10 57 1 37 13 -8 5 -283 37
-314 37 -5 0 -9 4 -9 8 0 4 15 7 33 5 150 -12 274 -26 337 -38 41 -8 103 -16
138 -18 56 -3 60 -2 40 9 -13 8 -40 13 -60 14 -20 0 -40 5 -43 11 -11 17 -2
19 40 9 25 -6 41 -6 43 0 4 12 39 13 46 1 3 -4 16 -6 29 -4 13 3 41 -2 62 -11
82 -35 54 -7 -69 68 -17 10 -112 35 -211 56 -99 21 -209 46 -245 54 -36 8 -81
15 -100 15 -19 0 -80 4 -135 9 -78 7 -102 7 -110 -4 -7 -9 -54 -14 -160 -18
-140 -5 -264 -18 -310 -33 -11 -3 -33 -5 -50 -5 -39 2 -279 -44 -304 -58 -11
-5 -32 -10 -46 -10 -15 0 -39 -6 -53 -14 -49 -26 -125 -47 -136 -36 -6 6 4 15
30 25 71 29 82 35 49 29 -16 -3 -47 -14 -68 -24 l-38 -18 -32 27 c-18 16 -37
30 -44 32 -12 4 -160 138 -260 236 -35 34 -67 63 -71 65 -5 2 -66 73 -136 158
-71 85 -135 158 -142 163 -7 4 -11 13 -8 20 5 15 -47 77 -65 77 -7 0 -11 6 -8
13 2 6 -9 27 -24 45 -16 18 -39 52 -50 75 -12 23 -37 62 -56 86 -24 33 -30 47
-21 52 9 6 0 20 -31 48 -31 29 -42 46 -38 60 3 14 -9 36 -40 72 -24 28 -42 57
-40 63 2 6 -6 19 -19 28 -12 10 -32 38 -44 63 -12 25 -25 47 -30 50 -8 5 -5
63 6 98 4 11 0 17 -11 17 -11 0 -15 -5 -11 -15 3 -8 0 -15 -7 -15 -7 0 -18 14
-24 30 -11 30 -8 36 118 207 71 97 129 180 129 184 0 4 -9 5 -20 2 -11 -3 -20
-12 -20 -20 0 -15 -209 -306 -224 -311 -5 -2 -17 9 -27 24 -17 26 -17 29 -1
42 9 7 12 11 5 8 -25 -13 -43 5 -38 39 3 28 1 34 -17 37 -12 2 -23 9 -26 17
-3 8 0 11 6 7 6 -4 12 5 14 21 2 16 12 32 25 39 13 6 20 13 17 16 -3 4 27 50
67 104 40 54 121 169 179 256 104 152 108 157 125 138 9 -10 26 -20 38 -22 11
-2 23 -10 25 -18 4 -13 3 -13 -11 -2 -14 12 -16 10 -14 -11 2 -24 54 -77 76
-77 15 0 14 -20 -1 -20 -16 -1 -172 -229 -163 -238 8 -8 39 30 70 88 14 25 45
67 69 94 39 43 47 48 61 36 9 -7 13 -20 10 -28 -4 -12 -3 -13 10 -2 9 8 15 8
15 2 0 -6 9 -14 20 -17 12 -4 33 -25 47 -48 15 -23 28 -44 30 -46 1 -2 9 4 18
13 22 22 36 20 79 -9 20 -14 43 -25 50 -25 7 0 21 -9 31 -20 20 -23 41 -26 47
-8 3 9 12 8 31 -5 28 -18 38 -8 12 13 -8 7 -12 16 -9 21 3 5 -1 9 -9 9 -16 0
-30 27 -22 40 3 4 14 6 25 3 19 -5 19 -4 5 31 -8 19 -16 46 -16 58 -1 17 -2
18 -6 6 -2 -10 -9 -18 -15 -18 -7 0 -9 16 -5 45 5 33 3 44 -6 42 -15 -3 -13
15 8 71 8 24 18 73 20 109 l6 66 -21 -25 c-11 -15 -20 -36 -20 -48 0 -19 2
-21 16 -9 14 12 14 9 -1 -26 -34 -82 -39 -71 -37 70 2 81 17 155 42 205 24 47
50 107 50 115 0 15 -22 -9 -34 -38 l-14 -32 -1 31 c-1 16 8 49 19 72 22 46 24
52 12 52 -5 0 -14 -10 -20 -22 -10 -22 -11 -22 -11 8 -1 16 -6 35 -13 42 -9 9
-8 12 8 12 11 0 25 -5 32 -12 17 -17 26 -3 13 20 -15 28 -14 54 3 78 14 18 15
18 21 -11 13 -59 16 -61 29 -29 23 52 28 74 18 74 -5 0 -12 -10 -15 -22 -4
-12 -9 -20 -12 -16 -3 3 -1 17 5 32 5 15 10 38 10 51 0 30 78 175 93 174 7 0
21 -4 31 -8 16 -6 17 -9 5 -17 -8 -4 -20 -9 -28 -9 -8 0 -24 -18 -35 -40 -21
-41 -48 -108 -43 -110 49 -24 55 -23 68 3 16 31 20 72 8 72 -5 0 -9 -11 -9
-24 0 -25 -26 -54 -37 -42 -12 12 39 96 79 130 26 23 38 41 38 59 0 16 8 30
20 37 11 6 29 28 40 50 24 47 24 50 5 50 -8 0 -12 6 -9 14 11 29 -26 25 -51
-7 -30 -39 -33 -27 -4 19 24 39 10 46 -19 9 -25 -32 -29 -31 -37 4 -3 16 -13
35 -22 43 -13 11 -20 7 -44 -22 -16 -19 -29 -39 -29 -45 0 -6 -13 -26 -29 -44
-20 -23 -38 -33 -60 -33 -19 -1 -31 -6 -31 -14 0 -16 -143 -90 -279 -145 -52
-20 -97 -42 -100 -47 -3 -5 -29 -16 -56 -26 -28 -9 -82 -35 -120 -57 -39 -23
-81 -45 -94 -50 -13 -5 -21 -12 -18 -16 11 -10 95 16 175 56 42 21 112 53 154
72 43 19 78 40 78 48 0 9 8 11 25 7 18 -5 25 -2 25 9 0 10 10 15 33 15 19 0
60 13 93 29 130 64 152 42 51 -51 -54 -50 -87 -70 -87 -53 0 7 74 77 97 92 16
11 17 12 1 12 -24 1 -98 -29 -98 -40 0 -5 -6 -9 -14 -9 -8 0 -17 -10 -20 -22
-4 -15 -25 -32 -57 -48 -28 -13 -55 -32 -60 -42 -5 -10 -19 -18 -29 -18 -11 0
-20 -3 -20 -8 0 -4 -15 -15 -32 -23 -18 -9 -61 -31 -96 -48 -34 -18 -80 -34
-102 -36 -22 -2 -66 -15 -96 -29 -63 -29 -90 -33 -59 -10 19 14 249 129 388
193 37 17 67 33 67 36 0 7 -99 -32 -151 -60 -26 -14 -52 -25 -59 -25 -18 0
-117 -48 -125 -60 -5 -8 -219 -80 -238 -80 -4 0 -7 3 -7 8 0 4 21 13 48 20 26
7 65 17 86 23 67 17 71 26 11 23 -31 -1 -61 -7 -68 -12 -7 -5 -43 -20 -82 -32
-38 -13 -79 -29 -90 -36 -11 -8 -32 -14 -47 -14 -16 0 -28 -4 -28 -10 0 -5 -7
-10 -15 -10 -8 0 -15 -4 -15 -10 0 -5 16 -10 36 -10 19 0 42 -7 51 -16 9 -9
22 -12 32 -8 30 12 61 16 78 9 17 -6 17 -7 1 -16 -10 -6 -18 -19 -18 -29 0
-11 -4 -20 -10 -20 -5 0 -2 -8 8 -18 9 -11 20 -17 23 -15 10 4 75 -70 95 -108
9 -18 23 -39 30 -47 8 -7 14 -18 14 -23 0 -6 8 -8 18 -5 13 4 22 -1 30 -16 7
-13 20 -36 31 -53 21 -35 18 -43 -44 -119 -24 -31 -35 -51 -27 -54 7 -2 12
-11 12 -20 0 -12 -3 -13 -11 -5 -9 9 -17 5 -34 -15 -12 -15 -23 -31 -24 -37
-2 -5 -9 -18 -18 -27 -8 -9 -12 -22 -8 -27 3 -6 1 -11 -4 -11 -6 0 -11 -7 -11
-15 0 -8 -7 -15 -14 -15 -14 0 -31 -24 -55 -77 -6 -13 -15 -23 -21 -23 -6 0
-8 -4 -5 -10 3 -5 -1 -10 -9 -10 -9 0 -16 -7 -16 -15 0 -8 -7 -15 -15 -15 -17
0 -39 -36 -30 -50 11 -17 -40 -34 -64 -21 -12 7 -19 16 -16 21 3 5 1 11 -5 15
-6 4 -8 10 -5 15 2 4 -3 18 -13 31 -10 13 -23 35 -30 49 -6 14 -16 32 -21 40
-5 8 -23 46 -41 84 -17 38 -51 103 -76 144 -25 41 -48 87 -51 103 -3 16 -11
33 -18 39 -10 8 -12 2 -10 -27 3 -49 14 -73 31 -73 8 0 14 -9 14 -19 0 -11 5
-23 10 -26 6 -4 8 -9 6 -13 -6 -10 40 -97 50 -95 5 1 7 -12 5 -29 -2 -25 0
-30 13 -25 18 7 39 -24 31 -45 -3 -8 3 -23 15 -33 11 -10 20 -24 20 -32 0 -7
5 -13 11 -13 5 0 7 -5 4 -11 -4 -6 1 -17 11 -24 17 -13 17 -16 4 -25 -19 -12
-27 -3 -97 130 -30 58 -76 141 -101 185 -25 44 -67 120 -93 168 -26 48 -52 93
-57 100 -6 7 -41 82 -80 167 -38 85 -110 243 -160 350 -49 107 -105 237 -122
288 -18 51 -38 92 -45 92 -15 0 -28 28 -19 41 7 12 -14 75 -31 92 -7 8 -20 38
-28 68 -32 111 -78 234 -92 245 -7 5 -13 17 -12 25 2 12 -38 172 -63 252 -9
28 -2 35 17 16 8 -8 13 -5 18 10 4 14 18 24 36 28 32 6 50 23 25 23 -9 0 -16
3 -16 8 0 4 -12 15 -27 24 l-28 16 27 7 c28 7 52 -1 43 -15 -3 -4 1 -10 9 -13
10 -4 12 0 9 14 -8 28 16 24 51 -8 l29 -28 -22 33 c-27 39 -21 54 11 26 21
-19 18 -6 -6 25 -6 8 -11 25 -11 38 -1 20 4 23 36 23 30 0 38 4 43 24 3 13 15
26 26 29 29 7 26 56 -4 85 -36 33 -42 27 -12 -13 15 -19 23 -35 18 -35 -22 0
-157 158 -265 311 -59 84 -77 100 -77 69 0 -13 8 -24 20 -27 20 -5 28 -23 10
-23 -6 0 -6 -9 0 -26 13 -33 13 -47 -1 -38 -15 9 19 -45 49 -78 14 -15 26 -36
27 -45 1 -10 11 -34 23 -53 12 -19 19 -36 17 -39 -13 -12 -127 128 -151 186
-8 18 -18 33 -23 33 -7 0 -31 65 -31 86 0 4 14 -7 31 -26 l30 -35 -18 35 c-10
19 -33 53 -50 74 -18 22 -33 44 -33 50 -1 6 -12 25 -25 41 -20 24 -25 26 -25
11 0 -16 -2 -15 -20 5 -24 30 -26 17 -3 -22 10 -16 24 -28 32 -26 9 1 17 -7
19 -18 4 -16 2 -17 -10 -7 -8 6 -17 9 -21 6 -3 -3 -13 6 -23 21 -9 14 -23 24
-30 21 -16 -6 -31 14 -16 23 6 3 -14 43 -49 96 -32 49 -59 97 -59 107 0 9 -11
30 -25 46 -29 35 -36 84 -8 61 15 -13 15 -12 1 16 -18 34 -58 74 -58 57 0 -6
5 -14 10 -17 12 -7 4 -25 -11 -25 -5 0 -9 7 -9 15 0 8 -6 15 -14 15 -8 0 -16
6 -19 14 -3 8 -17 22 -32 32 -20 13 -28 14 -40 4 -8 -6 -19 -9 -25 -5 -5 3
-10 -1 -10 -9 0 -9 -7 -16 -15 -16 -8 0 -16 -8 -17 -17 0 -10 -4 1 -7 24 -5
37 -8 41 -24 32z m311 -281 c34 -50 37 -58 22 -58 -5 0 -17 15 -26 33 -9 17
-32 52 -51 76 -21 28 -33 55 -33 75 1 29 2 28 28 -24 15 -30 42 -76 60 -102z
m-254 116 c3 -8 -1 -14 -9 -14 -8 0 -15 2 -15 4 0 2 -3 12 -6 20 -4 12 -2 15
9 10 9 -3 18 -12 21 -20z m-50 -1537 c36 -35 66 -68 66 -75 0 -7 9 -12 21 -12
12 0 23 -8 26 -20 3 -11 13 -20 22 -20 9 0 22 -9 29 -20 7 -12 24 -25 37 -30
31 -12 32 -28 4 -32 -19 -3 -17 -6 17 -28 23 -15 38 -33 38 -43 -1 -10 3 -16
10 -15 15 4 76 -40 76 -54 0 -14 30 -48 42 -48 21 0 4 42 -27 66 -25 19 -34
32 -30 45 8 25 -30 46 -40 21 -6 -16 -7 -16 -20 2 -8 10 -12 22 -10 26 3 5 -2
21 -10 36 -15 30 -10 51 6 22 5 -9 52 -42 105 -73 52 -32 98 -65 100 -74 3 -9
10 -25 16 -36 6 -11 35 -65 63 -121 33 -64 56 -99 65 -96 9 3 11 -2 6 -21 -3
-14 -2 -28 3 -31 5 -3 18 -25 30 -48 12 -24 42 -77 66 -118 68 -113 72 -123
58 -127 -8 -3 2 -24 28 -58 22 -29 41 -61 43 -72 5 -25 53 -95 72 -106 8 -4
14 -17 14 -27 0 -11 9 -29 20 -40 11 -11 22 -32 25 -47 4 -16 10 -35 16 -43 5
-8 14 -27 20 -42 6 -16 18 -28 26 -28 8 0 12 -4 8 -10 -3 -5 3 -18 15 -30 11
-11 20 -29 20 -40 0 -11 14 -33 31 -49 18 -17 26 -32 20 -36 -17 -10 -13 -25
4 -19 11 5 15 -1 15 -21 0 -17 4 -24 12 -19 8 5 9 2 5 -10 -5 -13 -3 -17 7
-13 8 3 18 -5 25 -19 15 -33 14 -35 -6 -27 -16 6 -16 5 -4 -10 7 -9 20 -17 27
-17 9 0 14 -11 14 -28 0 -17 9 -37 21 -48 39 -35 75 -124 50 -124 -13 0 -131
130 -131 145 0 6 -16 30 -35 52 -19 23 -35 46 -35 53 0 6 -7 10 -16 8 -19 -4
-67 56 -210 262 -60 85 -120 168 -135 185 -14 16 -38 51 -53 78 -16 26 -31 47
-35 47 -4 0 -12 12 -19 28 -22 48 -45 87 -56 94 -6 4 -11 12 -11 17 0 6 -8 16
-17 23 -9 7 -36 47 -59 88 -23 41 -52 88 -65 103 -13 16 -24 33 -24 39 0 5
-10 23 -21 40 -18 25 -19 32 -8 39 27 17 45 3 91 -76 61 -101 81 -111 28 -13
-28 53 -37 77 -29 85 8 8 7 17 -1 33 -10 19 -10 24 4 32 22 12 11 28 -14 21
-15 -4 -20 0 -20 15 0 32 -17 36 -50 12 -37 -26 -39 -12 -4 24 32 31 20 35
-13 4 -13 -12 -26 -18 -30 -14 -5 5 2 15 13 23 19 12 20 17 10 38 -6 14 -18
25 -28 25 -9 0 -35 10 -57 22 -37 20 -46 30 -38 42 3 7 -50 46 -62 46 -7 0
-14 6 -17 13 -2 7 -23 24 -45 37 -22 14 -53 46 -69 73 -32 51 -30 60 7 25 13
-12 23 -16 23 -9 0 15 60 -18 60 -34 0 -5 11 -18 24 -27 23 -17 24 -17 19 5
-3 12 -19 35 -34 51 -16 15 -29 33 -29 38 0 5 -5 6 -10 3 -11 -7 -180 151
-180 167 0 19 22 4 84 -55z m731 -787 c3 -5 1 -10 -4 -10 -6 0 -11 5 -11 10 0
6 2 10 4 10 3 0 8 -4 11 -10z m625 -1720 c11 -11 25 -20 30 -20 6 0 10 -7 10
-15 0 -8 -5 -15 -11 -15 -5 0 -7 -5 -3 -11 4 -8 9 -8 13 -1 4 7 12 8 21 2 12
-7 10 -14 -10 -37 -17 -19 -19 -22 -4 -10 25 21 43 22 50 2 4 -8 12 -15 19
-15 19 0 25 -37 9 -51 -8 -6 -14 -19 -14 -28 1 -12 5 -11 20 8 19 22 21 23 45
7 14 -9 25 -25 25 -36 0 -11 5 -20 11 -20 11 0 75 -63 261 -262 255 -271 506
-513 663 -637 28 -22 59 -49 71 -61 12 -11 25 -20 31 -20 5 0 20 -11 33 -25
13 -14 27 -25 31 -25 11 0 69 -41 102 -72 l28 -26 -46 -27 c-25 -15 -44 -30
-41 -32 3 -3 26 7 51 21 25 15 51 26 58 23 7 -2 -3 -11 -20 -21 -18 -9 -48
-30 -68 -47 -28 -25 -40 -29 -63 -24 -21 4 -33 1 -43 -11 -12 -15 -12 -16 10
-9 17 5 22 4 19 -6 -7 -20 -40 -36 -45 -22 -4 10 -10 10 -26 1 l-21 -11 23 -8
c33 -13 15 -32 -23 -25 -27 5 -37 1 -57 -20 l-24 -27 28 18 c50 32 40 8 -18
-41 -33 -29 -69 -51 -88 -54 -24 -4 -33 -11 -35 -28 -2 -14 -14 -27 -28 -33
-43 -16 -93 -59 -87 -75 3 -8 -1 -14 -11 -14 -18 0 -57 -40 -50 -51 2 -5 -7
-16 -21 -25 -14 -9 -25 -22 -25 -29 0 -8 -9 -17 -20 -20 -11 -3 -20 -10 -20
-14 0 -4 -33 -40 -72 -81 -40 -40 -73 -77 -73 -80 0 -4 -13 -21 -30 -37 -52
-51 -137 -151 -158 -185 -11 -18 -32 -48 -48 -66 -16 -18 -36 -46 -44 -62 -14
-27 -14 -29 2 -23 14 5 13 0 -7 -33 -55 -91 -71 -114 -75 -114 -3 0 -25 31
-50 70 -24 38 -56 77 -70 86 -13 9 -22 20 -19 26 7 12 -16 39 -27 32 -5 -3 -9
4 -9 15 0 27 -10 51 -22 51 -5 0 -6 -6 -2 -12 5 -9 2 -9 -9 1 -9 7 -17 24 -17
36 0 21 -56 100 -84 117 -6 4 -19 5 -29 2 -21 -7 -87 40 -87 61 0 20 -53 67
-60 54 -4 -6 -12 -4 -20 6 -7 8 -22 16 -34 16 -17 1 -17 2 -3 6 24 6 21 16 -8
30 -21 9 -25 9 -25 -4 0 -13 -3 -13 -15 -3 -9 7 -13 21 -10 31 5 16 1 19 -24
19 -17 0 -31 5 -31 11 0 6 9 9 19 6 14 -3 18 -1 14 9 -3 8 -9 14 -15 14 -5 0
-21 11 -36 25 -70 64 -126 106 -141 104 -28 -3 -34 1 -22 14 8 10 -3 23 -50
58 -34 24 -69 49 -78 54 -9 6 -50 33 -92 60 -42 28 -100 64 -130 82 -44 25
-51 33 -36 39 13 4 48 -14 120 -62 56 -38 110 -72 120 -76 17 -7 104 -74 117
-89 9 -11 48 -29 62 -29 7 1 3 6 -9 13 -12 7 -43 31 -70 54 -79 69 -256 203
-268 203 -7 0 -20 9 -29 19 -10 11 -25 22 -35 24 -9 2 -1 2 17 0 22 -3 32 -1
27 6 -3 6 -13 11 -21 11 -8 0 -14 5 -14 10 0 6 6 10 14 10 19 0 106 79 106 96
0 8 10 18 23 23 12 5 33 20 47 33 14 14 33 28 43 31 10 4 17 15 15 24 -2 11 5
19 17 21 22 4 107 88 118 115 3 9 11 17 16 17 11 0 93 80 83 80 -4 1 5 8 21
16 15 8 27 22 27 30 0 8 5 12 10 9 6 -3 10 0 10 7 0 18 59 74 87 82 14 5 20
12 16 22 -3 8 1 14 11 14 9 0 16 5 16 10 0 6 11 22 24 35 13 13 26 28 27 32 2
5 19 19 37 32 17 12 32 29 32 37 0 8 15 24 34 35 19 11 37 30 40 43 3 12 17
28 31 34 15 7 24 16 20 21 -3 5 13 25 35 44 22 18 40 37 40 40 0 4 9 16 20 27
11 11 20 27 20 35 0 8 5 15 10 15 18 0 59 51 53 66 -3 9 2 14 15 14 25 0 48
25 32 35 -6 4 -17 1 -25 -5 -22 -18 -18 3 6 34 12 15 19 29 17 31 -2 3 -29
-25 -59 -62 -30 -37 -82 -100 -117 -140 -34 -40 -55 -70 -47 -67 8 4 15 1 15
-5 0 -6 -8 -11 -19 -11 -10 0 -21 -9 -24 -20 -3 -12 -14 -20 -25 -20 -12 0
-29 -13 -41 -32 -29 -46 -68 -88 -81 -88 -5 0 -10 -4 -10 -9 0 -5 -24 -32 -52
-61 -35 -34 -44 -47 -28 -40 l25 13 -24 -27 c-25 -26 -48 -36 -35 -14 4 6 -4
3 -18 -8 -26 -19 -26 -19 -5 -25 20 -5 18 -6 -9 -13 -17 -4 -44 -21 -60 -39
-16 -18 -40 -39 -54 -48 -14 -9 -22 -20 -18 -25 5 -4 17 1 28 11 11 10 20 14
20 8 0 -15 -32 -40 -62 -47 -16 -3 -28 -11 -28 -16 0 -5 8 -7 18 -3 9 3 -1
-13 -23 -36 -24 -26 -43 -37 -49 -31 -10 10 -116 -75 -116 -93 0 -6 13 2 30
18 16 16 33 25 37 21 12 -11 -69 -76 -95 -76 -15 0 -46 -21 -85 -58 -50 -46
-107 -95 -166 -139 -2 -2 -2 -5 1 -8 2 -3 23 9 47 26 23 17 45 29 48 25 9 -9
-25 -43 -58 -56 -16 -7 -26 -17 -22 -22 3 -6 2 -9 -3 -6 -42 19 -64 32 -64 38
0 9 130 110 141 110 5 0 15 13 24 30 8 16 35 43 60 60 25 17 139 123 253 236
181 178 204 204 180 204 -21 0 -26 4 -21 16 4 12 2 15 -8 12 -8 -3 -13 -14
-12 -26 3 -28 -131 -178 -156 -174 -10 1 -24 -4 -31 -13 -7 -8 -18 -15 -25
-15 -7 0 -18 -7 -25 -15 -15 -18 1 -20 18 -3 6 6 15 9 18 5 9 -9 -25 -47 -42
-47 -7 0 -21 -10 -31 -23 -10 -13 -46 -42 -79 -65 -59 -40 -77 -60 -79 -92 0
-8 -8 -14 -17 -12 -9 1 -22 -7 -28 -19 -7 -11 -27 -27 -45 -35 -19 -8 -57 -34
-85 -59 -28 -25 -56 -45 -62 -45 -9 0 -9 3 0 12 20 20 13 32 -7 14 -17 -15
-24 -16 -60 -5 -23 7 -41 16 -41 21 0 4 -7 8 -15 8 -23 0 -18 16 14 42 176
142 785 757 967 976 50 60 82 91 91 88 10 -4 13 -1 8 13 -3 11 -1 22 5 26 6 4
38 41 72 83 l60 76 -24 18 c-19 15 -20 18 -5 18 9 0 26 -9 37 -20z m-1790
-310 c13 -9 13 -10 0 -10 -8 0 -22 5 -30 10 -13 9 -13 10 0 10 8 0 22 -5 30
-10z m5743 -367 c-7 -2 -19 -2 -25 0 -7 3 -2 5 12 5 14 0 19 -2 13 -5z m183
-49 c6 -7 24 -14 40 -15 16 0 52 -9 79 -20 49 -19 49 -19 13 -16 -20 2 -34 -1
-32 -5 8 -12 -4 -10 -86 14 -82 23 -108 38 -69 38 24 1 24 1 4 17 -19 15 -19
15 10 9 17 -4 35 -14 41 -22z m214 -44 c0 -5 -4 -10 -9 -10 -6 0 -13 5 -16 10
-3 6 1 10 9 10 9 0 16 -4 16 -10z m-7515 -29 c-3 -5 -22 -15 -43 -22 -20 -6
-102 -41 -180 -76 -79 -36 -146 -62 -149 -59 -3 2 50 33 118 67 146 73 272
118 254 90z m7555 -32 c62 -12 70 -20 46 -44 -12 -12 -18 -12 -45 1 -17 9 -29
19 -26 24 6 9 -56 30 -87 30 -29 0 -51 12 -37 20 6 5 29 2 50 -5 21 -8 65 -19
99 -26z m230 -110 c32 -17 73 -44 91 -60 l34 -29 -30 11 c-16 6 -50 26 -74 45
-24 19 -49 34 -55 34 -6 0 -20 7 -30 15 -34 26 3 17 64 -16z m-8205 -49 c-3
-5 -12 -10 -18 -10 -7 0 -6 4 3 10 19 12 23 12 15 0z m8407 -40 c41 -37 18
-40 -35 -5 -42 29 -45 35 -17 35 11 0 34 -13 52 -30z m142 -9 c31 -34 3 -24
-30 10 -21 23 -23 29 -9 21 11 -5 29 -20 39 -31z m88 -23 c-9 -9 -15 -9 -24 0
-9 9 -7 12 12 12 19 0 21 -3 12 -12z m-5833 -74 c-13 -14 -37 -35 -54 -47 -29
-20 -29 -20 -12 -1 9 12 14 24 10 27 -3 4 0 7 9 7 8 0 23 9 33 20 10 11 23 20
28 20 6 0 0 -12 -14 -26z m5691 5 c0 -6 -4 -7 -10 -4 -5 3 -10 11 -10 16 0 6
5 7 10 4 6 -3 10 -11 10 -16z m122 -40 l43 -41 -40 6 c-37 6 -39 5 -21 -9 11
-8 29 -15 40 -15 12 0 35 -18 54 -40 18 -22 28 -40 22 -40 -6 0 -8 -4 -5 -10
3 -5 1 -10 -5 -10 -7 0 -10 6 -7 14 6 15 -22 46 -41 46 -7 0 -11 5 -9 12 1 6
-6 13 -15 15 -12 3 -15 -1 -11 -16 4 -16 1 -19 -16 -14 -24 6 -39 23 -20 23 7
0 1 13 -14 28 -15 15 -27 32 -27 37 0 4 3 6 6 2 3 -3 12 0 19 6 11 10 10 15
-2 30 -32 35 8 16 49 -24z m-2895 -85 c-3 -3 -12 -4 -19 -1 -8 3 -5 6 6 6 11
1 17 -2 13 -5z m-6407 -53 c-11 -21 -30 -37 -30 -25 0 8 30 44 37 44 2 0 -1
-9 -7 -19z m2724 -27 c9 -3 13 -10 10 -15 -3 -5 2 -6 10 -3 9 3 16 2 16 -3 0
-6 19 -18 43 -27 23 -10 36 -20 29 -23 -7 -3 -31 5 -53 16 -25 14 -49 19 -64
15 -28 -7 -35 13 -9 23 13 5 13 7 2 14 -15 10 -7 12 16 3z m357 -25 c72 -35
111 -56 152 -83 30 -20 30 -33 0 -18 -10 5 -66 34 -125 63 -60 30 -108 57
-108 62 0 12 15 8 81 -24z m6299 10 c0 -6 -4 -7 -10 -4 -5 3 -10 11 -10 16 0
6 5 7 10 4 6 -3 10 -11 10 -16z m80 -64 c-1 -5 -7 -1 -15 9 -8 11 -18 17 -21
13 -4 -4 -13 -2 -20 4 -10 8 -11 14 -1 24 10 12 16 10 34 -13 13 -15 23 -31
23 -37z m-9519 12 c-8 -8 -11 -5 -11 9 0 27 14 41 18 19 2 -9 -1 -22 -7 -28z
m2939 39 c0 -11 -19 -15 -25 -6 -3 5 1 10 9 10 9 0 16 -2 16 -4z m93 -33 c-7
-2 -21 -2 -30 0 -10 3 -4 5 12 5 17 0 24 -2 18 -5z m3452 -13 c-3 -5 -14 -10
-23 -10 -15 0 -15 2 -2 10 20 13 33 13 25 0z m3185 -5 c-7 -9 -15 -13 -19 -10
-3 3 1 10 9 15 21 14 24 12 10 -5z m-6945 -13 c-3 -3 -11 0 -18 7 -9 10 -8 11
6 5 10 -3 15 -9 12 -12z m3145 -14 c0 -10 -12 -10 -34 -2 -9 3 -16 12 -16 20
0 11 5 11 25 2 14 -6 25 -15 25 -20z m-5970 13 c0 -5 -7 -12 -16 -15 -14 -5
-15 -4 -4 9 14 17 20 19 20 6z m3070 -4 c14 -7 46 -21 71 -30 25 -10 59 -31
75 -48 23 -24 25 -29 9 -23 -11 4 -31 15 -45 25 -14 10 -51 29 -82 42 -30 14
-59 30 -62 36 -9 15 3 14 34 -2z m103 -7 c14 -11 29 -20 33 -20 4 0 -1 9 -11
20 -11 12 -13 20 -6 20 18 0 65 -26 80 -44 11 -13 9 -14 -16 -7 -15 4 -33 6
-39 4 -11 -4 -84 34 -84 43 0 10 19 2 43 -16z m-3394 -35 c-36 -50 -74 -88
-68 -67 6 19 82 111 92 112 5 0 -6 -20 -24 -45z m241 15 c-6 -11 -16 -20 -22
-20 -6 0 -3 9 7 20 10 11 20 20 22 20 2 0 -1 -9 -7 -20z m6000 -11 c0 -5 -9
-9 -19 -9 -14 0 -18 5 -14 20 4 16 8 18 19 9 8 -6 14 -15 14 -20z m-3110 -10
c0 -5 -11 -3 -25 3 -14 6 -25 15 -25 19 0 5 11 3 25 -3 14 -6 25 -15 25 -19z
m-2870 0 c-7 -11 -14 -18 -17 -15 -8 8 5 36 17 36 7 0 7 -6 0 -21z m88 -46
c-29 -38 -71 -89 -95 -115 -28 -31 -43 -56 -43 -74 0 -22 -2 -25 -15 -14 -8 7
-15 16 -15 21 0 4 27 39 61 76 33 37 66 79 72 93 15 34 58 80 74 80 7 0 -10
-30 -39 -67z m2588 52 c10 -8 14 -15 8 -15 -5 0 -19 7 -30 15 -10 8 -14 15 -8
15 5 0 19 -7 30 -15z m326 -6 c22 -11 50 -22 62 -25 11 -2 27 -13 35 -24 7
-11 21 -20 31 -20 20 0 70 -37 70 -51 0 -15 -18 -10 -37 9 -10 11 -62 41 -115
68 -54 27 -98 52 -98 57 0 11 7 9 52 -14z m3235 1 c21 0 23 -2 13 -14 -6 -8
-27 -20 -47 -27 -31 -10 -37 -9 -56 10 -19 18 -19 21 -4 21 9 0 17 -7 17 -15
0 -17 9 -19 29 -6 13 8 13 12 0 27 -13 16 -12 17 4 11 10 -4 30 -7 44 -7z
m-2971 -41 c30 -23 53 -44 50 -46 -8 -8 -63 26 -70 42 -3 9 -20 22 -38 30 -20
9 -26 14 -15 15 10 0 43 -19 73 -41z m-3347 0 c-6 -12 -27 -37 -45 -56 -28
-28 -33 -39 -27 -61 6 -24 5 -26 -10 -13 -26 21 -21 37 35 96 56 60 65 66 47
34z m6201 -9 c8 -16 8 -20 -3 -20 -18 0 -39 24 -30 33 11 12 22 8 33 -13z
m3430 1 c0 -10 -53 -51 -64 -51 -4 0 3 14 16 30 21 29 48 40 48 21z m-6535
-21 c17 -11 24 -20 17 -20 -15 0 -72 28 -72 35 0 11 27 4 55 -15z m6385 -55
c-7 -8 -55 -38 -106 -66 -51 -27 -93 -55 -91 -61 2 -12 -58 -29 -68 -20 -14
14 3 27 98 72 56 27 118 59 137 73 37 26 51 27 30 2z m-6135 -5 c3 -6 -1 -7
-9 -4 -18 7 -21 14 -7 14 6 0 13 -4 16 -10z m-228 -146 c-3 -3 -12 -4 -19 -1
-8 3 -5 6 6 6 11 1 17 -2 13 -5z m6163 -34 c0 -5 -5 -10 -11 -10 -5 0 -7 5 -4
10 3 6 8 10 11 10 2 0 4 -4 4 -10z m-128 -23 c-24 -7 -36 -7 -44 1 -9 9 -1 12
33 11 l44 -1 -33 -11z m-224 -28 c-23 -13 -178 -52 -184 -46 -3 2 26 13 63 22
37 10 75 22 83 26 8 5 24 8 35 8 18 0 19 0 3 -10z m-8653 -147 c-3 -3 -11 0
-18 7 -9 10 -8 11 6 5 10 -3 15 -9 12 -12z m-55 -12 c14 -11 21 -20 17 -20
-11 0 -67 29 -67 35 0 11 27 3 50 -15z m4327 -1889 c-13 -40 -20 -70 -14 -68
6 2 15 19 20 38 14 54 47 63 47 13 0 -17 -4 -23 -12 -18 -8 5 -9 2 -4 -12 4
-10 14 -49 23 -86 8 -38 19 -66 23 -63 10 6 75 -330 105 -550 43 -309 49 -716
16 -1030 -40 -377 -81 -688 -93 -700 -9 -10 -8 6 12 160 5 39 16 138 25 220 8
83 20 183 26 222 6 40 7 77 4 83 -3 5 -1 10 4 10 6 0 11 11 11 25 0 14 -4 25
-10 25 -15 0 -12 31 6 65 14 26 16 77 17 345 0 341 -14 514 -67 782 -13 67
-28 152 -32 188 -4 36 -10 55 -12 44 -1 -12 4 -75 13 -140 9 -66 18 -171 21
-234 2 -63 7 -160 9 -215 12 -249 -2 -737 -31 -1095 -8 -96 -19 -251 -24 -345
-10 -168 -29 -330 -55 -475 -8 -46 -10 -83 -4 -97 5 -15 5 -23 -2 -23 -6 0 -8
-4 -5 -9 3 -5 1 -33 -4 -63 -16 -85 -21 -138 -20 -200 1 -44 -2 -58 -13 -58
-8 0 -15 10 -15 23 0 12 -14 65 -30 117 -36 111 -80 267 -94 328 -5 23 -14 42
-19 42 -6 0 -7 4 -4 10 6 10 -25 190 -50 290 -19 76 -63 399 -70 515 -18 305
-21 387 -19 430 18 293 42 545 65 680 20 122 81 411 90 427 5 9 11 29 13 45 6
48 18 83 28 83 5 0 6 10 3 21 -5 16 -4 19 5 14 10 -6 12 -1 7 23 -4 17 -2 34
2 37 5 3 12 23 16 46 4 22 13 43 21 46 8 3 11 10 8 15 -4 5 -2 20 4 31 6 12
13 29 16 37 3 8 10 22 15 30 5 8 15 30 22 49 12 32 13 33 22 14 6 -15 2 -41
-16 -92z"/>
<path d="M3692 10435 c15 -16 30 -26 33 -23 4 3 -9 16 -27 28 l-33 23 27 -28z"/>
<path d="M3772 10376 c21 -20 43 -36 49 -36 18 0 -14 32 -53 53 l-33 19 37
-36z"/>
<path d="M3830 10313 c0 -8 83 -44 93 -40 17 5 -41 40 -69 42 -13 0 -24 -1
-24 -2z"/>
<path d="M4151 9799 c16 -34 33 -59 35 -56 5 5 -54 117 -62 117 -2 0 10 -27
27 -61z"/>
<path d="M4285 9820 c3 -5 8 -10 11 -10 2 0 4 5 4 10 0 6 -5 10 -11 10 -5 0
-7 -4 -4 -10z"/>
<path d="M4190 9723 c0 -5 7 -17 15 -27 15 -20 20 -10 9 18 -6 16 -24 22 -24
9z"/>
<path d="M4230 9665 c0 -16 40 -78 46 -72 3 3 -6 23 -20 44 -14 20 -26 33 -26
28z"/>
<path d="M4290 9561 c0 -5 7 -15 17 -22 15 -13 15 -12 4 9 -12 23 -21 28 -21
13z"/>
<path d="M4340 9482 c12 -18 25 -31 28 -27 3 3 -7 18 -23 33 l-28 27 23 -33z"/>
<path d="M4390 9413 c0 -6 19 -37 43 -69 23 -33 68 -98 100 -146 58 -88 73
-105 84 -94 3 3 -6 18 -20 32 -15 15 -27 33 -27 40 0 7 -11 21 -24 31 -13 10
-30 32 -39 48 -24 45 -117 171 -117 158z"/>
<path d="M4912 8003 c-18 -21 -39 -46 -48 -56 -8 -10 -13 -21 -10 -25 8 -7 68
54 85 86 20 38 6 35 -27 -5z"/>
<path d="M5026 8011 c-4 -7 -5 -15 -2 -18 9 -9 19 4 14 18 -4 11 -6 11 -12 0z"/>
<path d="M5044 7963 c-11 -15 -21 -37 -24 -48 -3 -11 -12 -20 -19 -20 -7 0
-20 -13 -29 -30 -9 -16 -27 -38 -39 -48 -13 -10 -23 -24 -23 -31 0 -15 -64
-79 -72 -71 -7 8 -68 -16 -68 -26 0 -6 8 -5 19 1 24 12 41 13 41 1 0 -4 -26
-35 -57 -67 -32 -33 -62 -68 -68 -79 -6 -11 -20 -21 -33 -23 -29 -4 -67 -52
-50 -64 9 -5 6 -8 -9 -8 -37 0 -34 14 16 68 26 29 43 52 37 52 -21 0 -88 -91
-98 -132 -18 -84 10 -65 167 107 191 209 318 363 312 379 -3 7 1 24 10 35 8
12 13 24 10 27 -2 3 -13 -8 -23 -23z"/>
<path d="M4948 7943 c-14 -2 -32 -11 -38 -19 -11 -12 -7 -14 22 -14 19 0 39 5
46 12 13 13 16 29 5 27 -5 -1 -20 -4 -35 -6z"/>
<path d="M4819 7894 c-12 -14 -11 -16 5 -13 11 2 21 10 24 17 5 17 -13 15 -29
-4z"/>
<path d="M4915 7864 c-9 -15 -12 -23 -6 -20 11 7 35 46 28 46 -3 0 -12 -12
-22 -26z"/>
<path d="M4754 7753 c-43 -49 -89 -100 -103 -115 -13 -15 -22 -30 -20 -33 5
-4 81 80 184 203 55 66 15 29 -61 -55z"/>
<path d="M4872 7818 c-14 -14 -16 -28 -3 -28 9 0 24 30 18 36 -2 2 -9 -2 -15
-8z"/>
<path d="M4750 7809 c0 -5 5 -7 10 -4 6 3 10 8 10 11 0 2 -4 4 -10 4 -5 0 -10
-5 -10 -11z"/>
<path d="M4627 7676 c-83 -91 -93 -117 -21 -52 44 40 109 124 101 132 -2 2
-38 -34 -80 -80z"/>
<path d="M4524 7508 c-73 -78 -79 -94 -11 -28 37 35 67 66 67 67 0 12 -22 -4
-56 -39z"/>
<path d="M4315 7340 c-3 -5 -1 -10 4 -10 6 0 11 5 11 10 0 6 -2 10 -4 10 -3 0
-8 -4 -11 -10z"/>
<path d="M4212 7243 c-18 -17 -32 -40 -32 -50 0 -14 8 -10 36 19 20 19 34 42
32 49 -3 10 -14 4 -36 -18z"/>
<path d="M4375 7260 c-3 -5 1 -10 10 -10 9 0 13 5 10 10 -3 6 -8 10 -10 10 -2
0 -7 -4 -10 -10z"/>
<path d="M4105 7175 c-27 -25 -45 -45 -40 -45 6 0 31 20 55 45 56 57 49 57
-15 0z"/>
<path d="M4140 7175 c-33 -40 -173 -158 -166 -140 6 16 1 14 -23 -9 -32 -31
-43 -48 -16 -26 8 7 15 8 15 2 0 -5 -7 -15 -15 -22 -8 -7 -12 -16 -10 -21 3
-4 29 15 59 44 29 29 69 67 89 85 21 19 37 38 37 42 0 5 14 17 30 27 17 9 30
21 30 25 0 13 -17 9 -30 -7z"/>
<path d="M4050 7021 l-25 -7 27 -6 c17 -3 32 0 39 8 13 16 2 17 -41 5z"/>
<path d="M3850 6935 c-7 -8 -8 -15 -2 -15 5 0 15 7 22 15 7 8 8 15 2 15 -5 0
-15 -7 -22 -15z"/>
<path d="M4448 6283 c6 -2 12 -11 12 -18 0 -8 9 -19 19 -25 37 -19 43 -10 13
20 -17 17 -36 30 -44 29 -10 0 -10 -2 0 -6z"/>
<path d="M4526 6205 c7 -17 43 -40 51 -32 6 7 -34 47 -47 47 -5 0 -7 -7 -4
-15z"/>
<path d="M4590 6173 c0 -20 32 -73 41 -68 16 10 10 31 -16 55 -14 13 -25 19
-25 13z"/>
<path d="M4707 6047 c21 -20 40 -33 42 -31 10 9 -37 59 -58 62 -19 3 -17 -2
16 -31z"/>
<path d="M4780 5981 c0 -5 14 -19 30 -31 34 -24 41 -11 10 20 -21 21 -40 26
-40 11z"/>
<path d="M5206 5563 c-29 -42 -34 -62 -10 -42 19 15 47 69 41 76 -3 2 -17 -13
-31 -34z"/>
<path d="M4986 4134 c-3 -9 -6 -24 -6 -35 0 -11 -7 -31 -16 -44 -9 -14 -14
-34 -11 -45 3 -12 -1 -33 -9 -48 -8 -15 -14 -35 -14 -46 0 -10 -5 -36 -12 -58
-8 -28 -8 -42 0 -50 8 -8 13 -3 17 18 8 32 25 101 48 184 22 81 30 140 19 140
-5 0 -13 -7 -16 -16z"/>
<path d="M4890 3730 c-8 -14 -15 -36 -17 -49 -3 -38 -24 -174 -30 -200 -4 -17
-2 -22 8 -19 13 4 19 27 34 148 3 30 11 64 17 76 5 12 8 32 6 45 l-3 24 -15
-25z"/>
<path d="M4817 3393 c-3 -27 -8 -78 -10 -114 -3 -37 -8 -95 -11 -130 -6 -63
-6 -62 14 26 11 50 22 110 25 135 2 25 8 58 14 73 16 41 14 57 -8 57 -15 0
-20 -9 -24 -47z"/>
<path d="M5131 3064 c0 -11 3 -14 6 -6 3 7 2 16 -1 19 -3 4 -6 -2 -5 -13z"/>
<path d="M4780 3036 c0 -8 5 -18 10 -21 6 -3 10 3 10 14 0 12 -4 21 -10 21 -5
0 -10 -6 -10 -14z"/>
<path d="M4776 2955 c-3 -8 -1 -15 4 -15 6 0 10 7 10 15 0 8 -2 15 -4 15 -2 0
-6 -7 -10 -15z"/>
<path d="M5121 2474 c0 -11 3 -14 6 -6 3 7 2 16 -1 19 -3 4 -6 -2 -5 -13z"/>
<path d="M5105 2321 c-3 -5 -1 -12 5 -16 5 -3 10 1 10 9 0 18 -6 21 -15 7z"/>
<path d="M5070 1830 c0 -5 5 -10 11 -10 5 0 7 5 4 10 -3 6 -8 10 -11 10 -2 0
-4 -4 -4 -10z"/>
<path d="M3869 12283 c47 -65 68 -86 79 -79 7 4 12 12 12 17 0 6 -4 8 -9 4 -6
-3 -15 0 -20 7 -6 7 -22 28 -37 46 -31 39 -54 43 -25 5z"/>
<path d="M3959 12173 c6 -12 33 -50 59 -85 59 -78 112 -156 112 -167 0 -4 11
-18 25 -31 14 -13 25 -20 25 -16 0 13 -188 281 -212 302 -21 19 -21 19 -9 -3z"/>
<path d="M3929 12124 c12 -19 21 -45 21 -58 0 -30 24 -61 47 -61 12 0 17 -7
16 -20 -1 -13 7 -24 23 -32 13 -6 24 -9 24 -7 0 8 -142 214 -147 214 -3 0 4
-16 16 -36z"/>
<path d="M4500 11296 c0 -9 5 -16 10 -16 6 0 10 4 10 9 0 6 -4 13 -10 16 -5 3
-10 -1 -10 -9z"/>
<path d="M3360 11086 c0 -2 8 -10 18 -17 15 -13 16 -12 3 4 -13 16 -21 21 -21
13z"/>
<path d="M4520 10401 c0 -6 4 -13 10 -16 6 -3 7 1 4 9 -7 18 -14 21 -14 7z"/>
<path d="M6766 10335 c-23 -34 -9 -55 15 -24 20 26 25 49 10 49 -5 0 -16 -11
-25 -25z"/>
<path d="M6714 10305 c-9 -14 -15 -28 -12 -30 2 -2 12 9 22 25 21 36 13 40
-10 5z"/>
<path d="M6747 10273 c-4 -3 -7 -11 -7 -17 0 -6 5 -5 12 2 6 6 9 14 7 17 -3 3
-9 2 -12 -2z"/>
<path d="M6661 10226 c-7 -8 -8 -17 -3 -20 6 -3 13 1 16 10 9 23 2 28 -13 10z"/>
<path d="M6660 10150 c-9 -16 -8 -18 5 -14 8 4 15 12 15 20 0 20 -7 17 -20 -6z"/>
<path d="M4731 10145 c1 -19 18 -51 18 -35 0 8 -4 22 -9 30 -5 8 -9 11 -9 5z"/>
<path d="M6611 10062 c-17 -31 -13 -40 5 -14 9 13 14 26 11 29 -3 2 -10 -4
-16 -15z"/>
<path d="M4760 10067 c0 -11 40 -87 45 -87 7 0 -24 73 -36 85 -5 5 -9 6 -9 2z"/>
<path d="M6564 9987 c-31 -35 -34 -57 -8 -57 9 0 12 5 9 11 -4 6 3 21 15 34
12 13 20 29 18 35 -2 6 -17 -4 -34 -23z"/>
<path d="M4810 9956 c0 -10 40 -96 44 -96 6 0 -9 52 -23 79 -11 19 -21 28 -21
17z"/>
<path d="M6465 9883 c-55 -116 -66 -143 -56 -143 5 0 18 23 30 51 17 38 26 49
39 45 11 -4 22 2 30 15 16 25 8 37 -13 19 -21 -18 -20 2 5 50 11 22 16 40 11
40 -5 0 -26 -35 -46 -77z"/>
<path d="M6536 9876 c3 -8 -2 -29 -11 -47 -16 -30 -16 -32 0 -25 9 3 20 6 24
6 3 0 5 18 3 40 -2 22 -8 40 -13 40 -4 0 -6 -6 -3 -14z"/>
<path d="M4876 9812 c10 -40 76 -178 80 -167 2 6 -17 51 -41 100 -25 50 -42
80 -39 67z"/>
<path d="M6445 9760 c-19 -36 -17 -41 11 -34 15 4 20 12 18 31 -4 37 -11 38
-29 3z"/>
<path d="M5365 9740 c3 -5 16 -10 28 -10 18 0 19 2 7 10 -20 13 -43 13 -35 0z"/>
<path d="M6526 9655 c-3 -8 -1 -15 4 -15 13 0 22 18 11 24 -5 3 -11 -1 -15 -9z"/>
<path d="M6390 9618 c-24 -53 -26 -88 -4 -88 11 0 14 6 9 20 -8 26 4 48 16 29
6 -10 9 -8 9 9 0 12 -5 22 -11 22 -7 0 -5 10 5 25 9 14 12 25 6 25 -6 0 -20
-19 -30 -42z"/>
<path d="M6466 9625 c-3 -9 0 -15 9 -15 16 0 20 16 6 24 -5 3 -11 -1 -15 -9z"/>
<path d="M6505 9595 c-4 -16 -14 -38 -22 -47 -8 -9 -13 -23 -11 -30 7 -18 50
70 45 90 -2 11 -6 7 -12 -13z"/>
<path d="M4976 9578 c15 -49 27 -73 30 -62 5 11 -23 84 -32 84 -3 0 -2 -10 2
-22z"/>
<path d="M6351 9494 c0 -11 3 -14 6 -6 3 7 2 16 -1 19 -3 4 -6 -2 -5 -13z"/>
<path d="M5014 9470 c0 -11 4 -20 9 -20 5 0 7 -6 4 -13 -3 -7 4 -19 14 -25 24
-15 24 -3 2 42 -20 40 -29 45 -29 16z"/>
<path d="M6453 9453 c-7 -2 -15 -20 -19 -39 -3 -19 -10 -37 -15 -40 -5 -3 -8
-40 -8 -82 1 -42 4 -67 6 -54 2 12 9 22 14 22 5 0 9 12 9 26 0 14 5 35 11 46
10 18 9 20 -5 15 -10 -4 -16 -1 -16 8 0 7 8 15 17 17 13 2 18 13 18 46 0 23 0
42 0 41 0 0 -5 -3 -12 -6z"/>
<path d="M6330 9429 c0 -5 5 -7 10 -4 6 3 10 8 10 11 0 2 -4 4 -10 4 -5 0 -10
-5 -10 -11z"/>
<path d="M5858 9263 c7 -3 16 -2 19 1 4 3 -2 6 -13 5 -11 0 -14 -3 -6 -6z"/>
<path d="M6400 9196 c0 -9 7 -19 15 -23 25 -9 27 2 5 22 -18 17 -20 17 -20 1z"/>
<path d="M5996 9055 c-4 -16 -13 -25 -26 -25 -11 0 -20 -4 -20 -10 0 -26 48
-4 66 31 12 25 12 29 0 29 -7 0 -17 -11 -20 -25z"/>
<path d="M5926 8953 c-6 -14 -5 -15 5 -6 7 7 10 15 7 18 -3 3 -9 -2 -12 -12z"/>
<path d="M5880 8885 c-7 -9 -10 -18 -7 -21 3 -3 10 4 17 15 13 25 8 27 -10 6z"/>
<path d="M5793 8765 c0 -11 4 -12 14 -4 7 6 13 13 13 15 0 2 -6 4 -13 4 -8 0
-14 -7 -14 -15z"/>
<path d="M5745 8730 c-3 -5 1 -10 9 -10 9 0 16 5 16 10 0 6 -4 10 -9 10 -6 0
-13 -4 -16 -10z"/>
<path d="M5491 8701 c-7 -5 -10 -14 -7 -20 11 -17 23 -13 29 9 6 22 0 25 -22
11z"/>
<path d="M5735 8689 c-11 -17 1 -21 15 -4 8 9 8 15 2 15 -6 0 -14 -5 -17 -11z"/>
<path d="M5691 8654 c0 -11 3 -14 6 -6 3 7 2 16 -1 19 -3 4 -6 -2 -5 -13z"/>
<path d="M5650 8601 c0 -5 -12 -23 -26 -40 -24 -28 -24 -31 -6 -31 24 0 63 41
44 47 -10 4 -10 8 -1 19 8 10 8 14 0 14 -6 0 -11 -4 -11 -9z"/>
<path d="M3020 7880 c0 -5 14 -7 33 -3 45 8 47 13 4 13 -20 0 -37 -4 -37 -10z"/>
<path d="M3360 7760 c8 -5 20 -10 25 -10 6 0 3 5 -5 10 -8 5 -19 10 -25 10 -5
0 -3 -5 5 -10z"/>
<path d="M2977 7723 c-8 -8 74 -32 111 -33 12 0 22 -5 22 -11 0 -7 31 -10 93
-8 50 2 108 0 127 -4 l35 -7 -30 14 c-27 13 -95 22 -275 39 -25 3 -52 8 -61
11 -8 4 -18 3 -22 -1z"/>
<path d="M3020 7677 c0 -6 50 -21 108 -31 17 -3 32 -2 32 3 0 5 -21 11 -47 14
-27 3 -58 9 -70 12 -13 4 -23 5 -23 2z"/>
<path d="M3393 7663 c-22 -4 -33 -33 -13 -33 6 0 10 5 10 11 0 7 11 8 30 4 31
-7 42 8 14 19 -9 3 -16 5 -17 5 -1 -1 -12 -4 -24 -6z"/>
<path d="M3488 7628 c5 -5 16 -8 23 -6 8 3 3 7 -10 11 -17 4 -21 3 -13 -5z"/>
<path d="M3143 7623 c9 -2 25 -2 35 0 9 3 1 5 -18 5 -19 0 -27 -2 -17 -5z"/>
<path d="M2905 7550 c3 -5 8 -10 11 -10 2 0 4 5 4 10 0 6 -5 10 -11 10 -5 0
-7 -4 -4 -10z"/>
<path d="M9230 7536 c0 -2 7 -6 15 -10 8 -3 15 -1 15 4 0 6 -7 10 -15 10 -8 0
-15 -2 -15 -4z"/>
<path d="M9545 7420 c3 -5 11 -10 16 -10 6 0 7 5 4 10 -3 6 -11 10 -16 10 -6
0 -7 -4 -4 -10z"/>
<path d="M9831 7323 c2 -16 79 -76 79 -61 0 8 -12 23 -27 34 -41 30 -53 36
-52 27z"/>
<path d="M9995 7170 c-3 -5 -2 -10 3 -10 18 0 72 -54 72 -72 0 -10 7 -18 16
-18 10 0 14 -6 10 -15 -4 -11 1 -15 19 -15 45 0 38 22 -26 81 -63 58 -82 68
-94 49z"/>
<path d="M7635 7120 c-3 -5 3 -10 14 -10 11 0 23 5 26 10 3 6 -3 10 -14 10
-11 0 -23 -4 -26 -10z"/>
<path d="M7740 7120 c-23 -7 -22 -8 10 -8 19 0 44 3 55 8 17 7 15 9 -10 8 -16
0 -41 -4 -55 -8z"/>
<path d="M7558 7113 c6 -2 18 -2 25 0 6 3 1 5 -13 5 -14 0 -19 -2 -12 -5z"/>
<path d="M7375 7100 c-11 -5 -47 -9 -80 -9 -33 -1 -67 -6 -75 -12 -11 -7 -1
-9 38 -5 126 14 152 18 152 27 0 11 -8 11 -35 -1z"/>
<path d="M7108 7063 c7 -3 16 -2 19 1 4 3 -2 6 -13 5 -11 0 -14 -3 -6 -6z"/>
<path d="M7008 7043 c6 -2 18 -2 25 0 6 3 1 5 -13 5 -14 0 -19 -2 -12 -5z"/>
<path d="M10185 6970 c10 -11 20 -20 22 -20 2 0 -1 9 -7 20 -6 11 -16 20 -22
20 -6 0 -3 -9 7 -20z"/>
<path d="M3596 6881 c-8 -12 18 -21 33 -11 10 5 8 9 -4 14 -21 8 -23 8 -29 -3z"/>
<path d="M7320 6855 c-25 -7 -36 -13 -25 -13 11 0 38 5 60 13 52 17 24 17 -35
0z"/>
<path d="M9926 6721 c-9 -10 -59 -40 -109 -65 -111 -56 -134 -73 -121 -86 14
-14 85 7 78 23 -2 7 33 34 85 65 93 55 126 82 99 82 -8 0 -23 -9 -32 -19z"/>
<path d="M10230 6620 c0 -5 7 -10 16 -10 8 0 12 5 9 10 -3 6 -10 10 -16 10 -5
0 -9 -4 -9 -10z"/>
<path d="M9660 6540 c-9 -6 -10 -10 -3 -10 6 0 15 5 18 10 8 12 4 12 -15 0z"/>
<path d="M9750 6530 c-13 -8 -12 -10 3 -10 9 0 17 5 17 10 0 12 -1 12 -20 0z"/>
<path d="M9590 6510 c0 -5 19 -10 43 -9 36 1 38 2 17 9 -36 12 -60 12 -60 0z"/>
<path d="M6540 6500 c-9 -6 -10 -10 -3 -10 6 0 15 5 18 10 8 12 4 12 -15 0z"/>
<path d="M9375 6468 c-11 -7 -51 -22 -90 -34 -38 -12 -62 -23 -53 -23 20 -1
167 45 188 59 12 8 12 10 -5 10 -11 -1 -29 -6 -40 -12z"/>
<path d="M3005 6440 c-3 -5 -2 -10 4 -10 5 0 13 5 16 10 3 6 2 10 -4 10 -5 0
-13 -4 -16 -10z"/>
<path d="M6325 6280 c-3 -5 -2 -10 4 -10 5 0 13 5 16 10 3 6 2 10 -4 10 -5 0
-13 -4 -16 -10z"/>
<path d="M6020 6025 c-82 -83 -109 -115 -95 -115 11 0 30 15 43 34 12 18 58
68 102 111 44 42 80 79 80 81 0 15 -29 -10 -130 -111z"/>
<path d="M7868 6123 c7 -3 16 -2 19 1 4 3 -2 6 -13 5 -11 0 -14 -3 -6 -6z"/>
<path d="M2110 6060 c-13 -9 -13 -10 0 -10 8 0 22 5 30 10 13 9 13 10 0 10 -8
0 -22 -5 -30 -10z"/>
<path d="M5548 5463 c-29 -34 -30 -48 -2 -21 15 15 26 30 23 33 -3 3 -13 -3
-21 -12z"/>
<path d="M4541 4174 c0 -11 3 -14 6 -6 3 7 2 16 -1 19 -3 4 -6 -2 -5 -13z"/>
<path d="M5647 1243 c-4 -3 -7 -11 -7 -17 0 -6 5 -5 12 2 6 6 9 14 7 17 -3 3
-9 2 -12 -2z"/>
<path d="M5603 948 c-20 -28 -94 -180 -91 -190 7 -20 58 33 58 61 0 17 10 37
25 51 15 14 23 30 20 39 -3 8 0 18 7 22 9 6 10 11 2 19 -8 8 -14 7 -21 -2z"/>
<path d="M5376 794 c7 -3 -1 -17 -18 -35 -33 -32 -31 -54 2 -24 25 22 26 12 2
-23 -27 -40 -76 -139 -64 -127 28 25 110 140 106 147 -3 4 0 17 7 29 12 23 -1
39 -31 38 -8 0 -10 -3 -4 -5z"/>
<path d="M5480 709 c0 -24 23 -21 28 4 2 10 -3 17 -12 17 -10 0 -16 -9 -16
-21z"/>
</g>
</svg>
