<svg id="svg" version="1.1" xmlns="http://www.w3.org/2000/svg" xmlns:xlink="http://www.w3.org/1999/xlink" width="400" height="400" viewBox="0, 0, 400,400"><g id="svgg"><path id="path0" d="M179.003 0.275 C 177.025 0.362,175.234 0.606,175.023 0.817 C 174.812 1.028,173.416 1.200,171.920 1.200 C 170.373 1.200,169.200 1.373,169.200 1.600 C 169.200 1.820,168.221 2.000,167.024 2.000 C 165.827 2.000,164.736 2.180,164.600 2.400 C 164.464 2.620,163.474 2.800,162.400 2.800 C 161.326 2.800,160.336 2.980,160.200 3.200 C 160.064 3.420,159.243 3.600,158.376 3.600 C 157.509 3.600,156.800 3.780,156.800 4.000 C 156.800 4.220,156.091 4.400,155.224 4.400 C 154.357 4.400,153.536 4.580,153.400 4.800 C 153.264 5.020,152.454 5.200,151.600 5.200 C 150.746 5.200,149.936 5.380,149.800 5.600 C 149.664 5.820,149.023 6.000,148.376 6.000 C 147.729 6.000,147.200 6.180,147.200 6.400 C 147.200 6.620,146.581 6.800,145.824 6.800 C 145.067 6.800,144.336 6.980,144.200 7.200 C 144.064 7.420,143.423 7.600,142.776 7.600 C 142.129 7.600,141.600 7.780,141.600 8.000 C 141.600 8.220,141.106 8.400,140.501 8.400 C 139.051 8.400,132.732 10.412,130.305 11.647 C 129.923 11.841,129.248 12.000,128.805 12.000 C 128.362 12.000,128.000 12.180,128.000 12.400 C 128.000 12.620,127.651 12.800,127.224 12.800 C 126.797 12.800,126.336 12.980,126.200 13.200 C 126.064 13.420,125.513 13.600,124.976 13.600 C 124.439 13.600,124.000 13.780,124.000 14.000 C 124.000 14.220,123.728 14.400,123.395 14.400 C 123.062 14.400,122.432 14.580,121.995 14.800 C 121.558 15.020,120.842 15.380,120.405 15.600 C 119.968 15.820,119.338 16.000,119.005 16.000 C 118.672 16.000,118.400 16.180,118.400 16.400 C 118.400 16.620,118.040 16.800,117.600 16.800 C 117.160 16.800,116.800 16.980,116.800 17.200 C 116.800 17.420,116.451 17.600,116.024 17.600 C 115.597 17.600,115.136 17.780,115.000 18.000 C 114.864 18.220,114.403 18.400,113.976 18.400 C 113.549 18.400,113.200 18.580,113.200 18.800 C 113.200 19.020,112.840 19.200,112.400 19.200 C 111.960 19.200,111.600 19.380,111.600 19.600 C 111.600 19.820,111.240 20.000,110.800 20.000 C 110.360 20.000,110.000 20.180,110.000 20.400 C 110.000 20.620,109.640 20.800,109.200 20.800 C 108.760 20.800,108.399 20.935,108.397 21.100 C 108.395 21.265,107.990 21.598,107.497 21.840 C 105.089 23.022,102.987 24.230,102.867 24.500 C 102.793 24.665,102.388 24.800,101.967 24.800 C 101.545 24.800,101.200 24.980,101.200 25.200 C 101.200 25.420,100.851 25.600,100.424 25.600 C 99.997 25.600,99.543 25.768,99.416 25.974 C 99.289 26.180,98.198 26.831,96.992 27.421 C 95.787 28.011,94.800 28.609,94.800 28.749 C 94.800 28.890,94.294 29.229,93.675 29.503 C 93.056 29.776,92.201 30.315,91.775 30.700 C 91.349 31.085,90.505 31.655,89.900 31.968 C 89.295 32.280,88.800 32.685,88.800 32.868 C 88.800 33.050,88.480 33.200,88.088 33.200 C 87.697 33.200,87.117 33.560,86.800 34.000 C 86.483 34.440,86.020 34.800,85.771 34.800 C 85.522 34.800,84.754 35.340,84.063 36.000 C 83.372 36.660,82.575 37.200,82.292 37.200 C 82.009 37.200,81.517 37.560,81.200 38.000 C 80.883 38.440,80.393 38.800,80.112 38.800 C 79.830 38.800,79.600 38.980,79.600 39.200 C 79.600 39.420,79.396 39.600,79.147 39.600 C 78.898 39.600,78.403 39.917,78.047 40.304 C 77.691 40.692,76.680 41.540,75.800 42.190 C 74.920 42.840,73.962 43.603,73.671 43.886 C 73.381 44.168,73.004 44.400,72.834 44.400 C 72.664 44.400,71.539 45.355,70.334 46.522 C 69.129 47.689,67.526 49.078,66.771 49.609 C 66.017 50.140,63.828 52.200,61.906 54.187 C 57.695 58.542,58.542 57.695,54.187 61.906 C 52.200 63.828,50.140 66.017,49.609 66.771 C 49.078 67.526,47.689 69.129,46.522 70.334 C 45.355 71.539,44.400 72.664,44.400 72.834 C 44.400 73.004,44.168 73.381,43.886 73.671 C 43.603 73.962,42.840 74.920,42.190 75.800 C 41.540 76.680,40.692 77.691,40.304 78.047 C 39.917 78.403,39.600 78.898,39.600 79.147 C 39.600 79.396,39.420 79.600,39.200 79.600 C 38.980 79.600,38.800 79.830,38.800 80.112 C 38.800 80.393,38.440 80.883,38.000 81.200 C 37.560 81.517,37.200 82.009,37.200 82.292 C 37.200 82.575,36.660 83.372,36.000 84.063 C 35.340 84.754,34.800 85.522,34.800 85.771 C 34.800 86.020,34.440 86.483,34.000 86.800 C 33.560 87.117,33.200 87.697,33.200 88.088 C 33.200 88.480,33.050 88.800,32.868 88.800 C 32.685 88.800,32.280 89.295,31.968 89.900 C 31.655 90.505,31.085 91.349,30.700 91.775 C 30.315 92.201,29.776 93.056,29.503 93.675 C 29.229 94.294,28.890 94.800,28.749 94.800 C 28.609 94.800,28.011 95.787,27.421 96.992 C 26.831 98.198,26.180 99.289,25.974 99.416 C 25.768 99.543,25.600 99.997,25.600 100.424 C 25.600 100.851,25.420 101.200,25.200 101.200 C 24.980 101.200,24.800 101.545,24.800 101.967 C 24.800 102.388,24.665 102.793,24.500 102.867 C 24.230 102.987,23.022 105.089,21.840 107.497 C 21.598 107.990,21.265 108.395,21.100 108.397 C 20.935 108.399,20.800 108.760,20.800 109.200 C 20.800 109.640,20.620 110.000,20.400 110.000 C 20.180 110.000,20.000 110.360,20.000 110.800 C 20.000 111.240,19.820 111.600,19.600 111.600 C 19.380 111.600,19.200 111.960,19.200 112.400 C 19.200 112.840,19.020 113.200,18.800 113.200 C 18.580 113.200,18.400 113.549,18.400 113.976 C 18.400 114.403,18.220 114.864,18.000 115.000 C 17.780 115.136,17.600 115.597,17.600 116.024 C 17.600 116.451,17.420 116.800,17.200 116.800 C 16.980 116.800,16.800 117.160,16.800 117.600 C 16.800 118.040,16.620 118.400,16.400 118.400 C 16.180 118.400,16.000 118.672,16.000 119.005 C 16.000 119.338,15.820 119.968,15.600 120.405 C 15.380 120.842,15.020 121.558,14.800 121.995 C 14.580 122.432,14.400 123.062,14.400 123.395 C 14.400 123.728,14.220 124.000,14.000 124.000 C 13.780 124.000,13.600 124.439,13.600 124.976 C 13.600 125.513,13.420 126.064,13.200 126.200 C 12.980 126.336,12.800 126.797,12.800 127.224 C 12.800 127.651,12.620 128.000,12.400 128.000 C 12.180 128.000,12.000 128.362,12.000 128.805 C 12.000 129.248,11.841 129.923,11.647 130.305 C 10.412 132.732,8.400 139.051,8.400 140.501 C 8.400 141.106,8.220 141.600,8.000 141.600 C 7.780 141.600,7.600 142.129,7.600 142.776 C 7.600 143.423,7.420 144.064,7.200 144.200 C 6.980 144.336,6.800 145.067,6.800 145.824 C 6.800 146.581,6.620 147.200,6.400 147.200 C 6.180 147.200,6.000 147.729,6.000 148.376 C 6.000 149.023,5.820 149.664,5.600 149.800 C 5.380 149.936,5.200 150.746,5.200 151.600 C 5.200 152.454,5.020 153.264,4.800 153.400 C 4.580 153.536,4.400 154.357,4.400 155.224 C 4.400 156.091,4.220 156.800,4.000 156.800 C 3.780 156.800,3.600 157.509,3.600 158.376 C 3.600 159.243,3.420 160.064,3.200 160.200 C 2.980 160.336,2.800 161.326,2.800 162.400 C 2.800 163.474,2.620 164.464,2.400 164.600 C 2.180 164.736,2.000 165.827,2.000 167.024 C 2.000 168.221,1.820 169.200,1.600 169.200 C 1.373 169.200,1.200 170.373,1.200 171.920 C 1.200 173.563,1.002 174.838,0.700 175.140 C -0.029 175.869,-0.029 224.131,0.700 224.860 C 1.002 225.162,1.200 226.437,1.200 228.080 C 1.200 229.627,1.373 230.800,1.600 230.800 C 1.820 230.800,2.000 231.779,2.000 232.976 C 2.000 234.173,2.180 235.264,2.400 235.400 C 2.620 235.536,2.800 236.526,2.800 237.600 C 2.800 238.674,2.980 239.664,3.200 239.800 C 3.420 239.936,3.600 240.757,3.600 241.624 C 3.600 242.491,3.780 243.200,4.000 243.200 C 4.220 243.200,4.400 243.909,4.400 244.776 C 4.400 245.643,4.580 246.464,4.800 246.600 C 5.020 246.736,5.200 247.546,5.200 248.400 C 5.200 249.254,5.380 250.064,5.600 250.200 C 5.820 250.336,6.000 250.977,6.000 251.624 C 6.000 252.271,6.180 252.800,6.400 252.800 C 6.620 252.800,6.800 253.419,6.800 254.176 C 6.800 254.933,6.980 255.664,7.200 255.800 C 7.420 255.936,7.600 256.577,7.600 257.224 C 7.600 257.871,7.780 258.400,8.000 258.400 C 8.220 258.400,8.400 258.894,8.400 259.499 C 8.400 260.949,10.412 267.268,11.647 269.695 C 11.841 270.077,12.000 270.752,12.000 271.195 C 12.000 271.638,12.180 272.000,12.400 272.000 C 12.620 272.000,12.800 272.349,12.800 272.776 C 12.800 273.203,12.980 273.664,13.200 273.800 C 13.420 273.936,13.600 274.487,13.600 275.024 C 13.600 275.561,13.780 276.000,14.000 276.000 C 14.220 276.000,14.400 276.272,14.400 276.605 C 14.400 277.193,14.567 277.618,15.538 279.495 C 15.792 279.987,16.000 280.662,16.000 280.995 C 16.000 281.328,16.180 281.600,16.400 281.600 C 16.620 281.600,16.800 281.960,16.800 282.400 C 16.800 282.840,16.980 283.200,17.200 283.200 C 17.420 283.200,17.600 283.549,17.600 283.976 C 17.600 284.403,17.780 284.864,18.000 285.000 C 18.220 285.136,18.400 285.597,18.400 286.024 C 18.400 286.451,18.580 286.800,18.800 286.800 C 19.020 286.800,19.200 287.160,19.200 287.600 C 19.200 288.040,19.380 288.400,19.600 288.400 C 19.820 288.400,20.000 288.760,20.000 289.200 C 20.000 289.640,20.180 290.000,20.400 290.000 C 20.620 290.000,20.800 290.360,20.800 290.800 C 20.800 291.240,20.935 291.601,21.100 291.603 C 21.265 291.605,21.598 292.010,21.840 292.503 C 23.022 294.911,24.230 297.013,24.500 297.133 C 24.665 297.207,24.800 297.612,24.800 298.033 C 24.800 298.455,24.980 298.800,25.200 298.800 C 25.420 298.800,25.600 299.149,25.600 299.576 C 25.600 300.003,25.768 300.457,25.974 300.584 C 26.180 300.711,26.831 301.802,27.421 303.008 C 28.011 304.213,28.609 305.200,28.749 305.200 C 28.890 305.200,29.229 305.706,29.503 306.325 C 29.776 306.944,30.315 307.799,30.700 308.225 C 31.085 308.651,31.655 309.495,31.968 310.100 C 32.280 310.705,32.685 311.200,32.868 311.200 C 33.050 311.200,33.200 311.520,33.200 311.912 C 33.200 312.303,33.560 312.883,34.000 313.200 C 34.440 313.517,34.800 313.980,34.800 314.229 C 34.800 314.478,35.340 315.246,36.000 315.937 C 36.660 316.628,37.200 317.425,37.200 317.708 C 37.200 317.991,37.560 318.483,38.000 318.800 C 38.440 319.117,38.800 319.607,38.800 319.888 C 38.800 320.170,38.980 320.400,39.200 320.400 C 39.420 320.400,39.600 320.604,39.600 320.853 C 39.600 321.102,39.917 321.597,40.304 321.953 C 40.692 322.309,41.540 323.320,42.190 324.200 C 42.840 325.080,43.603 326.038,43.886 326.329 C 44.168 326.619,44.400 326.996,44.400 327.166 C 44.400 327.336,45.355 328.461,46.522 329.666 C 47.689 330.871,49.078 332.474,49.609 333.229 C 50.140 333.983,52.200 336.172,54.187 338.094 C 58.542 342.305,57.695 341.458,61.906 345.813 C 63.828 347.800,66.017 349.860,66.771 350.391 C 67.526 350.922,69.129 352.311,70.334 353.478 C 71.539 354.645,72.664 355.600,72.834 355.600 C 73.004 355.600,73.381 355.832,73.671 356.114 C 73.962 356.397,74.920 357.160,75.800 357.810 C 76.680 358.460,77.691 359.308,78.047 359.696 C 78.403 360.083,78.898 360.400,79.147 360.400 C 79.396 360.400,79.600 360.580,79.600 360.800 C 79.600 361.020,79.830 361.200,80.112 361.200 C 80.393 361.200,80.883 361.560,81.200 362.000 C 81.517 362.440,82.009 362.800,82.292 362.800 C 82.575 362.800,83.372 363.340,84.063 364.000 C 84.754 364.660,85.522 365.200,85.771 365.200 C 86.020 365.200,86.483 365.560,86.800 366.000 C 87.117 366.440,87.697 366.800,88.088 366.800 C 88.480 366.800,88.800 366.950,88.800 367.132 C 88.800 367.315,89.295 367.720,89.900 368.032 C 90.505 368.345,91.349 368.915,91.775 369.300 C 92.201 369.685,93.056 370.224,93.675 370.497 C 94.294 370.771,94.800 371.110,94.800 371.251 C 94.800 371.391,95.787 371.989,96.992 372.579 C 98.198 373.169,99.289 373.820,99.416 374.026 C 99.543 374.232,99.997 374.400,100.424 374.400 C 100.851 374.400,101.200 374.580,101.200 374.800 C 101.200 375.020,101.545 375.200,101.967 375.200 C 102.388 375.200,102.793 375.335,102.867 375.500 C 102.987 375.770,105.089 376.978,107.497 378.160 C 107.990 378.402,108.395 378.735,108.397 378.900 C 108.399 379.065,108.760 379.200,109.200 379.200 C 109.640 379.200,110.000 379.380,110.000 379.600 C 110.000 379.820,110.360 380.000,110.800 380.000 C 111.240 380.000,111.600 380.180,111.600 380.400 C 111.600 380.620,111.960 380.800,112.400 380.800 C 112.840 380.800,113.200 380.980,113.200 381.200 C 113.200 381.420,113.549 381.600,113.976 381.600 C 114.403 381.600,114.864 381.780,115.000 382.000 C 115.136 382.220,115.597 382.400,116.024 382.400 C 116.451 382.400,116.800 382.580,116.800 382.800 C 116.800 383.020,117.160 383.200,117.600 383.200 C 118.040 383.200,118.400 383.380,118.400 383.600 C 118.400 383.820,118.672 384.000,119.005 384.000 C 119.338 384.000,119.968 384.180,120.405 384.400 C 120.842 384.620,121.558 384.980,121.995 385.200 C 122.432 385.420,123.062 385.600,123.395 385.600 C 123.728 385.600,124.000 385.780,124.000 386.000 C 124.000 386.220,124.439 386.400,124.976 386.400 C 125.513 386.400,126.064 386.580,126.200 386.800 C 126.336 387.020,126.797 387.200,127.224 387.200 C 127.651 387.200,128.000 387.380,128.000 387.600 C 128.000 387.820,128.362 388.000,128.805 388.000 C 129.248 388.000,129.923 388.159,130.305 388.353 C 132.732 389.588,139.051 391.600,140.501 391.600 C 141.106 391.600,141.600 391.780,141.600 392.000 C 141.600 392.220,142.129 392.400,142.776 392.400 C 143.423 392.400,144.064 392.580,144.200 392.800 C 144.336 393.020,145.067 393.200,145.824 393.200 C 146.581 393.200,147.200 393.380,147.200 393.600 C 147.200 393.820,147.729 394.000,148.376 394.000 C 149.023 394.000,149.664 394.180,149.800 394.400 C 149.936 394.620,150.746 394.800,151.600 394.800 C 152.454 394.800,153.264 394.980,153.400 395.200 C 153.536 395.420,154.357 395.600,155.224 395.600 C 156.091 395.600,156.800 395.780,156.800 396.000 C 156.800 396.220,157.509 396.400,158.376 396.400 C 159.243 396.400,160.064 396.580,160.200 396.800 C 160.336 397.020,161.326 397.200,162.400 397.200 C 163.474 397.200,164.464 397.380,164.600 397.600 C 164.736 397.820,165.827 398.000,167.024 398.000 C 168.221 398.000,169.200 398.180,169.200 398.400 C 169.200 398.627,170.373 398.800,171.920 398.800 C 173.467 398.800,174.842 399.002,175.109 399.269 C 175.449 399.609,180.567 399.784,193.689 399.906 L 211.800 400.074 183.801 372.037 C 168.402 356.617,156.012 344.000,156.268 344.000 C 156.524 344.000,156.793 344.145,156.867 344.323 C 157.052 344.773,160.656 347.200,161.139 347.200 C 161.356 347.200,161.593 347.335,161.667 347.500 C 161.970 348.183,168.935 351.792,172.600 353.165 C 173.920 353.659,175.313 354.230,175.695 354.432 C 176.077 354.634,176.741 354.800,177.171 354.800 C 177.601 354.800,178.064 354.980,178.200 355.200 C 178.336 355.420,178.966 355.600,179.600 355.600 C 180.234 355.600,180.864 355.780,181.000 356.000 C 181.136 356.220,181.831 356.400,182.544 356.400 C 183.257 356.400,184.011 356.563,184.220 356.761 C 185.579 358.053,201.932 358.940,208.400 358.073 C 210.270 357.823,212.610 357.513,213.600 357.386 C 214.590 357.259,215.760 356.998,216.200 356.807 C 216.640 356.616,217.495 356.357,218.100 356.230 C 218.705 356.104,219.695 355.896,220.300 355.770 C 221.394 355.541,222.769 355.028,224.095 354.353 C 224.477 354.159,225.141 354.000,225.571 354.000 C 226.001 354.000,226.464 353.820,226.600 353.600 C 226.736 353.380,227.103 353.200,227.415 353.200 C 228.969 353.200,241.945 345.975,243.200 344.411 C 243.310 344.274,244.017 343.730,244.771 343.203 C 248.430 340.645,258.000 330.930,258.000 329.774 C 258.000 329.654,258.539 328.981,259.198 328.278 C 259.857 327.575,260.397 326.775,260.398 326.500 C 260.399 326.225,260.559 326.000,260.753 326.000 C 260.948 326.000,261.207 325.685,261.329 325.300 C 261.583 324.499,262.871 322.299,263.261 322.000 C 264.413 321.119,269.466 308.667,270.485 304.200 C 274.531 286.464,272.777 269.116,265.388 253.800 C 263.717 250.336,261.558 246.645,260.826 246.000 C 260.701 245.890,260.344 245.305,260.032 244.700 C 259.720 244.095,259.315 243.600,259.132 243.600 C 258.950 243.600,258.800 243.357,258.800 243.059 C 258.800 242.762,258.305 241.994,257.700 241.352 C 257.095 240.711,255.790 239.199,254.800 237.993 C 253.003 235.803,249.047 231.921,246.400 229.749 C 245.630 229.118,244.651 228.286,244.225 227.900 C 243.798 227.515,243.213 227.200,242.925 227.200 C 242.636 227.200,242.400 227.059,242.400 226.886 C 242.400 226.714,241.905 226.280,241.300 225.921 C 240.695 225.563,239.750 224.880,239.200 224.402 L 238.200 223.533 238.000 150.466 C 237.850 95.598,237.683 77.201,237.331 76.600 C 237.073 76.160,236.563 74.630,236.197 73.200 C 235.832 71.770,234.828 69.215,233.967 67.523 C 233.105 65.830,232.400 64.308,232.400 64.139 C 232.400 63.971,237.350 68.771,243.400 74.807 C 249.450 80.843,254.400 85.970,254.400 86.201 C 254.400 86.432,253.866 87.696,253.213 89.010 C 252.559 90.325,252.019 91.679,252.013 92.020 C 252.006 92.361,251.839 92.811,251.643 93.020 C 248.802 96.040,248.802 117.960,251.643 120.980 C 251.839 121.189,252.000 121.596,252.000 121.884 C 252.000 122.937,255.683 129.987,256.908 131.277 C 257.180 131.565,258.212 132.790,259.200 134.000 C 261.409 136.705,261.277 136.573,264.194 139.004 C 265.510 140.102,266.908 141.286,267.300 141.636 C 267.693 141.986,268.505 142.526,269.107 142.835 C 269.708 143.145,270.290 143.499,270.400 143.623 C 270.776 144.043,275.948 146.400,276.495 146.400 C 276.795 146.400,277.211 146.549,277.420 146.730 C 277.790 147.052,278.878 147.392,283.000 148.475 C 284.251 148.803,287.398 149.000,291.400 149.000 C 295.402 149.000,298.549 148.803,299.800 148.475 C 303.922 147.392,305.010 147.052,305.380 146.730 C 305.589 146.549,306.005 146.400,306.305 146.400 C 307.102 146.400,311.914 144.050,313.991 142.647 C 315.938 141.331,316.535 140.861,318.741 138.909 C 319.544 138.199,320.315 137.614,320.455 137.609 C 320.595 137.604,321.756 136.295,323.034 134.700 C 324.313 133.105,325.470 131.710,325.606 131.600 C 326.724 130.695,330.800 123.088,330.800 121.905 C 330.800 121.605,330.957 121.189,331.149 120.980 C 334.021 117.856,334.027 96.070,331.157 93.020 C 330.961 92.811,330.794 92.361,330.787 92.020 C 330.775 91.400,329.312 88.333,327.672 85.488 C 327.192 84.656,326.800 83.904,326.800 83.816 C 326.800 83.632,367.296 124.334,382.639 139.939 C 388.337 145.735,393.330 150.655,393.734 150.871 C 394.710 151.394,395.087 150.951,394.485 149.987 C 394.218 149.560,394.000 148.758,394.000 148.205 C 394.000 147.652,393.820 147.200,393.600 147.200 C 393.380 147.200,393.200 146.581,393.200 145.824 C 393.200 145.067,393.020 144.336,392.800 144.200 C 392.580 144.064,392.400 143.423,392.400 142.776 C 392.400 142.129,392.220 141.600,392.000 141.600 C 391.780 141.600,391.600 141.106,391.600 140.501 C 391.600 139.051,389.588 132.732,388.353 130.305 C 388.159 129.923,388.000 129.248,388.000 128.805 C 388.000 128.362,387.820 128.000,387.600 128.000 C 387.380 128.000,387.200 127.651,387.200 127.224 C 387.200 126.797,387.020 126.336,386.800 126.200 C 386.580 126.064,386.400 125.513,386.400 124.976 C 386.400 124.439,386.220 124.000,386.000 124.000 C 385.780 124.000,385.600 123.728,385.600 123.395 C 385.600 123.062,385.420 122.432,385.200 121.995 C 384.980 121.558,384.620 120.842,384.400 120.405 C 384.180 119.968,384.000 119.338,384.000 119.005 C 384.000 118.672,383.820 118.400,383.600 118.400 C 383.380 118.400,383.200 118.040,383.200 117.600 C 383.200 117.160,383.020 116.800,382.800 116.800 C 382.580 116.800,382.400 116.451,382.400 116.024 C 382.400 115.597,382.220 115.136,382.000 115.000 C 381.780 114.864,381.600 114.403,381.600 113.976 C 381.600 113.549,381.420 113.200,381.200 113.200 C 380.980 113.200,380.800 112.840,380.800 112.400 C 380.800 111.960,380.620 111.600,380.400 111.600 C 380.180 111.600,380.000 111.240,380.000 110.800 C 380.000 110.360,379.820 110.000,379.600 110.000 C 379.380 110.000,379.200 109.640,379.200 109.200 C 379.200 108.760,379.065 108.399,378.900 108.397 C 378.735 108.395,378.402 107.990,378.160 107.497 C 376.978 105.089,375.770 102.987,375.500 102.867 C 375.335 102.793,375.200 102.388,375.200 101.967 C 375.200 101.545,375.020 101.200,374.800 101.200 C 374.580 101.200,374.400 100.851,374.400 100.424 C 374.400 99.997,374.232 99.543,374.026 99.416 C 373.820 99.289,373.169 98.198,372.579 96.992 C 371.989 95.787,371.391 94.800,371.251 94.800 C 371.110 94.800,370.771 94.294,370.497 93.675 C 370.224 93.056,369.685 92.201,369.300 91.775 C 368.915 91.349,368.345 90.505,368.032 89.900 C 367.720 89.295,367.315 88.800,367.132 88.800 C 366.950 88.800,366.800 88.480,366.800 88.088 C 366.800 87.697,366.440 87.117,366.000 86.800 C 365.560 86.483,365.200 86.020,365.200 85.771 C 365.200 85.522,364.660 84.754,364.000 84.063 C 363.340 83.372,362.800 82.575,362.800 82.292 C 362.800 82.009,362.440 81.517,362.000 81.200 C 361.560 80.883,361.200 80.393,361.200 80.112 C 361.200 79.830,361.020 79.600,360.800 79.600 C 360.580 79.600,360.400 79.396,360.400 79.147 C 360.400 78.898,360.083 78.403,359.696 78.047 C 359.308 77.691,358.460 76.680,357.810 75.800 C 357.160 74.920,356.397 73.962,356.114 73.671 C 355.832 73.381,355.600 73.004,355.600 72.834 C 355.600 72.664,354.645 71.539,353.478 70.334 C 352.311 69.129,350.922 67.526,350.391 66.771 C 349.860 66.017,347.800 63.828,345.813 61.906 C 341.458 57.695,342.305 58.542,338.094 54.187 C 336.172 52.200,333.983 50.140,333.229 49.609 C 332.474 49.078,330.871 47.689,329.666 46.522 C 328.461 45.355,327.336 44.400,327.166 44.400 C 326.996 44.400,326.619 44.168,326.329 43.886 C 326.038 43.603,325.080 42.840,324.200 42.190 C 323.320 41.540,322.309 40.692,321.953 40.304 C 321.597 39.917,321.102 39.600,320.853 39.600 C 320.604 39.600,320.400 39.420,320.400 39.200 C 320.400 38.980,320.170 38.800,319.888 38.800 C 319.607 38.800,319.117 38.440,318.800 38.000 C 318.483 37.560,317.991 37.200,317.708 37.200 C 317.425 37.200,316.628 36.660,315.937 36.000 C 315.246 35.340,314.478 34.800,314.229 34.800 C 313.980 34.800,313.517 34.440,313.200 34.000 C 312.883 33.560,312.303 33.200,311.912 33.200 C 311.520 33.200,311.200 33.050,311.200 32.868 C 311.200 32.685,310.705 32.280,310.100 31.968 C 309.495 31.655,308.651 31.085,308.225 30.700 C 307.799 30.315,306.944 29.776,306.325 29.503 C 305.706 29.229,305.200 28.890,305.200 28.749 C 305.200 28.609,304.213 28.011,303.008 27.421 C 301.802 26.831,300.711 26.180,300.584 25.974 C 300.457 25.768,300.003 25.600,299.576 25.600 C 299.149 25.600,298.800 25.420,298.800 25.200 C 298.800 24.980,298.455 24.800,298.033 24.800 C 297.612 24.800,297.207 24.665,297.133 24.500 C 297.013 24.230,294.911 23.022,292.503 21.840 C 292.010 21.598,291.605 21.265,291.603 21.100 C 291.601 20.935,291.240 20.800,290.800 20.800 C 290.360 20.800,290.000 20.620,290.000 20.400 C 290.000 20.180,289.640 20.000,289.200 20.000 C 288.760 20.000,288.400 19.820,288.400 19.600 C 288.400 19.380,288.040 19.200,287.600 19.200 C 287.160 19.200,286.800 19.020,286.800 18.800 C 286.800 18.580,286.451 18.400,286.024 18.400 C 285.597 18.400,285.136 18.220,285.000 18.000 C 284.864 17.780,284.403 17.600,283.976 17.600 C 283.549 17.600,283.200 17.420,283.200 17.200 C 283.200 16.980,282.840 16.800,282.400 16.800 C 281.960 16.800,281.600 16.620,281.600 16.400 C 281.600 16.180,281.328 16.000,280.995 16.000 C 280.662 16.000,280.032 15.820,279.595 15.600 C 279.158 15.380,278.442 15.020,278.005 14.800 C 277.568 14.580,276.938 14.400,276.605 14.400 C 276.272 14.400,276.000 14.220,276.000 14.000 C 276.000 13.780,275.561 13.600,275.024 13.600 C 274.487 13.600,273.936 13.420,273.800 13.200 C 273.664 12.980,273.203 12.800,272.776 12.800 C 272.349 12.800,272.000 12.620,272.000 12.400 C 272.000 12.180,271.638 12.000,271.195 12.000 C 270.752 12.000,270.077 11.841,269.695 11.647 C 267.268 10.412,260.949 8.400,259.499 8.400 C 258.894 8.400,258.400 8.220,258.400 8.000 C 258.400 7.780,257.871 7.600,257.224 7.600 C 256.577 7.600,255.936 7.420,255.800 7.200 C 255.664 6.980,254.933 6.800,254.176 6.800 C 253.419 6.800,252.800 6.620,252.800 6.400 C 252.800 6.180,252.271 6.000,251.624 6.000 C 250.977 6.000,250.336 5.820,250.200 5.600 C 250.064 5.380,249.254 5.200,248.400 5.200 C 247.546 5.200,246.736 5.020,246.600 4.800 C 246.464 4.580,245.643 4.400,244.776 4.400 C 243.909 4.400,243.200 4.220,243.200 4.000 C 243.200 3.780,242.491 3.600,241.624 3.600 C 240.757 3.600,239.936 3.420,239.800 3.200 C 239.664 2.980,238.674 2.800,237.600 2.800 C 236.526 2.800,235.536 2.620,235.400 2.400 C 235.264 2.180,234.173 2.000,232.976 2.000 C 231.779 2.000,230.800 1.820,230.800 1.600 C 230.800 1.373,229.627 1.200,228.080 1.200 C 226.483 1.200,225.160 1.000,224.875 0.715 C 224.394 0.234,187.860 -0.116,179.003 0.275 M206.600 47.435 C 208.140 47.785,209.897 48.166,210.505 48.282 C 211.113 48.397,211.708 48.651,211.829 48.846 C 211.949 49.041,212.416 49.200,212.868 49.200 C 213.706 49.200,217.330 50.970,220.200 52.782 C 227.770 57.560,233.188 64.939,236.121 74.466 L 237.394 78.600 237.597 151.383 L 237.800 224.166 240.744 226.183 C 255.516 236.303,267.333 253.627,270.361 269.600 C 270.632 271.030,271.012 272.920,271.205 273.800 C 274.403 288.369,270.171 310.847,261.927 323.072 C 261.307 323.992,260.800 324.841,260.800 324.958 C 260.800 325.699,254.239 333.705,250.949 336.979 C 241.794 346.089,231.211 352.212,218.800 355.578 C 183.448 365.166,144.679 345.426,132.426 311.600 C 132.147 310.830,131.776 309.840,131.600 309.400 C 120.621 281.888,132.698 244.831,158.488 226.903 L 162.375 224.200 162.388 152.526 C 162.401 75.546,162.306 79.304,164.391 72.800 C 166.956 64.798,173.754 56.227,180.519 52.465 C 181.443 51.951,182.761 51.206,183.447 50.810 C 185.315 49.731,190.546 48.031,194.400 47.250 C 197.351 46.653,203.566 46.747,206.600 47.435 M300.337 66.261 C 319.465 70.583,332.800 87.317,332.800 107.000 C 332.800 115.580,329.524 126.439,325.666 130.649 C 325.288 131.062,324.083 132.505,322.989 133.856 C 321.895 135.206,319.830 137.276,318.400 138.455 C 316.970 139.633,315.462 140.903,315.049 141.276 C 313.784 142.419,306.764 145.801,303.800 146.695 C 291.969 150.267,274.856 147.694,267.751 141.276 C 267.338 140.903,265.868 139.660,264.484 138.515 C 263.100 137.369,261.031 135.300,259.885 133.916 C 258.740 132.532,257.497 131.062,257.124 130.649 C 256.345 129.787,252.681 122.697,252.240 121.200 C 249.362 111.419,249.165 104.222,251.530 95.200 C 256.822 75.012,279.514 61.557,300.337 66.261 M288.517 89.596 C 276.710 91.365,270.070 105.390,276.111 115.800 C 281.982 125.918,295.517 127.677,303.797 119.397 C 315.865 107.329,305.471 87.056,288.517 89.596 M295.400 90.400 C 295.536 90.620,295.978 90.800,296.383 90.800 C 298.929 90.800,304.927 95.641,306.295 98.800 C 306.677 99.680,307.126 100.400,307.294 100.400 C 307.462 100.400,307.600 100.929,307.600 101.576 C 307.600 102.223,307.780 102.864,308.000 103.000 C 308.545 103.337,308.508 109.801,307.951 111.572 C 306.156 117.282,301.761 121.672,295.972 123.539 C 292.656 124.609,287.485 124.064,283.625 122.239 C 281.752 121.354,276.806 116.771,276.791 115.907 C 276.786 115.628,276.430 114.950,276.000 114.400 C 275.570 113.850,275.214 112.916,275.209 112.324 C 275.204 111.732,275.020 111.136,274.800 111.000 C 274.579 110.864,274.400 109.070,274.400 107.000 C 274.400 104.930,274.579 103.136,274.800 103.000 C 275.020 102.864,275.200 102.422,275.200 102.017 C 275.200 98.466,282.866 90.800,286.417 90.800 C 286.822 90.800,287.264 90.620,287.400 90.400 C 287.536 90.179,289.330 90.000,291.400 90.000 C 293.470 90.000,295.264 90.179,295.400 90.400 M111.105 167.900 L 111.210 182.000 125.405 182.000 L 139.600 182.000 139.600 193.200 L 139.600 204.400 126.033 204.400 C 118.571 204.400,112.181 204.509,111.833 204.643 C 111.272 204.858,111.200 206.484,111.200 218.835 L 111.200 232.785 110.300 233.005 C 109.805 233.126,104.810 233.174,99.200 233.113 L 89.000 233.000 88.895 219.020 C 88.815 208.453,88.669 204.962,88.295 204.718 C 88.023 204.541,81.590 204.411,74.000 204.428 L 60.200 204.460 60.200 193.330 L 60.200 182.200 74.400 182.000 L 88.600 181.800 88.705 167.694 L 88.810 153.587 99.905 153.694 L 111.000 153.800 111.105 167.900 M125.800 168.000 L 139.396 181.600 125.698 181.600 L 112.000 181.600 112.000 168.000 C 112.000 160.520,112.046 154.400,112.102 154.400 C 112.158 154.400,118.322 160.520,125.800 168.000 M395.600 157.400 C 395.600 157.730,395.780 158.000,396.000 158.000 C 396.220 158.000,396.400 157.730,396.400 157.400 C 396.400 157.070,396.220 156.800,396.000 156.800 C 395.780 156.800,395.600 157.070,395.600 157.400 M398.000 170.000 C 398.000 170.440,398.180 170.800,398.400 170.800 C 398.620 170.800,398.800 170.440,398.800 170.000 C 398.800 169.560,398.620 169.200,398.400 169.200 C 398.180 169.200,398.000 169.560,398.000 170.000 M151.310 193.517 L 162.000 204.234 162.000 214.117 C 162.000 219.553,161.865 224.000,161.700 224.000 C 161.535 224.001,160.877 224.451,160.238 225.000 C 159.599 225.550,158.936 226.000,158.766 226.000 C 158.596 226.000,158.219 226.234,157.929 226.519 C 157.638 226.804,156.577 227.601,155.570 228.290 C 152.536 230.366,144.378 238.624,141.997 242.029 C 141.470 242.783,140.940 243.490,140.819 243.600 C 140.698 243.710,140.344 244.295,140.032 244.900 C 139.720 245.505,139.315 246.000,139.132 246.000 C 138.950 246.000,138.800 246.193,138.800 246.428 C 138.800 246.663,138.293 247.608,137.673 248.528 C 134.721 252.905,130.429 263.488,129.208 269.400 C 128.936 270.720,128.634 272.061,128.538 272.380 C 128.427 272.748,121.283 265.881,109.005 253.605 C 98.357 242.959,89.736 234.103,89.847 233.925 C 89.957 233.746,94.877 233.600,100.781 233.600 C 110.199 233.600,111.544 233.522,111.757 232.967 C 111.891 232.619,112.000 226.139,112.000 218.567 L 112.000 204.800 126.000 204.800 L 140.000 204.800 140.000 193.800 C 140.000 187.750,140.139 182.800,140.310 182.800 C 140.480 182.800,145.430 187.623,151.310 193.517 M88.000 218.698 L 88.000 232.596 74.423 219.023 C 66.955 211.558,60.936 205.304,61.046 205.125 C 61.157 204.946,67.267 204.800,74.624 204.800 L 88.000 204.800 88.000 218.698 M231.200 250.125 C 231.200 250.194,231.785 250.779,232.500 251.425 L 233.800 252.600 232.625 251.300 C 231.530 250.088,231.200 249.816,231.200 250.125 M354.300 328.066 C 353.695 328.745,353.200 329.482,353.200 329.704 C 353.200 330.160,355.584 327.566,355.594 327.100 C 355.603 326.646,355.490 326.730,354.300 328.066 M347.700 335.398 C 346.957 336.242,347.094 336.473,348.000 335.907 C 348.440 335.632,348.800 335.271,348.800 335.104 C 348.800 334.627,348.249 334.775,347.700 335.398 M328.000 354.400 C 327.293 355.060,326.869 355.597,327.058 355.594 C 327.556 355.584,330.185 353.200,329.697 353.200 C 329.470 353.200,328.707 353.740,328.000 354.400 M229.600 398.400 C 229.600 398.620,229.870 398.800,230.200 398.800 C 230.530 398.800,230.800 398.620,230.800 398.400 C 230.800 398.180,230.530 398.000,230.200 398.000 C 229.870 398.000,229.600 398.180,229.600 398.400 " stroke="none" fill="#fb6353" fill-rule="evenodd"></path><path id="path1" d="M194.400 47.250 C 190.546 48.031,185.315 49.731,183.447 50.810 C 182.761 51.206,181.443 51.951,180.519 52.465 C 173.754 56.227,166.956 64.798,164.391 72.800 C 162.306 79.304,162.401 75.546,162.388 152.526 L 162.375 224.200 158.488 226.903 C 132.698 244.831,120.621 281.888,131.600 309.400 C 131.776 309.840,132.147 310.830,132.426 311.600 C 144.184 344.060,182.142 364.508,215.600 356.405 C 229.998 352.918,241.017 346.863,250.949 336.979 C 254.239 333.705,260.800 325.699,260.800 324.958 C 260.800 324.841,261.307 323.992,261.927 323.072 C 270.171 310.847,274.403 288.369,271.205 273.800 C 271.012 272.920,270.632 271.030,270.361 269.600 C 267.333 253.627,255.516 236.303,240.744 226.183 L 237.800 224.166 237.597 151.383 L 237.394 78.600 236.121 74.466 C 234.944 70.643,234.470 69.550,231.993 64.949 C 229.800 60.876,224.720 55.635,220.200 52.782 C 217.330 50.970,213.706 49.200,212.868 49.200 C 212.416 49.200,211.949 49.041,211.829 48.846 C 211.708 48.651,211.113 48.397,210.505 48.282 C 209.897 48.166,208.140 47.785,206.600 47.435 C 203.566 46.747,197.351 46.653,194.400 47.250 M286.800 65.592 C 265.977 67.646,250.000 85.624,250.000 107.000 C 250.000 112.428,250.394 114.927,252.240 121.200 C 252.681 122.697,256.345 129.787,257.124 130.649 C 257.497 131.062,258.740 132.532,259.885 133.916 C 261.031 135.300,263.100 137.369,264.484 138.515 C 265.868 139.660,267.338 140.903,267.751 141.276 C 274.856 147.694,291.969 150.267,303.800 146.695 C 306.764 145.801,313.784 142.419,315.049 141.276 C 315.462 140.903,316.970 139.633,318.400 138.455 C 319.830 137.276,321.895 135.206,322.989 133.856 C 324.083 132.505,325.288 131.062,325.666 130.649 C 332.664 123.013,334.909 103.802,330.182 92.000 C 323.057 74.208,305.821 63.716,286.800 65.592 M203.355 88.390 C 208.204 89.184,212.710 92.124,215.546 96.344 C 217.111 98.673,217.382 99.222,218.136 101.600 C 218.451 102.593,218.641 123.247,218.790 172.585 L 219.000 242.170 221.940 243.674 C 233.505 249.594,243.716 262.596,246.069 274.400 C 249.694 292.585,245.623 307.242,233.622 319.214 C 228.357 324.467,219.214 330.400,216.385 330.400 C 216.167 330.400,215.677 330.562,215.295 330.761 C 214.646 331.098,213.375 331.464,209.700 332.370 C 204.054 333.762,193.502 333.396,188.000 331.616 C 187.450 331.438,186.190 331.059,185.200 330.773 C 146.194 319.515,141.521 262.380,178.100 243.953 L 181.200 242.391 181.200 174.528 C 181.200 125.372,181.326 105.940,181.658 104.033 C 183.114 95.656,189.300 89.509,197.400 88.389 C 200.411 87.973,200.806 87.973,203.355 88.390 M296.400 90.086 C 313.156 95.150,313.183 117.698,296.442 124.032 C 291.497 125.902,283.747 123.983,279.370 119.803 C 266.080 107.115,278.874 84.790,296.400 90.086 M88.705 167.694 L 88.600 181.800 74.400 182.000 L 60.200 182.200 60.200 193.330 L 60.200 204.460 74.000 204.428 C 81.590 204.411,88.023 204.541,88.295 204.718 C 88.669 204.962,88.815 208.453,88.895 219.020 L 89.000 233.000 99.200 233.113 C 104.810 233.174,109.805 233.126,110.300 233.005 L 111.200 232.785 111.200 218.835 C 111.200 206.484,111.272 204.858,111.833 204.643 C 112.181 204.509,118.571 204.400,126.033 204.400 L 139.600 204.400 139.600 193.200 L 139.600 182.000 125.405 182.000 L 111.210 182.000 111.105 167.900 L 111.000 153.800 99.905 153.694 L 88.810 153.587 88.705 167.694 " stroke="none" fill="#f3f3f7" fill-rule="evenodd"></path><path id="path2" d="M232.400 64.139 C 232.400 64.308,233.105 65.830,233.967 67.523 C 234.828 69.215,235.832 71.770,236.197 73.200 C 236.563 74.630,237.073 76.160,237.331 76.600 C 237.683 77.201,237.850 95.598,238.000 150.466 L 238.200 223.533 239.200 224.402 C 239.750 224.880,240.695 225.563,241.300 225.921 C 241.905 226.280,242.400 226.714,242.400 226.886 C 242.400 227.059,242.636 227.200,242.925 227.200 C 243.213 227.200,243.798 227.515,244.225 227.900 C 244.651 228.286,245.630 229.118,246.400 229.749 C 249.047 231.921,253.003 235.803,254.800 237.993 C 255.790 239.199,257.095 240.711,257.700 241.352 C 258.305 241.994,258.800 242.762,258.800 243.059 C 258.800 243.357,258.950 243.600,259.132 243.600 C 259.315 243.600,259.720 244.095,260.032 244.700 C 260.344 245.305,260.701 245.890,260.826 246.000 C 268.177 252.476,274.520 280.536,272.083 295.800 C 271.066 302.165,270.430 304.876,268.845 309.600 C 267.674 313.093,263.873 321.531,263.261 322.000 C 262.871 322.299,261.583 324.499,261.329 325.300 C 261.207 325.685,260.948 326.000,260.753 326.000 C 260.559 326.000,260.399 326.225,260.398 326.500 C 260.397 326.775,259.857 327.575,259.198 328.278 C 258.539 328.981,258.000 329.654,258.000 329.774 C 258.000 330.930,248.430 340.645,244.771 343.203 C 244.017 343.730,243.310 344.274,243.200 344.411 C 241.945 345.975,228.969 353.200,227.415 353.200 C 227.103 353.200,226.736 353.380,226.600 353.600 C 226.464 353.820,226.001 354.000,225.571 354.000 C 225.141 354.000,224.477 354.159,224.095 354.353 C 222.769 355.028,221.394 355.541,220.300 355.770 C 219.695 355.896,218.705 356.104,218.100 356.230 C 217.495 356.357,216.640 356.616,216.200 356.807 C 215.760 356.998,214.590 357.259,213.600 357.386 C 212.610 357.513,210.270 357.823,208.400 358.073 C 202.538 358.859,197.519 358.696,186.600 357.366 C 185.500 357.232,184.429 356.960,184.220 356.761 C 184.011 356.563,183.257 356.400,182.544 356.400 C 181.831 356.400,181.136 356.220,181.000 356.000 C 180.864 355.780,180.234 355.600,179.600 355.600 C 178.966 355.600,178.336 355.420,178.200 355.200 C 178.064 354.980,177.601 354.800,177.171 354.800 C 176.741 354.800,176.077 354.634,175.695 354.432 C 175.313 354.230,173.920 353.659,172.600 353.165 C 168.935 351.792,161.970 348.183,161.667 347.500 C 161.593 347.335,161.356 347.200,161.139 347.200 C 160.656 347.200,157.052 344.773,156.867 344.323 C 156.793 344.145,156.524 344.000,156.268 344.000 C 156.012 344.000,168.402 356.608,183.801 372.018 L 211.800 400.036 217.600 399.749 C 220.790 399.592,223.793 399.457,224.274 399.451 C 224.755 399.445,225.059 399.296,224.951 399.120 C 224.842 398.944,225.828 398.800,227.143 398.800 C 228.458 398.800,229.593 398.630,229.667 398.422 C 229.740 398.215,230.918 398.005,232.283 397.957 C 233.649 397.909,234.674 397.719,234.560 397.535 C 234.446 397.351,235.544 397.200,237.000 397.200 C 238.663 397.200,239.555 397.051,239.400 396.800 C 239.195 396.468,241.648 396.155,242.900 396.353 C 243.065 396.379,243.200 396.220,243.200 396.000 C 243.200 395.780,243.819 395.600,244.576 395.600 C 245.333 395.600,246.064 395.420,246.200 395.200 C 246.336 394.980,247.236 394.800,248.200 394.800 C 249.164 394.800,250.064 394.620,250.200 394.400 C 250.336 394.180,251.056 394.000,251.800 394.000 C 252.544 394.000,253.264 393.820,253.400 393.600 C 253.536 393.380,254.187 393.200,254.847 393.200 C 255.545 393.200,255.944 393.033,255.800 392.800 C 255.656 392.567,256.063 392.400,256.776 392.400 C 257.449 392.400,258.000 392.220,258.000 392.000 C 258.000 391.780,258.529 391.600,259.176 391.600 C 259.823 391.600,260.473 391.405,260.620 391.168 C 260.767 390.930,261.318 390.843,261.844 390.975 C 262.383 391.111,262.800 391.038,262.800 390.808 C 262.800 390.583,263.441 390.400,264.224 390.400 C 265.071 390.400,265.547 390.238,265.400 390.000 C 265.188 389.657,266.669 389.378,267.730 389.563 C 267.911 389.594,267.945 389.435,267.806 389.210 C 267.658 388.971,267.979 388.800,268.576 388.800 C 269.139 388.800,269.600 388.658,269.600 388.485 C 269.600 388.312,269.989 388.141,270.464 388.105 C 270.939 388.069,271.434 387.870,271.564 387.661 C 271.694 387.453,272.250 387.219,272.800 387.141 C 273.350 387.064,273.906 386.856,274.036 386.680 C 274.166 386.504,274.661 386.331,275.136 386.295 C 275.611 386.259,276.000 386.088,276.000 385.915 C 276.000 385.742,276.360 385.600,276.800 385.600 C 277.240 385.600,277.600 385.420,277.600 385.200 C 277.600 384.980,277.960 384.800,278.400 384.800 C 278.840 384.800,279.200 384.620,279.200 384.400 C 279.200 384.180,279.751 384.000,280.424 384.000 C 281.137 384.000,281.544 383.833,281.400 383.600 C 281.260 383.373,281.596 383.200,282.176 383.200 C 282.739 383.200,283.201 383.065,283.203 382.900 C 283.205 382.735,283.655 382.392,284.204 382.137 C 284.752 381.883,285.092 381.851,284.959 382.067 C 284.825 382.283,285.095 382.222,285.558 381.933 C 286.021 381.644,286.400 381.271,286.400 381.104 C 286.400 380.937,286.670 380.800,287.000 380.800 C 287.330 380.800,287.600 380.620,287.600 380.400 C 287.600 380.180,287.978 380.000,288.440 380.000 C 288.901 380.000,290.410 379.379,291.792 378.619 C 293.174 377.860,294.445 377.365,294.617 377.519 C 294.788 377.674,294.799 377.575,294.641 377.300 C 294.451 376.970,294.627 376.800,295.157 376.800 C 295.599 376.800,296.144 376.485,296.368 376.100 C 296.592 375.715,296.781 375.542,296.788 375.716 C 296.795 375.889,297.187 375.670,297.661 375.229 C 298.134 374.788,298.685 374.529,298.886 374.653 C 299.086 374.777,299.599 374.563,300.025 374.177 C 300.451 373.792,300.800 373.622,300.800 373.800 C 300.800 373.978,301.160 373.798,301.600 373.400 C 302.040 373.002,302.400 372.834,302.400 373.027 C 302.400 373.220,302.680 372.978,303.023 372.489 C 303.365 372.000,303.905 371.600,304.223 371.600 C 304.540 371.600,304.800 371.409,304.800 371.176 C 304.800 370.943,304.968 370.856,305.172 370.983 C 305.377 371.109,305.660 371.027,305.800 370.800 C 305.940 370.573,306.251 370.508,306.489 370.655 C 306.728 370.803,306.825 370.761,306.704 370.562 C 306.583 370.363,306.735 369.968,307.042 369.684 C 307.452 369.305,307.600 369.295,307.600 369.645 C 307.600 369.908,307.936 369.735,308.347 369.261 C 308.758 368.788,309.271 368.400,309.488 368.400 C 309.704 368.400,310.446 367.860,311.137 367.200 C 311.828 366.540,312.709 365.997,313.096 365.994 C 313.697 365.989,313.712 365.931,313.200 365.600 C 312.715 365.286,312.772 365.211,313.500 365.206 C 313.995 365.203,314.400 365.054,314.400 364.875 C 314.400 364.696,315.045 364.296,315.833 363.987 C 316.621 363.678,317.437 363.104,317.647 362.712 C 317.857 362.321,318.292 362.000,318.614 362.000 C 318.936 362.000,319.200 361.820,319.200 361.600 C 319.200 361.380,319.605 361.197,320.100 361.194 C 320.632 361.190,320.814 361.067,320.544 360.894 C 320.026 360.560,320.608 359.894,321.616 359.670 C 321.937 359.598,322.260 359.373,322.333 359.170 C 322.407 358.966,322.732 358.800,323.057 358.800 C 323.382 358.800,323.536 358.620,323.400 358.400 C 323.264 358.180,323.433 358.000,323.776 358.000 C 324.119 358.000,324.400 357.790,324.400 357.533 C 324.400 357.277,324.519 357.186,324.664 357.331 C 324.809 357.476,325.180 357.236,325.487 356.797 C 325.794 356.359,326.335 356.000,326.689 356.000 C 327.044 356.000,327.220 355.886,327.081 355.747 C 326.813 355.479,329.065 353.200,329.598 353.200 C 329.771 353.200,330.607 352.574,331.456 351.809 C 332.305 351.044,333.182 350.414,333.404 350.409 C 333.845 350.399,335.016 348.766,334.895 348.329 C 334.853 348.180,335.342 347.827,335.981 347.544 C 336.620 347.262,337.055 346.888,336.948 346.715 C 336.840 346.542,336.950 346.400,337.191 346.400 C 337.433 346.400,338.417 345.590,339.379 344.600 C 340.341 343.610,341.048 342.800,340.950 342.800 C 340.852 342.800,341.183 342.374,341.686 341.854 C 342.189 341.333,342.647 340.945,342.705 340.992 C 342.922 341.168,346.400 337.571,346.400 337.171 C 346.400 336.941,346.580 336.864,346.800 337.000 C 347.020 337.136,347.200 336.954,347.200 336.595 C 347.200 335.845,348.129 334.800,348.795 334.800 C 349.044 334.800,349.136 334.620,349.000 334.400 C 348.864 334.180,349.123 334.000,349.576 334.000 C 350.056 334.000,350.400 333.739,350.400 333.376 C 350.400 333.007,350.588 332.869,350.862 333.038 C 351.116 333.195,351.219 333.155,351.091 332.948 C 350.964 332.741,351.386 331.969,352.030 331.232 C 352.673 330.495,353.200 329.755,353.200 329.588 C 353.200 329.062,355.482 326.816,355.747 327.081 C 355.886 327.220,356.000 327.044,356.000 326.689 C 356.000 326.335,356.359 325.794,356.797 325.487 C 357.236 325.180,357.476 324.809,357.331 324.664 C 357.186 324.519,357.277 324.400,357.533 324.400 C 357.790 324.400,358.000 324.119,358.000 323.776 C 358.000 323.433,358.180 323.264,358.400 323.400 C 358.620 323.536,358.800 323.382,358.800 323.057 C 358.800 322.732,358.967 322.407,359.170 322.333 C 359.374 322.260,359.599 321.932,359.670 321.604 C 359.742 321.276,360.295 320.529,360.900 319.943 C 361.505 319.358,362.000 318.591,362.000 318.240 C 362.000 317.888,362.274 317.600,362.610 317.600 C 362.945 317.600,363.393 317.145,363.604 316.590 C 363.815 316.034,364.261 315.475,364.594 315.347 C 364.927 315.219,365.200 314.774,365.200 314.357 C 365.200 313.941,365.380 313.600,365.600 313.600 C 365.820 313.600,366.000 313.280,366.000 312.888 C 366.000 312.497,366.360 311.917,366.800 311.600 C 367.240 311.283,367.600 310.820,367.600 310.571 C 367.600 310.322,368.185 309.507,368.899 308.759 C 369.614 308.012,370.154 307.355,370.099 307.300 C 369.770 306.968,370.080 306.403,370.462 306.638 C 370.737 306.809,370.815 306.749,370.655 306.489 C 370.508 306.251,370.573 305.940,370.800 305.800 C 371.027 305.660,371.109 305.377,370.983 305.172 C 370.856 304.968,370.943 304.800,371.176 304.800 C 371.409 304.800,371.600 304.556,371.600 304.258 C 371.600 303.961,372.071 303.209,372.646 302.589 C 373.221 301.968,373.720 301.265,373.755 301.027 C 373.790 300.789,374.129 300.151,374.509 299.608 C 374.889 299.066,375.200 298.385,375.200 298.094 C 375.200 297.804,375.560 297.180,376.000 296.708 C 376.440 296.236,376.800 295.433,376.800 294.925 C 376.800 294.416,376.946 294.000,377.123 294.000 C 377.610 294.000,380.000 289.366,380.000 288.422 C 380.000 287.970,380.180 287.600,380.400 287.600 C 380.620 287.600,380.800 287.412,380.800 287.183 C 380.800 286.954,381.160 286.380,381.600 285.908 C 382.040 285.436,382.400 284.734,382.400 284.348 C 382.400 283.963,382.580 283.536,382.800 283.400 C 383.020 283.264,383.200 282.803,383.200 282.376 C 383.200 281.949,383.380 281.600,383.600 281.600 C 383.820 281.600,384.000 281.060,384.000 280.400 C 384.000 279.740,384.180 279.200,384.400 279.200 C 384.620 279.200,384.803 278.795,384.806 278.300 C 384.811 277.572,384.886 277.515,385.200 278.000 C 385.494 278.455,385.589 278.286,385.594 277.300 C 385.597 276.585,385.780 276.000,386.000 276.000 C 386.220 276.000,386.400 275.640,386.400 275.200 C 386.400 274.760,386.580 274.400,386.800 274.400 C 387.020 274.400,387.200 273.785,387.200 273.033 C 387.200 272.282,387.402 271.599,387.650 271.517 C 387.897 271.434,388.100 270.882,388.100 270.291 C 388.100 269.699,388.257 269.312,388.450 269.431 C 388.643 269.550,388.800 269.176,388.800 268.600 C 388.800 267.987,388.970 267.658,389.210 267.806 C 389.435 267.945,389.594 267.911,389.563 267.730 C 389.378 266.669,389.657 265.188,390.000 265.400 C 390.238 265.547,390.400 265.071,390.400 264.224 C 390.400 263.441,390.576 262.800,390.790 262.800 C 391.010 262.800,391.075 262.277,390.940 261.600 C 390.787 260.836,390.863 260.400,391.150 260.400 C 391.398 260.400,391.600 259.939,391.600 259.376 C 391.600 258.796,391.773 258.460,392.000 258.600 C 392.242 258.750,392.400 258.196,392.400 257.200 C 392.400 256.204,392.558 255.650,392.800 255.800 C 393.047 255.952,393.200 255.271,393.200 254.024 C 393.200 252.911,393.380 252.000,393.600 252.000 C 393.820 252.000,394.000 251.471,394.000 250.824 C 394.000 250.177,394.180 249.536,394.400 249.400 C 394.620 249.264,394.800 248.533,394.800 247.776 C 394.800 247.019,394.962 246.400,395.160 246.400 C 395.358 246.400,395.602 245.635,395.704 244.700 C 395.805 243.765,396.183 241.956,396.544 240.680 C 396.905 239.405,397.200 237.560,397.200 236.580 C 397.200 235.601,397.380 234.800,397.600 234.800 C 397.822 234.800,398.000 233.733,398.000 232.400 C 398.000 231.067,398.178 230.000,398.400 230.000 C 398.626 230.000,398.800 228.859,398.800 227.376 C 398.800 225.933,398.936 224.837,399.102 224.940 C 399.638 225.270,399.801 218.272,399.767 196.422 C 399.743 180.497,399.616 175.005,399.267 174.889 C 398.997 174.799,398.800 173.919,398.800 172.800 C 398.800 171.737,398.627 170.807,398.415 170.733 C 398.203 170.660,397.997 169.385,397.957 167.900 C 397.917 166.415,397.730 165.200,397.542 165.200 C 397.354 165.200,397.200 164.401,397.200 163.424 C 397.200 162.447,397.020 161.536,396.800 161.400 C 396.580 161.264,396.400 160.443,396.400 159.576 C 396.400 158.709,396.220 158.000,396.000 158.000 C 395.780 158.000,395.600 157.111,395.600 156.024 C 395.600 154.937,395.420 153.936,395.200 153.800 C 394.980 153.664,394.800 153.036,394.800 152.403 C 394.800 151.632,394.554 151.176,394.053 151.017 C 393.642 150.886,388.574 145.969,382.791 140.090 C 367.004 124.041,326.800 83.634,326.800 83.816 C 326.800 83.904,327.192 84.656,327.672 85.488 C 329.312 88.333,330.775 91.400,330.787 92.020 C 330.794 92.361,330.961 92.811,331.157 93.020 C 334.027 96.070,334.021 117.856,331.149 120.980 C 330.957 121.189,330.800 121.605,330.800 121.905 C 330.800 123.088,326.724 130.695,325.606 131.600 C 325.470 131.710,324.313 133.105,323.034 134.700 C 321.756 136.295,320.595 137.604,320.455 137.609 C 320.315 137.614,319.544 138.199,318.741 138.909 C 316.535 140.861,315.938 141.331,313.991 142.647 C 311.914 144.050,307.102 146.400,306.305 146.400 C 306.005 146.400,305.589 146.549,305.380 146.730 C 305.010 147.052,303.922 147.392,299.800 148.475 C 298.549 148.803,295.402 149.000,291.400 149.000 C 287.398 149.000,284.251 148.803,283.000 148.475 C 278.878 147.392,277.790 147.052,277.420 146.730 C 277.211 146.549,276.795 146.400,276.495 146.400 C 275.948 146.400,270.776 144.043,270.400 143.623 C 270.290 143.499,269.708 143.145,269.107 142.835 C 268.505 142.526,267.693 141.986,267.300 141.636 C 266.908 141.286,265.510 140.102,264.194 139.004 C 261.277 136.573,261.409 136.705,259.200 134.000 C 258.212 132.790,257.180 131.565,256.908 131.277 C 255.683 129.987,252.000 122.937,252.000 121.884 C 252.000 121.596,251.839 121.189,251.643 120.980 C 248.802 117.960,248.802 96.040,251.643 93.020 C 251.839 92.811,252.006 92.361,252.013 92.020 C 252.019 91.679,252.559 90.325,253.213 89.010 C 253.866 87.696,254.400 86.432,254.400 86.201 C 254.400 85.970,249.450 80.843,243.400 74.807 C 237.350 68.771,232.400 63.971,232.400 64.139 M287.400 90.400 C 287.264 90.620,286.822 90.800,286.417 90.800 C 282.866 90.800,275.200 98.466,275.200 102.017 C 275.200 102.422,275.020 102.864,274.800 103.000 C 274.579 103.136,274.400 104.930,274.400 107.000 C 274.400 109.070,274.579 110.864,274.800 111.000 C 275.020 111.136,275.204 111.732,275.209 112.324 C 275.214 112.916,275.570 113.850,276.000 114.400 C 276.430 114.950,276.786 115.628,276.791 115.907 C 276.806 116.771,281.752 121.354,283.625 122.239 C 290.496 125.488,297.684 124.435,303.011 119.400 C 305.402 117.140,306.993 114.619,307.951 111.572 C 308.508 109.801,308.545 103.337,308.000 103.000 C 307.780 102.864,307.600 102.223,307.600 101.576 C 307.600 100.929,307.462 100.400,307.294 100.400 C 307.126 100.400,306.677 99.680,306.295 98.800 C 304.927 95.641,298.929 90.800,296.383 90.800 C 295.978 90.800,295.536 90.620,295.400 90.400 C 295.264 90.179,293.470 90.000,291.400 90.000 C 289.330 90.000,287.536 90.179,287.400 90.400 M112.000 168.000 L 112.000 181.600 125.698 181.600 L 139.396 181.600 125.800 168.000 C 118.322 160.520,112.158 154.400,112.102 154.400 C 112.046 154.400,112.000 160.520,112.000 168.000 M140.000 193.800 L 140.000 204.800 126.000 204.800 L 112.000 204.800 112.000 218.567 C 112.000 226.139,111.891 232.619,111.757 232.967 C 111.544 233.522,110.199 233.600,100.781 233.600 C 94.877 233.600,89.957 233.746,89.847 233.925 C 89.736 234.103,98.357 242.959,109.005 253.605 C 121.283 265.881,128.427 272.748,128.538 272.380 C 128.634 272.061,128.936 270.720,129.208 269.400 C 130.429 263.488,134.721 252.905,137.673 248.528 C 138.293 247.608,138.800 246.663,138.800 246.428 C 138.800 246.193,138.950 246.000,139.132 246.000 C 139.315 246.000,139.720 245.505,140.032 244.900 C 140.344 244.295,140.698 243.710,140.819 243.600 C 140.940 243.490,141.470 242.783,141.997 242.029 C 144.378 238.624,152.536 230.366,155.570 228.290 C 156.577 227.601,157.638 226.804,157.929 226.519 C 158.219 226.234,158.596 226.000,158.766 226.000 C 158.936 226.000,159.599 225.550,160.238 225.000 C 160.877 224.451,161.535 224.001,161.700 224.000 C 161.865 224.000,162.000 219.553,162.000 214.117 L 162.000 204.234 151.310 193.517 C 145.430 187.623,140.480 182.800,140.310 182.800 C 140.139 182.800,140.000 187.750,140.000 193.800 M61.046 205.125 C 60.936 205.304,66.955 211.558,74.423 219.023 L 88.000 232.596 88.000 218.698 L 88.000 204.800 74.624 204.800 C 67.267 204.800,61.157 204.946,61.046 205.125 " stroke="none" fill="#fc2c14" fill-rule="evenodd"></path><path id="path3" d="M197.400 88.389 C 189.300 89.509,183.114 95.656,181.658 104.033 C 181.326 105.940,181.200 125.372,181.200 174.528 L 181.200 242.391 178.100 243.953 C 141.521 262.380,146.194 319.515,185.200 330.773 C 186.190 331.059,187.450 331.438,188.000 331.616 C 189.263 332.025,193.243 332.662,197.469 333.132 C 213.846 334.953,232.687 324.606,241.416 308.997 C 242.228 307.546,242.790 306.257,242.665 306.132 C 242.541 306.007,242.117 306.647,241.725 307.553 C 241.332 308.459,240.874 309.200,240.706 309.200 C 240.538 309.200,240.398 309.425,240.396 309.700 C 240.381 311.693,227.999 324.765,226.100 324.793 C 225.825 324.797,225.599 324.935,225.597 325.100 C 225.595 325.265,225.190 325.599,224.697 325.841 C 224.204 326.084,222.808 326.817,221.595 327.470 C 219.011 328.862,214.632 330.520,211.800 331.181 C 210.700 331.437,209.170 331.803,208.400 331.993 C 207.184 332.294,201.532 332.607,200.100 332.454 C 199.701 332.411,199.600 307.742,199.600 210.587 L 199.600 88.774 200.500 88.412 C 201.636 87.956,200.591 87.948,197.400 88.389 M201.633 88.549 C 201.725 88.631,202.700 88.818,203.800 88.965 C 205.220 89.155,205.626 89.114,205.200 88.823 C 204.661 88.454,201.232 88.190,201.633 88.549 M206.200 89.600 C 206.336 89.820,206.752 90.004,207.124 90.009 C 207.496 90.014,208.250 90.370,208.800 90.800 C 209.350 91.230,209.963 91.586,210.163 91.591 C 211.914 91.634,216.783 98.862,217.849 103.000 C 218.019 103.660,218.257 135.320,218.379 173.356 C 218.598 241.983,218.606 242.516,219.400 242.956 C 219.840 243.200,220.290 243.492,220.400 243.605 C 220.510 243.718,221.500 244.256,222.600 244.800 C 223.700 245.344,224.690 245.900,224.800 246.035 C 224.910 246.170,225.419 246.501,225.932 246.771 C 228.220 247.977,234.319 253.607,236.796 256.800 C 237.564 257.790,238.509 258.949,238.896 259.375 C 239.283 259.802,239.600 260.387,239.600 260.675 C 239.600 260.964,239.736 261.200,239.902 261.200 C 240.069 261.200,240.459 261.785,240.770 262.500 C 241.540 264.269,242.466 265.667,242.708 265.426 C 242.931 265.202,240.020 260.150,238.433 258.006 C 234.169 252.248,229.064 247.833,222.225 243.987 L 219.000 242.173 218.800 172.587 C 218.650 120.372,218.482 102.674,218.126 101.693 C 216.259 96.545,212.726 92.189,208.806 90.203 C 206.724 89.148,205.787 88.931,206.200 89.600 M242.800 266.553 C 242.800 266.883,242.980 267.264,243.200 267.400 C 243.420 267.536,243.600 267.377,243.600 267.047 C 243.600 266.717,243.420 266.336,243.200 266.200 C 242.980 266.064,242.800 266.223,242.800 266.553 M243.600 268.328 C 243.600 268.534,243.855 269.312,244.166 270.057 C 247.347 277.671,247.520 290.972,244.565 300.763 C 244.375 301.390,244.418 301.636,244.689 301.468 C 244.918 301.327,245.224 300.714,245.370 300.106 C 245.516 299.498,245.821 298.280,246.048 297.400 C 248.207 289.028,247.575 275.719,244.761 270.305 C 244.562 269.923,244.400 269.349,244.400 269.029 C 244.400 268.709,244.220 268.336,244.000 268.200 C 243.780 268.064,243.600 268.121,243.600 268.328 M243.800 302.800 C 243.650 303.273,243.617 303.750,243.727 303.860 C 243.837 303.970,244.050 303.673,244.200 303.200 C 244.350 302.727,244.383 302.250,244.273 302.140 C 244.163 302.030,243.950 302.327,243.800 302.800 " stroke="none" fill="#fbbc16" fill-rule="evenodd"></path><path id="path4" d="M199.867 88.667 C 199.325 89.209,199.557 332.395,200.100 332.454 C 201.532 332.607,207.184 332.294,208.400 331.993 C 209.170 331.803,210.700 331.437,211.800 331.181 C 214.632 330.520,219.011 328.862,221.595 327.470 C 222.808 326.817,224.204 326.084,224.697 325.841 C 225.190 325.599,225.595 325.265,225.597 325.100 C 225.599 324.935,225.825 324.797,226.100 324.793 C 227.893 324.767,239.211 312.992,240.319 310.000 C 240.442 309.670,240.645 309.310,240.771 309.200 C 241.209 308.818,242.800 305.521,242.800 304.996 C 242.800 304.705,242.935 304.407,243.101 304.333 C 243.522 304.147,244.991 299.612,245.866 295.800 C 246.985 290.923,246.877 280.312,245.656 275.248 C 244.586 270.809,243.409 267.443,242.141 265.200 C 241.830 264.650,241.269 263.525,240.894 262.700 C 240.518 261.875,240.074 261.200,239.906 261.200 C 239.738 261.200,239.600 260.964,239.600 260.675 C 239.600 260.387,239.283 259.802,238.896 259.375 C 238.509 258.949,237.564 257.790,236.796 256.800 C 234.319 253.607,228.220 247.977,225.932 246.771 C 225.419 246.501,224.910 246.170,224.800 246.035 C 224.690 245.900,223.700 245.344,222.600 244.800 C 221.500 244.256,220.510 243.718,220.400 243.605 C 220.290 243.492,219.840 243.200,219.400 242.956 C 218.606 242.516,218.598 241.983,218.379 173.356 C 218.257 135.320,218.019 103.660,217.849 103.000 C 216.701 98.541,212.893 93.074,209.700 91.300 C 206.850 89.716,205.672 89.278,203.027 88.815 C 200.222 88.325,200.209 88.324,199.867 88.667 " stroke="none" fill="#fca304" fill-rule="evenodd"></path></g></svg>