<svg id="svg" version="1.1" xmlns="http://www.w3.org/2000/svg" xmlns:xlink="http://www.w3.org/1999/xlink" width="400" height="400" viewBox="0, 0, 400,400"><g id="svgg"><path id="path0" d="M190.685 127.248 C 190.636 127.399,189.067 133.196,187.199 140.132 C 185.331 147.067,182.109 158.994,180.038 166.637 L 176.273 180.532 168.248 189.224 C 163.833 194.005,159.813 198.361,159.314 198.904 C 158.815 199.446,157.681 200.680,156.794 201.645 C 155.907 202.610,154.640 203.977,153.977 204.684 L 152.774 205.970 146.115 208.220 C 142.452 209.458,139.421 210.508,139.379 210.554 C 139.337 210.599,138.246 215.916,136.954 222.368 C 135.663 228.821,134.571 234.137,134.528 234.182 C 134.442 234.272,134.043 234.369,127.741 235.839 C 117.746 238.169,118.454 237.961,117.990 238.696 C 117.758 239.064,117.286 239.759,116.941 240.241 C 116.287 241.155,101.454 262.693,96.288 270.230 L 93.320 274.561 84.434 274.562 C 75.954 274.563,75.516 274.583,74.834 274.999 C 72.805 276.235,72.774 279.025,74.777 280.080 C 75.816 280.627,305.924 280.721,306.974 280.174 C 309.289 278.970,309.310 276.100,307.013 274.946 C 306.324 274.599,305.380 274.562,297.259 274.561 L 288.268 274.559 284.094 268.475 C 281.799 265.128,276.144 256.903,271.528 250.195 L 263.135 238.001 260.241 237.315 C 258.649 236.938,255.040 236.089,252.220 235.429 C 249.401 234.769,247.068 234.200,247.036 234.165 C 247.004 234.130,245.923 228.821,244.633 222.368 C 243.342 215.916,242.239 210.587,242.181 210.526 C 242.122 210.466,239.096 209.422,235.456 208.206 L 228.838 205.994 228.691 204.806 C 228.610 204.153,228.183 199.923,227.743 195.407 C 227.078 188.588,226.880 187.151,226.574 186.927 C 226.372 186.778,222.968 184.755,219.010 182.429 C 215.052 180.104,211.775 178.139,211.727 178.062 C 211.680 177.985,212.231 172.014,212.952 164.794 L 214.264 151.666 212.984 150.340 C 211.739 149.049,209.103 146.248,208.662 145.747 C 208.542 145.610,207.407 144.414,206.140 143.089 C 202.691 139.479,196.930 133.388,193.753 129.989 C 190.734 126.760,190.821 126.837,190.685 127.248 " stroke="none" fill="#97595a" fill-rule="evenodd"></path><path id="path1" d="M183.882 0.345 C 180.235 0.670,176.717 1.088,171.930 1.764 C 164.392 2.829,164.632 2.785,154.386 4.968 C 153.481 5.160,151.902 5.560,150.877 5.857 C 149.852 6.153,148.224 6.571,147.259 6.786 C 146.294 7.001,144.024 7.642,142.215 8.211 C 140.406 8.780,138.289 9.441,137.512 9.679 C 136.734 9.918,135.353 10.391,134.442 10.731 C 133.531 11.071,132.242 11.522,131.579 11.734 C 130.916 11.946,130.077 12.247,129.715 12.402 C 129.353 12.557,128.576 12.889,127.987 13.140 C 127.399 13.391,126.796 13.596,126.647 13.596 C 126.394 13.596,124.876 14.242,122.218 15.479 C 121.592 15.770,120.973 16.009,120.843 16.009 C 120.712 16.009,119.583 16.502,118.332 17.105 C 117.082 17.708,116.004 18.202,115.936 18.202 C 115.707 18.202,109.993 21.022,107.018 22.604 C 101.312 25.637,100.760 25.942,99.851 26.565 C 99.347 26.910,98.853 27.193,98.754 27.193 C 98.655 27.193,97.744 27.736,96.730 28.399 C 95.716 29.063,94.816 29.605,94.729 29.605 C 94.643 29.605,93.217 30.518,91.561 31.634 C 89.905 32.749,88.156 33.885,87.676 34.158 C 87.195 34.430,86.391 34.978,85.890 35.376 C 85.388 35.773,84.414 36.477,83.726 36.939 C 83.037 37.402,82.297 37.939,82.081 38.134 C 81.865 38.328,81.442 38.614,81.140 38.769 C 80.839 38.924,80.150 39.448,79.609 39.933 C 79.068 40.418,78.413 40.932,78.153 41.076 C 77.347 41.522,70.395 47.191,70.395 47.402 C 70.395 47.512,70.222 47.663,70.011 47.739 C 69.800 47.815,69.075 48.379,68.400 48.993 C 67.725 49.607,66.560 50.652,65.810 51.316 C 64.039 52.882,52.882 64.039,51.316 65.810 C 50.652 66.560,49.592 67.734,48.958 68.420 C 48.325 69.106,47.807 69.784,47.807 69.928 C 47.807 70.072,47.664 70.244,47.490 70.311 C 47.164 70.436,41.545 77.306,41.076 78.153 C 40.932 78.413,40.418 79.068,39.933 79.609 C 39.448 80.150,38.924 80.839,38.769 81.140 C 38.614 81.442,38.328 81.865,38.134 82.081 C 37.939 82.297,37.402 83.037,36.939 83.726 C 36.477 84.414,35.773 85.388,35.376 85.890 C 34.978 86.391,34.430 87.195,34.158 87.676 C 33.885 88.156,32.749 89.905,31.634 91.561 C 30.518 93.217,29.605 94.643,29.605 94.729 C 29.605 94.816,29.063 95.716,28.399 96.730 C 27.736 97.744,27.193 98.655,27.193 98.754 C 27.193 98.853,26.910 99.347,26.565 99.851 C 25.942 100.760,25.637 101.312,22.604 107.018 C 21.022 109.993,18.202 115.707,18.202 115.936 C 18.202 116.004,17.708 117.082,17.105 118.332 C 16.502 119.583,16.009 120.712,16.009 120.843 C 16.009 120.973,15.770 121.592,15.479 122.218 C 14.242 124.876,13.596 126.394,13.596 126.647 C 13.596 126.796,13.391 127.399,13.140 127.987 C 12.889 128.576,12.557 129.353,12.402 129.715 C 12.247 130.077,11.946 130.916,11.734 131.579 C 11.522 132.242,11.071 133.531,10.731 134.442 C 10.391 135.353,9.918 136.734,9.679 137.512 C 9.441 138.289,8.780 140.406,8.211 142.215 C 7.642 144.024,7.001 146.294,6.786 147.259 C 6.571 148.224,6.153 149.852,5.857 150.877 C 5.560 151.902,5.160 153.481,4.968 154.386 C 3.327 162.088,2.813 164.659,2.535 166.557 C 0.182 182.606,0.002 184.976,0.002 200.000 C 0.002 215.024,0.182 217.394,2.535 233.443 C 2.813 235.341,3.327 237.912,4.968 245.614 C 5.160 246.519,5.560 248.098,5.857 249.123 C 6.153 250.148,6.571 251.776,6.786 252.741 C 7.001 253.706,7.642 255.976,8.211 257.785 C 8.780 259.594,9.441 261.711,9.679 262.488 C 9.918 263.266,10.391 264.647,10.731 265.558 C 11.071 266.469,11.522 267.758,11.734 268.421 C 11.946 269.084,12.247 269.923,12.402 270.285 C 12.557 270.647,12.889 271.424,13.140 272.013 C 13.391 272.601,13.596 273.204,13.596 273.353 C 13.596 273.606,14.242 275.124,15.479 277.782 C 15.770 278.408,16.009 279.027,16.009 279.157 C 16.009 279.288,16.502 280.417,17.105 281.668 C 17.708 282.918,18.202 283.996,18.202 284.064 C 18.202 284.293,21.022 290.007,22.604 292.982 C 25.637 298.688,25.942 299.240,26.565 300.149 C 26.910 300.653,27.193 301.147,27.193 301.246 C 27.193 301.345,27.736 302.256,28.399 303.270 C 29.063 304.284,29.605 305.184,29.605 305.271 C 29.605 305.357,30.518 306.783,31.634 308.439 C 32.749 310.095,33.885 311.844,34.158 312.324 C 34.430 312.805,34.978 313.609,35.376 314.110 C 35.773 314.612,36.477 315.586,36.939 316.274 C 37.402 316.963,37.939 317.703,38.134 317.919 C 38.328 318.135,38.614 318.558,38.769 318.860 C 38.924 319.161,39.448 319.850,39.933 320.391 C 40.418 320.932,40.932 321.587,41.076 321.847 C 41.522 322.653,47.191 329.605,47.402 329.605 C 47.512 329.605,47.663 329.778,47.739 329.989 C 47.815 330.200,48.379 330.925,48.993 331.600 C 49.607 332.275,50.652 333.440,51.316 334.190 C 52.882 335.961,64.039 347.118,65.810 348.684 C 66.560 349.348,67.734 350.408,68.420 351.042 C 69.106 351.675,69.784 352.193,69.928 352.193 C 70.072 352.193,70.244 352.336,70.311 352.510 C 70.436 352.836,77.306 358.455,78.153 358.924 C 78.413 359.068,79.068 359.582,79.609 360.067 C 80.150 360.552,80.839 361.076,81.140 361.231 C 81.442 361.386,81.865 361.672,82.081 361.866 C 82.297 362.061,83.037 362.598,83.726 363.061 C 84.414 363.523,85.388 364.227,85.890 364.624 C 86.391 365.022,87.195 365.570,87.676 365.842 C 88.156 366.115,89.905 367.251,91.561 368.366 C 93.217 369.482,94.643 370.395,94.729 370.395 C 94.816 370.395,95.716 370.937,96.730 371.601 C 97.744 372.264,98.655 372.807,98.754 372.807 C 98.853 372.807,99.347 373.090,99.851 373.435 C 100.760 374.058,101.312 374.363,107.018 377.396 C 109.993 378.978,115.707 381.798,115.936 381.798 C 116.004 381.798,117.082 382.292,118.332 382.895 C 119.583 383.498,120.712 383.991,120.843 383.991 C 120.973 383.991,121.592 384.230,122.218 384.521 C 124.876 385.758,126.394 386.404,126.647 386.404 C 126.796 386.404,127.399 386.609,127.987 386.860 C 128.576 387.111,129.353 387.443,129.715 387.598 C 130.077 387.753,130.916 388.054,131.579 388.266 C 132.242 388.478,133.531 388.929,134.442 389.269 C 135.353 389.609,136.734 390.082,137.512 390.321 C 138.289 390.559,140.406 391.220,142.215 391.789 C 144.024 392.358,146.294 392.999,147.259 393.214 C 148.224 393.429,149.852 393.847,150.877 394.143 C 151.902 394.440,153.481 394.840,154.386 395.032 C 162.088 396.673,164.659 397.187,166.557 397.465 C 182.606 399.818,184.976 399.998,200.000 399.998 C 215.024 399.998,217.394 399.818,233.443 397.465 C 235.341 397.187,237.912 396.673,245.614 395.032 C 246.519 394.840,248.098 394.440,249.123 394.143 C 250.148 393.847,251.776 393.429,252.741 393.214 C 253.706 392.999,255.976 392.358,257.785 391.789 C 259.594 391.220,261.711 390.559,262.488 390.321 C 263.266 390.082,264.647 389.609,265.558 389.269 C 266.469 388.929,267.758 388.478,268.421 388.266 C 269.084 388.054,269.923 387.753,270.285 387.598 C 270.647 387.443,271.424 387.111,272.013 386.860 C 272.601 386.609,273.204 386.404,273.353 386.404 C 273.606 386.404,275.124 385.758,277.782 384.521 C 278.408 384.230,279.027 383.991,279.157 383.991 C 279.288 383.991,280.417 383.498,281.668 382.895 C 282.918 382.292,283.996 381.798,284.064 381.798 C 284.293 381.798,290.007 378.978,292.982 377.396 C 298.688 374.363,299.240 374.058,300.149 373.435 C 300.653 373.090,301.147 372.807,301.246 372.807 C 301.345 372.807,302.256 372.264,303.270 371.601 C 304.284 370.937,305.184 370.395,305.271 370.395 C 305.357 370.395,306.783 369.482,308.439 368.366 C 310.095 367.251,311.844 366.115,312.324 365.842 C 312.805 365.570,313.609 365.022,314.110 364.624 C 314.612 364.227,315.586 363.523,316.274 363.061 C 316.963 362.598,317.703 362.061,317.919 361.866 C 318.135 361.672,318.558 361.386,318.860 361.231 C 319.161 361.076,319.850 360.552,320.391 360.067 C 320.932 359.582,321.587 359.068,321.847 358.924 C 322.694 358.455,329.564 352.836,329.689 352.510 C 329.756 352.336,329.928 352.193,330.072 352.193 C 330.216 352.193,330.894 351.675,331.580 351.042 C 332.266 350.408,333.440 349.348,334.190 348.684 C 335.961 347.118,347.118 335.961,348.684 334.190 C 349.348 333.440,350.393 332.275,351.007 331.600 C 351.621 330.925,352.185 330.200,352.261 329.989 C 352.337 329.778,352.488 329.605,352.598 329.605 C 352.809 329.605,358.478 322.653,358.924 321.847 C 359.068 321.587,359.582 320.932,360.067 320.391 C 360.552 319.850,361.076 319.161,361.231 318.860 C 361.386 318.558,361.672 318.135,361.866 317.919 C 362.061 317.703,362.598 316.963,363.061 316.274 C 363.523 315.586,364.227 314.612,364.624 314.110 C 365.022 313.609,365.570 312.805,365.842 312.324 C 366.115 311.844,367.251 310.095,368.366 308.439 C 369.482 306.783,370.395 305.357,370.395 305.271 C 370.395 305.184,370.938 304.284,371.601 303.270 C 372.264 302.256,372.807 301.345,372.807 301.246 C 372.807 301.147,373.090 300.653,373.435 300.149 C 374.058 299.240,374.363 298.688,377.396 292.982 C 378.894 290.166,381.798 284.297,381.798 284.088 C 381.798 284.035,382.292 282.955,382.895 281.689 C 383.498 280.423,383.991 279.282,383.991 279.153 C 383.991 279.025,384.230 278.408,384.521 277.782 C 385.758 275.124,386.404 273.606,386.404 273.353 C 386.404 273.204,386.609 272.601,386.860 272.013 C 387.111 271.424,387.443 270.647,387.598 270.285 C 387.753 269.923,388.054 269.084,388.266 268.421 C 388.478 267.758,388.929 266.469,389.269 265.558 C 389.609 264.647,390.083 263.266,390.321 262.488 C 390.560 261.711,391.168 259.742,391.672 258.114 C 392.761 254.590,392.996 253.766,393.605 251.316 C 395.432 243.966,396.958 236.902,397.465 233.443 C 399.818 217.394,399.998 215.024,399.998 200.000 C 399.998 184.976,399.818 182.606,397.465 166.557 C 396.958 163.098,395.432 156.034,393.605 148.684 C 392.996 146.234,392.761 145.410,391.672 141.886 C 391.168 140.258,390.560 138.289,390.321 137.512 C 390.083 136.734,389.609 135.353,389.269 134.442 C 388.929 133.531,388.478 132.242,388.266 131.579 C 388.054 130.916,387.753 130.077,387.598 129.715 C 387.443 129.353,387.111 128.576,386.860 127.987 C 386.609 127.399,386.404 126.796,386.404 126.647 C 386.404 126.394,385.758 124.876,384.521 122.218 C 384.230 121.592,383.991 120.975,383.991 120.847 C 383.991 120.718,383.498 119.577,382.895 118.311 C 382.292 117.045,381.798 115.965,381.798 115.912 C 381.798 115.703,378.894 109.834,377.396 107.018 C 374.363 101.312,374.058 100.760,373.435 99.851 C 373.090 99.347,372.807 98.853,372.807 98.754 C 372.807 98.655,372.264 97.744,371.601 96.730 C 370.938 95.716,370.395 94.816,370.395 94.729 C 370.395 94.643,369.482 93.217,368.366 91.561 C 367.251 89.905,366.115 88.156,365.842 87.676 C 365.570 87.195,365.022 86.391,364.624 85.890 C 364.227 85.388,363.523 84.414,363.061 83.726 C 362.598 83.037,362.061 82.297,361.866 82.081 C 361.672 81.865,361.386 81.442,361.231 81.140 C 361.076 80.839,360.552 80.150,360.067 79.609 C 359.582 79.068,359.068 78.413,358.924 78.153 C 358.478 77.347,352.809 70.395,352.598 70.395 C 352.488 70.395,352.337 70.222,352.261 70.011 C 352.185 69.800,351.621 69.075,351.007 68.400 C 350.393 67.725,349.348 66.560,348.684 65.810 C 347.118 64.039,335.961 52.882,334.190 51.316 C 333.440 50.652,332.275 49.607,331.600 48.993 C 330.925 48.379,330.200 47.815,329.989 47.739 C 329.778 47.663,329.605 47.512,329.605 47.402 C 329.605 47.191,322.653 41.522,321.847 41.076 C 321.587 40.932,320.932 40.418,320.391 39.933 C 319.850 39.448,319.161 38.924,318.860 38.769 C 318.558 38.614,318.135 38.328,317.919 38.134 C 317.703 37.939,316.963 37.402,316.274 36.939 C 315.586 36.477,314.612 35.773,314.110 35.376 C 313.609 34.978,312.805 34.430,312.324 34.158 C 311.844 33.885,310.095 32.749,308.439 31.634 C 306.783 30.518,305.357 29.605,305.271 29.605 C 305.184 29.605,304.284 29.062,303.270 28.399 C 302.256 27.736,301.345 27.193,301.246 27.193 C 301.147 27.193,300.653 26.910,300.149 26.565 C 299.240 25.942,298.688 25.637,292.982 22.604 C 290.166 21.106,284.297 18.202,284.088 18.202 C 284.035 18.202,282.955 17.708,281.689 17.105 C 280.423 16.502,279.282 16.009,279.153 16.009 C 279.025 16.009,278.408 15.770,277.782 15.479 C 275.124 14.242,273.606 13.596,273.353 13.596 C 273.204 13.596,272.601 13.391,272.013 13.140 C 271.424 12.889,270.647 12.557,270.285 12.402 C 269.923 12.247,269.084 11.946,268.421 11.734 C 267.758 11.522,266.469 11.071,265.558 10.731 C 264.647 10.391,263.266 9.918,262.488 9.679 C 261.711 9.441,259.594 8.780,257.785 8.211 C 255.976 7.642,253.706 7.001,252.741 6.786 C 251.776 6.571,250.148 6.153,249.123 5.857 C 248.098 5.560,246.519 5.160,245.614 4.968 C 237.912 3.327,235.341 2.813,233.443 2.535 C 217.214 0.156,215.063 -0.004,199.561 0.027 C 191.191 0.043,186.104 0.147,183.882 0.345 M254.827 122.200 C 255.489 123.072,256.821 124.775,257.786 125.983 C 261.290 130.368,264.453 134.402,264.695 134.795 C 264.933 135.182,261.203 151.604,260.785 152.008 C 260.644 152.144,254.574 154.034,242.334 157.752 L 239.822 158.515 238.606 157.590 C 235.980 155.591,228.163 149.463,227.879 149.181 C 227.624 148.927,227.988 147.565,230.253 140.285 C 231.725 135.557,233.092 131.155,233.292 130.502 C 233.645 129.348,233.695 129.297,235.084 128.677 C 235.870 128.325,236.679 127.950,236.882 127.842 C 237.085 127.735,239.453 126.665,242.145 125.465 C 244.837 124.265,248.322 122.693,249.890 121.971 C 253.545 120.288,253.369 120.280,254.827 122.200 M195.156 131.250 C 199.536 135.872,200.863 137.275,202.522 139.043 C 204.389 141.032,210.060 147.044,212.610 149.738 C 213.454 150.630,214.203 151.473,214.273 151.612 C 214.344 151.751,213.832 157.489,213.136 164.364 C 212.439 171.239,211.863 177.125,211.856 177.445 C 211.841 178.081,211.063 177.577,222.039 184.046 C 227.570 187.306,227.093 186.865,227.272 188.890 C 227.639 193.048,228.756 204.575,228.851 205.183 L 228.958 205.871 235.571 208.086 C 239.209 209.304,242.250 210.406,242.329 210.534 C 242.409 210.663,243.490 215.870,244.732 222.105 C 245.974 228.341,247.073 233.604,247.173 233.801 C 247.297 234.042,248.303 234.380,250.268 234.839 C 251.869 235.213,255.440 236.048,258.202 236.694 L 263.224 237.870 267.566 244.209 C 269.954 247.696,272.398 251.239,272.996 252.083 C 273.594 252.928,275.746 256.041,277.777 259.002 C 279.808 261.963,283.043 266.675,284.966 269.473 L 288.463 274.561 297.733 274.561 L 307.002 274.561 307.772 275.237 C 309.204 276.494,309.214 278.388,307.796 279.806 L 307.010 280.592 191.499 280.652 C 86.079 280.706,75.906 280.680,75.058 280.360 C 72.885 279.541,72.453 276.811,74.245 275.237 L 75.015 274.561 83.961 274.561 L 92.906 274.561 93.350 274.068 C 93.769 273.603,97.164 268.742,101.199 262.829 C 102.187 261.382,104.659 257.780,106.693 254.825 C 108.727 251.870,112.186 246.837,114.379 243.640 C 118.046 238.298,118.427 237.818,119.107 237.696 C 120.055 237.526,134.298 234.171,134.387 234.097 C 134.423 234.066,135.480 228.923,136.736 222.667 C 137.991 216.412,139.071 211.080,139.136 210.819 C 139.237 210.412,140.211 210.025,145.913 208.124 L 152.572 205.904 153.763 204.652 C 154.418 203.963,156.131 202.116,157.571 200.548 C 159.010 198.980,160.789 197.056,161.524 196.272 C 162.259 195.488,163.353 194.304,163.956 193.640 C 166.640 190.687,173.447 183.310,174.713 181.982 L 176.106 180.522 177.527 175.294 C 178.309 172.418,179.632 167.549,180.468 164.474 C 181.305 161.398,183.283 154.095,184.865 148.246 C 186.446 142.396,187.977 136.771,188.265 135.746 C 188.554 134.720,189.146 132.518,189.581 130.853 C 190.016 129.187,190.473 127.559,190.596 127.236 L 190.819 126.648 192.052 127.962 C 192.731 128.685,194.127 130.164,195.156 131.250 M290.638 143.220 C 293.676 143.713,296.633 144.192,297.208 144.285 C 297.784 144.378,298.290 144.493,298.334 144.540 C 298.377 144.588,299.375 146.157,300.550 148.026 C 301.726 149.896,303.317 152.424,304.085 153.645 C 305.791 156.355,305.946 155.573,302.906 159.580 C 301.488 161.448,300.139 163.278,299.907 163.647 L 299.484 164.317 296.179 164.180 C 294.360 164.105,291.036 163.978,288.790 163.898 L 284.707 163.753 283.874 162.194 C 283.416 161.337,282.202 159.106,281.177 157.237 C 278.951 153.178,278.930 154.169,281.360 148.575 C 282.460 146.042,283.513 143.599,283.699 143.147 C 284.126 142.114,283.794 142.111,290.638 143.220 M255.413 169.757 C 255.753 169.888,256.968 170.272,258.114 170.609 C 259.260 170.947,263.257 172.176,266.996 173.340 C 270.735 174.505,273.967 175.510,274.178 175.573 C 274.389 175.636,274.561 175.771,274.561 175.872 C 274.561 175.974,274.897 176.782,275.307 177.667 C 276.100 179.377,281.270 190.924,282.426 193.567 C 283.309 195.585,283.396 195.325,281.305 196.944 C 280.310 197.715,279.348 198.466,279.167 198.613 C 278.559 199.108,270.074 205.814,269.335 206.384 L 268.604 206.948 266.045 206.322 C 264.638 205.978,260.902 205.090,257.742 204.349 C 250.992 202.765,251.628 203.058,251.116 201.300 C 250.756 200.062,249.247 195.133,247.698 190.132 C 247.417 189.227,246.732 186.983,246.174 185.144 L 245.159 181.802 247.583 178.675 C 248.916 176.955,250.431 175.005,250.950 174.342 C 251.469 173.679,252.528 172.324,253.304 171.331 C 254.080 170.338,254.733 169.524,254.755 169.522 C 254.778 169.519,255.074 169.625,255.413 169.757 M324.459 183.580 C 327.279 190.152,327.206 188.914,325.007 192.880 C 324.006 194.685,322.783 196.927,322.290 197.862 L 321.393 199.561 320.234 199.561 C 319.596 199.561,316.355 199.669,313.031 199.801 C 307.468 200.022,306.955 200.011,306.579 199.671 C 306.162 199.293,301.385 193.031,300.869 192.185 C 300.632 191.796,306.464 181.799,307.811 180.284 C 307.921 180.160,321.789 177.917,321.955 177.996 C 322.030 178.031,323.156 180.544,324.459 183.580 M313.717 214.306 C 314.555 215.420,316.641 218.181,318.351 220.442 L 321.461 224.553 315.962 233.291 L 310.463 242.029 307.260 242.533 C 305.498 242.810,300.822 243.567,296.869 244.215 C 288.686 245.558,289.065 245.520,288.887 245.011 C 288.763 244.655,285.871 237.917,284.769 235.417 C 284.504 234.814,283.713 232.970,283.012 231.319 L 281.738 228.318 285.742 220.903 C 287.945 216.824,289.864 213.360,290.009 213.206 C 290.275 212.920,301.704 212.382,309.002 212.312 L 312.193 212.281 313.717 214.306 " stroke="none" fill="#74c3b3" fill-rule="evenodd"></path><path id="path2" d="M246.930 123.468 C 239.751 126.712,239.496 126.826,236.404 128.189 C 235.137 128.746,234.020 129.280,233.921 129.375 C 233.722 129.567,227.851 148.325,227.851 148.771 C 227.851 148.979,235.150 154.805,239.619 158.164 C 239.775 158.281,240.839 158.060,242.360 157.595 C 243.728 157.176,246.623 156.289,248.794 155.624 C 250.965 154.958,254.499 153.875,256.647 153.217 C 261.345 151.777,260.604 152.614,261.875 147.319 C 264.649 135.760,264.758 135.242,264.505 134.837 C 264.370 134.621,262.023 131.605,259.290 128.133 C 256.556 124.661,254.112 121.554,253.859 121.229 C 253.281 120.486,254.146 120.207,246.930 123.468 M284.144 142.476 C 284.085 142.574,283.492 143.936,282.827 145.504 C 282.162 147.072,281.113 149.517,280.496 150.938 L 279.374 153.521 280.738 156.091 C 281.488 157.505,282.382 159.156,282.725 159.759 C 283.067 160.362,283.656 161.461,284.033 162.201 L 284.719 163.547 286.164 163.675 C 286.959 163.745,290.274 163.861,293.531 163.932 L 299.452 164.061 302.381 160.102 C 304.189 157.659,305.263 156.017,305.186 155.817 C 305.117 155.638,303.642 153.244,301.908 150.498 C 300.174 147.752,298.645 145.297,298.509 145.043 C 298.315 144.677,297.906 144.525,296.555 144.312 C 292.253 143.637,285.361 142.522,284.834 142.416 C 284.514 142.352,284.204 142.379,284.144 142.476 M250.110 175.673 C 247.577 178.937,245.474 181.693,245.437 181.796 C 245.375 181.969,248.429 192.188,250.784 199.688 L 251.754 202.775 259.923 204.709 C 264.416 205.773,268.197 206.682,268.326 206.728 C 268.616 206.835,283.024 195.446,282.951 195.167 C 282.922 195.056,281.360 191.534,279.480 187.340 C 277.600 183.146,275.712 178.925,275.285 177.961 C 274.263 175.650,274.511 175.825,270.502 174.586 C 268.574 173.990,266.058 173.206,264.912 172.844 C 262.387 172.046,254.848 169.737,254.770 169.738 C 254.740 169.738,252.643 172.409,250.110 175.673 M317.873 178.710 C 315.943 179.038,312.923 179.534,311.163 179.811 L 307.961 180.315 305.439 184.291 C 304.051 186.478,302.418 189.065,301.809 190.039 L 300.702 191.810 303.756 195.839 L 306.810 199.869 308.833 199.812 C 314.571 199.650,321.077 199.353,321.252 199.245 C 321.361 199.177,322.643 196.917,324.100 194.222 L 326.749 189.322 324.368 183.751 C 322.990 180.528,321.859 178.166,321.684 178.146 C 321.518 178.127,319.803 178.381,317.873 178.710 M310.197 212.411 C 309.836 212.444,305.592 212.581,300.768 212.715 C 289.664 213.024,290.268 212.948,289.614 214.103 C 287.445 217.930,282.018 228.123,282.018 228.368 C 282.018 228.535,282.464 229.696,283.010 230.948 C 283.556 232.199,285.158 235.913,286.570 239.200 C 288.840 244.484,289.193 245.175,289.629 245.175 C 289.899 245.175,292.220 244.827,294.786 244.402 C 297.352 243.977,301.911 243.236,304.918 242.755 C 307.924 242.275,310.400 241.858,310.420 241.829 C 310.514 241.689,319.115 228.048,320.131 226.425 L 321.293 224.570 316.643 218.425 C 311.634 211.808,312.095 212.238,310.197 212.411 " stroke="none" fill="#f06a52" fill-rule="evenodd"></path><path id="path3" d="M252.193 120.943 C 251.891 121.115,251.743 121.256,251.864 121.256 C 251.985 121.256,252.330 121.115,252.632 120.943 C 252.933 120.771,253.081 120.630,252.961 120.630 C 252.840 120.630,252.495 120.771,252.193 120.943 M253.509 120.692 C 253.509 120.884,255.920 123.904,256.074 123.904 C 256.131 123.904,255.658 123.237,255.023 122.423 C 253.573 120.564,253.509 120.490,253.509 120.692 M248.026 122.807 C 247.604 123.038,247.357 123.227,247.478 123.227 C 247.599 123.227,248.043 123.038,248.465 122.807 C 248.887 122.576,249.134 122.387,249.013 122.387 C 248.893 122.387,248.448 122.576,248.026 122.807 M243.421 124.890 C 243.120 125.063,242.971 125.204,243.092 125.204 C 243.213 125.204,243.558 125.063,243.860 124.890 C 244.161 124.718,244.309 124.577,244.189 124.577 C 244.068 124.577,243.723 124.718,243.421 124.890 M257.675 126.096 C 258.058 126.579,258.420 126.974,258.480 126.974 C 258.540 126.974,258.277 126.579,257.895 126.096 C 257.513 125.614,257.151 125.219,257.090 125.219 C 257.030 125.219,257.293 125.614,257.675 126.096 M237.500 127.522 C 237.198 127.694,237.050 127.835,237.171 127.835 C 237.292 127.835,237.637 127.694,237.939 127.522 C 238.240 127.350,238.388 127.209,238.268 127.209 C 238.147 127.209,237.802 127.350,237.500 127.522 M259.229 128.056 C 259.641 128.591,261.035 130.367,262.327 132.002 C 263.619 133.638,264.716 135.174,264.765 135.416 C 264.852 135.854,264.853 135.854,264.879 135.417 C 264.902 135.020,260.097 128.635,258.936 127.522 C 258.685 127.281,258.816 127.521,259.229 128.056 M298.949 145.742 C 299.225 146.235,299.629 146.877,299.845 147.168 C 300.062 147.459,300.012 147.294,299.736 146.801 C 299.459 146.309,299.055 145.667,298.839 145.376 C 298.623 145.085,298.672 145.250,298.949 145.742 M281.509 148.146 C 280.993 149.226,281.066 149.410,281.604 148.389 C 281.849 147.926,282.010 147.508,281.963 147.460 C 281.916 147.413,281.711 147.721,281.509 148.146 M227.741 148.246 C 227.658 148.625,227.636 148.981,227.691 149.036 C 227.747 149.092,227.856 148.823,227.933 148.438 C 228.116 147.523,227.939 147.346,227.741 148.246 M300.849 148.794 C 300.967 149.035,301.225 149.430,301.421 149.671 L 301.779 150.110 301.563 149.671 C 301.445 149.430,301.187 149.035,300.991 148.794 L 300.634 148.355 300.849 148.794 M302.088 150.782 C 302.292 151.152,302.654 151.695,302.893 151.988 L 303.326 152.522 302.955 151.850 C 302.751 151.480,302.390 150.937,302.151 150.643 L 301.718 150.110 302.088 150.782 M230.482 151.169 C 230.482 151.230,230.877 151.592,231.360 151.974 C 231.842 152.356,232.237 152.619,232.237 152.559 C 232.237 152.498,231.842 152.136,231.360 151.754 C 230.877 151.372,230.482 151.109,230.482 151.169 M232.456 152.704 C 232.456 152.765,232.851 153.127,233.333 153.509 C 233.816 153.891,234.211 154.154,234.211 154.094 C 234.211 154.034,233.816 153.672,233.333 153.289 C 232.851 152.907,232.456 152.644,232.456 152.704 M303.481 152.961 C 303.599 153.202,303.857 153.596,304.053 153.838 L 304.410 154.276 304.195 153.838 C 304.076 153.596,303.819 153.202,303.622 152.961 L 303.265 152.522 303.481 152.961 M279.496 154.167 C 279.683 154.529,279.885 154.825,279.945 154.825 C 280.006 154.825,279.902 154.529,279.715 154.167 C 279.528 153.805,279.325 153.509,279.265 153.509 C 279.205 153.509,279.308 153.805,279.496 154.167 M252.741 154.386 C 252.465 154.505,252.424 154.574,252.632 154.574 C 252.813 154.574,253.158 154.490,253.399 154.386 C 253.676 154.267,253.716 154.197,253.509 154.197 C 253.328 154.197,252.982 154.282,252.741 154.386 M304.838 155.127 C 305.262 155.853,305.293 156.045,305.055 156.443 C 304.793 156.878,304.800 156.885,305.152 156.549 C 305.581 156.138,305.479 155.641,304.799 154.825 C 304.386 154.328,304.389 154.356,304.838 155.127 M280.592 156.140 C 280.779 156.502,280.982 156.798,281.042 156.798 C 281.102 156.798,280.999 156.502,280.811 156.140 C 280.624 155.779,280.422 155.482,280.362 155.482 C 280.301 155.482,280.405 155.779,280.592 156.140 M237.579 156.748 C 237.752 157.029,239.035 157.978,239.035 157.826 C 239.035 157.772,238.673 157.451,238.230 157.113 C 237.787 156.776,237.494 156.611,237.579 156.748 M303.712 158.279 C 303.191 158.972,302.913 159.421,303.093 159.275 C 303.462 158.977,304.905 157.018,304.755 157.018 C 304.702 157.018,304.232 157.585,303.712 158.279 M301.738 160.910 C 301.218 161.604,300.939 162.052,301.119 161.907 C 301.488 161.609,302.931 159.649,302.781 159.649 C 302.728 159.649,302.258 160.217,301.738 160.910 M283.662 161.842 C 283.968 162.445,284.267 162.939,284.328 162.939 C 284.388 162.939,284.187 162.445,283.882 161.842 C 283.576 161.239,283.277 160.746,283.216 160.746 C 283.156 160.746,283.357 161.239,283.662 161.842 M299.623 163.697 C 299.491 163.934,298.902 164.036,297.365 164.090 L 295.285 164.163 297.416 164.209 C 299.347 164.250,299.568 164.213,299.781 163.816 C 300.047 163.318,299.899 163.205,299.623 163.697 M285.033 163.751 C 285.304 163.804,285.748 163.804,286.020 163.751 C 286.291 163.699,286.069 163.656,285.526 163.656 C 284.984 163.656,284.762 163.699,285.033 163.751 M290.296 163.976 C 290.809 164.023,291.647 164.023,292.160 163.976 C 292.673 163.930,292.253 163.892,291.228 163.892 C 290.203 163.892,289.783 163.930,290.296 163.976 M257.566 170.614 C 257.807 170.718,258.152 170.803,258.333 170.803 C 258.541 170.803,258.500 170.733,258.224 170.614 C 257.982 170.510,257.637 170.426,257.456 170.426 C 257.249 170.426,257.289 170.495,257.566 170.614 M252.303 172.588 C 251.746 173.311,251.339 173.904,251.400 173.904 C 251.460 173.904,251.965 173.311,252.522 172.588 C 253.079 171.864,253.485 171.272,253.425 171.272 C 253.364 171.272,252.859 171.864,252.303 172.588 M250.741 174.616 C 250.062 175.390,249.716 175.877,249.845 175.877 C 249.910 175.877,250.276 175.482,250.658 175.000 C 251.401 174.062,251.458 173.798,250.741 174.616 M248.904 176.974 C 248.521 177.456,248.258 177.851,248.318 177.851 C 248.379 177.851,248.741 177.456,249.123 176.974 C 249.505 176.491,249.768 176.096,249.708 176.096 C 249.648 176.096,249.286 176.491,248.904 176.974 M274.796 176.864 C 274.796 176.985,274.937 177.330,275.110 177.632 C 275.282 177.933,275.423 178.081,275.423 177.961 C 275.423 177.840,275.282 177.495,275.110 177.193 C 274.937 176.891,274.796 176.743,274.796 176.864 M275.893 179.276 C 275.893 179.397,276.034 179.742,276.206 180.044 C 276.379 180.345,276.520 180.493,276.520 180.373 C 276.520 180.252,276.379 179.907,276.206 179.605 C 276.034 179.304,275.893 179.156,275.893 179.276 M245.833 180.921 C 245.451 181.403,245.189 181.921,245.249 182.072 C 245.332 182.277,245.364 182.271,245.377 182.049 C 245.387 181.886,245.699 181.367,246.071 180.898 C 246.443 180.428,246.698 180.044,246.638 180.044 C 246.577 180.044,246.215 180.439,245.833 180.921 M307.375 180.976 L 306.981 181.689 307.433 181.140 C 307.834 180.654,308.012 180.263,307.832 180.263 C 307.798 180.263,307.592 180.584,307.375 180.976 M276.553 180.811 C 276.553 180.932,276.743 181.376,276.974 181.798 C 277.205 182.220,277.394 182.467,277.394 182.346 C 277.394 182.226,277.205 181.782,276.974 181.360 C 276.743 180.938,276.553 180.691,276.553 180.811 M323.480 181.689 C 323.480 181.809,323.621 182.155,323.794 182.456 C 323.966 182.758,324.107 182.906,324.107 182.785 C 324.107 182.664,323.966 182.319,323.794 182.018 C 323.621 181.716,323.480 181.568,323.480 181.689 M245.645 183.333 C 245.645 183.514,245.730 183.860,245.833 184.101 C 245.952 184.377,246.022 184.418,246.022 184.211 C 246.022 184.030,245.937 183.684,245.833 183.443 C 245.715 183.167,245.645 183.126,245.645 183.333 M277.647 183.224 C 277.647 183.344,277.788 183.690,277.961 183.991 C 278.133 184.293,278.274 184.441,278.274 184.320 C 278.274 184.200,278.133 183.854,277.961 183.553 C 277.788 183.251,277.647 183.103,277.647 183.224 M278.527 185.197 C 278.527 185.318,278.716 185.762,278.947 186.184 C 279.178 186.606,279.368 186.853,279.368 186.732 C 279.368 186.612,279.178 186.168,278.947 185.746 C 278.716 185.323,278.527 185.077,278.527 185.197 M279.621 187.610 C 279.621 187.730,279.762 188.076,279.934 188.377 C 280.107 188.679,280.248 188.827,280.248 188.706 C 280.248 188.586,280.107 188.240,279.934 187.939 C 279.762 187.637,279.621 187.489,279.621 187.610 M326.112 187.829 C 326.112 187.950,326.253 188.295,326.425 188.596 C 326.598 188.898,326.739 189.046,326.739 188.925 C 326.739 188.805,326.598 188.459,326.425 188.158 C 326.253 187.856,326.112 187.708,326.112 187.829 M326.316 190.132 C 326.070 190.614,325.918 191.009,325.978 191.009 C 326.038 191.009,326.289 190.614,326.535 190.132 C 326.781 189.649,326.933 189.254,326.873 189.254 C 326.813 189.254,326.562 189.649,326.316 190.132 M280.501 189.583 C 280.501 189.704,280.690 190.148,280.921 190.570 C 281.152 190.992,281.341 191.239,281.341 191.118 C 281.341 190.998,281.152 190.554,280.921 190.132 C 280.690 189.709,280.501 189.463,280.501 189.583 M325.110 192.325 C 324.804 192.928,324.603 193.421,324.664 193.421 C 324.724 193.421,325.023 192.928,325.329 192.325 C 325.635 191.721,325.835 191.228,325.775 191.228 C 325.715 191.228,325.415 191.721,325.110 192.325 M281.375 191.557 C 281.375 191.678,281.516 192.023,281.689 192.325 C 281.861 192.626,282.002 192.774,282.002 192.654 C 282.002 192.533,281.861 192.188,281.689 191.886 C 281.516 191.584,281.375 191.436,281.375 191.557 M301.530 193.195 C 301.785 193.553,302.106 193.916,302.243 194.000 C 302.380 194.085,302.216 193.792,301.878 193.349 C 301.145 192.388,300.868 192.266,301.530 193.195 M323.794 194.737 C 323.607 195.099,323.503 195.395,323.563 195.395 C 323.624 195.395,323.826 195.099,324.013 194.737 C 324.200 194.375,324.304 194.079,324.244 194.079 C 324.183 194.079,323.981 194.375,323.794 194.737 M302.831 194.919 C 302.949 195.140,303.220 195.461,303.433 195.632 C 303.708 195.853,303.675 195.736,303.321 195.230 C 302.779 194.458,302.484 194.270,302.831 194.919 M281.305 196.722 C 280.370 197.452,279.605 198.097,279.605 198.156 C 279.605 198.215,280.395 197.651,281.360 196.903 C 282.914 195.698,283.258 195.393,283.059 195.395 C 283.029 195.396,282.240 195.993,281.305 196.722 M322.302 197.481 C 322.101 197.901,321.982 198.246,322.037 198.246 C 322.187 198.246,322.853 196.903,322.753 196.803 C 322.705 196.755,322.502 197.060,322.302 197.481 M305.373 198.246 C 305.930 198.969,306.435 199.561,306.495 199.561 C 306.555 199.561,306.149 198.969,305.592 198.246 C 305.035 197.522,304.530 196.930,304.470 196.930 C 304.410 196.930,304.816 197.522,305.373 198.246 M321.371 199.109 C 321.256 199.222,320.718 199.353,320.175 199.400 L 319.189 199.485 320.316 199.523 C 321.143 199.551,321.478 199.473,321.571 199.232 C 321.716 198.852,321.664 198.820,321.371 199.109 M313.877 199.723 C 314.454 199.768,315.342 199.768,315.851 199.722 C 316.360 199.676,315.888 199.639,314.803 199.639 C 313.717 199.640,313.301 199.678,313.877 199.723 M308.065 199.942 C 308.581 199.988,309.370 199.987,309.819 199.940 C 310.269 199.893,309.846 199.855,308.882 199.856 C 307.917 199.857,307.549 199.895,308.065 199.942 M274.930 201.738 C 273.126 203.231,272.881 203.559,274.507 202.307 C 275.722 201.371,276.523 200.635,276.288 200.670 C 276.243 200.677,275.632 201.158,274.930 201.738 M270.724 205.068 C 269.054 206.416,268.786 206.791,270.354 205.584 C 271.565 204.652,272.113 204.149,271.888 204.174 C 271.851 204.179,271.327 204.581,270.724 205.068 M306.971 212.443 C 307.730 212.486,308.914 212.486,309.603 212.443 C 310.292 212.399,309.671 212.364,308.224 212.364 C 306.776 212.365,306.213 212.400,306.971 212.443 M300.391 212.662 C 301.028 212.706,302.015 212.706,302.584 212.661 C 303.153 212.616,302.632 212.580,301.425 212.580 C 300.219 212.581,299.754 212.617,300.391 212.662 M294.134 212.881 C 294.827 212.925,295.962 212.925,296.656 212.881 C 297.349 212.838,296.782 212.802,295.395 212.802 C 294.008 212.802,293.440 212.838,294.134 212.881 M289.973 213.213 C 289.556 213.752,289.443 214.136,289.838 213.671 C 290.060 213.410,290.439 213.151,290.680 213.093 C 291.095 212.995,291.094 212.988,290.652 212.964 C 290.395 212.950,290.090 213.062,289.973 213.213 M313.034 213.669 C 313.372 214.111,313.693 214.474,313.747 214.474 C 313.899 214.474,312.950 213.191,312.669 213.017 C 312.532 212.933,312.697 213.226,313.034 213.669 M314.350 215.423 C 314.688 215.866,315.009 216.228,315.063 216.228 C 315.215 216.228,314.266 214.945,313.985 214.772 C 313.848 214.687,314.013 214.980,314.350 215.423 M288.048 216.667 C 287.861 217.029,287.757 217.325,287.818 217.325 C 287.878 217.325,288.080 217.029,288.268 216.667 C 288.455 216.305,288.558 216.009,288.498 216.009 C 288.438 216.009,288.235 216.305,288.048 216.667 M316.118 217.763 C 316.675 218.487,317.180 219.079,317.241 219.079 C 317.301 219.079,316.895 218.487,316.338 217.763 C 315.781 217.039,315.276 216.447,315.216 216.447 C 315.155 216.447,315.562 217.039,316.118 217.763 M286.952 218.640 C 286.765 219.002,286.661 219.298,286.721 219.298 C 286.781 219.298,286.984 219.002,287.171 218.640 C 287.358 218.279,287.462 217.982,287.402 217.982 C 287.341 217.982,287.139 218.279,286.952 218.640 M285.526 221.272 C 285.280 221.754,285.128 222.149,285.188 222.149 C 285.249 222.149,285.499 221.754,285.746 221.272 C 285.992 220.789,286.144 220.395,286.083 220.395 C 286.023 220.395,285.772 220.789,285.526 221.272 M284.101 223.904 C 283.914 224.265,283.810 224.561,283.870 224.561 C 283.931 224.561,284.133 224.265,284.320 223.904 C 284.507 223.542,284.611 223.246,284.551 223.246 C 284.490 223.246,284.288 223.542,284.101 223.904 M320.918 224.054 C 321.146 224.329,321.245 224.657,321.152 224.822 C 321.020 225.054,321.046 225.057,321.286 224.833 C 321.534 224.602,321.496 224.475,321.052 224.066 C 320.532 223.585,320.529 223.585,320.918 224.054 M317.627 230.318 C 316.873 231.599,316.823 231.708,317.208 231.250 C 317.653 230.719,318.037 230.044,317.893 230.044 C 317.836 230.044,317.716 230.167,317.627 230.318 M283.568 232.566 C 283.568 232.686,283.709 233.032,283.882 233.333 C 284.054 233.635,284.195 233.783,284.195 233.662 C 284.195 233.542,284.054 233.196,283.882 232.895 C 283.709 232.593,283.568 232.445,283.568 232.566 M314.996 234.485 C 314.241 235.765,314.192 235.875,314.576 235.417 C 315.022 234.886,315.406 234.211,315.262 234.211 C 315.204 234.211,315.085 234.334,314.996 234.485 M313.899 236.239 C 313.145 237.520,313.095 237.629,313.480 237.171 C 313.925 236.640,314.309 235.965,314.165 235.965 C 314.108 235.965,313.988 236.088,313.899 236.239 M285.542 237.171 C 285.542 237.292,285.683 237.637,285.855 237.939 C 286.028 238.240,286.169 238.388,286.169 238.268 C 286.169 238.147,286.028 237.802,285.855 237.500 C 285.683 237.198,285.542 237.050,285.542 237.171 M312.803 237.993 C 312.048 239.274,311.999 239.383,312.383 238.925 C 312.829 238.395,313.213 237.719,313.069 237.719 C 313.011 237.719,312.892 237.843,312.803 237.993 M311.268 240.406 C 310.513 241.686,310.464 241.796,310.848 241.338 C 311.294 240.807,311.678 240.132,311.534 240.132 C 311.476 240.132,311.357 240.255,311.268 240.406 M288.871 244.956 C 288.925 245.159,289.248 245.297,289.710 245.316 C 290.398 245.344,290.405 245.338,289.803 245.241 C 289.442 245.183,289.064 245.021,288.964 244.882 C 288.841 244.710,288.811 244.734,288.871 244.956 " stroke="none" fill="#a59d87" fill-rule="evenodd"></path><path id="path4" d="M190.658 127.029 C 190.571 127.179,190.584 127.226,190.687 127.133 C 190.789 127.039,191.372 127.434,191.983 128.010 L 193.092 129.057 192.004 127.906 C 190.773 126.603,190.867 126.665,190.658 127.029 M196.302 132.662 C 198.155 134.645,200.547 137.162,201.618 138.254 C 202.689 139.347,202.245 138.820,200.631 137.084 C 199.018 135.347,196.625 132.831,195.315 131.492 C 194.005 130.153,194.449 130.679,196.302 132.662 M203.902 140.680 C 204.031 140.921,204.905 141.859,205.846 142.763 L 207.555 144.408 205.702 142.434 C 204.683 141.349,203.808 140.411,203.759 140.351 C 203.709 140.291,203.774 140.439,203.902 140.680 M209.868 147.039 C 210.524 147.703,211.109 148.246,211.169 148.246 C 211.230 148.246,210.743 147.703,210.088 147.039 C 209.433 146.376,208.847 145.833,208.787 145.833 C 208.727 145.833,209.213 146.376,209.868 147.039 M212.829 150.219 C 213.545 150.943,214.180 151.535,214.241 151.535 C 214.301 151.535,213.764 150.943,213.048 150.219 C 212.332 149.496,211.697 148.904,211.637 148.904 C 211.576 148.904,212.113 149.496,212.829 150.219 M214.086 153.509 C 214.086 153.931,214.131 154.104,214.186 153.893 C 214.241 153.681,214.241 153.336,214.186 153.125 C 214.131 152.914,214.086 153.087,214.086 153.509 M213.867 155.702 C 213.867 156.124,213.912 156.297,213.967 156.086 C 214.022 155.874,214.022 155.529,213.967 155.318 C 213.912 155.107,213.867 155.280,213.867 155.702 M213.652 158.004 C 213.654 158.487,213.699 158.658,213.752 158.386 C 213.804 158.113,213.802 157.718,213.747 157.508 C 213.692 157.299,213.649 157.522,213.652 158.004 M213.432 160.197 C 213.435 160.680,213.480 160.851,213.532 160.579 C 213.585 160.306,213.583 159.911,213.528 159.701 C 213.473 159.492,213.430 159.715,213.432 160.197 M213.209 162.281 C 213.209 162.703,213.254 162.876,213.309 162.664 C 213.364 162.453,213.364 162.108,213.309 161.897 C 213.254 161.686,213.209 161.859,213.209 162.281 M212.994 164.583 C 212.996 165.066,213.041 165.237,213.094 164.965 C 213.146 164.692,213.144 164.297,213.089 164.087 C 213.034 163.878,212.991 164.101,212.994 164.583 M212.775 166.776 C 212.777 167.259,212.822 167.430,212.874 167.158 C 212.927 166.885,212.925 166.490,212.870 166.280 C 212.815 166.071,212.772 166.294,212.775 166.776 M212.555 168.969 C 212.558 169.452,212.603 169.623,212.655 169.351 C 212.708 169.078,212.706 168.683,212.651 168.473 C 212.596 168.264,212.553 168.487,212.555 168.969 M179.073 169.424 C 178.992 169.745,178.968 170.050,179.020 170.102 C 179.072 170.154,179.180 169.933,179.261 169.612 C 179.341 169.290,179.365 168.985,179.313 168.933 C 179.262 168.882,179.153 169.102,179.073 169.424 M212.336 171.162 C 212.338 171.645,212.383 171.816,212.436 171.543 C 212.488 171.271,212.486 170.876,212.431 170.666 C 212.376 170.457,212.334 170.680,212.336 171.162 M212.112 173.246 C 212.112 173.668,212.157 173.840,212.213 173.629 C 212.268 173.418,212.268 173.073,212.213 172.862 C 212.157 172.651,212.112 172.823,212.112 173.246 M211.897 175.548 C 211.900 176.031,211.945 176.202,211.997 175.929 C 212.050 175.657,212.048 175.262,211.993 175.052 C 211.938 174.843,211.895 175.066,211.897 175.548 M176.880 177.538 C 176.799 177.859,176.775 178.164,176.827 178.216 C 176.879 178.268,176.987 178.047,177.068 177.726 C 177.148 177.404,177.172 177.099,177.120 177.047 C 177.069 176.996,176.960 177.216,176.880 177.538 M211.697 177.620 C 211.727 178.079,213.158 179.296,213.158 178.864 C 213.158 178.795,212.869 178.590,212.516 178.407 C 212.162 178.224,211.825 177.852,211.767 177.579 C 211.669 177.124,211.664 177.128,211.697 177.620 M175.985 180.559 C 175.632 180.962,165.361 192.096,164.172 193.366 C 163.579 193.999,163.149 194.518,163.215 194.518 C 163.386 194.518,176.371 180.464,176.280 180.378 C 176.239 180.339,176.107 180.421,175.985 180.559 M215.570 180.362 C 215.570 180.422,215.866 180.624,216.228 180.811 C 216.590 180.999,216.886 181.102,216.886 181.042 C 216.886 180.982,216.590 180.779,216.228 180.592 C 215.866 180.405,215.570 180.301,215.570 180.362 M226.096 186.603 C 226.398 186.850,226.743 187.052,226.864 187.053 C 227.099 187.055,226.702 186.751,225.987 186.381 C 225.696 186.231,225.732 186.305,226.096 186.603 M227.025 187.939 C 227.025 188.361,227.070 188.533,227.125 188.322 C 227.180 188.111,227.180 187.766,227.125 187.555 C 227.070 187.344,227.025 187.516,227.025 187.939 M227.248 190.022 C 227.251 190.504,227.296 190.676,227.348 190.403 C 227.401 190.130,227.399 189.736,227.344 189.526 C 227.289 189.316,227.246 189.539,227.248 190.022 M227.468 192.434 C 227.470 192.917,227.515 193.088,227.567 192.815 C 227.620 192.543,227.618 192.148,227.563 191.938 C 227.508 191.729,227.465 191.952,227.468 192.434 M227.687 194.627 C 227.689 195.110,227.734 195.281,227.787 195.008 C 227.839 194.736,227.837 194.341,227.782 194.131 C 227.727 193.922,227.684 194.145,227.687 194.627 M161.615 196.217 L 160.417 197.478 161.678 196.279 C 162.849 195.166,163.039 194.956,162.876 194.956 C 162.842 194.956,162.275 195.524,161.615 196.217 M227.902 196.930 C 227.902 197.352,227.947 197.525,228.002 197.314 C 228.057 197.103,228.057 196.757,228.002 196.546 C 227.947 196.335,227.902 196.508,227.902 196.930 M157.339 200.822 C 156.152 202.119,154.523 203.846,153.719 204.660 C 152.915 205.474,152.331 206.140,152.422 206.140 C 152.585 206.140,153.719 204.977,156.694 201.754 C 157.529 200.850,158.556 199.740,158.975 199.287 C 159.395 198.835,159.684 198.465,159.618 198.465 C 159.551 198.465,158.526 199.526,157.339 200.822 M228.121 199.123 C 228.121 199.545,228.166 199.718,228.221 199.507 C 228.277 199.296,228.277 198.950,228.221 198.739 C 228.166 198.528,228.121 198.701,228.121 199.123 M228.349 201.316 C 228.349 201.859,228.392 202.081,228.444 201.809 C 228.497 201.538,228.497 201.094,228.444 200.822 C 228.392 200.551,228.349 200.773,228.349 201.316 M228.560 203.509 C 228.560 203.931,228.605 204.104,228.660 203.893 C 228.715 203.681,228.715 203.336,228.660 203.125 C 228.605 202.914,228.560 203.087,228.560 203.509 M144.956 208.443 C 144.534 208.606,144.337 208.742,144.518 208.745 C 144.698 208.749,145.143 208.617,145.504 208.451 C 146.351 208.063,145.957 208.057,144.956 208.443 M140.173 210.018 C 139.653 210.202,139.266 210.391,139.313 210.439 C 139.413 210.539,141.447 209.871,141.447 209.738 C 141.447 209.601,141.198 209.656,140.173 210.018 M138.728 212.522 C 138.648 213.025,138.625 213.479,138.677 213.531 C 138.729 213.583,138.841 213.218,138.925 212.719 C 139.010 212.221,139.033 211.767,138.976 211.710 C 138.920 211.654,138.808 212.019,138.728 212.522 M136.974 221.294 C 136.893 221.796,136.870 222.250,136.923 222.303 C 136.975 222.355,137.087 221.990,137.171 221.491 C 137.255 220.993,137.278 220.538,137.222 220.482 C 137.166 220.426,137.054 220.791,136.974 221.294 M246.936 233.812 C 246.930 234.180,247.724 234.586,247.970 234.340 C 248.041 234.269,247.940 234.211,247.745 234.211 C 247.550 234.211,247.290 234.038,247.167 233.827 C 246.963 233.477,246.943 233.475,246.936 233.812 M131.140 234.868 C 130.700 235.010,130.678 235.045,131.031 235.050 C 131.272 235.054,131.667 234.972,131.908 234.868 C 132.467 234.628,131.890 234.628,131.140 234.868 M117.731 238.761 C 117.340 239.334,117.193 239.662,117.406 239.490 C 117.618 239.318,117.933 238.905,118.104 238.573 C 118.276 238.241,118.639 237.927,118.912 237.874 L 119.408 237.779 118.925 237.749 C 118.578 237.728,118.242 238.013,117.731 238.761 M262.884 237.945 C 263.155 238.055,263.378 238.221,263.378 238.315 C 263.379 238.410,263.633 238.783,263.942 239.145 C 264.387 239.665,264.362 239.585,263.821 238.761 C 263.432 238.169,262.976 237.725,262.764 237.733 C 262.490 237.743,262.522 237.800,262.884 237.945 M115.582 241.886 C 114.839 242.971,114.282 243.860,114.345 243.860 C 114.409 243.860,114.981 243.098,115.618 242.168 C 117.041 240.088,117.152 239.912,117.030 239.912 C 116.977 239.912,116.326 240.800,115.582 241.886 M265.789 241.886 C 266.047 242.248,266.307 242.544,266.368 242.544 C 266.428 242.544,266.266 242.248,266.009 241.886 C 265.751 241.524,265.491 241.228,265.431 241.228 C 265.370 241.228,265.532 241.524,265.789 241.886 M112.939 245.724 C 112.565 246.266,112.309 246.711,112.369 246.711 C 112.430 246.711,112.784 246.266,113.158 245.724 C 113.531 245.181,113.788 244.737,113.727 244.737 C 113.667 244.737,113.312 245.181,112.939 245.724 M268.421 245.724 C 268.794 246.266,269.149 246.711,269.210 246.711 C 269.270 246.711,269.014 246.266,268.640 245.724 C 268.267 245.181,267.912 244.737,267.852 244.737 C 267.791 244.737,268.048 245.181,268.421 245.724 M270.614 248.904 C 270.872 249.265,271.132 249.561,271.192 249.561 C 271.252 249.561,271.091 249.265,270.833 248.904 C 270.576 248.542,270.316 248.246,270.255 248.246 C 270.195 248.246,270.356 248.542,270.614 248.904 M110.307 249.561 C 110.049 249.923,109.888 250.219,109.948 250.219 C 110.009 250.219,110.269 249.923,110.526 249.561 C 110.784 249.200,110.945 248.904,110.885 248.904 C 110.825 248.904,110.565 249.200,110.307 249.561 M108.553 252.083 C 107.942 252.988,107.492 253.728,107.552 253.728 C 107.613 253.728,108.162 252.988,108.772 252.083 C 109.382 251.179,109.832 250.439,109.772 250.439 C 109.712 250.439,109.163 251.179,108.553 252.083 M273.026 252.412 C 273.284 252.774,273.544 253.070,273.604 253.070 C 273.665 253.070,273.503 252.774,273.246 252.412 C 272.988 252.050,272.728 251.754,272.668 251.754 C 272.607 251.754,272.769 252.050,273.026 252.412 M275.000 255.263 C 275.491 255.987,275.943 256.579,276.003 256.579 C 276.063 256.579,275.711 255.987,275.219 255.263 C 274.728 254.539,274.276 253.947,274.216 253.947 C 274.156 253.947,274.509 254.539,275.000 255.263 M105.921 255.921 C 105.430 256.645,105.077 257.237,105.137 257.237 C 105.197 257.237,105.649 256.645,106.140 255.921 C 106.632 255.197,106.985 254.605,106.924 254.605 C 106.864 254.605,106.412 255.197,105.921 255.921 M277.412 258.772 C 277.904 259.496,278.355 260.088,278.415 260.088 C 278.476 260.088,278.123 259.496,277.632 258.772 C 277.140 258.048,276.689 257.456,276.628 257.456 C 276.568 257.456,276.921 258.048,277.412 258.772 M103.024 260.143 C 101.858 261.811,101.702 262.061,101.824 262.061 C 101.876 262.061,102.431 261.321,103.056 260.417 C 103.681 259.512,104.145 258.772,104.087 258.772 C 104.029 258.772,103.550 259.389,103.024 260.143 M100.877 263.268 C 100.504 263.810,100.248 264.254,100.308 264.254 C 100.368 264.254,100.723 263.810,101.096 263.268 C 101.470 262.725,101.726 262.281,101.666 262.281 C 101.606 262.281,101.251 262.725,100.877 263.268 M282.237 265.789 C 282.728 266.513,283.180 267.105,283.240 267.105 C 283.300 267.105,282.948 266.513,282.456 265.789 C 281.965 265.066,281.513 264.474,281.453 264.474 C 281.393 264.474,281.745 265.066,282.237 265.789 M98.684 266.447 C 98.427 266.809,98.265 267.105,98.325 267.105 C 98.386 267.105,98.646 266.809,98.904 266.447 C 99.161 266.086,99.323 265.789,99.262 265.789 C 99.202 265.789,98.942 266.086,98.684 266.447 M96.711 269.298 C 96.219 270.022,95.866 270.614,95.927 270.614 C 95.987 270.614,96.438 270.022,96.930 269.298 C 97.421 268.575,97.774 267.982,97.714 267.982 C 97.653 267.982,97.202 268.575,96.711 269.298 M284.649 269.298 C 285.141 270.022,285.592 270.614,285.652 270.614 C 285.713 270.614,285.360 270.022,284.868 269.298 C 284.377 268.575,283.926 267.982,283.865 267.982 C 283.805 267.982,284.158 268.575,284.649 269.298 M94.495 272.533 C 94.109 273.106,93.594 273.797,93.350 274.068 C 93.106 274.339,93.007 274.561,93.131 274.561 C 93.255 274.561,93.816 273.871,94.377 273.026 C 94.939 272.182,95.353 271.491,95.297 271.491 C 95.242 271.491,94.881 271.960,94.495 272.533 M287.061 272.807 C 287.553 273.531,288.004 274.123,288.065 274.123 C 288.125 274.123,287.772 273.531,287.281 272.807 C 286.789 272.083,286.338 271.491,286.278 271.491 C 286.217 271.491,286.570 272.083,287.061 272.807 M74.097 275.413 C 73.629 275.881,73.246 276.399,73.246 276.564 C 73.247 276.729,73.443 276.542,73.683 276.149 C 73.923 275.756,74.440 275.238,74.834 274.999 C 75.227 274.759,75.413 274.563,75.248 274.562 C 75.083 274.562,74.565 274.945,74.097 275.413 M307.426 275.135 C 307.705 275.330,308.121 275.799,308.351 276.177 C 308.582 276.555,308.771 276.744,308.771 276.598 C 308.772 276.244,307.478 274.781,307.165 274.781 C 307.030 274.781,307.148 274.940,307.426 275.135 M308.086 279.312 C 307.921 279.512,307.489 279.857,307.127 280.079 C 306.753 280.307,306.616 280.481,306.810 280.482 C 306.997 280.482,307.486 280.137,307.895 279.715 C 308.304 279.293,308.582 278.947,308.513 278.947 C 308.444 278.947,308.252 279.111,308.086 279.312 M133.296 280.647 C 165.058 280.678,216.966 280.678,248.647 280.647 C 280.329 280.616,254.342 280.591,190.899 280.591 C 127.456 280.591,101.535 280.616,133.296 280.647 " stroke="none" fill="#859087" fill-rule="evenodd"></path></g></svg>