<svg id="svg" version="1.1" xmlns="http://www.w3.org/2000/svg" xmlns:xlink="http://www.w3.org/1999/xlink" width="400" height="400" viewBox="0, 0, 400,400"><g id="svgg"><path id="path0" d="M149.200 78.038 C 148.210 78.231,146.230 78.593,144.800 78.842 C 140.461 79.598,133.788 81.547,130.600 82.991 C 129.940 83.290,128.590 83.848,127.600 84.230 C 126.610 84.613,125.620 85.061,125.400 85.225 C 125.180 85.389,123.920 86.107,122.600 86.819 C 110.485 93.360,101.530 104.659,99.985 115.358 C 99.564 118.273,99.389 118.451,97.400 117.990 C 80.568 114.088,63.428 132.210,68.790 148.238 C 69.897 151.548,69.846 152.331,68.500 152.625 C 67.895 152.757,66.950 153.010,66.400 153.186 C 65.850 153.363,64.590 153.734,63.600 154.011 C 60.429 154.899,58.183 155.678,53.118 157.646 C 24.504 168.760,23.956 199.278,52.200 208.693 C 59.511 211.130,69.869 212.800,77.673 212.800 C 79.929 212.800,80.097 212.876,82.749 215.100 C 91.027 222.043,103.224 225.494,115.551 224.383 C 119.547 224.022,121.808 223.654,127.174 222.490 C 127.710 222.373,130.409 221.500,133.172 220.548 L 138.196 218.818 141.689 222.565 C 154.066 235.839,170.842 239.887,191.200 234.512 C 192.410 234.192,193.940 233.788,194.600 233.613 C 196.323 233.157,199.342 232.082,201.493 231.160 C 202.908 230.553,203.592 230.457,204.374 230.753 C 205.414 231.146,207.671 231.666,211.520 232.397 C 214.277 232.921,222.212 232.914,225.567 232.385 C 241.064 229.940,258.917 217.103,264.918 204.090 C 265.449 202.937,266.460 202.691,269.869 202.882 C 285.074 203.737,307.147 201.036,316.964 197.121 C 327.196 193.039,336.638 182.532,340.436 171.000 C 341.165 168.788,341.569 168.548,345.101 168.237 C 357.909 167.108,365.234 157.694,362.768 145.531 C 359.278 128.317,349.906 119.201,335.700 119.200 C 333.588 119.200,333.212 118.948,334.059 118.101 C 334.315 117.845,334.518 116.430,334.518 114.902 C 334.518 103.017,312.271 88.663,300.800 93.147 C 298.074 94.213,295.383 95.577,294.022 96.582 C 292.465 97.732,292.000 97.842,292.000 97.056 C 292.000 94.663,286.389 87.493,282.453 84.856 C 272.947 78.488,256.994 76.920,247.747 81.443 C 240.119 85.176,235.235 94.717,235.207 105.947 L 235.200 108.893 234.100 108.648 C 231.427 108.051,222.995 107.597,218.600 107.814 L 213.800 108.051 211.030 103.791 C 201.670 89.397,187.989 81.135,168.354 78.020 C 165.216 77.522,151.772 77.535,149.200 78.038 M306.400 212.854 C 306.400 213.323,306.594 214.448,306.832 215.354 C 307.417 217.587,307.872 219.454,308.353 221.600 C 308.575 222.590,309.136 225.020,309.600 227.000 C 310.064 228.980,310.625 231.410,310.847 232.400 C 311.238 234.144,311.412 234.861,312.427 238.900 L 312.904 240.800 319.203 240.800 C 323.767 240.800,325.610 240.938,325.893 241.300 C 326.255 241.763,326.835 242.810,330.547 249.700 C 333.403 255.002,335.356 258.620,337.050 261.749 C 338.019 263.537,339.121 265.675,339.500 266.500 C 340.802 269.335,341.132 268.100,340.061 264.400 C 339.838 263.630,339.270 261.560,338.800 259.800 C 338.330 258.040,337.790 256.060,337.600 255.400 C 337.410 254.740,336.870 252.760,336.400 251.000 C 335.930 249.240,335.390 247.260,335.200 246.600 C 335.010 245.940,334.470 243.960,334.000 242.200 C 333.530 240.440,332.990 238.460,332.800 237.800 C 332.610 237.140,332.103 235.250,331.672 233.600 C 331.240 231.950,330.693 230.105,330.454 229.500 L 330.020 228.400 324.430 228.400 L 318.841 228.400 317.744 226.900 C 317.141 226.075,315.993 224.500,315.193 223.400 C 314.393 222.300,312.942 220.307,311.969 218.972 C 310.996 217.637,309.480 215.530,308.600 214.291 C 306.861 211.842,306.400 211.541,306.400 212.854 M108.800 238.581 C 108.800 238.901,108.960 239.576,109.155 240.081 C 109.350 240.587,109.721 241.990,109.979 243.200 C 110.236 244.410,110.807 246.930,111.246 248.800 C 111.684 250.670,112.225 253.010,112.447 254.000 C 112.669 254.990,113.008 256.430,113.200 257.200 C 113.541 258.566,113.847 259.901,114.852 264.400 C 115.561 267.571,115.630 267.600,122.613 267.600 L 128.673 267.600 129.798 269.700 C 130.417 270.855,131.414 272.700,132.013 273.800 C 132.613 274.900,133.868 277.240,134.802 279.000 C 135.736 280.760,137.084 283.280,137.797 284.600 C 138.510 285.920,139.868 288.440,140.813 290.200 C 143.042 294.348,143.327 294.800,143.720 294.800 C 143.900 294.800,143.928 294.607,143.783 294.372 C 143.637 294.136,143.164 292.561,142.731 290.872 C 142.299 289.182,141.790 287.260,141.600 286.600 C 141.410 285.940,140.870 283.960,140.400 282.200 C 139.930 280.440,139.390 278.460,139.200 277.800 C 139.010 277.140,138.470 275.160,138.000 273.400 C 137.530 271.640,136.990 269.660,136.800 269.000 C 136.610 268.340,136.070 266.360,135.600 264.600 C 135.130 262.840,134.577 260.815,134.372 260.100 C 134.168 259.385,133.838 258.165,133.640 257.389 C 132.992 254.855,132.851 254.800,126.968 254.800 L 121.634 254.800 120.630 253.500 C 120.078 252.785,118.811 251.075,117.813 249.700 C 116.816 248.325,115.235 246.152,114.300 244.872 C 113.365 243.592,111.880 241.530,111.000 240.291 C 109.366 237.990,108.800 237.550,108.800 238.581 " stroke="none" fill="#fbfbfb" fill-rule="evenodd"></path><path id="path1" d="M184.400 3.200 C 184.400 3.440,182.800 3.600,180.400 3.600 C 178.000 3.600,176.400 3.760,176.400 4.000 C 176.400 4.229,175.200 4.400,173.600 4.400 C 172.000 4.400,170.800 4.571,170.800 4.800 C 170.800 5.022,169.733 5.200,168.400 5.200 C 167.067 5.200,166.000 5.378,166.000 5.600 C 166.000 5.822,164.933 6.000,163.600 6.000 C 162.267 6.000,161.200 6.178,161.200 6.400 C 161.200 6.620,160.300 6.800,159.200 6.800 C 158.100 6.800,157.200 6.980,157.200 7.200 C 157.200 7.420,156.480 7.600,155.600 7.600 C 154.720 7.600,154.000 7.780,154.000 8.000 C 154.000 8.220,153.280 8.400,152.400 8.400 C 151.520 8.400,150.800 8.580,150.800 8.800 C 150.800 9.020,150.080 9.200,149.200 9.200 C 148.320 9.200,147.600 9.380,147.600 9.600 C 147.600 9.820,147.060 10.000,146.400 10.000 C 145.740 10.000,145.200 10.180,145.200 10.400 C 145.200 10.620,144.480 10.800,143.600 10.800 C 142.720 10.800,142.000 10.980,142.000 11.200 C 142.000 11.420,141.460 11.600,140.800 11.600 C 140.140 11.600,139.600 11.780,139.600 12.000 C 139.600 12.220,139.060 12.400,138.400 12.400 C 137.740 12.400,137.200 12.580,137.200 12.800 C 137.200 13.020,136.660 13.200,136.000 13.200 C 135.340 13.200,134.800 13.380,134.800 13.600 C 134.800 13.820,134.440 14.000,134.000 14.000 C 133.560 14.000,133.200 14.180,133.200 14.400 C 133.200 14.620,132.660 14.800,132.000 14.800 C 131.340 14.800,130.800 14.980,130.800 15.200 C 130.800 15.420,130.260 15.600,129.600 15.600 C 128.940 15.600,128.400 15.780,128.400 16.000 C 128.400 16.220,128.040 16.400,127.600 16.400 C 127.160 16.400,126.800 16.580,126.800 16.800 C 126.800 17.020,126.260 17.200,125.600 17.200 C 124.940 17.200,124.400 17.380,124.400 17.600 C 124.400 17.820,124.040 18.000,123.600 18.000 C 123.160 18.000,122.800 18.180,122.800 18.400 C 122.800 18.620,122.440 18.800,122.000 18.800 C 121.560 18.800,121.200 18.980,121.200 19.200 C 121.200 19.420,120.660 19.600,120.000 19.600 C 119.340 19.600,118.800 19.780,118.800 20.000 C 118.800 20.220,118.440 20.400,118.000 20.400 C 117.560 20.400,117.200 20.580,117.200 20.800 C 117.200 21.020,116.840 21.200,116.400 21.200 C 115.960 21.200,115.600 21.380,115.600 21.600 C 115.600 21.820,115.240 22.000,114.800 22.000 C 114.360 22.000,114.000 22.180,114.000 22.400 C 114.000 22.620,113.640 22.800,113.200 22.800 C 112.760 22.800,112.400 22.980,112.400 23.200 C 112.400 23.420,112.040 23.600,111.600 23.600 C 111.160 23.600,110.800 23.780,110.800 24.000 C 110.800 24.220,110.440 24.400,110.000 24.400 C 109.560 24.400,109.200 24.580,109.200 24.800 C 109.200 25.020,108.840 25.200,108.400 25.200 C 107.960 25.200,107.600 25.380,107.600 25.600 C 107.600 25.820,107.280 26.000,106.888 26.000 C 106.497 26.000,105.917 26.360,105.600 26.800 C 105.283 27.240,104.703 27.600,104.312 27.600 C 103.920 27.600,103.600 27.780,103.600 28.000 C 103.600 28.220,103.240 28.400,102.800 28.400 C 102.360 28.400,102.000 28.580,102.000 28.800 C 102.000 29.020,101.680 29.200,101.288 29.200 C 100.897 29.200,100.317 29.560,100.000 30.000 C 99.683 30.440,99.103 30.800,98.712 30.800 C 98.320 30.800,98.000 30.980,98.000 31.200 C 98.000 31.420,97.680 31.600,97.288 31.600 C 96.897 31.600,96.317 31.960,96.000 32.400 C 95.683 32.840,95.143 33.200,94.800 33.200 C 94.457 33.200,93.917 33.560,93.600 34.000 C 93.283 34.440,92.743 34.800,92.400 34.800 C 92.057 34.800,91.517 35.160,91.200 35.600 C 90.883 36.040,90.343 36.400,90.000 36.400 C 89.657 36.400,89.117 36.760,88.800 37.200 C 88.483 37.640,87.943 38.000,87.600 38.000 C 87.257 38.000,86.717 38.360,86.400 38.800 C 86.083 39.240,85.575 39.600,85.272 39.600 C 84.969 39.600,84.217 40.140,83.600 40.800 C 82.983 41.460,82.267 42.000,82.008 42.000 C 81.749 42.000,80.846 42.720,80.000 43.600 C 79.154 44.480,78.254 45.200,78.000 45.200 C 77.746 45.200,76.846 45.920,76.000 46.800 C 75.154 47.680,74.260 48.400,74.012 48.400 C 73.764 48.400,72.319 49.660,70.800 51.200 C 69.281 52.740,67.848 54.000,67.616 54.000 C 67.064 54.000,55.600 65.464,55.600 66.016 C 55.600 66.248,54.340 67.681,52.800 69.200 C 51.260 70.719,50.000 72.162,50.000 72.407 C 50.000 72.652,49.100 73.729,48.000 74.800 C 46.900 75.871,46.000 76.958,46.000 77.214 C 46.000 77.470,45.460 78.183,44.800 78.800 C 44.140 79.417,43.600 80.137,43.600 80.400 C 43.600 80.663,43.060 81.383,42.400 82.000 C 41.740 82.617,41.200 83.337,41.200 83.600 C 41.200 83.863,40.660 84.583,40.000 85.200 C 39.340 85.817,38.800 86.569,38.800 86.872 C 38.800 87.175,38.440 87.683,38.000 88.000 C 37.560 88.317,37.200 88.857,37.200 89.200 C 37.200 89.543,36.840 90.083,36.400 90.400 C 35.960 90.717,35.600 91.257,35.600 91.600 C 35.600 91.943,35.240 92.483,34.800 92.800 C 34.360 93.117,34.000 93.697,34.000 94.088 C 34.000 94.480,33.820 94.800,33.600 94.800 C 33.380 94.800,33.200 95.120,33.200 95.512 C 33.200 95.903,32.840 96.483,32.400 96.800 C 31.960 97.117,31.600 97.697,31.600 98.088 C 31.600 98.480,31.420 98.800,31.200 98.800 C 30.980 98.800,30.800 99.120,30.800 99.512 C 30.800 99.903,30.440 100.483,30.000 100.800 C 29.560 101.117,29.200 101.697,29.200 102.088 C 29.200 102.480,29.020 102.800,28.800 102.800 C 28.580 102.800,28.400 103.160,28.400 103.600 C 28.400 104.040,28.220 104.400,28.000 104.400 C 27.780 104.400,27.600 104.760,27.600 105.200 C 27.600 105.640,27.420 106.000,27.200 106.000 C 26.980 106.000,26.800 106.320,26.800 106.712 C 26.800 107.103,26.440 107.683,26.000 108.000 C 25.560 108.317,25.200 108.897,25.200 109.288 C 25.200 109.680,25.020 110.000,24.800 110.000 C 24.580 110.000,24.400 110.360,24.400 110.800 C 24.400 111.240,24.220 111.600,24.000 111.600 C 23.780 111.600,23.600 111.960,23.600 112.400 C 23.600 112.840,23.420 113.200,23.200 113.200 C 22.980 113.200,22.800 113.740,22.800 114.400 C 22.800 115.060,22.620 115.600,22.400 115.600 C 22.180 115.600,22.000 115.960,22.000 116.400 C 22.000 116.840,21.820 117.200,21.600 117.200 C 21.380 117.200,21.200 117.560,21.200 118.000 C 21.200 118.440,21.020 118.800,20.800 118.800 C 20.580 118.800,20.400 119.160,20.400 119.600 C 20.400 120.040,20.220 120.400,20.000 120.400 C 19.780 120.400,19.600 120.940,19.600 121.600 C 19.600 122.260,19.420 122.800,19.200 122.800 C 18.980 122.800,18.800 123.160,18.800 123.600 C 18.800 124.040,18.620 124.400,18.400 124.400 C 18.180 124.400,18.000 124.760,18.000 125.200 C 18.000 125.640,17.820 126.000,17.600 126.000 C 17.380 126.000,17.200 126.540,17.200 127.200 C 17.200 127.860,17.020 128.400,16.800 128.400 C 16.580 128.400,16.400 128.940,16.400 129.600 C 16.400 130.260,16.220 130.800,16.000 130.800 C 15.780 130.800,15.600 131.160,15.600 131.600 C 15.600 132.040,15.420 132.400,15.200 132.400 C 14.980 132.400,14.800 132.940,14.800 133.600 C 14.800 134.260,14.620 134.800,14.400 134.800 C 14.180 134.800,14.000 135.340,14.000 136.000 C 14.000 136.660,13.820 137.200,13.600 137.200 C 13.380 137.200,13.200 137.740,13.200 138.400 C 13.200 139.060,13.020 139.600,12.800 139.600 C 12.580 139.600,12.400 140.140,12.400 140.800 C 12.400 141.460,12.220 142.000,12.000 142.000 C 11.780 142.000,11.600 142.720,11.600 143.600 C 11.600 144.480,11.420 145.200,11.200 145.200 C 10.980 145.200,10.800 145.740,10.800 146.400 C 10.800 147.060,10.620 147.600,10.400 147.600 C 10.180 147.600,10.000 148.320,10.000 149.200 C 10.000 150.080,9.820 150.800,9.600 150.800 C 9.380 150.800,9.200 151.520,9.200 152.400 C 9.200 153.280,9.020 154.000,8.800 154.000 C 8.580 154.000,8.400 154.900,8.400 156.000 C 8.400 157.100,8.220 158.000,8.000 158.000 C 7.780 158.000,7.600 158.900,7.600 160.000 C 7.600 161.100,7.420 162.000,7.200 162.000 C 6.978 162.000,6.800 163.067,6.800 164.400 C 6.800 165.733,6.622 166.800,6.400 166.800 C 6.178 166.800,6.000 167.867,6.000 169.200 C 6.000 170.533,5.822 171.600,5.600 171.600 C 5.367 171.600,5.200 172.933,5.200 174.800 C 5.200 176.667,5.033 178.000,4.800 178.000 C 4.554 178.000,4.400 180.000,4.400 183.200 C 4.400 186.400,4.246 188.400,4.000 188.400 C 3.743 188.400,3.600 192.400,3.600 199.600 C 3.600 206.800,3.743 210.800,4.000 210.800 C 4.246 210.800,4.400 212.800,4.400 216.000 C 4.400 219.200,4.554 221.200,4.800 221.200 C 5.033 221.200,5.200 222.533,5.200 224.400 C 5.200 226.267,5.367 227.600,5.600 227.600 C 5.829 227.600,6.000 228.800,6.000 230.400 C 6.000 232.000,6.171 233.200,6.400 233.200 C 6.620 233.200,6.800 234.100,6.800 235.200 C 6.800 236.300,6.980 237.200,7.200 237.200 C 7.420 237.200,7.600 238.100,7.600 239.200 C 7.600 240.300,7.780 241.200,8.000 241.200 C 8.220 241.200,8.400 242.100,8.400 243.200 C 8.400 244.300,8.580 245.200,8.800 245.200 C 9.020 245.200,9.200 245.920,9.200 246.800 C 9.200 247.680,9.380 248.400,9.600 248.400 C 9.820 248.400,10.000 249.120,10.000 250.000 C 10.000 250.880,10.180 251.600,10.400 251.600 C 10.620 251.600,10.800 252.320,10.800 253.200 C 10.800 254.080,10.980 254.800,11.200 254.800 C 11.420 254.800,11.600 255.340,11.600 256.000 C 11.600 256.660,11.780 257.200,12.000 257.200 C 12.220 257.200,12.400 257.740,12.400 258.400 C 12.400 259.060,12.580 259.600,12.800 259.600 C 13.020 259.600,13.200 260.140,13.200 260.800 C 13.200 261.460,13.380 262.000,13.600 262.000 C 13.820 262.000,14.000 262.540,14.000 263.200 C 14.000 263.860,14.180 264.400,14.400 264.400 C 14.620 264.400,14.800 264.940,14.800 265.600 C 14.800 266.260,14.980 266.800,15.200 266.800 C 15.420 266.800,15.600 267.340,15.600 268.000 C 15.600 268.660,15.780 269.200,16.000 269.200 C 16.220 269.200,16.400 269.560,16.400 270.000 C 16.400 270.440,16.580 270.800,16.800 270.800 C 17.020 270.800,17.200 271.340,17.200 272.000 C 17.200 272.660,17.380 273.200,17.600 273.200 C 17.820 273.200,18.000 273.560,18.000 274.000 C 18.000 274.440,18.180 274.800,18.400 274.800 C 18.620 274.800,18.800 275.340,18.800 276.000 C 18.800 276.660,18.980 277.200,19.200 277.200 C 19.420 277.200,19.600 277.560,19.600 278.000 C 19.600 278.440,19.780 278.800,20.000 278.800 C 20.220 278.800,20.400 279.160,20.400 279.600 C 20.400 280.040,20.580 280.400,20.800 280.400 C 21.020 280.400,21.200 280.940,21.200 281.600 C 21.200 282.260,21.380 282.800,21.600 282.800 C 21.820 282.800,22.000 283.160,22.000 283.600 C 22.000 284.040,22.180 284.400,22.400 284.400 C 22.620 284.400,22.800 284.760,22.800 285.200 C 22.800 285.640,22.980 286.000,23.200 286.000 C 23.420 286.000,23.600 286.360,23.600 286.800 C 23.600 287.240,23.780 287.600,24.000 287.600 C 24.220 287.600,24.400 287.960,24.400 288.400 C 24.400 288.840,24.580 289.200,24.800 289.200 C 25.020 289.200,25.200 289.560,25.200 290.000 C 25.200 290.440,25.380 290.800,25.600 290.800 C 25.820 290.800,26.000 291.160,26.000 291.600 C 26.000 292.040,26.180 292.400,26.400 292.400 C 26.620 292.400,26.800 292.760,26.800 293.200 C 26.800 293.640,26.980 294.000,27.200 294.000 C 27.420 294.000,27.600 294.320,27.600 294.712 C 27.600 295.103,27.960 295.683,28.400 296.000 C 28.840 296.317,29.200 296.897,29.200 297.288 C 29.200 297.680,29.380 298.000,29.600 298.000 C 29.820 298.000,30.000 298.320,30.000 298.712 C 30.000 299.103,30.360 299.683,30.800 300.000 C 31.240 300.317,31.600 300.897,31.600 301.288 C 31.600 301.680,31.780 302.000,32.000 302.000 C 32.220 302.000,32.400 302.320,32.400 302.712 C 32.400 303.103,32.760 303.683,33.200 304.000 C 33.640 304.317,34.000 304.897,34.000 305.288 C 34.000 305.680,34.180 306.000,34.400 306.000 C 34.620 306.000,34.800 306.320,34.800 306.712 C 34.800 307.103,35.160 307.683,35.600 308.000 C 36.040 308.317,36.400 308.857,36.400 309.200 C 36.400 309.543,36.760 310.083,37.200 310.400 C 37.640 310.717,38.000 311.225,38.000 311.528 C 38.000 311.831,38.540 312.583,39.200 313.200 C 39.860 313.817,40.400 314.537,40.400 314.800 C 40.400 315.063,40.940 315.783,41.600 316.400 C 42.260 317.017,42.800 317.737,42.800 318.000 C 42.800 318.263,43.340 318.983,44.000 319.600 C 44.660 320.217,45.200 320.933,45.200 321.192 C 45.200 321.451,45.920 322.354,46.800 323.200 C 47.680 324.046,48.400 324.943,48.400 325.195 C 48.400 325.446,49.300 326.529,50.400 327.600 C 51.500 328.671,52.400 329.741,52.400 329.976 C 52.400 330.536,70.264 348.400,70.824 348.400 C 71.059 348.400,72.129 349.300,73.200 350.400 C 74.271 351.500,75.354 352.400,75.605 352.400 C 75.857 352.400,76.754 353.120,77.600 354.000 C 78.446 354.880,79.349 355.600,79.608 355.600 C 79.867 355.600,80.583 356.140,81.200 356.800 C 81.817 357.460,82.537 358.000,82.800 358.000 C 83.063 358.000,83.783 358.540,84.400 359.200 C 85.017 359.860,85.769 360.400,86.072 360.400 C 86.375 360.400,86.883 360.760,87.200 361.200 C 87.517 361.640,88.057 362.000,88.400 362.000 C 88.743 362.000,89.283 362.360,89.600 362.800 C 89.917 363.240,90.457 363.600,90.800 363.600 C 91.143 363.600,91.683 363.960,92.000 364.400 C 92.317 364.840,92.857 365.200,93.200 365.200 C 93.543 365.200,94.083 365.560,94.400 366.000 C 94.717 366.440,95.257 366.800,95.600 366.800 C 95.943 366.800,96.483 367.160,96.800 367.600 C 97.117 368.040,97.697 368.400,98.088 368.400 C 98.480 368.400,98.800 368.580,98.800 368.800 C 98.800 369.020,99.120 369.200,99.512 369.200 C 99.903 369.200,100.483 369.560,100.800 370.000 C 101.117 370.440,101.697 370.800,102.088 370.800 C 102.480 370.800,102.800 370.980,102.800 371.200 C 102.800 371.420,103.160 371.600,103.600 371.600 C 104.040 371.600,104.400 371.780,104.400 372.000 C 104.400 372.220,104.720 372.400,105.112 372.400 C 105.503 372.400,106.083 372.760,106.400 373.200 C 106.717 373.640,107.297 374.000,107.688 374.000 C 108.080 374.000,108.400 374.180,108.400 374.400 C 108.400 374.620,108.760 374.800,109.200 374.800 C 109.640 374.800,110.000 374.980,110.000 375.200 C 110.000 375.420,110.360 375.600,110.800 375.600 C 111.240 375.600,111.600 375.780,111.600 376.000 C 111.600 376.220,111.960 376.400,112.400 376.400 C 112.840 376.400,113.200 376.580,113.200 376.800 C 113.200 377.020,113.560 377.200,114.000 377.200 C 114.440 377.200,114.800 377.380,114.800 377.600 C 114.800 377.820,115.160 378.000,115.600 378.000 C 116.040 378.000,116.400 378.180,116.400 378.400 C 116.400 378.620,116.940 378.800,117.600 378.800 C 118.260 378.800,118.800 378.980,118.800 379.200 C 118.800 379.420,119.160 379.600,119.600 379.600 C 120.040 379.600,120.400 379.780,120.400 380.000 C 120.400 380.220,120.760 380.400,121.200 380.400 C 121.640 380.400,122.000 380.580,122.000 380.800 C 122.000 381.020,122.360 381.200,122.800 381.200 C 123.240 381.200,123.600 381.380,123.600 381.600 C 123.600 381.820,123.960 382.000,124.400 382.000 C 124.840 382.000,125.200 382.180,125.200 382.400 C 125.200 382.620,125.560 382.800,126.000 382.800 C 126.440 382.800,126.800 382.980,126.800 383.200 C 126.800 383.420,127.160 383.600,127.600 383.600 C 128.040 383.600,128.400 383.780,128.400 384.000 C 128.400 384.220,128.749 384.400,129.176 384.400 C 129.603 384.400,130.064 384.580,130.200 384.800 C 130.336 385.020,130.887 385.200,131.424 385.200 C 131.961 385.200,132.400 385.380,132.400 385.600 C 132.400 385.820,132.749 386.000,133.176 386.000 C 133.603 386.000,134.064 386.180,134.200 386.400 C 134.336 386.620,134.887 386.800,135.424 386.800 C 135.961 386.800,136.400 386.980,136.400 387.200 C 136.400 387.420,136.940 387.600,137.600 387.600 C 138.260 387.600,138.800 387.780,138.800 388.000 C 138.800 388.220,139.340 388.400,140.000 388.400 C 140.660 388.400,141.200 388.580,141.200 388.800 C 141.200 389.020,141.729 389.200,142.376 389.200 C 143.023 389.200,143.664 389.380,143.800 389.600 C 143.936 389.820,144.667 390.000,145.424 390.000 C 146.181 390.000,146.800 390.180,146.800 390.400 C 146.800 390.620,147.520 390.800,148.400 390.800 C 149.280 390.800,150.000 390.980,150.000 391.200 C 150.000 391.420,150.720 391.600,151.600 391.600 C 152.480 391.600,153.200 391.780,153.200 392.000 C 153.200 392.220,154.089 392.400,155.176 392.400 C 156.263 392.400,157.264 392.580,157.400 392.800 C 157.536 393.020,158.987 393.200,160.624 393.200 C 162.341 393.200,163.600 393.369,163.600 393.600 C 163.600 393.822,164.667 394.000,166.000 394.000 C 167.333 394.000,168.400 394.178,168.400 394.400 C 168.400 394.629,169.600 394.800,171.200 394.800 C 172.800 394.800,174.000 394.971,174.000 395.200 C 174.000 395.437,175.467 395.600,177.600 395.600 C 179.733 395.600,181.200 395.763,181.200 396.000 C 181.200 396.249,183.467 396.400,187.200 396.400 C 190.933 396.400,193.200 396.551,193.200 396.800 C 193.200 397.053,196.000 397.200,200.800 397.200 C 205.600 397.200,208.400 397.053,208.400 396.800 C 208.400 396.550,210.800 396.400,214.800 396.400 C 218.800 396.400,221.200 396.250,221.200 396.000 C 221.200 395.767,222.533 395.600,224.400 395.600 C 226.267 395.600,227.600 395.433,227.600 395.200 C 227.600 394.971,228.800 394.800,230.400 394.800 C 232.000 394.800,233.200 394.629,233.200 394.400 C 233.200 394.178,234.267 394.000,235.600 394.000 C 236.933 394.000,238.000 393.822,238.000 393.600 C 238.000 393.380,238.900 393.200,240.000 393.200 C 241.100 393.200,242.000 393.020,242.000 392.800 C 242.000 392.580,242.900 392.400,244.000 392.400 C 245.100 392.400,246.000 392.220,246.000 392.000 C 246.000 391.780,246.720 391.600,247.600 391.600 C 248.480 391.600,249.200 391.420,249.200 391.200 C 249.200 390.980,249.999 390.800,250.976 390.800 C 251.953 390.800,252.864 390.620,253.000 390.400 C 253.136 390.180,253.777 390.000,254.424 390.000 C 255.071 390.000,255.600 389.820,255.600 389.600 C 255.600 389.380,256.320 389.200,257.200 389.200 C 258.080 389.200,258.800 389.020,258.800 388.800 C 258.800 388.580,259.340 388.400,260.000 388.400 C 260.660 388.400,261.200 388.220,261.200 388.000 C 261.200 387.780,261.819 387.600,262.576 387.600 C 263.333 387.600,264.064 387.420,264.200 387.200 C 264.336 386.980,264.876 386.800,265.400 386.800 C 265.924 386.800,266.464 386.620,266.600 386.400 C 266.736 386.180,267.276 386.000,267.800 386.000 C 268.324 386.000,268.864 385.820,269.000 385.600 C 269.136 385.380,269.597 385.200,270.024 385.200 C 270.451 385.200,270.800 385.020,270.800 384.800 C 270.800 384.580,271.340 384.400,272.000 384.400 C 272.660 384.400,273.200 384.220,273.200 384.000 C 273.200 383.780,273.639 383.600,274.176 383.600 C 274.713 383.600,275.264 383.420,275.400 383.200 C 275.536 382.980,275.997 382.800,276.424 382.800 C 276.851 382.800,277.200 382.620,277.200 382.400 C 277.200 382.180,277.560 382.000,278.000 382.000 C 278.440 382.000,278.800 381.820,278.800 381.600 C 278.800 381.380,279.239 381.200,279.776 381.200 C 280.313 381.200,280.864 381.020,281.000 380.800 C 281.136 380.580,281.597 380.400,282.024 380.400 C 282.451 380.400,282.800 380.220,282.800 380.000 C 282.800 379.780,283.160 379.600,283.600 379.600 C 284.040 379.600,284.400 379.420,284.400 379.200 C 284.400 378.980,284.760 378.800,285.200 378.800 C 285.640 378.800,286.000 378.620,286.000 378.400 C 286.000 378.180,286.360 378.000,286.800 378.000 C 287.240 378.000,287.600 377.820,287.600 377.600 C 287.600 377.380,287.960 377.200,288.400 377.200 C 288.840 377.200,289.200 377.020,289.200 376.800 C 289.200 376.580,289.560 376.400,290.000 376.400 C 290.440 376.400,290.800 376.220,290.800 376.000 C 290.800 375.780,291.160 375.600,291.600 375.600 C 292.040 375.600,292.400 375.420,292.400 375.200 C 292.400 374.980,292.760 374.800,293.200 374.800 C 293.640 374.800,294.000 374.620,294.000 374.400 C 294.000 374.180,294.360 374.000,294.800 374.000 C 295.240 374.000,295.600 373.820,295.600 373.600 C 295.600 373.380,295.960 373.200,296.400 373.200 C 296.840 373.200,297.200 373.020,297.200 372.800 C 297.200 372.580,297.436 372.400,297.725 372.400 C 298.013 372.400,298.636 372.040,299.108 371.600 C 299.580 371.160,300.244 370.800,300.583 370.800 C 300.922 370.800,301.200 370.620,301.200 370.400 C 301.200 370.180,301.436 370.000,301.725 370.000 C 302.013 370.000,302.636 369.640,303.108 369.200 C 303.580 368.760,304.244 368.400,304.583 368.400 C 304.922 368.400,305.200 368.220,305.200 368.000 C 305.200 367.780,305.436 367.600,305.725 367.600 C 306.013 367.600,306.598 367.285,307.025 366.900 C 307.451 366.515,308.295 365.945,308.900 365.632 C 309.505 365.320,310.000 364.915,310.000 364.732 C 310.000 364.550,310.236 364.400,310.525 364.400 C 310.813 364.400,311.398 364.085,311.825 363.700 C 312.251 363.315,313.095 362.745,313.700 362.432 C 314.305 362.120,314.800 361.715,314.800 361.532 C 314.800 361.350,315.043 361.200,315.341 361.200 C 315.638 361.200,316.446 360.660,317.137 360.000 C 317.828 359.340,318.548 358.800,318.737 358.800 C 318.926 358.800,319.646 358.260,320.337 357.600 C 321.028 356.940,321.748 356.400,321.937 356.400 C 322.126 356.400,322.846 355.860,323.537 355.200 C 324.228 354.540,324.969 354.000,325.185 354.000 C 325.723 354.000,350.000 329.723,350.000 329.186 C 350.000 328.949,351.080 327.696,352.400 326.400 C 353.720 325.104,354.800 323.837,354.800 323.583 C 354.800 323.329,355.340 322.617,356.000 322.000 C 356.660 321.383,357.200 320.663,357.200 320.400 C 357.200 320.137,357.740 319.417,358.400 318.800 C 359.060 318.183,359.600 317.463,359.600 317.200 C 359.600 316.937,360.140 316.217,360.800 315.600 C 361.460 314.983,362.000 314.231,362.000 313.928 C 362.000 313.625,362.360 313.117,362.800 312.800 C 363.240 312.483,363.600 311.943,363.600 311.600 C 363.600 311.257,363.960 310.717,364.400 310.400 C 364.840 310.083,365.200 309.543,365.200 309.200 C 365.200 308.857,365.560 308.317,366.000 308.000 C 366.440 307.683,366.800 307.143,366.800 306.800 C 366.800 306.457,367.160 305.917,367.600 305.600 C 368.040 305.283,368.400 304.743,368.400 304.400 C 368.400 304.057,368.760 303.517,369.200 303.200 C 369.640 302.883,370.000 302.303,370.000 301.912 C 370.000 301.520,370.180 301.200,370.400 301.200 C 370.620 301.200,370.800 300.840,370.800 300.400 C 370.800 299.960,370.980 299.600,371.200 299.600 C 371.420 299.600,371.600 299.280,371.600 298.888 C 371.600 298.497,371.960 297.917,372.400 297.600 C 372.840 297.283,373.200 296.703,373.200 296.312 C 373.200 295.920,373.380 295.600,373.600 295.600 C 373.820 295.600,374.000 295.240,374.000 294.800 C 374.000 294.360,374.180 294.000,374.400 294.000 C 374.620 294.000,374.800 293.640,374.800 293.200 C 374.800 292.760,374.980 292.400,375.200 292.400 C 375.420 292.400,375.600 292.040,375.600 291.600 C 375.600 291.160,375.780 290.800,376.000 290.800 C 376.220 290.800,376.400 290.440,376.400 290.000 C 376.400 289.560,376.580 289.200,376.800 289.200 C 377.020 289.200,377.200 288.840,377.200 288.400 C 377.200 287.960,377.380 287.600,377.600 287.600 C 377.820 287.600,378.000 287.240,378.000 286.800 C 378.000 286.360,378.180 286.000,378.400 286.000 C 378.620 286.000,378.800 285.640,378.800 285.200 C 378.800 284.760,378.980 284.400,379.200 284.400 C 379.420 284.400,379.600 284.040,379.600 283.600 C 379.600 283.160,379.780 282.800,380.000 282.800 C 380.220 282.800,380.400 282.440,380.400 282.000 C 380.400 281.560,380.580 281.200,380.800 281.200 C 381.020 281.200,381.200 280.840,381.200 280.400 C 381.200 279.960,381.380 279.600,381.600 279.600 C 381.820 279.600,382.000 279.060,382.000 278.400 C 382.000 277.740,382.180 277.200,382.400 277.200 C 382.620 277.200,382.800 276.840,382.800 276.400 C 382.800 275.960,382.980 275.600,383.200 275.600 C 383.420 275.600,383.600 275.240,383.600 274.800 C 383.600 274.360,383.780 274.000,384.000 274.000 C 384.220 274.000,384.400 273.460,384.400 272.800 C 384.400 272.140,384.580 271.600,384.800 271.600 C 385.020 271.600,385.200 271.060,385.200 270.400 C 385.200 269.740,385.380 269.200,385.600 269.200 C 385.820 269.200,386.000 268.840,386.000 268.400 C 386.000 267.960,386.180 267.600,386.400 267.600 C 386.620 267.600,386.800 267.060,386.800 266.400 C 386.800 265.740,386.980 265.200,387.200 265.200 C 387.420 265.200,387.600 264.660,387.600 264.000 C 387.600 263.340,387.780 262.800,388.000 262.800 C 388.220 262.800,388.400 262.260,388.400 261.600 C 388.400 260.940,388.580 260.400,388.800 260.400 C 389.020 260.400,389.200 259.860,389.200 259.200 C 389.200 258.540,389.380 258.000,389.600 258.000 C 389.820 258.000,390.000 257.280,390.000 256.400 C 390.000 255.520,390.180 254.800,390.400 254.800 C 390.620 254.800,390.800 254.260,390.800 253.600 C 390.800 252.940,390.980 252.400,391.200 252.400 C 391.420 252.400,391.600 251.680,391.600 250.800 C 391.600 249.920,391.780 249.200,392.000 249.200 C 392.220 249.200,392.400 248.480,392.400 247.600 C 392.400 246.720,392.580 246.000,392.800 246.000 C 393.020 246.000,393.200 245.280,393.200 244.400 C 393.200 243.520,393.380 242.800,393.600 242.800 C 393.820 242.800,394.000 241.900,394.000 240.800 C 394.000 239.700,394.180 238.800,394.400 238.800 C 394.620 238.800,394.800 237.900,394.800 236.800 C 394.800 235.700,394.980 234.800,395.200 234.800 C 395.429 234.800,395.600 233.600,395.600 232.000 C 395.600 230.400,395.771 229.200,396.000 229.200 C 396.233 229.200,396.400 227.867,396.400 226.000 C 396.400 224.133,396.567 222.800,396.800 222.800 C 397.042 222.800,397.200 221.067,397.200 218.400 C 397.200 215.733,397.358 214.000,397.600 214.000 C 397.859 214.000,398.000 208.933,398.000 199.600 C 398.000 190.267,397.859 185.200,397.600 185.200 C 397.358 185.200,397.200 183.467,397.200 180.800 C 397.200 178.133,397.042 176.400,396.800 176.400 C 396.571 176.400,396.400 175.200,396.400 173.600 C 396.400 172.000,396.229 170.800,396.000 170.800 C 395.771 170.800,395.600 169.600,395.600 168.000 C 395.600 166.400,395.429 165.200,395.200 165.200 C 394.980 165.200,394.800 164.300,394.800 163.200 C 394.800 162.100,394.620 161.200,394.400 161.200 C 394.180 161.200,394.000 160.300,394.000 159.200 C 394.000 158.100,393.820 157.200,393.600 157.200 C 393.380 157.200,393.200 156.480,393.200 155.600 C 393.200 154.720,393.020 154.000,392.800 154.000 C 392.580 154.000,392.400 153.100,392.400 152.000 C 392.400 150.900,392.220 150.000,392.000 150.000 C 391.780 150.000,391.600 149.460,391.600 148.800 C 391.600 148.140,391.420 147.600,391.200 147.600 C 390.980 147.600,390.800 146.880,390.800 146.000 C 390.800 145.120,390.620 144.400,390.400 144.400 C 390.180 144.400,390.000 143.860,390.000 143.200 C 390.000 142.540,389.820 142.000,389.600 142.000 C 389.380 142.000,389.200 141.460,389.200 140.800 C 389.200 140.140,389.020 139.600,388.800 139.600 C 388.580 139.600,388.400 138.880,388.400 138.000 C 388.400 137.120,388.220 136.400,388.000 136.400 C 387.780 136.400,387.600 136.040,387.600 135.600 C 387.600 135.160,387.420 134.800,387.200 134.800 C 386.980 134.800,386.800 134.260,386.800 133.600 C 386.800 132.940,386.620 132.400,386.400 132.400 C 386.180 132.400,386.000 131.860,386.000 131.200 C 386.000 130.540,385.820 130.000,385.600 130.000 C 385.380 130.000,385.200 129.460,385.200 128.800 C 385.200 128.140,385.020 127.600,384.800 127.600 C 384.580 127.600,384.400 127.240,384.400 126.800 C 384.400 126.360,384.220 126.000,384.000 126.000 C 383.780 126.000,383.600 125.460,383.600 124.800 C 383.600 124.140,383.420 123.600,383.200 123.600 C 382.980 123.600,382.800 123.240,382.800 122.800 C 382.800 122.360,382.620 122.000,382.400 122.000 C 382.180 122.000,382.000 121.640,382.000 121.200 C 382.000 120.760,381.820 120.400,381.600 120.400 C 381.380 120.400,381.200 119.860,381.200 119.200 C 381.200 118.540,381.020 118.000,380.800 118.000 C 380.580 118.000,380.400 117.640,380.400 117.200 C 380.400 116.760,380.220 116.400,380.000 116.400 C 379.780 116.400,379.600 116.040,379.600 115.600 C 379.600 115.160,379.420 114.800,379.200 114.800 C 378.980 114.800,378.800 114.440,378.800 114.000 C 378.800 113.560,378.620 113.200,378.400 113.200 C 378.180 113.200,378.000 112.840,378.000 112.400 C 378.000 111.960,377.820 111.600,377.600 111.600 C 377.380 111.600,377.200 111.240,377.200 110.800 C 377.200 110.360,377.020 110.000,376.800 110.000 C 376.580 110.000,376.400 109.640,376.400 109.200 C 376.400 108.760,376.220 108.400,376.000 108.400 C 375.780 108.400,375.600 108.040,375.600 107.600 C 375.600 107.160,375.420 106.800,375.200 106.800 C 374.980 106.800,374.800 106.440,374.800 106.000 C 374.800 105.560,374.620 105.200,374.400 105.200 C 374.180 105.200,374.000 104.880,374.000 104.488 C 374.000 104.097,373.640 103.517,373.200 103.200 C 372.760 102.883,372.400 102.303,372.400 101.912 C 372.400 101.520,372.220 101.200,372.000 101.200 C 371.780 101.200,371.600 100.880,371.600 100.488 C 371.600 100.097,371.240 99.517,370.800 99.200 C 370.360 98.883,370.000 98.303,370.000 97.912 C 370.000 97.520,369.820 97.200,369.600 97.200 C 369.380 97.200,369.200 96.880,369.200 96.488 C 369.200 96.097,368.840 95.517,368.400 95.200 C 367.960 94.883,367.600 94.343,367.600 94.000 C 367.600 93.657,367.240 93.117,366.800 92.800 C 366.360 92.483,366.000 91.903,366.000 91.512 C 366.000 91.120,365.820 90.800,365.600 90.800 C 365.380 90.800,365.200 90.512,365.200 90.160 C 365.200 89.809,364.660 89.017,364.000 88.400 C 363.340 87.783,362.800 87.031,362.800 86.728 C 362.800 86.425,362.440 85.917,362.000 85.600 C 361.560 85.283,361.200 84.775,361.200 84.472 C 361.200 84.169,360.660 83.417,360.000 82.800 C 359.340 82.183,358.800 81.463,358.800 81.200 C 358.800 80.937,358.260 80.217,357.600 79.600 C 356.940 78.983,356.400 78.267,356.400 78.008 C 356.400 77.749,355.680 76.846,354.800 76.000 C 353.920 75.154,353.200 74.259,353.200 74.009 C 353.200 73.760,352.120 72.496,350.800 71.200 C 349.480 69.904,348.400 68.653,348.400 68.420 C 348.400 67.865,332.935 52.400,332.380 52.400 C 332.147 52.400,330.896 51.320,329.600 50.000 C 328.304 48.680,327.040 47.600,326.791 47.600 C 326.541 47.600,325.646 46.880,324.800 46.000 C 323.954 45.120,323.051 44.400,322.792 44.400 C 322.533 44.400,321.817 43.860,321.200 43.200 C 320.583 42.540,319.863 42.000,319.600 42.000 C 319.337 42.000,318.617 41.460,318.000 40.800 C 317.383 40.140,316.663 39.600,316.400 39.600 C 316.137 39.600,315.417 39.060,314.800 38.400 C 314.183 37.740,313.431 37.200,313.128 37.200 C 312.825 37.200,312.317 36.840,312.000 36.400 C 311.683 35.960,311.143 35.600,310.800 35.600 C 310.457 35.600,309.917 35.240,309.600 34.800 C 309.283 34.360,308.703 34.000,308.312 34.000 C 307.920 34.000,307.600 33.820,307.600 33.600 C 307.600 33.380,307.280 33.200,306.888 33.200 C 306.497 33.200,305.917 32.840,305.600 32.400 C 305.283 31.960,304.743 31.600,304.400 31.600 C 304.057 31.600,303.517 31.240,303.200 30.800 C 302.883 30.360,302.303 30.000,301.912 30.000 C 301.520 30.000,301.200 29.820,301.200 29.600 C 301.200 29.380,300.840 29.200,300.400 29.200 C 299.960 29.200,299.600 29.020,299.600 28.800 C 299.600 28.580,299.280 28.400,298.888 28.400 C 298.497 28.400,297.917 28.040,297.600 27.600 C 297.283 27.160,296.703 26.800,296.312 26.800 C 295.920 26.800,295.600 26.620,295.600 26.400 C 295.600 26.180,295.240 26.000,294.800 26.000 C 294.360 26.000,294.000 25.820,294.000 25.600 C 294.000 25.380,293.640 25.200,293.200 25.200 C 292.760 25.200,292.400 25.020,292.400 24.800 C 292.400 24.580,292.040 24.400,291.600 24.400 C 291.160 24.400,290.800 24.220,290.800 24.000 C 290.800 23.780,290.440 23.600,290.000 23.600 C 289.560 23.600,289.200 23.420,289.200 23.200 C 289.200 22.980,288.840 22.800,288.400 22.800 C 287.960 22.800,287.600 22.620,287.600 22.400 C 287.600 22.180,287.240 22.000,286.800 22.000 C 286.360 22.000,286.000 21.820,286.000 21.600 C 286.000 21.380,285.640 21.200,285.200 21.200 C 284.760 21.200,284.400 21.020,284.400 20.800 C 284.400 20.580,284.040 20.400,283.600 20.400 C 283.160 20.400,282.800 20.220,282.800 20.000 C 282.800 19.780,282.440 19.600,282.000 19.600 C 281.560 19.600,281.200 19.420,281.200 19.200 C 281.200 18.980,280.660 18.800,280.000 18.800 C 279.340 18.800,278.800 18.620,278.800 18.400 C 278.800 18.180,278.440 18.000,278.000 18.000 C 277.560 18.000,277.200 17.820,277.200 17.600 C 277.200 17.380,276.660 17.200,276.000 17.200 C 275.340 17.200,274.800 17.020,274.800 16.800 C 274.800 16.580,274.440 16.400,274.000 16.400 C 273.560 16.400,273.200 16.220,273.200 16.000 C 273.200 15.780,272.660 15.600,272.000 15.600 C 271.340 15.600,270.800 15.420,270.800 15.200 C 270.800 14.980,270.440 14.800,270.000 14.800 C 269.560 14.800,269.200 14.620,269.200 14.400 C 269.200 14.180,268.660 14.000,268.000 14.000 C 267.340 14.000,266.800 13.820,266.800 13.600 C 266.800 13.380,266.260 13.200,265.600 13.200 C 264.940 13.200,264.400 13.020,264.400 12.800 C 264.400 12.580,263.860 12.400,263.200 12.400 C 262.540 12.400,262.000 12.220,262.000 12.000 C 262.000 11.780,261.460 11.600,260.800 11.600 C 260.140 11.600,259.600 11.420,259.600 11.200 C 259.600 10.980,258.880 10.800,258.000 10.800 C 257.120 10.800,256.400 10.620,256.400 10.400 C 256.400 10.180,255.860 10.000,255.200 10.000 C 254.540 10.000,254.000 9.820,254.000 9.600 C 254.000 9.380,253.280 9.200,252.400 9.200 C 251.520 9.200,250.800 9.020,250.800 8.800 C 250.800 8.580,250.080 8.400,249.200 8.400 C 248.320 8.400,247.600 8.220,247.600 8.000 C 247.600 7.780,246.880 7.600,246.000 7.600 C 245.120 7.600,244.400 7.420,244.400 7.200 C 244.400 6.980,243.500 6.800,242.400 6.800 C 241.300 6.800,240.400 6.620,240.400 6.400 C 240.400 6.180,239.500 6.000,238.400 6.000 C 237.300 6.000,236.400 5.820,236.400 5.600 C 236.400 5.378,235.333 5.200,234.000 5.200 C 232.667 5.200,231.600 5.022,231.600 4.800 C 231.600 4.567,230.267 4.400,228.400 4.400 C 226.533 4.400,225.200 4.233,225.200 4.000 C 225.200 3.760,223.600 3.600,221.200 3.600 C 218.800 3.600,217.200 3.440,217.200 3.200 C 217.200 2.940,211.467 2.800,200.800 2.800 C 190.133 2.800,184.400 2.940,184.400 3.200 M173.618 78.534 C 190.983 82.359,203.243 90.840,212.934 105.733 C 214.016 107.397,214.631 107.997,215.077 107.826 C 217.223 107.002,230.801 107.293,234.043 108.231 C 234.594 108.391,234.725 107.793,234.962 104.033 C 235.979 87.976,244.188 79.192,258.800 78.530 C 273.945 77.844,286.936 84.363,291.647 95.013 C 292.599 97.166,292.262 97.151,295.519 95.187 C 305.278 89.301,316.873 91.799,328.067 102.200 C 333.776 107.505,335.588 111.797,334.737 118.000 C 334.601 118.995,334.620 119.001,338.600 119.256 C 352.066 120.119,362.008 131.639,363.406 148.000 C 364.419 159.851,356.170 168.759,344.149 168.794 C 341.872 168.801,341.535 169.063,340.803 171.400 C 337.671 181.401,329.376 191.370,320.200 196.160 C 310.839 201.047,288.013 204.245,269.338 203.286 L 266.077 203.119 264.585 205.459 C 263.764 206.747,262.311 208.832,261.356 210.092 L 259.618 212.385 267.709 223.570 L 275.800 234.755 288.051 234.778 C 301.823 234.803,300.823 234.559,301.785 238.123 C 302.123 239.375,302.670 241.390,303.000 242.600 C 303.330 243.810,303.870 245.790,304.200 247.000 C 304.530 248.210,305.070 250.190,305.400 251.400 C 305.730 252.610,306.270 254.590,306.600 255.800 C 306.930 257.010,307.470 258.990,307.800 260.200 C 308.130 261.410,308.670 263.390,309.000 264.600 C 309.330 265.810,309.870 267.790,310.200 269.000 C 310.530 270.210,311.070 272.190,311.400 273.400 C 311.730 274.610,312.270 276.590,312.600 277.800 C 312.930 279.010,313.470 280.990,313.800 282.200 C 314.130 283.410,314.670 285.390,315.000 286.600 C 315.330 287.810,315.870 289.790,316.200 291.000 C 316.530 292.210,317.070 294.190,317.400 295.400 C 317.730 296.610,318.270 298.590,318.600 299.800 C 318.930 301.010,319.470 302.990,319.800 304.200 C 320.130 305.410,320.670 307.390,321.000 308.600 C 321.330 309.810,321.870 311.790,322.200 313.000 C 322.530 314.210,323.082 316.235,323.427 317.500 C 325.913 326.615,325.986 327.235,324.402 325.802 C 323.961 325.403,323.600 324.946,323.600 324.787 C 323.600 324.628,322.819 323.080,321.864 321.349 C 320.909 319.617,319.087 316.220,317.815 313.800 C 316.543 311.380,315.373 309.220,315.214 309.000 C 315.055 308.780,313.704 306.260,312.213 303.400 C 310.722 300.540,309.372 298.020,309.212 297.800 C 309.053 297.580,307.792 295.240,306.410 292.600 C 305.028 289.960,303.767 287.620,303.608 287.400 C 303.450 287.180,302.098 284.660,300.604 281.800 C 299.111 278.940,297.759 276.420,297.601 276.200 C 297.442 275.980,296.223 273.730,294.892 271.200 C 293.560 268.670,292.050 265.836,291.535 264.903 L 290.600 263.207 276.749 263.203 C 265.754 263.201,262.807 263.091,262.459 262.671 C 261.886 261.980,261.534 260.560,256.178 237.300 C 255.836 235.815,255.217 233.160,254.802 231.400 C 254.387 229.640,253.830 227.210,253.564 226.000 C 253.298 224.790,252.873 223.020,252.618 222.067 L 252.155 220.334 250.087 221.969 C 238.135 231.416,222.749 235.325,209.200 232.357 C 203.578 231.125,202.648 231.196,196.600 233.316 C 187.390 236.544,176.617 237.900,168.654 236.833 C 166.704 236.572,165.026 236.441,164.924 236.542 C 164.715 236.752,185.064 264.841,185.753 265.294 C 185.999 265.456,192.359 265.591,199.886 265.594 C 212.598 265.600,213.599 265.651,213.953 266.312 C 214.163 266.704,214.889 269.089,215.566 271.612 C 216.244 274.136,217.339 278.180,218.000 280.600 C 218.661 283.020,219.741 286.980,220.400 289.400 C 221.059 291.820,222.139 295.780,222.800 298.200 C 223.461 300.620,224.541 304.580,225.200 307.000 C 225.859 309.420,226.939 313.380,227.600 315.800 C 228.261 318.220,229.341 322.180,230.000 324.600 C 230.659 327.020,231.739 330.980,232.400 333.400 C 233.061 335.820,234.141 339.780,234.800 342.200 C 236.422 348.157,238.147 354.468,239.664 360.000 C 242.706 371.084,242.207 371.811,237.604 363.000 C 236.225 360.360,234.968 358.020,234.810 357.800 C 234.652 357.580,233.392 355.240,232.010 352.600 C 230.628 349.960,229.367 347.620,229.208 347.400 C 229.050 347.180,227.698 344.660,226.204 341.800 C 224.711 338.940,223.359 336.420,223.200 336.200 C 223.042 335.980,222.129 334.270,221.172 332.400 C 220.215 330.530,218.867 328.010,218.177 326.800 C 217.487 325.590,215.792 322.440,214.410 319.800 C 213.027 317.160,211.768 314.820,211.610 314.600 C 211.452 314.380,210.229 312.130,208.892 309.600 C 207.556 307.070,205.578 303.380,204.498 301.400 L 202.535 297.800 186.713 297.695 C 174.708 297.616,170.798 297.471,170.507 297.095 C 170.123 296.599,169.748 295.252,168.643 290.400 C 167.712 286.316,166.821 282.473,166.000 279.000 C 165.584 277.240,164.975 274.630,164.647 273.200 C 163.970 270.252,163.140 266.650,162.225 262.700 C 161.881 261.215,161.320 258.785,160.978 257.300 C 160.636 255.815,160.014 253.160,159.596 251.400 C 159.177 249.640,158.450 246.490,157.980 244.400 C 157.510 242.310,156.979 240.060,156.801 239.400 C 156.622 238.740,156.249 237.106,155.971 235.770 L 155.466 233.339 152.939 232.029 C 148.150 229.546,143.655 225.799,139.117 220.508 L 138.035 219.246 135.517 220.243 C 115.986 227.976,95.988 226.213,82.606 215.579 C 79.789 213.341,79.485 213.200,77.464 213.200 C 49.227 213.200,31.073 201.548,31.095 183.439 C 31.113 169.249,41.947 159.828,66.341 152.790 C 69.636 151.840,69.464 152.288,68.248 147.816 C 63.976 132.104,76.320 117.471,93.858 117.455 L 99.116 117.450 99.740 114.341 C 103.273 96.727,123.261 81.434,147.200 78.029 C 148.850 77.795,150.650 77.524,151.200 77.429 C 154.610 76.836,169.167 77.553,173.618 78.534 M312.744 219.213 L 319.008 227.800 324.596 227.912 C 327.669 227.973,330.313 228.153,330.471 228.312 C 331.648 229.490,342.076 270.400,341.200 270.400 C 340.980 270.400,340.800 270.251,340.800 270.068 C 340.800 269.886,338.674 265.791,336.076 260.968 C 333.478 256.146,330.302 250.220,329.018 247.800 C 327.734 245.380,326.338 242.905,325.915 242.300 L 325.146 241.200 319.022 241.200 C 314.591 241.200,312.793 241.062,312.520 240.700 C 312.107 240.154,305.590 212.260,305.596 211.067 C 305.604 209.642,306.544 210.714,312.744 219.213 M115.200 245.259 C 118.390 249.671,121.128 253.488,121.284 253.740 C 121.468 254.037,123.661 254.271,127.479 254.400 L 133.390 254.600 139.098 275.564 C 144.603 295.784,145.024 297.633,143.837 296.376 C 143.306 295.814,142.725 294.787,139.208 288.200 C 134.120 278.670,132.047 274.811,130.020 271.100 L 128.328 268.000 121.796 268.000 L 115.265 268.000 113.825 261.900 C 109.619 244.079,108.113 237.372,108.261 237.117 C 108.658 236.436,109.736 237.702,115.200 245.259 M355.844 255.235 C 366.783 263.928,368.942 267.393,365.771 271.162 C 361.700 276.000,357.707 272.823,356.382 263.691 C 356.118 261.871,355.405 258.946,354.797 257.191 C 353.561 253.623,353.637 253.481,355.844 255.235 M319.509 265.644 C 320.329 266.390,321.990 267.808,323.200 268.795 C 324.410 269.782,325.490 270.682,325.600 270.795 C 325.710 270.909,327.330 272.288,329.200 273.860 C 339.229 282.292,341.742 289.272,336.522 294.195 C 331.321 299.102,325.509 297.086,323.043 289.520 C 322.524 287.925,322.265 286.577,321.141 279.600 C 320.604 276.264,319.210 271.210,317.997 268.200 C 315.737 262.593,315.883 262.346,319.509 265.644 M261.600 297.200 C 261.710 297.310,262.970 298.385,264.400 299.590 C 265.830 300.794,267.090 301.876,267.200 301.995 C 267.377 302.186,268.489 303.104,272.996 306.782 C 284.331 316.032,285.668 326.833,275.773 329.207 C 270.102 330.567,266.620 326.156,265.189 315.800 C 264.740 312.550,264.134 309.590,263.226 306.200 C 263.049 305.540,262.325 303.380,261.616 301.400 C 259.581 295.710,259.579 295.179,261.600 297.200 M156.288 311.493 C 158.343 313.525,161.101 315.918,162.417 316.811 C 172.037 323.345,174.493 330.230,168.700 334.426 C 161.116 339.920,153.956 334.712,151.618 322.000 C 151.355 320.570,150.987 318.590,150.800 317.600 C 150.613 316.610,150.253 314.630,150.000 313.200 C 149.747 311.770,149.383 309.790,149.193 308.800 C 149.002 307.810,148.728 306.104,148.585 305.010 L 148.324 303.019 150.438 305.410 C 151.600 306.724,154.233 309.462,156.288 311.493 M189.825 317.100 C 191.688 319.595,196.868 324.545,199.458 326.304 C 206.954 331.394,208.840 336.194,204.841 340.000 C 201.841 342.856,197.702 342.875,194.872 340.045 C 192.583 337.756,191.333 334.421,190.058 327.200 C 188.966 321.012,188.716 319.666,188.373 318.123 C 187.691 315.057,188.090 314.776,189.825 317.100 M263.303 335.308 C 265.145 337.723,269.805 342.182,272.998 344.586 C 281.297 350.832,282.820 355.498,277.670 358.906 C 273.069 361.951,268.704 360.355,266.062 354.663 C 264.983 352.337,264.578 350.808,263.658 345.600 C 262.566 339.412,262.316 338.066,261.973 336.523 C 261.308 333.531,261.685 333.187,263.303 335.308 M157.831 352.300 C 159.690 354.777,164.403 359.295,167.682 361.743 C 176.612 368.409,177.573 373.612,170.467 376.818 C 165.236 379.178,160.411 374.852,158.845 366.400 C 158.065 362.193,157.664 359.961,157.191 357.200 C 156.946 355.770,156.578 353.845,156.373 352.923 C 155.765 350.190,156.131 350.034,157.831 352.300 " stroke="none" fill="#085b9f" fill-rule="evenodd"></path><path id="path2" d="M255.799 216.239 L 252.669 219.678 253.158 221.739 C 254.140 225.877,255.253 230.643,255.647 232.400 C 255.869 233.390,256.208 234.830,256.400 235.600 C 256.592 236.370,256.931 237.810,257.153 238.800 C 257.375 239.790,257.916 242.130,258.354 244.000 C 258.793 245.870,259.366 248.390,259.626 249.600 C 259.886 250.810,260.238 252.250,260.407 252.800 C 260.576 253.350,260.937 254.880,261.210 256.200 C 261.483 257.520,261.926 259.410,262.195 260.400 L 262.683 262.200 276.781 262.400 L 290.879 262.600 291.777 264.200 C 292.271 265.080,293.534 267.420,294.585 269.400 C 295.636 271.380,296.992 273.900,297.599 275.000 C 298.207 276.100,299.468 278.440,300.402 280.200 C 301.336 281.960,302.683 284.480,303.395 285.800 C 304.107 287.120,305.320 289.370,306.090 290.800 C 306.860 292.230,308.120 294.570,308.890 296.000 C 309.660 297.430,310.922 299.770,311.695 301.200 C 312.467 302.630,313.866 305.240,314.803 307.000 C 319.225 315.304,320.016 316.773,321.371 319.200 C 322.169 320.630,323.130 322.475,323.506 323.300 C 324.170 324.758,325.179 325.501,324.593 324.100 C 324.432 323.715,324.160 322.770,323.989 322.000 C 323.817 321.230,323.390 319.565,323.039 318.300 C 322.687 317.035,322.130 315.010,321.800 313.800 C 321.470 312.590,320.930 310.610,320.600 309.400 C 320.270 308.190,319.730 306.210,319.400 305.000 C 319.070 303.790,318.530 301.810,318.200 300.600 C 317.870 299.390,317.318 297.365,316.974 296.100 C 316.630 294.835,316.090 292.855,315.774 291.700 C 315.458 290.545,314.930 288.610,314.600 287.400 C 314.270 286.190,313.730 284.210,313.400 283.000 C 313.070 281.790,312.530 279.810,312.200 278.600 C 311.870 277.390,311.330 275.410,311.000 274.200 C 310.670 272.990,310.130 271.010,309.800 269.800 C 309.470 268.590,308.930 266.610,308.600 265.400 C 308.270 264.190,307.730 262.210,307.400 261.000 C 307.070 259.790,306.530 257.810,306.200 256.600 C 305.870 255.390,305.330 253.410,305.000 252.200 C 304.670 250.990,304.130 249.010,303.800 247.800 C 303.470 246.590,302.918 244.565,302.573 243.300 C 302.228 242.035,301.635 239.830,301.256 238.400 L 300.565 235.800 288.115 235.600 C 281.268 235.490,275.599 235.310,275.517 235.200 C 274.923 234.396,271.711 230.003,270.400 228.200 C 269.520 226.990,268.080 225.010,267.200 223.800 C 261.540 216.017,259.146 212.800,259.016 212.800 C 258.969 212.800,257.521 214.348,255.799 216.239 M156.159 234.237 C 156.293 234.588,156.502 235.353,156.621 235.937 C 156.741 236.522,156.999 237.630,157.195 238.400 C 157.390 239.170,157.731 240.610,157.953 241.600 C 158.175 242.590,158.736 245.020,159.200 247.000 C 159.664 248.980,160.225 251.410,160.447 252.400 C 160.669 253.390,161.008 254.830,161.200 255.600 C 161.392 256.370,161.741 257.855,161.975 258.900 C 162.209 259.945,162.591 261.655,162.825 262.700 C 163.059 263.745,163.408 265.230,163.600 266.000 C 163.792 266.770,164.152 268.300,164.400 269.400 C 164.648 270.500,165.008 272.030,165.200 272.800 C 165.392 273.570,165.728 275.010,165.947 276.000 C 166.655 279.210,167.243 281.770,167.600 283.200 C 167.792 283.970,168.133 285.410,168.357 286.400 C 169.426 291.120,170.515 295.849,170.638 296.300 C 170.745 296.689,174.261 296.801,186.487 296.806 C 202.553 296.812,202.687 296.823,203.434 298.200 C 203.672 298.640,204.641 300.440,205.587 302.200 C 206.532 303.960,207.937 306.570,208.708 308.000 C 209.479 309.430,210.690 311.680,211.400 313.000 C 212.110 314.320,213.322 316.570,214.095 318.000 C 214.867 319.430,216.265 322.040,217.200 323.800 C 218.135 325.560,219.533 328.170,220.305 329.600 C 223.483 335.481,224.378 337.148,226.000 340.200 C 227.671 343.345,228.903 345.637,231.697 350.800 C 232.471 352.230,233.970 355.020,235.029 357.000 C 236.088 358.980,237.560 361.680,238.301 363.000 C 239.041 364.320,239.748 365.715,239.870 366.100 C 240.064 366.708,240.800 367.119,240.800 366.620 C 240.800 366.455,240.047 363.635,239.193 360.600 C 239.007 359.940,238.470 357.960,238.000 356.200 C 237.530 354.440,236.990 352.460,236.800 351.800 C 236.610 351.140,236.070 349.160,235.600 347.400 C 235.130 345.640,234.590 343.660,234.400 343.000 C 234.210 342.340,233.670 340.360,233.200 338.600 C 232.730 336.840,232.190 334.860,232.000 334.200 C 231.810 333.540,231.270 331.560,230.800 329.800 C 230.330 328.040,229.790 326.060,229.600 325.400 C 229.410 324.740,228.870 322.760,228.400 321.000 C 227.930 319.240,227.390 317.260,227.200 316.600 C 227.010 315.940,226.470 313.960,226.000 312.200 C 225.530 310.440,224.990 308.460,224.800 307.800 C 224.610 307.140,224.070 305.160,223.600 303.400 C 223.130 301.640,222.590 299.660,222.400 299.000 C 222.210 298.340,221.670 296.360,221.200 294.600 C 220.730 292.840,220.190 290.860,220.000 290.200 C 219.810 289.540,219.270 287.560,218.800 285.800 C 218.330 284.040,217.790 282.060,217.600 281.400 C 217.410 280.740,216.870 278.760,216.400 277.000 C 215.930 275.240,215.393 273.260,215.207 272.600 C 215.021 271.940,214.580 270.342,214.226 269.048 C 213.873 267.755,213.486 266.540,213.368 266.348 C 213.250 266.157,206.898 266.000,199.252 266.000 L 185.352 266.000 181.976 261.367 C 180.119 258.818,177.250 254.884,175.600 252.624 C 173.950 250.364,171.070 246.396,169.200 243.806 C 163.996 236.597,162.840 235.200,162.085 235.200 C 161.702 235.200,160.404 234.840,159.200 234.400 C 156.528 233.423,155.832 233.386,156.159 234.237 " stroke="none" fill="#f9f205" fill-rule="evenodd"></path><path id="path3" d="M157.500 77.493 C 158.435 77.577,159.965 77.577,160.900 77.493 C 161.835 77.409,161.070 77.340,159.200 77.340 C 157.330 77.340,156.565 77.409,157.500 77.493 M286.200 88.000 C 287.059 88.880,287.852 89.600,287.962 89.600 C 288.072 89.600,287.459 88.880,286.600 88.000 C 285.741 87.120,284.948 86.400,284.838 86.400 C 284.728 86.400,285.341 87.120,286.200 88.000 M226.305 107.883 C 226.802 107.979,227.522 107.975,227.905 107.875 C 228.287 107.775,227.880 107.696,227.000 107.701 C 226.120 107.705,225.807 107.787,226.305 107.883 M67.731 141.400 C 67.733 142.940,67.805 143.521,67.892 142.691 C 67.979 141.861,67.977 140.601,67.889 139.891 C 67.800 139.181,67.729 139.860,67.731 141.400 M38.200 200.800 C 39.059 201.680,39.852 202.400,39.962 202.400 C 40.072 202.400,39.459 201.680,38.600 200.800 C 37.741 199.920,36.948 199.200,36.838 199.200 C 36.728 199.200,37.341 199.920,38.200 200.800 M354.797 257.191 C 355.405 258.946,356.118 261.871,356.382 263.691 C 357.532 271.619,359.215 273.873,363.186 272.804 C 369.557 271.088,368.059 265.281,359.399 258.124 C 353.277 253.064,353.375 253.084,354.797 257.191 M316.400 263.569 C 316.400 263.940,317.111 266.001,317.997 268.200 C 319.210 271.210,320.604 276.264,321.141 279.600 C 322.265 286.577,322.524 287.925,323.043 289.520 C 325.509 297.086,331.321 299.102,336.522 294.195 C 341.742 289.272,339.229 282.292,329.200 273.860 C 327.330 272.288,325.710 270.909,325.600 270.795 C 325.490 270.682,324.410 269.782,323.200 268.795 C 321.990 267.808,320.329 266.390,319.509 265.644 C 317.460 263.780,316.400 263.073,316.400 263.569 M260.100 296.800 C 260.226 297.350,260.908 299.420,261.616 301.400 C 262.325 303.380,263.049 305.540,263.226 306.200 C 264.134 309.590,264.740 312.550,265.189 315.800 C 266.620 326.156,270.102 330.567,275.773 329.207 C 285.668 326.833,284.331 316.032,272.996 306.782 C 268.489 303.104,267.377 302.186,267.200 301.995 C 267.090 301.876,265.830 300.794,264.400 299.590 C 262.970 298.385,261.710 297.310,261.600 297.200 C 260.345 295.945,259.876 295.820,260.100 296.800 M148.585 305.010 C 148.728 306.104,149.002 307.810,149.193 308.800 C 149.383 309.790,149.747 311.770,150.000 313.200 C 150.253 314.630,150.613 316.610,150.800 317.600 C 150.987 318.590,151.355 320.570,151.618 322.000 C 153.956 334.712,161.116 339.920,168.700 334.426 C 174.493 330.230,172.037 323.345,162.417 316.811 C 159.958 315.142,154.182 309.644,150.438 305.410 L 148.324 303.019 148.585 305.010 M188.000 316.023 C 188.000 316.255,188.168 317.200,188.373 318.123 C 188.716 319.666,188.966 321.012,190.058 327.200 C 191.333 334.421,192.583 337.756,194.872 340.045 C 197.702 342.875,201.841 342.856,204.841 340.000 C 208.840 336.194,206.954 331.394,199.458 326.304 C 196.868 324.545,191.688 319.595,189.825 317.100 C 188.721 315.621,188.000 315.196,188.000 316.023 M261.600 334.423 C 261.600 334.655,261.768 335.600,261.973 336.523 C 262.316 338.066,262.566 339.412,263.658 345.600 C 264.578 350.808,264.983 352.337,266.062 354.663 C 268.704 360.355,273.069 361.951,277.670 358.906 C 282.820 355.498,281.297 350.832,272.998 344.586 C 269.805 342.182,265.145 337.723,263.303 335.308 C 262.303 333.997,261.600 333.632,261.600 334.423 M156.000 351.023 C 156.000 351.145,156.168 352.000,156.373 352.923 C 156.578 353.845,156.946 355.770,157.191 357.200 C 157.664 359.961,158.065 362.193,158.845 366.400 C 160.411 374.852,165.236 379.178,170.467 376.818 C 177.573 373.612,176.612 368.409,167.682 361.743 C 164.403 359.295,159.690 354.777,157.831 352.300 C 156.831 350.968,156.000 350.388,156.000 351.023 " stroke="none" fill="#06aceb" fill-rule="evenodd"></path><path id="path4" d="M152.900 77.487 C 153.505 77.578,154.495 77.578,155.100 77.487 C 155.705 77.395,155.210 77.320,154.000 77.320 C 152.790 77.320,152.295 77.395,152.900 77.487 M163.100 77.482 C 163.595 77.578,164.405 77.578,164.900 77.482 C 165.395 77.387,164.990 77.309,164.000 77.309 C 163.010 77.309,162.605 77.387,163.100 77.482 M169.200 78.000 C 169.750 78.176,170.650 78.317,171.200 78.313 C 172.098 78.306,172.078 78.274,171.000 78.000 C 169.308 77.569,167.856 77.569,169.200 78.000 M142.800 78.800 C 141.996 79.057,141.957 79.123,142.600 79.132 C 143.040 79.138,143.760 78.989,144.200 78.800 C 145.219 78.362,144.168 78.362,142.800 78.800 M258.515 78.696 C 259.788 78.776,261.768 78.775,262.915 78.694 C 264.062 78.614,263.020 78.549,260.600 78.550 C 258.180 78.551,257.242 78.616,258.515 78.696 M139.400 79.600 C 138.896 79.817,138.822 79.944,139.200 79.944 C 139.530 79.944,140.160 79.789,140.600 79.600 C 141.104 79.383,141.178 79.256,140.800 79.256 C 140.470 79.256,139.840 79.411,139.400 79.600 M177.000 79.600 C 177.440 79.789,178.070 79.944,178.400 79.944 C 178.778 79.944,178.704 79.817,178.200 79.600 C 177.760 79.411,177.130 79.256,176.800 79.256 C 176.422 79.256,176.496 79.383,177.000 79.600 M247.500 81.029 C 245.949 81.870,246.125 82.161,247.700 81.359 C 249.208 80.593,249.475 80.394,248.967 80.416 C 248.765 80.425,248.105 80.701,247.500 81.029 M244.522 83.029 L 243.400 84.058 244.700 83.154 C 245.415 82.657,246.000 82.193,246.000 82.125 C 246.000 81.809,245.558 82.080,244.522 83.029 M187.600 83.400 C 188.150 83.714,188.780 83.972,189.000 83.972 C 189.220 83.972,188.950 83.714,188.400 83.400 C 187.850 83.086,187.220 82.828,187.000 82.828 C 186.780 82.828,187.050 83.086,187.600 83.400 M195.400 87.495 C 195.620 87.727,197.240 89.026,199.000 90.381 C 200.760 91.736,201.459 92.159,200.554 91.322 C 199.025 89.908,194.510 86.555,195.400 87.495 M116.600 90.235 L 115.400 91.266 116.700 90.406 C 117.415 89.933,118.000 89.468,118.000 89.373 C 118.000 89.073,117.831 89.178,116.600 90.235 M289.437 91.700 C 290.249 92.965,290.988 94.000,291.079 94.000 C 291.347 94.000,289.900 91.682,288.890 90.494 C 288.379 89.892,288.625 90.435,289.437 91.700 M305.111 92.293 C 306.051 92.378,307.491 92.377,308.311 92.291 C 309.130 92.205,308.360 92.136,306.600 92.137 C 304.840 92.139,304.170 92.209,305.111 92.293 M109.939 95.900 C 107.081 98.854,102.657 104.800,103.318 104.800 C 103.408 104.800,104.347 103.495,105.404 101.900 C 106.460 100.305,108.678 97.605,110.332 95.900 C 111.986 94.195,113.249 92.800,113.139 92.800 C 113.029 92.800,111.589 94.195,109.939 95.900 M298.600 93.578 C 297.720 93.995,297.180 94.336,297.400 94.338 C 297.946 94.342,301.102 92.864,300.600 92.840 C 300.380 92.830,299.480 93.162,298.600 93.578 M205.600 96.525 C 205.600 96.594,206.185 97.179,206.900 97.825 L 208.200 99.000 207.025 97.700 C 205.930 96.488,205.600 96.216,205.600 96.525 M322.400 97.725 C 322.400 97.824,323.061 98.409,323.868 99.025 C 324.676 99.641,325.211 99.941,325.056 99.691 C 324.740 99.179,322.400 97.447,322.400 97.725 M326.887 101.405 C 327.704 102.260,328.438 102.879,328.517 102.780 C 328.597 102.681,327.928 101.981,327.031 101.225 L 325.400 99.850 326.887 101.405 M234.795 105.882 C 234.688 107.467,234.744 108.619,234.921 108.441 C 235.097 108.264,235.185 106.967,235.116 105.559 L 234.991 103.000 234.795 105.882 M220.515 107.496 C 221.788 107.576,223.768 107.575,224.915 107.494 C 226.062 107.414,225.020 107.349,222.600 107.350 C 220.180 107.351,219.242 107.416,220.515 107.496 M228.900 107.876 C 229.285 107.976,229.915 107.976,230.300 107.876 C 230.685 107.775,230.370 107.693,229.600 107.693 C 228.830 107.693,228.515 107.775,228.900 107.876 M100.229 111.829 C 100.081 112.415,100.038 112.972,100.132 113.066 C 100.227 113.160,100.424 112.758,100.571 112.171 C 100.719 111.585,100.762 111.028,100.668 110.934 C 100.573 110.840,100.376 111.242,100.229 111.829 M334.583 114.486 C 334.592 116.180,334.722 117.259,334.872 116.883 C 335.218 116.014,335.203 113.696,334.843 112.402 C 334.680 111.816,334.572 112.676,334.583 114.486 M99.232 116.672 C 99.211 117.245,98.891 117.604,98.300 117.718 L 97.400 117.891 98.313 117.946 C 99.260 118.002,99.827 117.203,99.469 116.313 C 99.356 116.031,99.249 116.192,99.232 116.672 M91.891 117.489 C 92.601 117.577,93.861 117.579,94.691 117.492 C 95.521 117.405,94.940 117.333,93.400 117.331 C 91.860 117.329,91.181 117.400,91.891 117.489 M350.000 122.911 C 350.000 122.987,350.585 123.478,351.300 124.001 C 352.104 124.590,352.384 124.687,352.033 124.255 C 351.500 123.599,350.000 122.607,350.000 122.911 M74.171 125.300 C 71.902 127.785,71.062 128.800,71.270 128.800 C 71.386 128.800,72.419 127.720,73.567 126.400 C 75.762 123.877,76.203 123.073,74.171 125.300 M70.200 130.400 C 69.859 131.060,69.669 131.600,69.779 131.600 C 69.889 131.600,70.259 131.060,70.600 130.400 C 70.941 129.740,71.131 129.200,71.021 129.200 C 70.911 129.200,70.541 129.740,70.200 130.400 M359.234 133.800 C 359.234 134.020,359.578 134.830,360.000 135.600 C 360.422 136.370,360.766 136.820,360.766 136.600 C 360.766 136.380,360.422 135.570,360.000 134.800 C 359.578 134.030,359.234 133.580,359.234 133.800 M362.480 143.400 C 362.480 143.840,362.624 144.650,362.800 145.200 C 363.054 145.992,363.120 146.033,363.120 145.400 C 363.120 144.960,362.976 144.150,362.800 143.600 C 362.546 142.808,362.480 142.767,362.480 143.400 M68.056 147.200 C 68.056 147.530,68.211 148.160,68.400 148.600 C 68.617 149.104,68.744 149.178,68.744 148.800 C 68.744 148.470,68.589 147.840,68.400 147.400 C 68.183 146.896,68.056 146.822,68.056 147.200 M363.324 150.200 C 363.326 151.520,363.401 152.012,363.490 151.293 C 363.579 150.574,363.577 149.494,363.486 148.893 C 363.395 148.292,363.322 148.880,363.324 150.200 M69.044 150.600 C 69.373 152.071,69.602 152.390,69.594 151.367 C 69.591 150.945,69.405 150.330,69.182 150.000 C 68.885 149.562,68.848 149.724,69.044 150.600 M361.001 159.306 C 358.092 164.230,352.049 167.625,345.101 168.237 C 341.569 168.548,341.165 168.788,340.436 171.000 C 337.573 179.694,330.710 188.883,323.564 193.594 C 316.897 197.988,309.468 200.205,296.000 201.817 C 290.581 202.466,274.283 203.131,269.869 202.882 C 266.460 202.691,265.449 202.937,264.918 204.090 C 264.687 204.591,263.306 206.656,261.849 208.681 C 258.712 213.040,258.807 212.402,260.877 215.163 C 261.800 216.393,263.205 218.300,264.000 219.400 C 264.795 220.500,266.200 222.435,267.123 223.700 C 268.045 224.965,269.555 227.035,270.477 228.300 C 272.239 230.716,275.265 234.859,275.517 235.200 C 275.599 235.310,281.268 235.490,288.115 235.600 L 300.565 235.800 301.256 238.400 C 301.904 240.842,302.389 242.634,303.774 247.700 C 304.090 248.855,304.641 250.880,305.000 252.200 C 305.359 253.520,305.910 255.545,306.226 256.700 C 306.542 257.855,307.058 259.745,307.374 260.900 C 307.690 262.055,308.230 264.035,308.574 265.300 C 308.918 266.565,309.470 268.590,309.800 269.800 C 310.130 271.010,310.670 272.990,311.000 274.200 C 311.330 275.410,311.870 277.390,312.200 278.600 C 312.530 279.810,313.070 281.790,313.400 283.000 C 313.730 284.210,314.270 286.190,314.600 287.400 C 314.930 288.610,315.470 290.590,315.800 291.800 C 316.130 293.010,316.670 294.990,317.000 296.200 C 317.330 297.410,317.870 299.390,318.200 300.600 C 318.530 301.810,319.070 303.790,319.400 305.000 C 319.730 306.210,320.270 308.190,320.600 309.400 C 320.930 310.610,321.470 312.590,321.800 313.800 C 322.130 315.010,322.687 317.035,323.039 318.300 C 323.390 319.565,323.817 321.230,323.989 322.000 C 324.160 322.770,324.432 323.715,324.593 324.100 C 325.179 325.501,324.170 324.758,323.506 323.300 C 323.130 322.475,322.169 320.630,321.371 319.200 C 320.016 316.773,319.225 315.304,314.803 307.000 C 313.866 305.240,312.492 302.675,311.750 301.300 C 311.007 299.925,309.770 297.630,309.000 296.200 C 308.230 294.770,306.970 292.430,306.200 291.000 C 305.430 289.570,304.193 287.275,303.450 285.900 C 302.708 284.525,301.336 281.960,300.402 280.200 C 299.468 278.440,298.207 276.100,297.599 275.000 C 296.992 273.900,295.636 271.380,294.585 269.400 C 293.534 267.420,292.271 265.080,291.777 264.200 L 290.879 262.600 276.781 262.400 L 262.683 262.200 262.195 260.400 C 261.926 259.410,261.483 257.520,261.210 256.200 C 260.937 254.880,260.573 253.350,260.400 252.800 C 260.227 252.250,259.861 250.720,259.586 249.400 C 259.312 248.080,258.778 245.740,258.400 244.200 C 258.022 242.660,257.488 240.320,257.214 239.000 C 256.939 237.680,256.573 236.150,256.400 235.600 C 256.227 235.050,255.861 233.520,255.586 232.200 C 255.312 230.880,254.774 228.540,254.392 227.000 C 254.010 225.460,253.463 223.094,253.176 221.742 L 252.654 219.284 250.027 221.392 C 243.689 226.480,238.386 229.136,229.800 231.524 C 225.236 232.794,215.941 233.237,211.520 232.397 C 207.671 231.666,205.414 231.146,204.374 230.753 C 203.592 230.457,202.908 230.553,201.493 231.160 C 199.342 232.082,196.323 233.157,194.600 233.613 C 193.940 233.788,192.410 234.192,191.200 234.512 C 181.795 236.995,174.146 237.358,164.505 235.778 L 163.210 235.566 165.315 238.483 C 167.697 241.784,171.201 246.602,175.600 252.626 C 177.250 254.885,180.119 258.818,181.976 261.367 L 185.352 266.000 199.252 266.000 C 206.898 266.000,213.250 266.157,213.368 266.348 C 213.486 266.540,213.873 267.755,214.226 269.048 C 214.580 270.342,215.021 271.940,215.207 272.600 C 215.393 273.260,215.930 275.240,216.400 277.000 C 216.870 278.760,217.410 280.740,217.600 281.400 C 217.790 282.060,218.330 284.040,218.800 285.800 C 219.270 287.560,219.810 289.540,220.000 290.200 C 220.190 290.860,220.730 292.840,221.200 294.600 C 221.670 296.360,222.210 298.340,222.400 299.000 C 222.590 299.660,223.130 301.640,223.600 303.400 C 224.070 305.160,224.610 307.140,224.800 307.800 C 224.990 308.460,225.530 310.440,226.000 312.200 C 226.470 313.960,227.010 315.940,227.200 316.600 C 227.390 317.260,227.930 319.240,228.400 321.000 C 228.870 322.760,229.410 324.740,229.600 325.400 C 229.790 326.060,230.330 328.040,230.800 329.800 C 231.270 331.560,231.810 333.540,232.000 334.200 C 232.190 334.860,232.730 336.840,233.200 338.600 C 233.670 340.360,234.210 342.340,234.400 343.000 C 234.590 343.660,235.130 345.640,235.600 347.400 C 236.070 349.160,236.610 351.140,236.800 351.800 C 236.990 352.460,237.530 354.440,238.000 356.200 C 238.470 357.960,239.007 359.940,239.193 360.600 C 240.047 363.635,240.800 366.455,240.800 366.620 C 240.800 367.119,240.064 366.708,239.870 366.100 C 239.748 365.715,239.041 364.320,238.301 363.000 C 237.560 361.680,236.088 358.980,235.029 357.000 C 233.970 355.020,232.495 352.275,231.752 350.900 C 228.623 345.114,227.612 343.234,226.000 340.200 C 225.065 338.440,223.692 335.875,222.950 334.500 C 222.207 333.125,220.993 330.875,220.250 329.500 C 219.508 328.125,218.135 325.560,217.200 323.800 C 216.265 322.040,214.892 319.475,214.150 318.100 C 211.569 313.320,208.316 307.280,205.587 302.200 C 204.641 300.440,203.672 298.640,203.434 298.200 C 202.687 296.823,202.553 296.812,186.487 296.806 C 174.261 296.801,170.745 296.689,170.638 296.300 C 170.515 295.849,169.426 291.120,168.357 286.400 C 168.133 285.410,167.792 283.970,167.600 283.200 C 167.408 282.430,167.059 280.945,166.825 279.900 C 166.591 278.855,166.209 277.145,165.975 276.100 C 165.741 275.055,165.392 273.570,165.200 272.800 C 165.008 272.030,164.648 270.500,164.400 269.400 C 164.152 268.300,163.792 266.770,163.600 266.000 C 163.408 265.230,163.059 263.745,162.825 262.700 C 162.591 261.655,162.209 259.945,161.975 258.900 C 161.741 257.855,161.392 256.370,161.200 255.600 C 161.008 254.830,160.669 253.390,160.447 252.400 C 160.225 251.410,159.684 249.070,159.246 247.200 C 158.807 245.330,158.234 242.810,157.974 241.600 C 157.714 240.390,157.357 238.950,157.181 238.400 C 156.833 237.314,156.254 234.500,156.216 233.706 C 156.202 233.434,154.933 232.559,153.396 231.761 C 149.210 229.589,145.579 226.737,141.689 222.565 L 138.196 218.818 133.172 220.548 C 130.409 221.500,127.710 222.373,127.174 222.490 C 121.808 223.654,119.547 224.022,115.551 224.383 C 103.224 225.494,91.027 222.043,82.749 215.100 C 80.097 212.876,79.929 212.800,77.673 212.800 C 65.063 212.800,51.282 209.487,43.600 204.609 C 40.196 202.448,39.560 202.136,40.902 203.288 C 47.123 208.625,59.727 212.320,74.185 213.045 L 79.770 213.325 82.684 215.641 C 95.984 226.210,116.037 227.956,135.517 220.243 L 138.035 219.246 139.117 220.508 C 143.655 225.799,148.150 229.546,152.939 232.029 L 155.466 233.339 155.971 235.770 C 156.249 237.106,156.622 238.740,156.801 239.400 C 156.979 240.060,157.510 242.310,157.980 244.400 C 158.450 246.490,159.177 249.640,159.596 251.400 C 160.014 253.160,160.636 255.815,160.978 257.300 C 161.320 258.785,161.870 261.170,162.200 262.600 C 162.530 264.030,163.070 266.370,163.400 267.800 C 163.730 269.230,164.280 271.615,164.622 273.100 C 164.964 274.585,165.584 277.240,166.000 279.000 C 166.750 282.172,167.426 285.090,168.618 290.300 C 169.760 295.294,170.122 296.598,170.507 297.095 C 170.798 297.471,174.708 297.616,186.713 297.695 L 202.535 297.800 204.498 301.400 C 205.578 303.380,207.556 307.070,208.892 309.600 C 210.229 312.130,211.452 314.380,211.610 314.600 C 211.768 314.820,213.027 317.160,214.410 319.800 C 215.792 322.440,217.487 325.590,218.177 326.800 C 218.867 328.010,220.215 330.530,221.172 332.400 C 222.129 334.270,223.042 335.980,223.200 336.200 C 223.359 336.420,224.711 338.940,226.204 341.800 C 227.698 344.660,229.050 347.180,229.208 347.400 C 229.367 347.620,230.628 349.960,232.010 352.600 C 233.392 355.240,234.652 357.580,234.810 357.800 C 234.968 358.020,236.225 360.360,237.604 363.000 C 242.207 371.811,242.706 371.084,239.664 360.000 C 238.147 354.468,236.422 348.157,234.800 342.200 C 234.141 339.780,233.061 335.820,232.400 333.400 C 231.739 330.980,230.659 327.020,230.000 324.600 C 229.341 322.180,228.261 318.220,227.600 315.800 C 226.939 313.380,225.859 309.420,225.200 307.000 C 224.541 304.580,223.461 300.620,222.800 298.200 C 222.139 295.780,221.059 291.820,220.400 289.400 C 219.741 286.980,218.661 283.020,218.000 280.600 C 217.339 278.180,216.244 274.136,215.566 271.612 C 214.889 269.089,214.163 266.704,213.953 266.312 C 213.599 265.651,212.598 265.600,199.886 265.594 C 192.359 265.591,185.999 265.456,185.753 265.294 C 185.064 264.841,164.715 236.752,164.924 236.542 C 165.026 236.441,166.704 236.572,168.654 236.833 C 176.617 237.900,187.390 236.544,196.600 233.316 C 202.648 231.196,203.578 231.125,209.200 232.357 C 222.749 235.325,238.135 231.416,250.087 221.969 L 252.155 220.334 252.618 222.067 C 252.873 223.020,253.298 224.790,253.564 226.000 C 253.830 227.210,254.387 229.640,254.802 231.400 C 255.217 233.160,255.836 235.815,256.178 237.300 C 261.534 260.560,261.886 261.980,262.459 262.671 C 262.807 263.091,265.754 263.201,276.749 263.203 L 290.600 263.207 291.535 264.903 C 292.050 265.836,293.560 268.670,294.892 271.200 C 296.223 273.730,297.442 275.980,297.601 276.200 C 297.759 276.420,299.111 278.940,300.604 281.800 C 302.098 284.660,303.450 287.180,303.608 287.400 C 303.767 287.620,305.028 289.960,306.410 292.600 C 307.792 295.240,309.053 297.580,309.212 297.800 C 309.372 298.020,310.722 300.540,312.213 303.400 C 313.704 306.260,315.055 308.780,315.214 309.000 C 315.373 309.220,316.543 311.380,317.815 313.800 C 319.087 316.220,320.909 319.617,321.864 321.349 C 322.819 323.080,323.600 324.628,323.600 324.787 C 323.600 324.946,323.961 325.403,324.402 325.802 C 325.986 327.235,325.913 326.615,323.427 317.500 C 323.082 316.235,322.530 314.210,322.200 313.000 C 321.870 311.790,321.330 309.810,321.000 308.600 C 320.670 307.390,320.130 305.410,319.800 304.200 C 319.470 302.990,318.930 301.010,318.600 299.800 C 318.270 298.590,317.730 296.610,317.400 295.400 C 317.070 294.190,316.530 292.210,316.200 291.000 C 315.870 289.790,315.330 287.810,315.000 286.600 C 314.670 285.390,314.130 283.410,313.800 282.200 C 313.470 280.990,312.930 279.010,312.600 277.800 C 312.270 276.590,311.730 274.610,311.400 273.400 C 311.070 272.190,310.530 270.210,310.200 269.000 C 309.870 267.790,309.330 265.810,309.000 264.600 C 308.670 263.390,308.118 261.365,307.774 260.100 C 306.977 257.172,306.105 253.974,305.374 251.300 C 305.058 250.145,304.530 248.210,304.200 247.000 C 303.870 245.790,303.330 243.810,303.000 242.600 C 302.670 241.390,302.123 239.375,301.785 238.123 C 300.823 234.559,301.823 234.803,288.051 234.778 L 275.800 234.755 267.709 223.570 L 259.618 212.385 261.356 210.092 C 262.311 208.832,263.764 206.747,264.585 205.459 L 266.077 203.119 269.338 203.286 C 288.013 204.245,310.839 201.047,320.200 196.160 C 329.376 191.370,337.671 181.401,340.803 171.400 C 341.535 169.063,341.872 168.801,344.149 168.794 C 350.762 168.775,358.888 164.457,361.380 159.638 C 362.270 157.917,361.975 157.658,361.001 159.306 M43.695 162.211 C 42.543 162.986,41.600 163.708,41.600 163.815 C 41.600 163.921,42.590 163.351,43.800 162.547 C 45.722 161.271,46.287 160.800,45.895 160.800 C 45.837 160.800,44.847 161.435,43.695 162.211 M38.388 166.700 L 35.800 169.400 38.500 166.812 C 39.985 165.388,41.200 164.173,41.200 164.112 C 41.200 163.817,40.793 164.192,38.388 166.700 M31.429 178.629 C 31.281 179.215,31.238 179.772,31.332 179.866 C 31.427 179.960,31.624 179.558,31.771 178.971 C 31.919 178.385,31.962 177.828,31.868 177.734 C 31.773 177.640,31.576 178.042,31.429 178.629 M305.596 211.067 C 305.590 212.260,312.107 240.154,312.520 240.700 C 312.793 241.062,314.591 241.200,319.022 241.200 L 325.146 241.200 325.915 242.300 C 326.338 242.905,327.734 245.380,329.018 247.800 C 330.302 250.220,333.478 256.146,336.076 260.968 C 338.674 265.791,340.800 269.886,340.800 270.068 C 340.800 270.251,340.980 270.400,341.200 270.400 C 342.076 270.400,331.648 229.490,330.471 228.312 C 330.313 228.153,327.669 227.973,324.596 227.912 L 319.008 227.800 312.744 219.213 C 306.544 210.714,305.604 209.642,305.596 211.067 M308.600 214.291 C 309.480 215.530,310.996 217.637,311.969 218.972 C 312.942 220.307,314.393 222.300,315.193 223.400 C 315.993 224.500,317.141 226.075,317.744 226.900 L 318.841 228.400 324.430 228.400 L 330.020 228.400 330.454 229.500 C 330.693 230.105,331.240 231.950,331.672 233.600 C 332.103 235.250,332.610 237.140,332.800 237.800 C 332.990 238.460,333.530 240.440,334.000 242.200 C 334.470 243.960,335.010 245.940,335.200 246.600 C 335.390 247.260,335.930 249.240,336.400 251.000 C 336.870 252.760,337.410 254.740,337.600 255.400 C 337.790 256.060,338.330 258.040,338.800 259.800 C 339.270 261.560,339.838 263.630,340.061 264.400 C 341.132 268.100,340.802 269.335,339.500 266.500 C 339.121 265.675,338.019 263.537,337.050 261.749 C 335.356 258.620,333.403 255.002,330.547 249.700 C 326.835 242.810,326.255 241.763,325.893 241.300 C 325.610 240.938,323.767 240.800,319.203 240.800 L 312.904 240.800 312.427 238.900 C 311.412 234.861,311.238 234.144,310.847 232.400 C 310.625 231.410,310.064 228.980,309.600 227.000 C 309.136 225.020,308.575 222.590,308.353 221.600 C 307.872 219.454,307.417 217.587,306.832 215.354 C 305.818 211.486,306.371 211.153,308.600 214.291 M108.261 237.117 C 108.113 237.372,109.619 244.079,113.825 261.900 L 115.265 268.000 121.796 268.000 L 128.328 268.000 130.020 271.100 C 132.047 274.811,134.120 278.670,139.208 288.200 C 142.725 294.787,143.306 295.814,143.837 296.376 C 145.024 297.633,144.603 295.784,139.098 275.564 L 133.390 254.600 127.479 254.400 C 123.661 254.271,121.468 254.037,121.284 253.740 C 117.811 248.127,108.655 236.441,108.261 237.117 M111.000 240.291 C 111.880 241.530,113.365 243.592,114.300 244.872 C 115.235 246.152,116.816 248.325,117.813 249.700 C 118.811 251.075,120.078 252.785,120.630 253.500 L 121.634 254.800 126.968 254.800 C 132.851 254.800,132.992 254.855,133.640 257.389 C 133.838 258.165,134.168 259.385,134.372 260.100 C 134.577 260.815,135.130 262.840,135.600 264.600 C 136.070 266.360,136.610 268.340,136.800 269.000 C 136.990 269.660,137.530 271.640,138.000 273.400 C 138.470 275.160,139.010 277.140,139.200 277.800 C 139.390 278.460,139.930 280.440,140.400 282.200 C 140.870 283.960,141.410 285.940,141.600 286.600 C 141.790 287.260,142.299 289.182,142.731 290.872 C 143.164 292.561,143.637 294.136,143.783 294.372 C 143.928 294.607,143.900 294.800,143.720 294.800 C 143.327 294.800,143.042 294.348,140.813 290.200 C 139.868 288.440,138.510 285.920,137.797 284.600 C 137.084 283.280,135.736 280.760,134.802 279.000 C 133.868 277.240,132.613 274.900,132.013 273.800 C 131.414 272.700,130.417 270.855,129.798 269.700 L 128.673 267.600 122.613 267.600 C 115.630 267.600,115.561 267.571,114.852 264.400 C 113.847 259.901,113.541 258.566,113.200 257.200 C 113.008 256.430,112.669 254.990,112.447 254.000 C 112.225 253.010,111.684 250.670,111.246 248.800 C 110.807 246.930,110.236 244.410,109.979 243.200 C 109.721 241.990,109.350 240.587,109.155 240.081 C 108.100 237.350,108.983 237.451,111.000 240.291 " stroke="none" fill="#5c8889" fill-rule="evenodd"></path></g></svg>