<svg xmlns="http://www.w3.org/2000/svg" width="512" height="512" viewBox="0 0 512 512" version="1.1"><path d="M 203 116.983 C 144.754 117.546, 147.174 117.283, 142.390 123.556 C 134.369 134.071, 134.040 133.513, 184.500 195.122 C 207.600 223.326, 228.214 248.547, 230.310 251.169 L 234.119 255.936 189.292 310.718 C 132.797 379.758, 134.336 377.259, 141.834 387.773 C 147.356 395.514, 139.231 395, 256.122 395 L 360.324 395 364.566 392.514 C 375.979 385.826, 377.517 341.807, 366.670 332.284 C 353.745 320.935, 339.071 331.266, 339.022 351.750 L 339 361 313.664 361 C 299.730 361, 266.655 361.298, 240.164 361.663 C 209.483 362.086, 192 361.977, 192 361.363 C 192 360.833, 209.746 338.707, 231.435 312.194 C 272.411 262.102, 272.340 262.202, 272.241 255.235 C 272.151 248.941, 264.006 238.353, 197.246 157.750 L 190.827 150 264.914 150 L 339 150 339 159.788 C 339 179.748, 352.507 190.017, 365.923 180.258 C 376.483 172.576, 376.435 127.393, 365.858 119.694 C 360.514 115.804, 347.446 115.586, 203 116.983" stroke="none" fill="#fbf2df" fill-rule="evenodd"/><path d="M 224.708 1.464 C 14.878 27.999, -74.774 282.125, 71.982 434.374 C 194.365 561.336, 408.650 527.757, 485.971 369.500 C 499.690 341.420, 511 301.285, 511 280.681 C 511 278.721, 511.450 276.840, 512 276.500 C 512.615 276.120, 513 267.803, 513 254.882 C 513 241.137, 512.655 234.095, 512 234.500 C 511.403 234.869, 511 233.636, 511 231.437 C 511 224.708, 507.959 206.673, 504.490 192.834 C 473.349 68.578, 351.741 -14.601, 224.708 1.464 M 203 116.983 C 144.754 117.546, 147.174 117.283, 142.390 123.556 C 134.369 134.071, 134.040 133.513, 184.500 195.122 C 207.600 223.326, 228.214 248.547, 230.310 251.169 L 234.119 255.936 189.292 310.718 C 132.797 379.758, 134.336 377.259, 141.834 387.773 C 147.356 395.514, 139.231 395, 256.122 395 L 360.324 395 364.566 392.514 C 375.979 385.826, 377.517 341.807, 366.670 332.284 C 353.745 320.935, 339.071 331.266, 339.022 351.750 L 339 361 313.664 361 C 299.730 361, 266.655 361.298, 240.164 361.663 C 209.483 362.086, 192 361.977, 192 361.363 C 192 360.833, 209.746 338.707, 231.435 312.194 C 272.411 262.102, 272.340 262.202, 272.241 255.235 C 272.151 248.941, 264.006 238.353, 197.246 157.750 L 190.827 150 264.914 150 L 339 150 339 159.788 C 339 179.748, 352.507 190.017, 365.923 180.258 C 376.483 172.576, 376.435 127.393, 365.858 119.694 C 360.514 115.804, 347.446 115.586, 203 116.983 M 0.425 256 C 0.425 267.825, 0.569 272.663, 0.746 266.750 C 0.923 260.837, 0.923 251.162, 0.746 245.250 C 0.569 239.338, 0.425 244.175, 0.425 256" stroke="none" fill="#e33f13" fill-rule="evenodd"/></svg>